<svg width="136" height="45" viewBox="0 0 136 45" fill="none" xmlns="http://www.w3.org/2000/svg">
<g clip-path="url(#clip0_9_3049)">
<path d="M46.0225 44.7H89.9742V0.5H46.0225V44.7ZM69.5368 28.1556H71.043V17.0444H69.598V13.318H76.2552L83.1606 22.7904V17.0444H81.6544V13.318H88.4374V17.0444H86.9924V31.882H81.8448L75.0618 21.8418V28.1556H76.6938V31.882H69.5368V28.1556ZM47.5593 28.1556H49.0655L52.7069 17.041H50.2589V13.3146H64.7632V17.041H62.441L65.8954 28.1556H67.4662V31.882H57.9836V28.1556H59.7414L59.0512 25.8198H53.9649L53.2101 28.1556H54.9678V31.882H47.5593V28.1556Z" fill="white"/>
<path d="M56.542 16.9805L54.7842 22.8523H58.4256L56.542 16.9805Z" fill="white"/>
<path d="M0 44.7H43.9517V0.5H0V44.7ZM20.7536 28.1556H22.576V17.0444H20.7536V13.318H33.9388C37.706 13.318 40.9087 15.086 40.9087 18.4962C40.9087 20.8966 39.1509 22.158 37.9576 22.6646L40.3443 28.159H41.9763V31.8854H35.258L32.3068 24.1198H29.2298V28.1624H31.0522V31.8888H20.7536V28.1624V28.1556ZM1.9754 28.1556H3.859V17.0444H1.9754V13.318H18.802V18.9382H15.1606V17.0444H10.5128V20.5804H14.0284V24.3068H10.5128V28.159H12.7092V31.8854H1.9754V28.159V28.1556Z" fill="white"/>
<path d="M92.0483 0.5V44.7H136V0.5H92.0483ZM115.532 31.882H105.988V28.1556H107.559L102.034 22.6V28.1556H103.666V31.882H93.9353V28.1556H95.8801V17.0444H93.9353V13.318H103.731V17.0444H102.034V22.2226L107.559 17.0444H106.179V13.318H114.468V17.0444H113.149L107.75 21.7806L114.216 28.159H115.536V31.8854L115.532 31.882ZM134.116 18.9994H130.162V17.041H125.705V20.7674H129.346V24.1776H125.705V28.1556H130.162V25.694H134.116V31.882H117.603V28.1556H119.551V17.0444H117.603V13.318H134.116V18.9994Z" fill="white"/>
<path d="M33.813 19.1897C33.813 17.7991 32.6196 17.1055 30.549 17.1055H29.2944V21.2739H30.549C32.6196 21.2739 33.813 20.5803 33.813 19.1897Z" fill="white"/>
</g>
<defs>
<clipPath id="clip0_9_3049">
<rect width="136" height="44.2" fill="white" transform="translate(0 0.5)"/>
</clipPath>
</defs>
</svg>
