<svg width="48" height="48" viewBox="0 0 48 48" fill="none" xmlns="http://www.w3.org/2000/svg">
<g clip-path="url(#clip0_306_3)">
<path d="M0 0H48V48L46.7562 46.7562V1.1977H1.1977V46.7562H46.7562L48 48H0V0Z" fill="white"/>
<path d="M4.83789 31.0478V23.6104H9.84948V24.9068H6.41036V26.679H9.59161V27.9755H6.41036V29.7513H9.86395V31.0478H4.83789ZM12.3634 25.4697L13.3875 27.4199L14.437 25.4697H16.024L14.408 28.2587L16.0676 31.0478H14.4879L13.3875 29.1194L12.3053 31.0478H10.7074L12.3634 28.2587L10.7655 25.4697H12.3634ZM16.9428 33.1396V25.4697H18.468V26.4066H18.537C18.6048 26.2565 18.7029 26.104 18.8312 25.9491C18.9619 25.7917 19.1314 25.661 19.3397 25.5569C19.5503 25.4503 19.8117 25.397 20.1241 25.397C20.5308 25.397 20.9061 25.5035 21.2498 25.7166C21.5936 25.9273 21.8685 26.2457 22.0742 26.6718C22.28 27.0954 22.3829 27.6269 22.3829 28.266C22.3829 28.8882 22.2824 29.4136 22.0815 29.8421C21.8829 30.2682 21.6118 30.5915 21.2679 30.8117C20.9266 31.0296 20.5441 31.1385 20.1205 31.1385C19.8202 31.1385 19.5648 31.089 19.3541 30.9896C19.1459 30.8904 18.9753 30.7658 18.8422 30.6156C18.7089 30.4631 18.6073 30.3093 18.537 30.1544H18.4898V33.1396H16.9428ZM18.4571 28.2587C18.4571 28.5904 18.5032 28.8798 18.5952 29.1267C18.6872 29.3736 18.8203 29.5661 18.9946 29.7041C19.1689 29.8397 19.3807 29.9075 19.6301 29.9075C19.8819 29.9075 20.095 29.8385 20.2693 29.7005C20.4437 29.5601 20.5756 29.3664 20.6651 29.1194C20.7572 28.8701 20.8032 28.5832 20.8032 28.2587C20.8032 27.9367 20.7584 27.6535 20.6688 27.409C20.5792 27.1644 20.4473 26.9731 20.2729 26.8352C20.0986 26.6972 19.8843 26.6282 19.6301 26.6282C19.3784 26.6282 19.1653 26.6947 18.991 26.8279C18.8191 26.961 18.6872 27.1499 18.5952 27.3944C18.5032 27.6389 18.4571 27.927 18.4571 28.2587ZM25.9345 31.1568C25.3704 31.1568 24.8826 31.0369 24.4711 30.7972C24.0619 30.5551 23.7459 30.2186 23.5232 29.7876C23.3004 29.3542 23.1891 28.8518 23.1891 28.2805C23.1891 27.7044 23.3004 27.2008 23.5232 26.7698C23.7459 26.3364 24.0619 25.9999 24.4711 25.7602C24.8826 25.5181 25.3704 25.397 25.9345 25.397C26.4987 25.397 26.9853 25.5181 27.3944 25.7602C27.806 25.9999 28.1232 26.3364 28.3459 26.7698C28.5686 27.2008 28.68 27.7044 28.68 28.2805C28.68 28.8518 28.5686 29.3542 28.3459 29.7876C28.1232 30.2186 27.806 30.5551 27.3944 30.7972C26.9853 31.0369 26.4987 31.1568 25.9345 31.1568ZM25.9418 29.9583C26.1984 29.9583 26.4127 29.8856 26.5846 29.7404C26.7565 29.5928 26.8861 29.3918 26.9732 29.1375C27.0628 28.8833 27.1075 28.5941 27.1075 28.2697C27.1075 27.9452 27.0628 27.6559 26.9732 27.4017C26.8861 27.1474 26.7565 26.9465 26.5846 26.7988C26.4127 26.6511 26.1984 26.5773 25.9418 26.5773C25.6827 26.5773 25.4649 26.6511 25.2882 26.7988C25.1138 26.9465 24.9819 27.1474 24.8923 27.4017C24.8051 27.6559 24.7615 27.9452 24.7615 28.2697C24.7615 28.5941 24.8051 28.8833 24.8923 29.1375C24.9819 29.3918 25.1138 29.5928 25.2882 29.7404C25.4649 29.8856 25.6827 29.9583 25.9418 29.9583Z" fill="white"/>
<path d="M10.6049 39.1592H8.90034C8.87761 38.9842 8.83102 38.8263 8.76057 38.6854C8.69011 38.5444 8.59693 38.424 8.48102 38.324C8.36511 38.224 8.22761 38.1479 8.06852 38.0956C7.9117 38.041 7.73784 38.0138 7.54693 38.0138C7.20829 38.0138 6.91625 38.0967 6.67079 38.2626C6.42761 38.4285 6.24011 38.6683 6.10829 38.9819C5.97875 39.2956 5.91397 39.6751 5.91397 40.1206C5.91397 40.5842 5.97988 40.9729 6.1117 41.2865C6.24579 41.5979 6.43329 41.8331 6.6742 41.9922C6.91738 42.149 7.20488 42.2274 7.5367 42.2274C7.72307 42.2274 7.89238 42.2035 8.04466 42.1558C8.1992 42.1081 8.33443 42.0388 8.45034 41.9479C8.56852 41.8547 8.66511 41.7422 8.74011 41.6104C8.81738 41.4763 8.87079 41.3251 8.90034 41.1569L10.6049 41.1672C10.5753 41.4763 10.4856 41.7808 10.3356 42.0808C10.1878 42.3808 9.98443 42.6547 9.72534 42.9024C9.46625 43.1479 9.15034 43.3433 8.77761 43.4888C8.40716 43.6342 7.98216 43.7069 7.50261 43.7069C6.87079 43.7069 6.30488 43.5683 5.80488 43.291C5.30716 43.0115 4.91397 42.6047 4.62534 42.0706C4.3367 41.5365 4.19238 40.8865 4.19238 40.1206C4.19238 39.3524 4.33897 38.7013 4.63216 38.1672C4.92534 37.6331 5.32193 37.2274 5.82193 36.9501C6.32193 36.6729 6.88216 36.5342 7.50261 36.5342C7.92534 36.5342 8.31625 36.5933 8.67534 36.7115C9.03443 36.8274 9.35034 36.9979 9.62307 37.2229C9.89579 37.4456 10.1174 37.7194 10.2878 38.0444C10.4583 38.3694 10.564 38.741 10.6049 39.1592Z" fill="white"/>
<path d="M14.0148 43.7103C13.4648 43.7103 12.9921 43.5979 12.5966 43.3729C12.2035 43.1456 11.9001 42.8297 11.6864 42.4251C11.4751 42.0183 11.3694 41.5467 11.3694 41.0104C11.3694 40.4717 11.4751 40.0001 11.6864 39.5956C11.9001 39.1888 12.2035 38.8729 12.5966 38.6479C12.9921 38.4206 13.4648 38.3069 14.0148 38.3069C14.5648 38.3069 15.0364 38.4206 15.4296 38.6479C15.8251 38.8729 16.1285 39.1888 16.3398 39.5956C16.5535 40.0001 16.6603 40.4717 16.6603 41.0104C16.6603 41.5467 16.5535 42.0183 16.3398 42.4251C16.1285 42.8297 15.8251 43.1456 15.4296 43.3729C15.0364 43.5979 14.5648 43.7103 14.0148 43.7103ZM14.0251 42.4524C14.2251 42.4524 14.3944 42.391 14.533 42.2683C14.6716 42.1456 14.7773 41.9751 14.8501 41.7569C14.9251 41.5388 14.9626 41.2865 14.9626 41.0001C14.9626 40.7092 14.9251 40.4547 14.8501 40.2365C14.7773 40.0183 14.6716 39.8479 14.533 39.7251C14.3944 39.6024 14.2251 39.541 14.0251 39.541C13.8182 39.541 13.6432 39.6024 13.5001 39.7251C13.3591 39.8479 13.2512 40.0183 13.1762 40.2365C13.1035 40.4547 13.0671 40.7092 13.0671 41.0001C13.0671 41.2865 13.1035 41.5388 13.1762 41.7569C13.2512 41.9751 13.3591 42.1456 13.5001 42.2683C13.6432 42.391 13.8182 42.4524 14.0251 42.4524Z" fill="white"/>
<path d="M17.5143 43.6115V38.3751H19.1336V39.3297H19.1881C19.2836 38.9842 19.4393 38.7274 19.6552 38.5592C19.8711 38.3888 20.1222 38.3035 20.4086 38.3035C20.4859 38.3035 20.5654 38.3092 20.6472 38.3206C20.729 38.3297 20.8052 38.3444 20.8756 38.3649V39.8138C20.7961 39.7865 20.6915 39.7649 20.562 39.749C20.4347 39.7331 20.3211 39.7251 20.2211 39.7251C20.0234 39.7251 19.8449 39.7694 19.6859 39.8581C19.529 39.9444 19.4052 40.066 19.3143 40.2229C19.2256 40.3774 19.1813 40.5592 19.1813 40.7683V43.6115H17.5143Z" fill="white"/>
<path d="M23.2219 40.6251V43.6115H21.5549V38.3751H23.1401V39.3365H23.1981C23.314 39.016 23.5117 38.7649 23.7913 38.5831C24.0708 38.399 24.4037 38.3069 24.7901 38.3069C25.1583 38.3069 25.4776 38.3899 25.7481 38.5558C26.0208 38.7194 26.2322 38.949 26.3822 39.2444C26.5344 39.5376 26.6094 39.8808 26.6072 40.274V43.6115H24.9401V40.6013C24.9424 40.3104 24.8685 40.0831 24.7185 39.9194C24.5708 39.7558 24.3651 39.674 24.1015 39.674C23.9265 39.674 23.7719 39.7126 23.6378 39.7899C23.506 39.8649 23.4037 39.9729 23.331 40.1138C23.2606 40.2547 23.2242 40.4251 23.2219 40.6251Z" fill="white"/>
<path d="M27.6393 43.6115V38.3751H29.3063V43.6115H27.6393ZM28.4745 37.7649C28.2404 37.7649 28.0393 37.6876 27.8711 37.5331C27.7029 37.3763 27.6188 37.1876 27.6188 36.9672C27.6188 36.749 27.7029 36.5626 27.8711 36.4081C28.0393 36.2513 28.2404 36.1729 28.4745 36.1729C28.7109 36.1729 28.912 36.2513 29.0779 36.4081C29.2461 36.5626 29.3302 36.749 29.3302 36.9672C29.3302 37.1876 29.2461 37.3763 29.0779 37.5331C28.912 37.6876 28.7109 37.7649 28.4745 37.7649Z" fill="white"/>
<path d="M32.8117 43.7103C32.2594 43.7103 31.7856 43.5967 31.3901 43.3694C30.9969 43.1422 30.6947 42.8263 30.4833 42.4217C30.2719 42.0149 30.1663 41.5444 30.1663 41.0104C30.1663 40.474 30.2719 40.0035 30.4833 39.599C30.6969 39.1922 31.0003 38.8751 31.3935 38.6479C31.789 38.4206 32.2606 38.3069 32.8083 38.3069C33.2924 38.3069 33.714 38.3944 34.0731 38.5694C34.4344 38.7444 34.7163 38.9922 34.9185 39.3126C35.1231 39.6308 35.231 40.0047 35.2424 40.4342H33.6844C33.6526 40.166 33.5617 39.9558 33.4117 39.8035C33.264 39.6513 33.0708 39.5751 32.8322 39.5751C32.639 39.5751 32.4697 39.6297 32.3242 39.7388C32.1788 39.8456 32.0651 40.0047 31.9833 40.216C31.9038 40.4251 31.864 40.6842 31.864 40.9933C31.864 41.3024 31.9038 41.5638 31.9833 41.7774C32.0651 41.9888 32.1788 42.149 32.3242 42.2581C32.4697 42.3649 32.639 42.4183 32.8322 42.4183C32.9867 42.4183 33.1231 42.3854 33.2413 42.3194C33.3617 42.2535 33.4606 42.1569 33.5378 42.0297C33.6151 41.9001 33.664 41.7433 33.6844 41.5592H35.2424C35.2265 41.991 35.1185 42.3683 34.9185 42.691C34.7208 43.0138 34.4424 43.2649 34.0833 43.4444C33.7265 43.6217 33.3026 43.7103 32.8117 43.7103Z" fill="white"/>
<path d="M36.0955 43.6115V38.3751H37.7626V43.6115H36.0955ZM36.9307 37.7649C36.6966 37.7649 36.4955 37.6876 36.3273 37.5331C36.1591 37.3763 36.0751 37.1876 36.0751 36.9672C36.0751 36.749 36.1591 36.5626 36.3273 36.4081C36.4955 36.2513 36.6966 36.1729 36.9307 36.1729C37.1671 36.1729 37.3682 36.2513 37.5341 36.4081C37.7023 36.5626 37.7864 36.749 37.7864 36.9672C37.7864 37.1876 37.7023 37.3763 37.5341 37.5331C37.3682 37.6876 37.1671 37.7649 36.9307 37.7649Z" fill="white"/>
</g>
<defs>
<clipPath id="clip0_306_3">
<rect width="48" height="48" fill="white"/>
</clipPath>
</defs>
</svg>
