<svg width="48" height="48" viewBox="0 0 48 48" fill="none" xmlns="http://www.w3.org/2000/svg">
<g clip-path="url(#clip0_306_11)">
<path d="M0 0H48V48L46.7562 46.7562V1.1977H1.1977V46.7562H46.7562L48 48H0V0Z" fill="#004AC8"/>
<path d="M4.83789 31.0478V23.6104H9.84948V24.9068H6.41036V26.679H9.59161V27.9755H6.41036V29.7513H9.86395V31.0478H4.83789ZM12.3634 25.4697L13.3875 27.4199L14.437 25.4697H16.024L14.408 28.2587L16.0676 31.0478H14.4879L13.3875 29.1194L12.3053 31.0478H10.7074L12.3634 28.2587L10.7655 25.4697H12.3634ZM16.9428 33.1396V25.4697H18.468V26.4066H18.537C18.6048 26.2565 18.7029 26.104 18.8312 25.9491C18.9619 25.7917 19.1314 25.661 19.3397 25.5569C19.5503 25.4503 19.8117 25.397 20.1241 25.397C20.5308 25.397 20.9061 25.5035 21.2498 25.7166C21.5936 25.9272 21.8685 26.2457 22.0742 26.6718C22.28 27.0954 22.3829 27.6269 22.3829 28.266C22.3829 28.8882 22.2824 29.4136 22.0815 29.8421C21.8829 30.2682 21.6118 30.5914 21.268 30.8117C20.9266 31.0296 20.5441 31.1385 20.1205 31.1385C19.8202 31.1385 19.5648 31.089 19.3541 30.9896C19.1459 30.8904 18.9753 30.7658 18.8422 30.6156C18.7089 30.4631 18.6073 30.3093 18.537 30.1544H18.4898V33.1396H16.9428ZM18.4571 28.2587C18.4571 28.5904 18.5032 28.8798 18.5952 29.1267C18.6872 29.3736 18.8203 29.5661 18.9946 29.704C19.1689 29.8397 19.3808 29.9075 19.6301 29.9075C19.8819 29.9075 20.095 29.8385 20.2693 29.7005C20.4437 29.56 20.5756 29.3664 20.6651 29.1194C20.7572 28.8701 20.8032 28.5832 20.8032 28.2587C20.8032 27.9367 20.7584 27.6535 20.6688 27.409C20.5792 27.1644 20.4473 26.9731 20.2729 26.8352C20.0986 26.6972 19.8843 26.6282 19.6301 26.6282C19.3784 26.6282 19.1653 26.6947 18.991 26.8279C18.8191 26.961 18.6872 27.1499 18.5952 27.3944C18.5032 27.6389 18.4571 27.927 18.4571 28.2587ZM25.9345 31.1568C25.3704 31.1568 24.8826 31.0369 24.4711 30.7972C24.0619 30.5551 23.7459 30.2186 23.5232 29.7876C23.3004 29.3542 23.1891 28.8518 23.1891 28.2805C23.1891 27.7044 23.3004 27.2008 23.5232 26.7698C23.7459 26.3364 24.0619 25.9999 24.4711 25.7602C24.8826 25.5181 25.3704 25.397 25.9345 25.397C26.4987 25.397 26.9853 25.5181 27.3944 25.7602C27.806 25.9999 28.1232 26.3364 28.3459 26.7698C28.5686 27.2008 28.68 27.7044 28.68 28.2805C28.68 28.8518 28.5686 29.3542 28.3459 29.7876C28.1232 30.2186 27.806 30.5551 27.3944 30.7972C26.9853 31.0369 26.4987 31.1568 25.9345 31.1568ZM25.9418 29.9583C26.1984 29.9583 26.4127 29.8856 26.5846 29.7404C26.7565 29.5928 26.8861 29.3918 26.9732 29.1375C27.0628 28.8833 27.1075 28.5941 27.1075 28.2697C27.1075 27.9452 27.0628 27.6559 26.9732 27.4017C26.8861 27.1474 26.7565 26.9465 26.5846 26.7988C26.4127 26.6511 26.1984 26.5773 25.9418 26.5773C25.6828 26.5773 25.4649 26.6511 25.2882 26.7988C25.1138 26.9465 24.9819 27.1474 24.8923 27.4017C24.8051 27.6559 24.7615 27.9452 24.7615 28.2697C24.7615 28.5941 24.8051 28.8833 24.8923 29.1375C24.9819 29.3918 25.1138 29.5928 25.2882 29.7404C25.4649 29.8856 25.6828 29.9583 25.9418 29.9583Z" fill="#004AC8"/>
<path d="M5.47509 43.7621H3.79004L6.35755 36.3247H8.38397L10.9478 43.7621H9.26278L7.39981 38.0242H7.34171L5.47509 43.7621ZM5.36976 40.8387H9.34993V42.0662H5.36976V40.8387ZM11.7117 43.7621V38.1841H13.2116V39.1573H13.2696C13.3713 38.8111 13.5421 38.5497 13.7817 38.3729C14.0214 38.1938 14.2974 38.1041 14.6097 38.1041C14.6871 38.1041 14.7707 38.109 14.8603 38.1187C14.9499 38.1283 15.0286 38.1417 15.0963 38.1587V39.5313C15.0237 39.5096 14.9233 39.4902 14.7949 39.4733C14.6666 39.4563 14.5491 39.4478 14.4426 39.4478C14.2151 39.4478 14.0117 39.4975 13.8325 39.5967C13.6558 39.6935 13.5154 39.8292 13.4113 40.0035C13.3096 40.1778 13.2588 40.3787 13.2588 40.6063V43.7621H11.7117ZM15.7939 43.7621V38.1841H17.2938V39.1573H17.3518C17.4535 38.8111 17.6243 38.5497 17.8639 38.3729C18.1036 38.1938 18.3796 38.1041 18.6919 38.1041C18.7694 38.1041 18.8529 38.109 18.9425 38.1187C19.0321 38.1283 19.1108 38.1417 19.1785 38.1587V39.5313C19.1059 39.5096 19.0054 39.4902 18.8771 39.4733C18.7488 39.4563 18.6313 39.4478 18.5248 39.4478C18.2973 39.4478 18.0939 39.4975 17.9148 39.5967C17.738 39.6935 17.5976 39.8292 17.4935 40.0035C17.3918 40.1778 17.341 40.3787 17.341 40.6063V43.7621H15.7939ZM22.1586 43.8711C21.5848 43.8711 21.0909 43.7548 20.6769 43.5224C20.2653 43.2876 19.9482 42.9559 19.7254 42.5274C19.5027 42.0964 19.3913 41.5868 19.3913 40.9985C19.3913 40.4247 19.5027 39.9211 19.7254 39.4877C19.9482 39.0544 20.2617 38.7167 20.666 38.4746C21.0727 38.2325 21.5497 38.1114 22.0968 38.1114C22.4648 38.1114 22.8074 38.1707 23.1245 38.2894C23.4442 38.4056 23.7226 38.5811 23.9598 38.8159C24.1995 39.0508 24.3859 39.3461 24.5191 39.702C24.6523 40.0555 24.7188 40.4695 24.7188 40.944V41.3689H20.0087V40.4102H23.2626C23.2626 40.1875 23.2141 39.9901 23.1173 39.8182C23.0204 39.6464 22.8861 39.512 22.7142 39.4151C22.5447 39.3159 22.3474 39.2662 22.1223 39.2662C21.8874 39.2662 21.6792 39.3207 21.4976 39.4297C21.3184 39.5362 21.178 39.6803 21.0764 39.8618C20.9747 40.041 20.9226 40.2407 20.9202 40.461V41.3725C20.9202 41.6486 20.971 41.887 21.0727 42.0879C21.1768 42.289 21.3233 42.4438 21.5122 42.5528C21.7009 42.6617 21.9249 42.7163 22.184 42.7163C22.3559 42.7163 22.5133 42.692 22.6561 42.6436C22.799 42.5952 22.9212 42.5225 23.0228 42.4257C23.1245 42.3288 23.202 42.2103 23.2553 42.0698L24.6862 42.1642C24.6135 42.508 24.4646 42.8082 24.2394 43.0649C24.0167 43.3191 23.7286 43.5176 23.3751 43.6604C23.0241 43.8008 22.6186 43.8711 22.1586 43.8711ZM27.6816 43.8529C27.2579 43.8529 26.8742 43.744 26.5304 43.5261C26.189 43.3058 25.9179 42.9825 25.7169 42.5564C25.5184 42.1279 25.4192 41.6026 25.4192 40.9803C25.4192 40.3412 25.5221 39.8097 25.7278 39.3861C25.9336 38.96 26.2071 38.6416 26.5486 38.431C26.8923 38.2179 27.2688 38.1114 27.678 38.1114C27.9902 38.1114 28.2505 38.1646 28.4587 38.2712C28.6694 38.3753 28.8389 38.5061 28.9672 38.6634C29.0979 38.8183 29.1971 38.9709 29.265 39.121H29.3121V36.3247H30.8556V43.7621H29.3304V42.8687H29.265C29.1924 43.0237 29.0894 43.1775 28.9563 43.3299C28.8255 43.4801 28.6549 43.6048 28.4443 43.704C28.236 43.8033 27.9818 43.8529 27.6816 43.8529ZM28.1718 42.6218C28.4212 42.6218 28.6318 42.554 28.8038 42.4184C28.9781 42.2805 29.1112 42.0879 29.2032 41.841C29.2977 41.5941 29.3448 41.3047 29.3448 40.9731C29.3448 40.6414 29.2989 40.3533 29.2068 40.1088C29.1149 39.8643 28.9817 39.6754 28.8073 39.5423C28.633 39.4091 28.4212 39.3425 28.1718 39.3425C27.9176 39.3425 27.7033 39.4115 27.529 39.5495C27.3547 39.6875 27.2228 39.8787 27.1332 40.1233C27.0437 40.3679 26.9988 40.6511 26.9988 40.9731C26.9988 41.2975 27.0437 41.5844 27.1332 41.8337C27.2252 42.0807 27.3572 42.2744 27.529 42.4148C27.7033 42.5528 27.9176 42.6218 28.1718 42.6218ZM34.5456 43.8711C33.9815 43.8711 33.4937 43.7513 33.082 43.5115C32.6729 43.2694 32.3569 42.9329 32.1342 42.502C31.9115 42.0686 31.8001 41.5662 31.8001 40.9949C31.8001 40.4187 31.9115 39.9151 32.1342 39.4841C32.3569 39.0508 32.6729 38.7143 33.082 38.4746C33.4937 38.2325 33.9815 38.1114 34.5456 38.1114C35.1097 38.1114 35.5963 38.2325 36.0055 38.4746C36.417 38.7143 36.7342 39.0508 36.9569 39.4841C37.1797 39.9151 37.2911 40.4187 37.2911 40.9949C37.2911 41.5662 37.1797 42.0686 36.9569 42.502C36.7342 42.9329 36.417 43.2694 36.0055 43.5115C35.5963 43.7513 35.1097 43.8711 34.5456 43.8711ZM34.5529 42.6727C34.8095 42.6727 35.0238 42.6 35.1957 42.4548C35.3675 42.3071 35.497 42.1062 35.5842 41.8519C35.6738 41.5977 35.7186 41.3084 35.7186 40.984C35.7186 40.6595 35.6738 40.3702 35.5842 40.1161C35.497 39.8618 35.3675 39.6608 35.1957 39.5132C35.0238 39.3655 34.8095 39.2917 34.5529 39.2917C34.2938 39.2917 34.0759 39.3655 33.8991 39.5132C33.7248 39.6608 33.5929 39.8618 33.5033 40.1161C33.4162 40.3702 33.3726 40.6595 33.3726 40.984C33.3726 41.3084 33.4162 41.5977 33.5033 41.8519C33.5929 42.1062 33.7248 42.3071 33.8991 42.4548C34.0759 42.6 34.2938 42.6727 34.5529 42.6727Z" fill="#004AC8"/>
</g>
<defs>
<clipPath id="clip0_306_11">
<rect width="48" height="48" fill="white"/>
</clipPath>
</defs>
</svg>
