<svg width="50" height="50" viewBox="0 0 50 50" fill="none" xmlns="http://www.w3.org/2000/svg">
<path d="M2 48V2H48V48H2Z" stroke="white" stroke-width="2.5"/>
<path d="M4.66051 31.0002V22.2729H10.7457V23.986H6.76989V25.7758H10.4347V27.4931H6.76989V29.2872H10.7457V31.0002H4.66051Z" fill="white"/>
<path d="M13.7795 24.4548L14.8576 26.611L15.9741 24.4548H18.0749L16.2468 27.7275L18.1431 31.0002H16.0593L14.8576 28.8269L13.6857 31.0002H11.5721L13.4727 27.7275L11.6659 24.4548H13.7795Z" fill="white"/>
<path d="M18.9663 33.4548V24.4548H21.0288V25.5755H21.0927C21.1779 25.3766 21.2987 25.1849 21.4549 25.0002C21.614 24.8156 21.8157 24.665 22.06 24.5485C22.3072 24.4292 22.6027 24.3695 22.9464 24.3695C23.401 24.3695 23.8257 24.4889 24.2206 24.7275C24.6183 24.9661 24.9393 25.334 25.1836 25.8312C25.4279 26.3283 25.5501 26.9619 25.5501 27.7318C25.5501 28.4732 25.4322 29.094 25.1964 29.594C24.9635 30.094 24.6481 30.469 24.2504 30.719C23.8555 30.969 23.4166 31.094 22.9336 31.094C22.6041 31.094 22.3186 31.04 22.0771 30.932C21.8356 30.8241 21.6325 30.682 21.4677 30.5059C21.3058 30.3298 21.1808 30.1408 21.0927 29.9391H21.0501V33.4548H18.9663ZM21.0075 27.7275C21.0075 28.0798 21.0544 28.3866 21.1481 28.6479C21.2447 28.9093 21.3825 29.1124 21.5615 29.2573C21.7433 29.3994 21.9606 29.4704 22.2135 29.4704C22.4691 29.4704 22.6865 29.3994 22.8654 29.2573C23.0444 29.1124 23.1794 28.9093 23.2703 28.6479C23.364 28.3866 23.4109 28.0798 23.4109 27.7275C23.4109 27.3752 23.364 27.0698 23.2703 26.8113C23.1794 26.5528 23.0444 26.3525 22.8654 26.2104C22.6893 26.0684 22.472 25.9974 22.2135 25.9974C21.9578 25.9974 21.7404 26.067 21.5615 26.2062C21.3825 26.3454 21.2447 26.5443 21.1481 26.8028C21.0544 27.0613 21.0075 27.3695 21.0075 27.7275Z" fill="white"/>
<path d="M29.6375 31.1238C28.95 31.1238 28.3591 30.9832 27.8647 30.7019C27.3733 30.4178 26.994 30.0229 26.727 29.5173C26.4628 29.0087 26.3307 28.4193 26.3307 27.7488C26.3307 27.0755 26.4628 26.486 26.727 25.9803C26.994 25.4718 27.3733 25.0769 27.8647 24.7957C28.3591 24.5116 28.95 24.3695 29.6375 24.3695C30.325 24.3695 30.9145 24.5116 31.4059 24.7957C31.9003 25.0769 32.2795 25.4718 32.5437 25.9803C32.8108 26.486 32.9443 27.0755 32.9443 27.7488C32.9443 28.4193 32.8108 29.0087 32.5437 29.5173C32.2795 30.0229 31.9003 30.4178 31.4059 30.7019C30.9145 30.9832 30.325 31.1238 29.6375 31.1238ZM29.6503 29.5514C29.9003 29.5514 30.1119 29.4747 30.2852 29.3212C30.4585 29.1678 30.5906 28.9548 30.6815 28.682C30.7753 28.4093 30.8221 28.094 30.8221 27.736C30.8221 27.3724 30.7753 27.0542 30.6815 26.7815C30.5906 26.5087 30.4585 26.2957 30.2852 26.1423C30.1119 25.9889 29.9003 25.9122 29.6503 25.9122C29.3917 25.9122 29.173 25.9889 28.994 26.1423C28.8179 26.2957 28.6829 26.5087 28.5892 26.7815C28.4983 27.0542 28.4528 27.3724 28.4528 27.736C28.4528 28.094 28.4983 28.4093 28.5892 28.682C28.6829 28.9548 28.8179 29.1678 28.994 29.3212C29.173 29.4747 29.3917 29.5514 29.6503 29.5514Z" fill="white"/>
<path d="M6.5483 45.0002H4.28125L7.22585 36.273H10.0341L12.9787 45.0002H10.7116L8.66193 38.4718H8.59375L6.5483 45.0002ZM6.24574 41.5656H10.9844V43.1678H6.24574V41.5656Z" fill="white"/>
<path d="M13.8583 45.0002V38.4548H15.8825V39.6479H15.9507C16.07 39.2161 16.2646 38.8951 16.5345 38.6849C16.8043 38.4718 17.1183 38.3653 17.4762 38.3653C17.5728 38.3653 17.6722 38.3724 17.7745 38.3866C17.8768 38.3979 17.972 38.4164 18.06 38.442V40.2531C17.9606 40.219 17.8299 40.192 17.668 40.1721C17.5089 40.1522 17.3668 40.1423 17.2418 40.1423C16.9947 40.1423 16.7717 40.1977 16.5728 40.3085C16.3768 40.4164 16.222 40.5684 16.1083 40.7644C15.9975 40.9576 15.9421 41.1849 15.9421 41.4462V45.0002H13.8583Z" fill="white"/>
<path d="M18.8491 45.0002V38.4548H20.8733V39.6479H20.9414C21.0608 39.2161 21.2554 38.8951 21.5252 38.6849C21.7951 38.4718 22.109 38.3653 22.467 38.3653C22.5636 38.3653 22.663 38.3724 22.7653 38.3866C22.8676 38.3979 22.9627 38.4164 23.0508 38.442V40.2531C22.9514 40.219 22.8207 40.192 22.6588 40.1721C22.4997 40.1522 22.3576 40.1423 22.2326 40.1423C21.9855 40.1423 21.7625 40.1977 21.5636 40.3085C21.3676 40.4164 21.2127 40.5684 21.0991 40.7644C20.9883 40.9576 20.9329 41.1849 20.9329 41.4462V45.0002H18.8491Z" fill="white"/>
<path d="M26.5597 45.1238C25.875 45.1238 25.2841 44.9889 24.787 44.719C24.2927 44.4462 23.912 44.0585 23.6449 43.5556C23.3807 43.0499 23.2486 42.4491 23.2486 41.7531C23.2486 41.0769 23.3821 40.486 23.6492 39.9803C23.9162 39.4718 24.2927 39.0769 24.7785 38.7957C25.2642 38.5116 25.8367 38.3695 26.4958 38.3695C26.9617 38.3695 27.3878 38.442 27.7742 38.5869C28.1606 38.7318 28.4944 38.9462 28.7756 39.2303C29.0569 39.5144 29.2756 39.8653 29.4319 40.2829C29.5881 40.6977 29.6662 41.1735 29.6662 41.7104V42.2303H23.9773V41.0201H27.7273C27.7245 40.7985 27.6719 40.6011 27.5696 40.4278C27.4674 40.2545 27.3267 40.1195 27.1478 40.0229C26.9716 39.9235 26.7685 39.8738 26.5384 39.8738C26.3054 39.8738 26.0966 39.9264 25.912 40.0315C25.7273 40.1337 25.581 40.2744 25.4731 40.4533C25.3651 40.6295 25.3083 40.8298 25.3026 41.0542V42.2857C25.3026 42.5528 25.3552 42.7872 25.4603 42.9889C25.5654 43.1877 25.7145 43.3426 25.9077 43.4533C26.1009 43.5641 26.331 43.6195 26.5981 43.6195C26.7827 43.6195 26.9503 43.594 27.1009 43.5428C27.2515 43.4917 27.3807 43.4164 27.4887 43.317C27.5966 43.2176 27.6776 43.0954 27.7316 42.9505L29.6449 43.0059C29.5654 43.4349 29.3907 43.8085 29.1208 44.1266C28.8537 44.442 28.5029 44.6877 28.0682 44.8639C27.6336 45.0372 27.1307 45.1238 26.5597 45.1238Z" fill="white"/>
<path d="M33.0611 45.094C32.5782 45.094 32.1393 44.969 31.7444 44.719C31.3495 44.469 31.0341 44.094 30.7984 43.594C30.5626 43.094 30.4447 42.4732 30.4447 41.7318C30.4447 40.9619 30.5668 40.3283 30.8111 39.8312C31.0555 39.334 31.3751 38.9661 31.7699 38.7275C32.1677 38.4889 32.5952 38.3695 33.0526 38.3695C33.3964 38.3695 33.6904 38.4292 33.9347 38.5485C34.179 38.665 34.3807 38.8156 34.5398 39.0002C34.6989 39.1849 34.8197 39.3766 34.902 39.5755H34.9447V36.273H37.0285V45.0002H34.966V43.9391H34.902C34.814 44.1408 34.689 44.3298 34.527 44.5059C34.3651 44.682 34.162 44.8241 33.9177 44.932C33.6762 45.04 33.3907 45.094 33.0611 45.094ZM33.7856 43.4704C34.0384 43.4704 34.2543 43.3994 34.4333 43.2573C34.6123 43.1124 34.7501 42.9093 34.8466 42.6479C34.9432 42.3866 34.9915 42.0798 34.9915 41.7275C34.9915 41.3695 34.9432 41.0613 34.8466 40.8028C34.7529 40.5443 34.6151 40.3454 34.4333 40.2062C34.2543 40.067 34.0384 39.9974 33.7856 39.9974C33.527 39.9974 33.3083 40.0684 33.1293 40.2104C32.9503 40.3525 32.814 40.5528 32.7202 40.8113C32.6293 41.0698 32.5839 41.3752 32.5839 41.7275C32.5839 42.0798 32.6307 42.3866 32.7245 42.6479C32.8182 42.9093 32.9532 43.1124 33.1293 43.2573C33.3083 43.3994 33.527 43.4704 33.7856 43.4704Z" fill="white"/>
<path d="M41.3417 45.1238C40.6542 45.1238 40.0633 44.9832 39.569 44.7019C39.0775 44.4178 38.6982 44.023 38.4312 43.5173C38.167 43.0087 38.0349 42.4193 38.0349 41.7488C38.0349 41.0755 38.167 40.486 38.4312 39.9803C38.6982 39.4718 39.0775 39.0769 39.569 38.7957C40.0633 38.5116 40.6542 38.3695 41.3417 38.3695C42.0292 38.3695 42.6187 38.5116 43.1102 38.7957C43.6045 39.0769 43.9837 39.4718 44.2479 39.9803C44.515 40.486 44.6485 41.0755 44.6485 41.7488C44.6485 42.4193 44.515 43.0087 44.2479 43.5173C43.9837 44.023 43.6045 44.4178 43.1102 44.7019C42.6187 44.9832 42.0292 45.1238 41.3417 45.1238ZM41.3545 43.5514C41.6045 43.5514 41.8161 43.4747 41.9894 43.3212C42.1627 43.1678 42.2948 42.9548 42.3857 42.682C42.4795 42.4093 42.5264 42.094 42.5264 41.736C42.5264 41.3724 42.4795 41.0542 42.3857 40.7815C42.2948 40.5087 42.1627 40.2957 41.9894 40.1423C41.8161 39.9889 41.6045 39.9122 41.3545 39.9122C41.096 39.9122 40.8772 39.9889 40.6982 40.1423C40.5221 40.2957 40.3871 40.5087 40.2934 40.7815C40.2025 41.0542 40.157 41.3724 40.157 41.736C40.157 42.094 40.2025 42.4093 40.2934 42.682C40.3871 42.9548 40.5221 43.1678 40.6982 43.3212C40.8772 43.4747 41.096 43.5514 41.3545 43.5514Z" fill="white"/>
<path d="M4.66051 31.0002V22.2729H10.7457V23.986H6.76989V25.7758H10.4347V27.4931H6.76989V29.2872H10.7457V31.0002H4.66051Z" stroke="white" stroke-width="0.5"/>
<path d="M13.7795 24.4548L14.8576 26.611L15.9741 24.4548H18.0749L16.2468 27.7275L18.1431 31.0002H16.0593L14.8576 28.8269L13.6857 31.0002H11.5721L13.4727 27.7275L11.6659 24.4548H13.7795Z" stroke="white" stroke-width="0.5"/>
<path d="M18.9663 33.4548V24.4548H21.0288V25.5755H21.0927C21.1779 25.3766 21.2987 25.1849 21.4549 25.0002C21.614 24.8156 21.8157 24.665 22.06 24.5485C22.3072 24.4292 22.6027 24.3695 22.9464 24.3695C23.401 24.3695 23.8257 24.4889 24.2206 24.7275C24.6183 24.9661 24.9393 25.334 25.1836 25.8312C25.4279 26.3283 25.5501 26.9619 25.5501 27.7318C25.5501 28.4732 25.4322 29.094 25.1964 29.594C24.9635 30.094 24.6481 30.469 24.2504 30.719C23.8555 30.969 23.4166 31.094 22.9336 31.094C22.6041 31.094 22.3186 31.04 22.0771 30.932C21.8356 30.8241 21.6325 30.682 21.4677 30.5059C21.3058 30.3298 21.1808 30.1408 21.0927 29.9391H21.0501V33.4548H18.9663ZM21.0075 27.7275C21.0075 28.0798 21.0544 28.3866 21.1481 28.6479C21.2447 28.9093 21.3825 29.1124 21.5615 29.2573C21.7433 29.3994 21.9606 29.4704 22.2135 29.4704C22.4691 29.4704 22.6865 29.3994 22.8654 29.2573C23.0444 29.1124 23.1794 28.9093 23.2703 28.6479C23.364 28.3866 23.4109 28.0798 23.4109 27.7275C23.4109 27.3752 23.364 27.0698 23.2703 26.8113C23.1794 26.5528 23.0444 26.3525 22.8654 26.2104C22.6893 26.0684 22.472 25.9974 22.2135 25.9974C21.9578 25.9974 21.7404 26.067 21.5615 26.2062C21.3825 26.3454 21.2447 26.5443 21.1481 26.8028C21.0544 27.0613 21.0075 27.3695 21.0075 27.7275Z" stroke="white" stroke-width="0.5"/>
<path d="M29.6375 31.1238C28.95 31.1238 28.3591 30.9832 27.8647 30.7019C27.3733 30.4178 26.994 30.0229 26.727 29.5173C26.4628 29.0087 26.3307 28.4193 26.3307 27.7488C26.3307 27.0755 26.4628 26.486 26.727 25.9803C26.994 25.4718 27.3733 25.0769 27.8647 24.7957C28.3591 24.5116 28.95 24.3695 29.6375 24.3695C30.325 24.3695 30.9145 24.5116 31.4059 24.7957C31.9003 25.0769 32.2795 25.4718 32.5437 25.9803C32.8108 26.486 32.9443 27.0755 32.9443 27.7488C32.9443 28.4193 32.8108 29.0087 32.5437 29.5173C32.2795 30.0229 31.9003 30.4178 31.4059 30.7019C30.9145 30.9832 30.325 31.1238 29.6375 31.1238ZM29.6503 29.5514C29.9003 29.5514 30.1119 29.4747 30.2852 29.3212C30.4585 29.1678 30.5906 28.9548 30.6815 28.682C30.7753 28.4093 30.8221 28.094 30.8221 27.736C30.8221 27.3724 30.7753 27.0542 30.6815 26.7815C30.5906 26.5087 30.4585 26.2957 30.2852 26.1423C30.1119 25.9889 29.9003 25.9122 29.6503 25.9122C29.3917 25.9122 29.173 25.9889 28.994 26.1423C28.8179 26.2957 28.6829 26.5087 28.5892 26.7815C28.4983 27.0542 28.4528 27.3724 28.4528 27.736C28.4528 28.094 28.4983 28.4093 28.5892 28.682C28.6829 28.9548 28.8179 29.1678 28.994 29.3212C29.173 29.4747 29.3917 29.5514 29.6503 29.5514Z" stroke="white" stroke-width="0.5"/>
<path d="M6.5483 45.0002H4.28125L7.22585 36.273H10.0341L12.9787 45.0002H10.7116L8.66193 38.4718H8.59375L6.5483 45.0002ZM6.24574 41.5656H10.9844V43.1678H6.24574V41.5656Z" stroke="white" stroke-width="0.5"/>
<path d="M13.8583 45.0002V38.4548H15.8825V39.6479H15.9507C16.07 39.2161 16.2646 38.8951 16.5345 38.6849C16.8043 38.4718 17.1183 38.3653 17.4762 38.3653C17.5728 38.3653 17.6722 38.3724 17.7745 38.3866C17.8768 38.3979 17.972 38.4164 18.06 38.442V40.2531C17.9606 40.219 17.8299 40.192 17.668 40.1721C17.5089 40.1522 17.3668 40.1423 17.2418 40.1423C16.9947 40.1423 16.7717 40.1977 16.5728 40.3085C16.3768 40.4164 16.222 40.5684 16.1083 40.7644C15.9975 40.9576 15.9421 41.1849 15.9421 41.4462V45.0002H13.8583Z" stroke="white" stroke-width="0.5"/>
<path d="M18.8491 45.0002V38.4548H20.8733V39.6479H20.9414C21.0608 39.2161 21.2554 38.8951 21.5252 38.6849C21.7951 38.4718 22.109 38.3653 22.467 38.3653C22.5636 38.3653 22.663 38.3724 22.7653 38.3866C22.8676 38.3979 22.9627 38.4164 23.0508 38.442V40.2531C22.9514 40.219 22.8207 40.192 22.6588 40.1721C22.4997 40.1522 22.3576 40.1423 22.2326 40.1423C21.9855 40.1423 21.7625 40.1977 21.5636 40.3085C21.3676 40.4164 21.2127 40.5684 21.0991 40.7644C20.9883 40.9576 20.9329 41.1849 20.9329 41.4462V45.0002H18.8491Z" stroke="white" stroke-width="0.5"/>
<path d="M26.5597 45.1238C25.875 45.1238 25.2841 44.9889 24.787 44.719C24.2927 44.4462 23.912 44.0585 23.6449 43.5556C23.3807 43.0499 23.2486 42.4491 23.2486 41.7531C23.2486 41.0769 23.3821 40.486 23.6492 39.9803C23.9162 39.4718 24.2927 39.0769 24.7785 38.7957C25.2642 38.5116 25.8367 38.3695 26.4958 38.3695C26.9617 38.3695 27.3878 38.442 27.7742 38.5869C28.1606 38.7318 28.4944 38.9462 28.7756 39.2303C29.0569 39.5144 29.2756 39.8653 29.4319 40.2829C29.5881 40.6977 29.6662 41.1735 29.6662 41.7104V42.2303H23.9773V41.0201H27.7273C27.7245 40.7985 27.6719 40.6011 27.5696 40.4278C27.4674 40.2545 27.3267 40.1195 27.1478 40.0229C26.9716 39.9235 26.7685 39.8738 26.5384 39.8738C26.3054 39.8738 26.0966 39.9264 25.912 40.0315C25.7273 40.1337 25.581 40.2744 25.4731 40.4533C25.3651 40.6295 25.3083 40.8298 25.3026 41.0542V42.2857C25.3026 42.5528 25.3552 42.7872 25.4603 42.9889C25.5654 43.1877 25.7145 43.3426 25.9077 43.4533C26.1009 43.5641 26.331 43.6195 26.5981 43.6195C26.7827 43.6195 26.9503 43.594 27.1009 43.5428C27.2515 43.4917 27.3807 43.4164 27.4887 43.317C27.5966 43.2176 27.6776 43.0954 27.7316 42.9505L29.6449 43.0059C29.5654 43.4349 29.3907 43.8085 29.1208 44.1266C28.8537 44.442 28.5029 44.6877 28.0682 44.8639C27.6336 45.0372 27.1307 45.1238 26.5597 45.1238Z" stroke="white" stroke-width="0.5"/>
<path d="M33.0611 45.094C32.5782 45.094 32.1393 44.969 31.7444 44.719C31.3495 44.469 31.0341 44.094 30.7984 43.594C30.5626 43.094 30.4447 42.4732 30.4447 41.7318C30.4447 40.9619 30.5668 40.3283 30.8111 39.8312C31.0555 39.334 31.3751 38.9661 31.7699 38.7275C32.1677 38.4889 32.5952 38.3695 33.0526 38.3695C33.3964 38.3695 33.6904 38.4292 33.9347 38.5485C34.179 38.665 34.3807 38.8156 34.5398 39.0002C34.6989 39.1849 34.8197 39.3766 34.902 39.5755H34.9447V36.273H37.0285V45.0002H34.966V43.9391H34.902C34.814 44.1408 34.689 44.3298 34.527 44.5059C34.3651 44.682 34.162 44.8241 33.9177 44.932C33.6762 45.04 33.3907 45.094 33.0611 45.094ZM33.7856 43.4704C34.0384 43.4704 34.2543 43.3994 34.4333 43.2573C34.6123 43.1124 34.7501 42.9093 34.8466 42.6479C34.9432 42.3866 34.9915 42.0798 34.9915 41.7275C34.9915 41.3695 34.9432 41.0613 34.8466 40.8028C34.7529 40.5443 34.6151 40.3454 34.4333 40.2062C34.2543 40.067 34.0384 39.9974 33.7856 39.9974C33.527 39.9974 33.3083 40.0684 33.1293 40.2104C32.9503 40.3525 32.814 40.5528 32.7202 40.8113C32.6293 41.0698 32.5839 41.3752 32.5839 41.7275C32.5839 42.0798 32.6307 42.3866 32.7245 42.6479C32.8182 42.9093 32.9532 43.1124 33.1293 43.2573C33.3083 43.3994 33.527 43.4704 33.7856 43.4704Z" stroke="white" stroke-width="0.5"/>
<path d="M41.3417 45.1238C40.6542 45.1238 40.0633 44.9832 39.569 44.7019C39.0775 44.4178 38.6982 44.023 38.4312 43.5173C38.167 43.0087 38.0349 42.4193 38.0349 41.7488C38.0349 41.0755 38.167 40.486 38.4312 39.9803C38.6982 39.4718 39.0775 39.0769 39.569 38.7957C40.0633 38.5116 40.6542 38.3695 41.3417 38.3695C42.0292 38.3695 42.6187 38.5116 43.1102 38.7957C43.6045 39.0769 43.9837 39.4718 44.2479 39.9803C44.515 40.486 44.6485 41.0755 44.6485 41.7488C44.6485 42.4193 44.515 43.0087 44.2479 43.5173C43.9837 44.023 43.6045 44.4178 43.1102 44.7019C42.6187 44.9832 42.0292 45.1238 41.3417 45.1238ZM41.3545 43.5514C41.6045 43.5514 41.8161 43.4747 41.9894 43.3212C42.1627 43.1678 42.2948 42.9548 42.3857 42.682C42.4795 42.4093 42.5264 42.094 42.5264 41.736C42.5264 41.3724 42.4795 41.0542 42.3857 40.7815C42.2948 40.5087 42.1627 40.2957 41.9894 40.1423C41.8161 39.9889 41.6045 39.9122 41.3545 39.9122C41.096 39.9122 40.8772 39.9889 40.6982 40.1423C40.5221 40.2957 40.3871 40.5087 40.2934 40.7815C40.2025 41.0542 40.157 41.3724 40.157 41.736C40.157 42.094 40.2025 42.4093 40.2934 42.682C40.3871 42.9548 40.5221 43.1678 40.6982 43.3212C40.8772 43.4747 41.096 43.5514 41.3545 43.5514Z" stroke="white" stroke-width="0.5"/>
</svg>
