<svg width="48" height="48" viewBox="0 0 48 48" fill="none" xmlns="http://www.w3.org/2000/svg">
<g clip-path="url(#clip0_306_11)">
<path d="M0 0H48V48L46.7562 46.7562V1.1977H1.1977V46.7562H46.7562L48 48H0V0Z" fill="white"/>
<path d="M4.83838 31.0478V23.6104H9.84997V24.9068H6.41085V26.679H9.5921V27.9755H6.41085V29.7513H9.86444V31.0478H4.83838ZM12.3638 25.4697L13.388 27.4199L14.4375 25.4697H16.0245L14.4085 28.2587L16.068 31.0478H14.4884L13.388 29.1194L12.3058 31.0478H10.7079L12.3638 28.2587L10.766 25.4697H12.3638ZM16.9433 33.1396V25.4697H18.4685V26.4066H18.5375C18.6053 26.2565 18.7034 26.104 18.8317 25.9491C18.9624 25.7917 19.1319 25.661 19.3401 25.5569C19.5508 25.4503 19.8122 25.397 20.1245 25.397C20.5313 25.397 20.9066 25.5035 21.2503 25.7166C21.5941 25.9272 21.8689 26.2457 22.0747 26.6718C22.2805 27.0954 22.3834 27.6269 22.3834 28.266C22.3834 28.8882 22.2829 29.4136 22.082 29.8421C21.8834 30.2682 21.6123 30.5914 21.2684 30.8117C20.9271 31.0296 20.5446 31.1385 20.121 31.1385C19.8207 31.1385 19.5653 31.089 19.3546 30.9896C19.1464 30.8904 18.9758 30.7658 18.8426 30.6156C18.7094 30.4631 18.6078 30.3093 18.5375 30.1544H18.4903V33.1396H16.9433ZM18.4576 28.2587C18.4576 28.5904 18.5037 28.8798 18.5956 29.1267C18.6877 29.3736 18.8208 29.5661 18.9951 29.704C19.1694 29.8397 19.3812 29.9075 19.6306 29.9075C19.8824 29.9075 20.0955 29.8385 20.2698 29.7005C20.4441 29.56 20.5761 29.3664 20.6656 29.1194C20.7577 28.8701 20.8036 28.5832 20.8036 28.2587C20.8036 27.9367 20.7589 27.6535 20.6693 27.409C20.5797 27.1644 20.4477 26.9731 20.2734 26.8352C20.0991 26.6972 19.8848 26.6282 19.6306 26.6282C19.3788 26.6282 19.1658 26.6947 18.9915 26.8279C18.8196 26.961 18.6877 27.1499 18.5956 27.3944C18.5037 27.6389 18.4576 27.927 18.4576 28.2587ZM25.935 31.1568C25.3709 31.1568 24.8831 31.0369 24.4715 30.7972C24.0624 30.5551 23.7464 30.2186 23.5237 29.7876C23.3009 29.3542 23.1895 28.8518 23.1895 28.2805C23.1895 27.7044 23.3009 27.2008 23.5237 26.7698C23.7464 26.3364 24.0624 25.9999 24.4715 25.7602C24.8831 25.5181 25.3709 25.397 25.935 25.397C26.4991 25.397 26.9858 25.5181 27.3949 25.7602C27.8065 25.9999 28.1237 26.3364 28.3464 26.7698C28.5691 27.2008 28.6805 27.7044 28.6805 28.2805C28.6805 28.8518 28.5691 29.3542 28.3464 29.7876C28.1237 30.2186 27.8065 30.5551 27.3949 30.7972C26.9858 31.0369 26.4991 31.1568 25.935 31.1568ZM25.9423 29.9583C26.1989 29.9583 26.4132 29.8856 26.5851 29.7404C26.757 29.5928 26.8866 29.3918 26.9737 29.1375C27.0633 28.8833 27.108 28.5941 27.108 28.2697C27.108 27.9452 27.0633 27.6559 26.9737 27.4017C26.8866 27.1474 26.757 26.9465 26.5851 26.7988C26.4132 26.6511 26.1989 26.5773 25.9423 26.5773C25.6832 26.5773 25.4654 26.6511 25.2886 26.7988C25.1143 26.9465 24.9824 27.1474 24.8928 27.4017C24.8056 27.6559 24.762 27.9452 24.762 28.2697C24.762 28.5941 24.8056 28.8833 24.8928 29.1375C24.9824 29.3918 25.1143 29.5928 25.2886 29.7404C25.4654 29.8856 25.6832 29.9583 25.9423 29.9583Z" fill="white"/>
<path d="M5.47558 43.7621H3.79053L6.35804 36.3247H8.38446L10.9483 43.7621H9.26326L7.4003 38.0242H7.3422L5.47558 43.7621ZM5.37025 40.8387H9.35042V42.0662H5.37025V40.8387ZM11.7122 43.7621V38.1841H13.2121V39.1573H13.2701C13.3718 38.8111 13.5425 38.5497 13.7822 38.3729C14.0219 38.1938 14.2979 38.1041 14.6102 38.1041C14.6876 38.1041 14.7712 38.109 14.8607 38.1187C14.9504 38.1283 15.0291 38.1417 15.0968 38.1587V39.5313C15.0242 39.5096 14.9238 39.4902 14.7954 39.4733C14.6671 39.4563 14.5496 39.4478 14.4431 39.4478C14.2156 39.4478 14.0122 39.4975 13.833 39.5967C13.6563 39.6935 13.5159 39.8292 13.4118 40.0035C13.3101 40.1778 13.2592 40.3787 13.2592 40.6063V43.7621H11.7122ZM15.7944 43.7621V38.1841H17.2943V39.1573H17.3523C17.454 38.8111 17.6248 38.5497 17.8644 38.3729C18.1041 38.1938 18.38 38.1041 18.6924 38.1041C18.7698 38.1041 18.8534 38.109 18.943 38.1187C19.0326 38.1283 19.1113 38.1417 19.179 38.1587V39.5313C19.1064 39.5096 19.0059 39.4902 18.8776 39.4733C18.7493 39.4563 18.6318 39.4478 18.5253 39.4478C18.2978 39.4478 18.0944 39.4975 17.9152 39.5967C17.7385 39.6935 17.5981 39.8292 17.494 40.0035C17.3923 40.1778 17.3415 40.3787 17.3415 40.6063V43.7621H15.7944ZM22.159 43.8711C21.5853 43.8711 21.0913 43.7548 20.6774 43.5224C20.2658 43.2876 19.9487 42.9559 19.7259 42.5274C19.5032 42.0964 19.3918 41.5868 19.3918 40.9985C19.3918 40.4247 19.5032 39.9211 19.7259 39.4877C19.9487 39.0544 20.2622 38.7167 20.6664 38.4746C21.0732 38.2325 21.5502 38.1114 22.0973 38.1114C22.4653 38.1114 22.8079 38.1707 23.125 38.2894C23.4446 38.4056 23.7231 38.5811 23.9603 38.8159C24.2 39.0508 24.3864 39.3461 24.5196 39.702C24.6527 40.0555 24.7193 40.4695 24.7193 40.944V41.3689H20.0092V40.4102H23.263C23.263 40.1875 23.2146 39.9901 23.1178 39.8182C23.0209 39.6464 22.8866 39.512 22.7147 39.4151C22.5452 39.3159 22.3479 39.2662 22.1227 39.2662C21.8879 39.2662 21.6797 39.3207 21.4981 39.4297C21.3189 39.5362 21.1785 39.6803 21.0769 39.8618C20.9752 40.041 20.9231 40.2407 20.9207 40.461V41.3725C20.9207 41.6486 20.9715 41.887 21.0732 42.0879C21.1773 42.289 21.3238 42.4438 21.5127 42.5528C21.7014 42.6617 21.9254 42.7163 22.1845 42.7163C22.3564 42.7163 22.5138 42.692 22.6566 42.6436C22.7994 42.5952 22.9217 42.5225 23.0233 42.4257C23.125 42.3288 23.2025 42.2103 23.2558 42.0698L24.6866 42.1642C24.614 42.508 24.4651 42.8082 24.2399 43.0649C24.0172 43.3191 23.7291 43.5176 23.3756 43.6604C23.0246 43.8008 22.6191 43.8711 22.159 43.8711ZM27.6821 43.8529C27.2584 43.8529 26.8747 43.744 26.5309 43.5261C26.1895 43.3058 25.9183 42.9825 25.7174 42.5564C25.5189 42.1279 25.4196 41.6026 25.4196 40.9803C25.4196 40.3412 25.5225 39.8097 25.7283 39.3861C25.9341 38.96 26.2076 38.6416 26.5491 38.431C26.8928 38.2179 27.2693 38.1114 27.6785 38.1114C27.9907 38.1114 28.251 38.1646 28.4592 38.2712C28.6699 38.3753 28.8393 38.5061 28.9677 38.6634C29.0984 38.8183 29.1976 38.9709 29.2654 39.121H29.3126V36.3247H30.8561V43.7621H29.3309V42.8687H29.2654C29.1928 43.0237 29.0899 43.1775 28.9568 43.3299C28.826 43.4801 28.6554 43.6048 28.4447 43.704C28.2365 43.8033 27.9822 43.8529 27.6821 43.8529ZM28.1723 42.6218C28.4217 42.6218 28.6323 42.554 28.8042 42.4184C28.9785 42.2805 29.1117 42.0879 29.2037 41.841C29.2982 41.5941 29.3453 41.3047 29.3453 40.9731C29.3453 40.6414 29.2993 40.3533 29.2073 40.1088C29.1154 39.8643 28.9821 39.6754 28.8078 39.5423C28.6335 39.409 28.4217 39.3425 28.1723 39.3425C27.9181 39.3425 27.7038 39.4115 27.5295 39.5496C27.3552 39.6875 27.2233 39.8787 27.1337 40.1233C27.0442 40.3679 26.9993 40.6511 26.9993 40.9731C26.9993 41.2975 27.0442 41.5844 27.1337 41.8337C27.2257 42.0807 27.3577 42.2744 27.5295 42.4148C27.7038 42.5528 27.9181 42.6218 28.1723 42.6218ZM34.5461 43.8711C33.982 43.8711 33.4941 43.7513 33.0825 43.5115C32.6734 43.2694 32.3574 42.9329 32.1347 42.502C31.912 42.0686 31.8006 41.5662 31.8006 40.9949C31.8006 40.4187 31.912 39.9151 32.1347 39.4841C32.3574 39.0508 32.6734 38.7143 33.0825 38.4746C33.4941 38.2325 33.982 38.1114 34.5461 38.1114C35.1102 38.1114 35.5968 38.2325 36.006 38.4746C36.4175 38.7143 36.7346 39.0508 36.9574 39.4841C37.1802 39.9151 37.2916 40.4187 37.2916 40.9949C37.2916 41.5662 37.1802 42.0686 36.9574 42.502C36.7346 42.9329 36.4175 43.2694 36.006 43.5115C35.5968 43.7513 35.1102 43.8711 34.5461 43.8711ZM34.5534 42.6727C34.8099 42.6727 35.0242 42.6 35.1962 42.4548C35.368 42.3071 35.4975 42.1062 35.5847 41.8519C35.6743 41.5977 35.7191 41.3084 35.7191 40.984C35.7191 40.6595 35.6743 40.3702 35.5847 40.1161C35.4975 39.8618 35.368 39.6608 35.1962 39.5132C35.0242 39.3655 34.8099 39.2917 34.5534 39.2917C34.2943 39.2917 34.0764 39.3655 33.8996 39.5132C33.7253 39.6608 33.5934 39.8618 33.5038 40.1161C33.4167 40.3702 33.3731 40.6595 33.3731 40.984C33.3731 41.3084 33.4167 41.5977 33.5038 41.8519C33.5934 42.1062 33.7253 42.3071 33.8996 42.4548C34.0764 42.6 34.2943 42.6727 34.5534 42.6727Z" fill="white"/>
</g>
<defs>
<clipPath id="clip0_306_11">
<rect width="48" height="48" fill="white"/>
</clipPath>
</defs>
</svg>
