<svg width="700" height="700" viewBox="0 0 700 700" fill="none" xmlns="http://www.w3.org/2000/svg">
<g clip-path="url(#clip0_36_1160)">
<path d="M0 0H700V700L681.862 681.862V17.4664H17.4664V681.862H681.862L700 700H0V0Z" fill="#004AC8"/>
<path d="M70.5596 452.783V344.32H143.645V363.227H93.4915V389.072H139.885V407.979H93.4915V433.876H143.856V452.783H70.5596ZM180.306 371.436L195.241 399.876L210.547 371.436H233.69L210.124 412.109L234.326 452.783H211.289L195.241 424.66L179.46 452.783H156.157L180.306 412.109L157.004 371.436H180.306ZM247.089 483.288V371.436H269.332V385.099H270.339C271.327 382.91 272.758 380.685 274.629 378.427C276.535 376.132 279.007 374.225 282.044 372.707C285.115 371.153 288.928 370.376 293.483 370.376C299.415 370.376 304.887 371.929 309.9 375.037C314.914 378.108 318.922 382.752 321.922 388.966C324.924 395.144 326.424 402.895 326.424 412.215C326.424 421.289 324.959 428.95 322.028 435.199C319.133 441.413 315.179 446.128 310.165 449.34C305.187 452.518 299.608 454.106 293.43 454.106C289.052 454.106 285.327 453.383 282.255 451.935C279.218 450.488 276.73 448.67 274.788 446.48C272.846 444.256 271.364 442.014 270.339 439.754H269.651V483.288H247.089ZM269.174 412.109C269.174 416.946 269.845 421.166 271.186 424.767C272.529 428.367 274.47 431.175 277.012 433.187C279.554 435.164 282.643 436.153 286.28 436.153C289.952 436.153 293.06 435.147 295.602 433.134C298.144 431.087 300.068 428.263 301.374 424.66C302.716 421.025 303.386 416.841 303.386 412.109C303.386 407.413 302.733 403.283 301.427 399.717C300.12 396.15 298.196 393.361 295.654 391.349C293.112 389.337 289.987 388.33 286.28 388.33C282.608 388.33 279.502 389.3 276.96 391.243C274.453 393.185 272.529 395.939 271.186 399.505C269.845 403.071 269.174 407.272 269.174 412.109ZM378.219 454.372C369.992 454.372 362.878 452.624 356.877 449.128C350.91 445.597 346.301 440.691 343.054 434.405C339.805 428.085 338.181 420.759 338.181 412.427C338.181 404.025 339.805 396.681 343.054 390.395C346.301 384.075 350.91 379.168 356.877 375.673C362.878 372.142 369.992 370.376 378.219 370.376C386.446 370.376 393.543 372.142 399.509 375.673C405.511 379.168 410.137 384.075 413.384 390.395C416.633 396.681 418.257 404.025 418.257 412.427C418.257 420.759 416.633 428.085 413.384 434.405C410.137 440.691 405.511 445.597 399.509 449.128C393.543 452.624 386.446 454.372 378.219 454.372ZM378.325 436.895C382.067 436.895 385.192 435.835 387.699 433.717C390.206 431.564 392.095 428.633 393.367 424.925C394.672 421.218 395.325 416.999 395.325 412.269C395.325 407.537 394.672 403.318 393.367 399.611C392.095 395.903 390.206 392.972 387.699 390.819C385.192 388.665 382.067 387.589 378.325 387.589C374.547 387.589 371.37 388.665 368.793 390.819C366.251 392.972 364.327 395.903 363.019 399.611C361.748 403.318 361.113 407.537 361.113 412.269C361.113 416.999 361.748 421.218 363.019 424.925C364.327 428.633 366.251 431.564 368.793 433.717C371.37 435.835 374.547 436.895 378.325 436.895Z" fill="#004AC8"/>
<path d="M79.8495 638.196H55.2759L92.7188 529.733H122.271L159.661 638.196H135.087L107.918 554.518H107.071L79.8495 638.196ZM78.3135 595.563H136.358V613.463H78.3135V595.563ZM170.8 638.196V556.849H192.673V571.041H193.52C195.003 565.994 197.493 562.181 200.987 559.602C204.483 556.99 208.509 555.683 213.062 555.683C214.192 555.683 215.411 555.754 216.717 555.895C218.024 556.036 219.171 556.231 220.159 556.478V576.496C219.1 576.179 217.636 575.897 215.764 575.65C213.892 575.403 212.179 575.279 210.626 575.279C207.308 575.279 204.342 576.003 201.729 577.45C199.152 578.862 197.104 580.84 195.586 583.382C194.103 585.924 193.361 588.854 193.361 592.173V638.196H170.8ZM230.332 638.196V556.849H252.206V571.041H253.052C254.535 565.994 257.025 562.181 260.52 559.602C264.016 556.99 268.04 555.683 272.594 555.683C273.724 555.683 274.943 555.754 276.249 555.895C277.556 556.036 278.703 556.231 279.691 556.478V576.496C278.632 576.179 277.166 575.897 275.296 575.65C273.425 575.403 271.712 575.279 270.158 575.279C266.84 575.279 263.875 576.003 261.261 577.45C258.684 578.862 256.637 580.84 255.118 583.382C253.635 585.924 252.894 588.854 252.894 592.173V638.196H230.332ZM323.15 639.785C314.782 639.785 307.58 638.09 301.543 634.7C295.54 631.275 290.915 626.438 287.666 620.189C284.419 613.904 282.795 606.473 282.795 597.893C282.795 589.525 284.419 582.181 287.666 575.861C290.915 569.542 295.487 564.616 301.383 561.086C307.315 557.555 314.27 555.789 322.25 555.789C327.616 555.789 332.613 556.654 337.237 558.385C341.898 560.079 345.959 562.639 349.418 566.063C352.914 569.488 355.632 573.796 357.575 578.986C359.517 584.141 360.487 590.178 360.487 597.099V603.295H291.798V589.314H339.25C339.25 586.065 338.543 583.187 337.131 580.68C335.719 578.174 333.76 576.214 331.253 574.802C328.781 573.355 325.904 572.631 322.621 572.631C319.196 572.631 316.16 573.425 313.511 575.014C310.898 576.568 308.851 578.669 307.369 581.316C305.885 583.929 305.126 586.842 305.091 590.054V603.348C305.091 607.373 305.832 610.85 307.315 613.78C308.833 616.712 310.969 618.971 313.724 620.56C316.477 622.148 319.743 622.944 323.521 622.944C326.028 622.944 328.323 622.59 330.405 621.883C332.489 621.178 334.272 620.118 335.754 618.706C337.237 617.294 338.367 615.565 339.144 613.516L360.011 614.893C358.951 619.907 356.78 624.284 353.496 628.028C350.249 631.735 346.047 634.63 340.892 636.712C335.773 638.76 329.859 639.785 323.15 639.785ZM403.694 639.519C397.515 639.519 391.919 637.931 386.907 634.754C381.927 631.541 377.973 626.826 375.043 620.612C372.147 614.363 370.7 606.702 370.7 597.628C370.7 588.308 372.201 580.557 375.201 574.379C378.203 568.165 382.192 563.521 387.171 560.45C392.184 557.342 397.674 555.789 403.642 555.789C408.195 555.789 411.991 556.566 415.027 558.12C418.1 559.639 420.571 561.545 422.443 563.84C424.349 566.098 425.796 568.323 426.785 570.512H427.473V529.733H449.982V638.196H427.739V625.167H426.785C425.726 627.427 424.226 629.669 422.284 631.893C420.376 634.083 417.888 635.901 414.817 637.348C411.78 638.796 408.072 639.519 403.694 639.519ZM410.844 621.566C414.481 621.566 417.552 620.578 420.059 618.6C422.601 616.588 424.543 613.78 425.885 610.18C427.262 606.579 427.95 602.359 427.95 597.522C427.95 592.685 427.28 588.484 425.937 584.918C424.596 581.352 422.654 578.598 420.112 576.656C417.57 574.713 414.481 573.743 410.844 573.743C407.137 573.743 404.012 574.75 401.47 576.762C398.928 578.774 397.004 581.563 395.698 585.13C394.392 588.696 393.737 592.826 393.737 597.522C393.737 602.254 394.392 606.438 395.698 610.073C397.038 613.676 398.964 616.5 401.47 618.547C404.012 620.56 407.137 621.566 410.844 621.566ZM503.794 639.785C495.568 639.785 488.454 638.037 482.451 634.541C476.484 631.01 471.877 626.104 468.628 619.818C465.38 613.498 463.756 606.172 463.756 597.84C463.756 589.438 465.38 582.094 468.628 575.808C471.877 569.488 476.484 564.582 482.451 561.086C488.454 557.555 495.568 555.789 503.794 555.789C512.021 555.789 519.118 557.555 525.085 561.086C531.086 564.582 535.711 569.488 538.96 575.808C542.209 582.094 543.833 589.438 543.833 597.84C543.833 606.172 542.209 613.498 538.96 619.818C535.711 626.104 531.086 631.01 525.085 634.541C519.118 638.037 512.021 639.785 503.794 639.785ZM503.901 622.308C507.642 622.308 510.768 621.248 513.275 619.13C515.78 616.977 517.67 614.046 518.941 610.338C520.248 606.631 520.901 602.412 520.901 597.682C520.901 592.95 520.248 588.731 518.941 585.024C517.67 581.316 515.78 578.385 513.275 576.232C510.768 574.078 507.642 573.002 503.901 573.002C500.122 573.002 496.945 574.078 494.367 576.232C491.825 578.385 489.901 581.316 488.595 585.024C487.324 588.731 486.688 592.95 486.688 597.682C486.688 602.412 487.324 606.631 488.595 610.338C489.901 614.046 491.825 616.977 494.367 619.13C496.945 621.248 500.122 622.308 503.901 622.308Z" fill="#004AC8"/>
<path d="M62.3255 131.818V158H57.5826V131.818H62.3255Z" fill="white"/>
<path d="M67.2569 158V138.364H71.6802V141.7H71.9103C72.3194 140.575 72.997 139.698 73.943 139.067C74.889 138.428 76.0183 138.108 77.3308 138.108C78.6603 138.108 79.7811 138.432 80.693 139.08C81.6135 139.719 82.2612 140.593 82.6362 141.7H82.8407C83.2754 140.61 84.0083 139.74 85.0396 139.093C86.0794 138.436 87.3109 138.108 88.7342 138.108C90.541 138.108 92.0154 138.679 93.1575 139.821C94.2995 140.963 94.8706 142.629 94.8706 144.82V158H90.2299V145.536C90.2299 144.317 89.9061 143.426 89.2584 142.864C88.6106 142.293 87.818 142.007 86.8805 142.007C85.764 142.007 84.8904 142.357 84.2598 143.056C83.6376 143.746 83.3265 144.645 83.3265 145.753V158H78.7882V145.344C78.7882 144.33 78.4814 143.52 77.8677 142.915C77.2626 142.31 76.47 142.007 75.4899 142.007C74.8251 142.007 74.22 142.178 73.6745 142.519C73.1291 142.851 72.6944 143.324 72.3706 143.938C72.0467 144.543 71.8848 145.25 71.8848 146.06V158H67.2569Z" fill="white"/>
<path d="M99.5655 158V138.364H103.989V141.7H104.219C104.628 140.575 105.306 139.698 106.252 139.067C107.198 138.428 108.327 138.108 109.639 138.108C110.969 138.108 112.09 138.432 113.002 139.08C113.922 139.719 114.57 140.593 114.945 141.7H115.149C115.584 140.61 116.317 139.74 117.348 139.093C118.388 138.436 119.619 138.108 121.043 138.108C122.85 138.108 124.324 138.679 125.466 139.821C126.608 140.963 127.179 142.629 127.179 144.82V158H122.539V145.536C122.539 144.317 122.215 143.426 121.567 142.864C120.919 142.293 120.127 142.007 119.189 142.007C118.073 142.007 117.199 142.357 116.568 143.056C115.946 143.746 115.635 144.645 115.635 145.753V158H111.097V145.344C111.097 144.33 110.79 143.52 110.176 142.915C109.571 142.31 108.779 142.007 107.798 142.007C107.134 142.007 106.529 142.178 105.983 142.519C105.438 142.851 105.003 143.324 104.679 143.938C104.355 144.543 104.193 145.25 104.193 146.06V158H99.5655Z" fill="white"/>
<path d="M137.525 158.396C136.28 158.396 135.16 158.175 134.162 157.732C133.174 157.28 132.39 156.615 131.81 155.737C131.239 154.86 130.954 153.777 130.954 152.49C130.954 151.382 131.158 150.466 131.567 149.742C131.976 149.017 132.535 148.438 133.242 148.003C133.949 147.568 134.746 147.24 135.633 147.019C136.528 146.789 137.452 146.622 138.407 146.52C139.557 146.401 140.491 146.294 141.206 146.2C141.922 146.098 142.442 145.945 142.766 145.74C143.099 145.527 143.265 145.199 143.265 144.756V144.679C143.265 143.716 142.979 142.97 142.408 142.442C141.837 141.914 141.015 141.649 139.941 141.649C138.807 141.649 137.908 141.896 137.243 142.391C136.587 142.885 136.144 143.469 135.914 144.142L131.593 143.529C131.934 142.335 132.496 141.338 133.28 140.537C134.064 139.727 135.023 139.122 136.157 138.722C137.29 138.313 138.543 138.108 139.915 138.108C140.861 138.108 141.803 138.219 142.741 138.441C143.678 138.662 144.535 139.029 145.31 139.54C146.086 140.043 146.708 140.729 147.177 141.598C147.654 142.468 147.893 143.554 147.893 144.858V158H143.444V155.303H143.29C143.009 155.848 142.613 156.36 142.101 156.837C141.599 157.306 140.964 157.685 140.197 157.975C139.438 158.256 138.547 158.396 137.525 158.396ZM138.726 154.996C139.655 154.996 140.461 154.813 141.143 154.446C141.824 154.071 142.349 153.577 142.715 152.963C143.09 152.35 143.278 151.681 143.278 150.956V148.642C143.133 148.762 142.885 148.872 142.536 148.975C142.195 149.077 141.812 149.166 141.385 149.243C140.959 149.32 140.537 149.388 140.12 149.448C139.702 149.507 139.34 149.558 139.033 149.601C138.343 149.695 137.725 149.848 137.18 150.061C136.634 150.274 136.204 150.573 135.888 150.956C135.573 151.331 135.415 151.817 135.415 152.414C135.415 153.266 135.726 153.909 136.349 154.344C136.971 154.779 137.763 154.996 138.726 154.996Z" fill="white"/>
<path d="M161.086 165.773C159.424 165.773 157.996 165.547 156.803 165.095C155.61 164.652 154.651 164.056 153.927 163.306C153.202 162.556 152.699 161.725 152.418 160.813L156.586 159.803C156.773 160.186 157.046 160.566 157.404 160.941C157.762 161.324 158.243 161.639 158.849 161.887C159.462 162.142 160.233 162.27 161.162 162.27C162.475 162.27 163.562 161.95 164.422 161.311C165.283 160.681 165.714 159.641 165.714 158.192V154.472H165.483C165.245 154.949 164.895 155.439 164.435 155.942C163.983 156.445 163.383 156.867 162.633 157.208C161.891 157.548 160.958 157.719 159.833 157.719C158.324 157.719 156.956 157.365 155.729 156.658C154.51 155.942 153.539 154.877 152.814 153.462C152.099 152.039 151.741 150.257 151.741 148.118C151.741 145.962 152.099 144.142 152.814 142.659C153.539 141.168 154.515 140.039 155.742 139.271C156.969 138.496 158.337 138.108 159.846 138.108C160.996 138.108 161.942 138.304 162.684 138.696C163.434 139.08 164.03 139.544 164.474 140.09C164.917 140.627 165.253 141.134 165.483 141.611H165.739V138.364H170.303V158.32C170.303 159.999 169.903 161.388 169.101 162.487C168.3 163.587 167.205 164.409 165.816 164.955C164.427 165.5 162.85 165.773 161.086 165.773ZM161.124 154.088C162.104 154.088 162.939 153.85 163.63 153.372C164.32 152.895 164.844 152.209 165.202 151.314C165.56 150.419 165.739 149.345 165.739 148.093C165.739 146.857 165.56 145.774 165.202 144.845C164.853 143.916 164.333 143.196 163.643 142.685C162.961 142.165 162.121 141.905 161.124 141.905C160.093 141.905 159.232 142.173 158.542 142.71C157.851 143.247 157.331 143.985 156.982 144.922C156.633 145.851 156.458 146.908 156.458 148.093C156.458 149.294 156.633 150.347 156.982 151.25C157.34 152.145 157.864 152.844 158.555 153.347C159.253 153.841 160.11 154.088 161.124 154.088Z" fill="white"/>
<path d="M175.046 158V138.364H179.674V158H175.046ZM177.373 135.577C176.64 135.577 176.009 135.334 175.481 134.848C174.952 134.354 174.688 133.762 174.688 133.071C174.688 132.372 174.952 131.78 175.481 131.294C176.009 130.8 176.64 130.553 177.373 130.553C178.114 130.553 178.745 130.8 179.265 131.294C179.793 131.78 180.057 132.372 180.057 133.071C180.057 133.762 179.793 134.354 179.265 134.848C178.745 135.334 178.114 135.577 177.373 135.577Z" fill="white"/>
<path d="M189.061 146.494V158H184.433V138.364H188.856V141.7H189.086C189.538 140.601 190.258 139.727 191.247 139.08C192.244 138.432 193.475 138.108 194.941 138.108C196.296 138.108 197.477 138.398 198.482 138.977C199.497 139.557 200.281 140.396 200.835 141.496C201.397 142.595 201.674 143.929 201.666 145.497V158H197.038V146.213C197.038 144.901 196.697 143.874 196.015 143.132C195.342 142.391 194.409 142.02 193.215 142.02C192.406 142.02 191.686 142.199 191.055 142.557C190.433 142.906 189.943 143.414 189.585 144.078C189.235 144.743 189.061 145.548 189.061 146.494Z" fill="white"/>
<path d="M212.021 158.396C210.776 158.396 209.656 158.175 208.659 157.732C207.67 157.28 206.886 156.615 206.306 155.737C205.735 154.86 205.45 153.777 205.45 152.49C205.45 151.382 205.654 150.466 206.063 149.742C206.472 149.017 207.031 148.438 207.738 148.003C208.445 147.568 209.242 147.24 210.129 147.019C211.024 146.789 211.948 146.622 212.903 146.52C214.053 146.401 214.987 146.294 215.703 146.2C216.419 146.098 216.938 145.945 217.262 145.74C217.595 145.527 217.761 145.199 217.761 144.756V144.679C217.761 143.716 217.475 142.97 216.904 142.442C216.333 141.914 215.511 141.649 214.437 141.649C213.303 141.649 212.404 141.896 211.74 142.391C211.083 142.885 210.64 143.469 210.41 144.142L206.089 143.529C206.43 142.335 206.992 141.338 207.776 140.537C208.561 139.727 209.519 139.122 210.653 138.722C211.786 138.313 213.039 138.108 214.411 138.108C215.357 138.108 216.299 138.219 217.237 138.441C218.174 138.662 219.031 139.029 219.806 139.54C220.582 140.043 221.204 140.729 221.673 141.598C222.15 142.468 222.389 143.554 222.389 144.858V158H217.94V155.303H217.786C217.505 155.848 217.109 156.36 216.597 156.837C216.095 157.306 215.46 157.685 214.693 157.975C213.934 158.256 213.044 158.396 212.021 158.396ZM213.222 154.996C214.151 154.996 214.957 154.813 215.639 154.446C216.32 154.071 216.845 153.577 217.211 152.963C217.586 152.35 217.774 151.681 217.774 150.956V148.642C217.629 148.762 217.382 148.872 217.032 148.975C216.691 149.077 216.308 149.166 215.882 149.243C215.455 149.32 215.034 149.388 214.616 149.448C214.198 149.507 213.836 149.558 213.529 149.601C212.839 149.695 212.221 149.848 211.676 150.061C211.13 150.274 210.7 150.573 210.384 150.956C210.069 151.331 209.911 151.817 209.911 152.414C209.911 153.266 210.222 153.909 210.845 154.344C211.467 154.779 212.259 154.996 213.222 154.996Z" fill="white"/>
<path d="M232.475 154.421L232.309 155.827C232.19 156.901 231.977 157.992 231.67 159.1C231.372 160.216 231.056 161.243 230.724 162.181C230.392 163.118 230.123 163.855 229.919 164.392H226.799C226.919 163.872 227.08 163.165 227.285 162.27C227.498 161.375 227.703 160.369 227.899 159.253C228.095 158.137 228.227 157.003 228.295 155.852L228.384 154.421H232.475Z" fill="white"/>
<path d="M254.346 158.384C252.428 158.384 250.766 157.962 249.36 157.118C247.954 156.274 246.863 155.094 246.087 153.577C245.32 152.06 244.937 150.287 244.937 148.259C244.937 146.23 245.32 144.453 246.087 142.928C246.863 141.402 247.954 140.218 249.36 139.374C250.766 138.53 252.428 138.108 254.346 138.108C256.263 138.108 257.925 138.53 259.331 139.374C260.738 140.218 261.824 141.402 262.591 142.928C263.367 144.453 263.755 146.23 263.755 148.259C263.755 150.287 263.367 152.06 262.591 153.577C261.824 155.094 260.738 156.274 259.331 157.118C257.925 157.962 256.263 158.384 254.346 158.384ZM254.371 154.676C255.411 154.676 256.28 154.391 256.979 153.82C257.678 153.24 258.198 152.465 258.539 151.493C258.888 150.521 259.063 149.439 259.063 148.246C259.063 147.044 258.888 145.958 258.539 144.986C258.198 144.006 257.678 143.226 256.979 142.646C256.28 142.067 255.411 141.777 254.371 141.777C253.306 141.777 252.42 142.067 251.712 142.646C251.013 143.226 250.489 144.006 250.14 144.986C249.799 145.958 249.628 147.044 249.628 148.246C249.628 149.439 249.799 150.521 250.14 151.493C250.489 152.465 251.013 153.24 251.712 153.82C252.42 154.391 253.306 154.676 254.371 154.676Z" fill="white"/>
<path d="M267.683 158V138.364H272.17V141.637H272.374C272.732 140.503 273.346 139.629 274.215 139.016C275.093 138.394 276.095 138.083 277.22 138.083C277.475 138.083 277.761 138.095 278.076 138.121C278.4 138.138 278.669 138.168 278.882 138.21V142.468C278.686 142.399 278.374 142.34 277.948 142.289C277.531 142.229 277.126 142.199 276.734 142.199C275.89 142.199 275.132 142.382 274.458 142.749C273.794 143.107 273.269 143.605 272.886 144.244C272.502 144.884 272.311 145.621 272.311 146.456V158H267.683Z" fill="white"/>
<path d="M289.687 165.773C288.025 165.773 286.598 165.547 285.405 165.095C284.211 164.652 283.253 164.056 282.528 163.306C281.804 162.556 281.301 161.725 281.02 160.813L285.187 159.803C285.375 160.186 285.648 160.566 286.006 160.941C286.363 161.324 286.845 161.639 287.45 161.887C288.064 162.142 288.835 162.27 289.764 162.27C291.077 162.27 292.163 161.95 293.024 161.311C293.885 160.681 294.315 159.641 294.315 158.192V154.472H294.085C293.846 154.949 293.497 155.439 293.037 155.942C292.585 156.445 291.984 156.867 291.234 157.208C290.493 157.548 289.559 157.719 288.434 157.719C286.926 157.719 285.558 157.365 284.331 156.658C283.112 155.942 282.14 154.877 281.416 153.462C280.7 152.039 280.342 150.257 280.342 148.118C280.342 145.962 280.7 144.142 281.416 142.659C282.14 141.168 283.116 140.039 284.344 139.271C285.571 138.496 286.939 138.108 288.447 138.108C289.598 138.108 290.544 138.304 291.285 138.696C292.035 139.08 292.632 139.544 293.075 140.09C293.518 140.627 293.855 141.134 294.085 141.611H294.341V138.364H298.905V158.32C298.905 159.999 298.504 161.388 297.703 162.487C296.902 163.587 295.807 164.409 294.417 164.955C293.028 165.5 291.452 165.773 289.687 165.773ZM289.726 154.088C290.706 154.088 291.541 153.85 292.231 153.372C292.922 152.895 293.446 152.209 293.804 151.314C294.162 150.419 294.341 149.345 294.341 148.093C294.341 146.857 294.162 145.774 293.804 144.845C293.454 143.916 292.934 143.196 292.244 142.685C291.562 142.165 290.723 141.905 289.726 141.905C288.694 141.905 287.834 142.173 287.143 142.71C286.453 143.247 285.933 143.985 285.584 144.922C285.234 145.851 285.059 146.908 285.059 148.093C285.059 149.294 285.234 150.347 285.584 151.25C285.942 152.145 286.466 152.844 287.156 153.347C287.855 153.841 288.711 154.088 289.726 154.088Z" fill="white"/>
<path d="M309.298 158.396C308.054 158.396 306.933 158.175 305.936 157.732C304.947 157.28 304.163 156.615 303.584 155.737C303.013 154.86 302.727 153.777 302.727 152.49C302.727 151.382 302.932 150.466 303.341 149.742C303.75 149.017 304.308 148.438 305.015 148.003C305.723 147.568 306.52 147.24 307.406 147.019C308.301 146.789 309.226 146.622 310.18 146.52C311.331 146.401 312.264 146.294 312.98 146.2C313.696 146.098 314.216 145.945 314.54 145.74C314.872 145.527 315.038 145.199 315.038 144.756V144.679C315.038 143.716 314.753 142.97 314.182 142.442C313.611 141.914 312.788 141.649 311.714 141.649C310.581 141.649 309.682 141.896 309.017 142.391C308.361 142.885 307.917 143.469 307.687 144.142L303.366 143.529C303.707 142.335 304.27 141.338 305.054 140.537C305.838 139.727 306.797 139.122 307.93 138.722C309.064 138.313 310.317 138.108 311.689 138.108C312.635 138.108 313.577 138.219 314.514 138.441C315.452 138.662 316.308 139.029 317.084 139.54C317.859 140.043 318.481 140.729 318.95 141.598C319.427 142.468 319.666 143.554 319.666 144.858V158H315.217V155.303H315.064C314.783 155.848 314.386 156.36 313.875 156.837C313.372 157.306 312.737 157.685 311.97 157.975C311.211 158.256 310.321 158.396 309.298 158.396ZM310.5 154.996C311.429 154.996 312.234 154.813 312.916 154.446C313.598 154.071 314.122 153.577 314.488 152.963C314.863 152.35 315.051 151.681 315.051 150.956V148.642C314.906 148.762 314.659 148.872 314.309 148.975C313.969 149.077 313.585 149.166 313.159 149.243C312.733 149.32 312.311 149.388 311.893 149.448C311.476 149.507 311.113 149.558 310.807 149.601C310.116 149.695 309.498 149.848 308.953 150.061C308.408 150.274 307.977 150.573 307.662 150.956C307.346 151.331 307.189 151.817 307.189 152.414C307.189 153.266 307.5 153.909 308.122 154.344C308.744 154.779 309.537 154.996 310.5 154.996Z" fill="white"/>
<path d="M328.947 146.494V158H324.319V138.364H328.743V141.7H328.973C329.425 140.601 330.145 139.727 331.133 139.08C332.131 138.432 333.362 138.108 334.828 138.108C336.183 138.108 337.363 138.398 338.369 138.977C339.383 139.557 340.167 140.396 340.721 141.496C341.284 142.595 341.561 143.929 341.552 145.497V158H336.925V146.213C336.925 144.901 336.584 143.874 335.902 143.132C335.229 142.391 334.295 142.02 333.102 142.02C332.292 142.02 331.572 142.199 330.942 142.557C330.319 142.906 329.829 143.414 329.471 144.078C329.122 144.743 328.947 145.548 328.947 146.494Z" fill="white"/>
<path d="M346.257 158V138.364H350.885V158H346.257ZM348.584 135.577C347.851 135.577 347.22 135.334 346.692 134.848C346.163 134.354 345.899 133.762 345.899 133.071C345.899 132.372 346.163 131.78 346.692 131.294C347.22 130.8 347.851 130.553 348.584 130.553C349.325 130.553 349.956 130.8 350.476 131.294C351.004 131.78 351.268 132.372 351.268 133.071C351.268 133.762 351.004 134.354 350.476 134.848C349.956 135.334 349.325 135.577 348.584 135.577Z" fill="white"/>
<path d="M355.388 158V155.06L365.513 142.365V142.199H355.72V138.364H371.176V141.521L361.537 153.999V154.165H371.509V158H355.388Z" fill="white"/>
<path d="M375.603 158V155.06L385.728 142.365V142.199H375.935V138.364H391.391V141.521L381.752 153.999V154.165H391.724V158H375.603Z" fill="white"/>
<path d="M401.724 158.396C400.48 158.396 399.359 158.175 398.362 157.732C397.373 157.28 396.589 156.615 396.009 155.737C395.438 154.86 395.153 153.777 395.153 152.49C395.153 151.382 395.357 150.466 395.767 149.742C396.176 149.017 396.734 148.438 397.441 148.003C398.149 147.568 398.945 147.24 399.832 147.019C400.727 146.789 401.651 146.622 402.606 146.52C403.757 146.401 404.69 146.294 405.406 146.2C406.122 146.098 406.642 145.945 406.965 145.74C407.298 145.527 407.464 145.199 407.464 144.756V144.679C407.464 143.716 407.178 142.97 406.607 142.442C406.036 141.914 405.214 141.649 404.14 141.649C403.007 141.649 402.107 141.896 401.443 142.391C400.786 142.885 400.343 143.469 400.113 144.142L395.792 143.529C396.133 142.335 396.695 141.338 397.48 140.537C398.264 139.727 399.222 139.122 400.356 138.722C401.49 138.313 402.742 138.108 404.115 138.108C405.061 138.108 406.002 138.219 406.94 138.441C407.877 138.662 408.734 139.029 409.509 139.54C410.285 140.043 410.907 140.729 411.376 141.598C411.853 142.468 412.092 143.554 412.092 144.858V158H407.643V155.303H407.49C407.208 155.848 406.812 156.36 406.301 156.837C405.798 157.306 405.163 157.685 404.396 157.975C403.637 158.256 402.747 158.396 401.724 158.396ZM402.926 154.996C403.855 154.996 404.66 154.813 405.342 154.446C406.024 154.071 406.548 153.577 406.914 152.963C407.289 152.35 407.477 151.681 407.477 150.956V148.642C407.332 148.762 407.085 148.872 406.735 148.975C406.394 149.077 406.011 149.166 405.585 149.243C405.159 149.32 404.737 149.388 404.319 149.448C403.901 149.507 403.539 149.558 403.232 149.601C402.542 149.695 401.924 149.848 401.379 150.061C400.833 150.274 400.403 150.573 400.088 150.956C399.772 151.331 399.615 151.817 399.615 152.414C399.615 153.266 399.926 153.909 400.548 154.344C401.17 154.779 401.963 154.996 402.926 154.996Z" fill="white"/>
<path d="M434.368 158.384C432.399 158.384 430.699 157.975 429.267 157.156C427.844 156.33 426.749 155.162 425.982 153.654C425.215 152.137 424.831 150.351 424.831 148.297C424.831 146.277 425.215 144.504 425.982 142.979C426.757 141.445 427.84 140.252 429.229 139.399C430.618 138.539 432.25 138.108 434.125 138.108C435.335 138.108 436.477 138.304 437.551 138.696C438.634 139.08 439.588 139.676 440.415 140.486C441.25 141.296 441.906 142.327 442.384 143.58C442.861 144.824 443.1 146.307 443.1 148.029V149.448H427.004V146.328H438.664C438.655 145.442 438.463 144.654 438.088 143.963C437.713 143.264 437.189 142.715 436.516 142.314C435.851 141.914 435.075 141.713 434.189 141.713C433.243 141.713 432.412 141.943 431.696 142.404C430.98 142.855 430.422 143.452 430.021 144.193C429.629 144.926 429.429 145.732 429.421 146.61V149.333C429.421 150.475 429.629 151.455 430.047 152.273C430.465 153.083 431.048 153.705 431.798 154.139C432.548 154.566 433.426 154.779 434.432 154.779C435.105 154.779 435.715 154.685 436.26 154.497C436.806 154.301 437.279 154.016 437.679 153.641C438.08 153.266 438.382 152.801 438.587 152.247L442.908 152.733C442.635 153.875 442.115 154.872 441.348 155.725C440.59 156.568 439.618 157.225 438.433 157.693C437.249 158.154 435.894 158.384 434.368 158.384Z" fill="white"/>
<path d="M74.9178 178.364L67.9249 198H62.8113L55.8184 178.364H60.753L65.2658 192.95H65.4703L69.9959 178.364H74.9178Z" fill="white"/>
<path d="M78.1202 198V178.364H82.748V198H78.1202ZM80.4469 175.577C79.714 175.577 79.0833 175.334 78.5549 174.848C78.0265 174.354 77.7623 173.762 77.7623 173.071C77.7623 172.372 78.0265 171.78 78.5549 171.294C79.0833 170.8 79.714 170.553 80.4469 170.553C81.1884 170.553 81.8191 170.8 82.339 171.294C82.8674 171.78 83.1316 172.372 83.1316 173.071C83.1316 173.762 82.8674 174.354 82.339 174.848C81.8191 175.334 81.1884 175.577 80.4469 175.577Z" fill="white"/>
<path d="M105.047 178.364L98.0538 198H92.9402L85.9473 178.364H90.8819L95.3947 192.95H95.5993L100.125 178.364H105.047Z" fill="white"/>
<path d="M108.249 198V178.364H112.877V198H108.249ZM110.576 175.577C109.843 175.577 109.212 175.334 108.684 174.848C108.155 174.354 107.891 173.762 107.891 173.071C107.891 172.372 108.155 171.78 108.684 171.294C109.212 170.8 109.843 170.553 110.576 170.553C111.317 170.553 111.948 170.8 112.468 171.294C112.996 171.78 113.26 172.372 113.26 173.071C113.26 173.762 112.996 174.354 112.468 174.848C111.948 175.334 111.317 175.577 110.576 175.577Z" fill="white"/>
<path d="M131.193 171.818V198H126.566V171.818H131.193Z" fill="white"/>
<path d="M141.603 198.396C140.358 198.396 139.238 198.175 138.241 197.732C137.252 197.28 136.468 196.615 135.888 195.737C135.317 194.86 135.032 193.777 135.032 192.49C135.032 191.382 135.236 190.466 135.645 189.742C136.055 189.017 136.613 188.438 137.32 188.003C138.028 187.568 138.824 187.24 139.711 187.019C140.606 186.789 141.53 186.622 142.485 186.52C143.635 186.401 144.569 186.294 145.285 186.2C146.001 186.098 146.52 185.945 146.844 185.74C147.177 185.527 147.343 185.199 147.343 184.756V184.679C147.343 183.716 147.057 182.97 146.486 182.442C145.915 181.914 145.093 181.649 144.019 181.649C142.885 181.649 141.986 181.896 141.322 182.391C140.665 182.885 140.222 183.469 139.992 184.142L135.671 183.529C136.012 182.335 136.574 181.338 137.358 180.537C138.143 179.727 139.101 179.122 140.235 178.722C141.368 178.313 142.621 178.108 143.993 178.108C144.939 178.108 145.881 178.219 146.819 178.441C147.756 178.662 148.613 179.029 149.388 179.54C150.164 180.043 150.786 180.729 151.255 181.598C151.732 182.468 151.971 183.554 151.971 184.858V198H147.522V195.303H147.368C147.087 195.848 146.691 196.36 146.18 196.837C145.677 197.306 145.042 197.685 144.275 197.975C143.516 198.256 142.626 198.396 141.603 198.396ZM142.805 194.996C143.733 194.996 144.539 194.813 145.221 194.446C145.903 194.071 146.427 193.577 146.793 192.963C147.168 192.35 147.356 191.681 147.356 190.956V188.642C147.211 188.762 146.964 188.872 146.614 188.975C146.273 189.077 145.89 189.166 145.464 189.243C145.037 189.32 144.616 189.388 144.198 189.448C143.78 189.507 143.418 189.558 143.111 189.601C142.421 189.695 141.803 189.848 141.258 190.061C140.712 190.274 140.282 190.573 139.966 190.956C139.651 191.331 139.493 191.817 139.493 192.414C139.493 193.266 139.805 193.909 140.427 194.344C141.049 194.779 141.841 194.996 142.805 194.996Z" fill="white"/>
<path d="M174.119 198.384C172.159 198.384 170.476 197.953 169.069 197.093C167.672 196.232 166.594 195.043 165.835 193.526C165.085 192 164.71 190.244 164.71 188.259C164.71 186.264 165.094 184.504 165.861 182.979C166.628 181.445 167.71 180.252 169.108 179.399C170.514 178.539 172.176 178.108 174.094 178.108C175.687 178.108 177.098 178.402 178.325 178.99C179.561 179.57 180.545 180.392 181.278 181.458C182.011 182.514 182.429 183.75 182.531 185.165H178.108C177.929 184.219 177.503 183.431 176.829 182.8C176.165 182.161 175.274 181.841 174.157 181.841C173.211 181.841 172.381 182.097 171.665 182.608C170.949 183.111 170.39 183.835 169.99 184.781C169.598 185.727 169.402 186.861 169.402 188.182C169.402 189.52 169.598 190.671 169.99 191.634C170.382 192.588 170.932 193.325 171.639 193.845C172.355 194.357 173.194 194.612 174.157 194.612C174.839 194.612 175.449 194.485 175.986 194.229C176.531 193.965 176.987 193.585 177.354 193.091C177.72 192.597 177.971 191.996 178.108 191.289H182.531C182.42 192.678 182.011 193.909 181.304 194.983C180.596 196.048 179.633 196.884 178.415 197.489C177.196 198.085 175.764 198.384 174.119 198.384Z" fill="white"/>
<path d="M191.982 198.396C190.737 198.396 189.617 198.175 188.62 197.732C187.631 197.28 186.847 196.615 186.267 195.737C185.696 194.86 185.411 193.777 185.411 192.49C185.411 191.382 185.615 190.466 186.024 189.742C186.433 189.017 186.992 188.438 187.699 188.003C188.406 187.568 189.203 187.24 190.09 187.019C190.985 186.789 191.909 186.622 192.864 186.52C194.014 186.401 194.948 186.294 195.664 186.2C196.379 186.098 196.899 185.945 197.223 185.74C197.556 185.527 197.722 185.199 197.722 184.756V184.679C197.722 183.716 197.436 182.97 196.865 182.442C196.294 181.914 195.472 181.649 194.398 181.649C193.264 181.649 192.365 181.896 191.7 182.391C191.044 182.885 190.601 183.469 190.371 184.142L186.05 183.529C186.391 182.335 186.953 181.338 187.737 180.537C188.521 179.727 189.48 179.122 190.614 178.722C191.747 178.313 193 178.108 194.372 178.108C195.318 178.108 196.26 178.219 197.198 178.441C198.135 178.662 198.992 179.029 199.767 179.54C200.543 180.043 201.165 180.729 201.634 181.598C202.111 182.468 202.35 183.554 202.35 184.858V198H197.901V195.303H197.747C197.466 195.848 197.07 196.36 196.558 196.837C196.056 197.306 195.421 197.685 194.654 197.975C193.895 198.256 193.004 198.396 191.982 198.396ZM193.183 194.996C194.112 194.996 194.918 194.813 195.6 194.446C196.281 194.071 196.806 193.577 197.172 192.963C197.547 192.35 197.735 191.681 197.735 190.956V188.642C197.59 188.762 197.343 188.872 196.993 188.975C196.652 189.077 196.269 189.166 195.843 189.243C195.416 189.32 194.995 189.388 194.577 189.448C194.159 189.507 193.797 189.558 193.49 189.601C192.8 189.695 192.182 189.848 191.637 190.061C191.091 190.274 190.661 190.573 190.345 190.956C190.03 191.331 189.872 191.817 189.872 192.414C189.872 193.266 190.183 193.909 190.806 194.344C191.428 194.779 192.22 194.996 193.183 194.996Z" fill="white"/>
<path d="M222.523 183.554L218.304 184.014C218.185 183.588 217.976 183.188 217.678 182.813C217.388 182.438 216.996 182.135 216.502 181.905C216.007 181.675 215.402 181.56 214.686 181.56C213.723 181.56 212.914 181.769 212.257 182.186C211.61 182.604 211.29 183.145 211.298 183.81C211.29 184.381 211.499 184.845 211.925 185.203C212.36 185.561 213.075 185.855 214.073 186.085L217.422 186.801C219.28 187.202 220.661 187.837 221.564 188.706C222.476 189.575 222.936 190.713 222.945 192.119C222.936 193.355 222.574 194.446 221.858 195.392C221.151 196.33 220.166 197.063 218.905 197.591C217.644 198.119 216.195 198.384 214.558 198.384C212.155 198.384 210.22 197.881 208.754 196.875C207.289 195.861 206.415 194.45 206.134 192.644L210.646 192.209C210.851 193.095 211.286 193.764 211.95 194.216C212.615 194.668 213.48 194.894 214.546 194.894C215.645 194.894 216.527 194.668 217.192 194.216C217.865 193.764 218.202 193.206 218.202 192.541C218.202 191.979 217.985 191.514 217.55 191.148C217.124 190.781 216.459 190.5 215.556 190.304L212.206 189.601C210.323 189.209 208.929 188.548 208.026 187.619C207.122 186.682 206.675 185.497 206.683 184.066C206.675 182.855 207.003 181.807 207.668 180.921C208.341 180.026 209.274 179.335 210.468 178.85C211.669 178.355 213.054 178.108 214.622 178.108C216.923 178.108 218.735 178.598 220.056 179.578C221.385 180.558 222.208 181.884 222.523 183.554Z" fill="white"/>
<path d="M232.411 198.396C231.167 198.396 230.046 198.175 229.049 197.732C228.061 197.28 227.276 196.615 226.697 195.737C226.126 194.86 225.84 193.777 225.84 192.49C225.84 191.382 226.045 190.466 226.454 189.742C226.863 189.017 227.421 188.438 228.129 188.003C228.836 187.568 229.633 187.24 230.519 187.019C231.414 186.789 232.339 186.622 233.294 186.52C234.444 186.401 235.377 186.294 236.093 186.2C236.809 186.098 237.329 185.945 237.653 185.74C237.985 185.527 238.151 185.199 238.151 184.756V184.679C238.151 183.716 237.866 182.97 237.295 182.442C236.724 181.914 235.901 181.649 234.828 181.649C233.694 181.649 232.795 181.896 232.13 182.391C231.474 182.885 231.031 183.469 230.801 184.142L226.48 183.529C226.82 182.335 227.383 181.338 228.167 180.537C228.951 179.727 229.91 179.122 231.044 178.722C232.177 178.313 233.43 178.108 234.802 178.108C235.748 178.108 236.69 178.219 237.627 178.441C238.565 178.662 239.421 179.029 240.197 179.54C240.972 180.043 241.595 180.729 242.063 181.598C242.541 182.468 242.779 183.554 242.779 184.858V198H238.33V195.303H238.177C237.896 195.848 237.499 196.36 236.988 196.837C236.485 197.306 235.85 197.685 235.083 197.975C234.325 198.256 233.434 198.396 232.411 198.396ZM233.613 194.996C234.542 194.996 235.347 194.813 236.029 194.446C236.711 194.071 237.235 193.577 237.602 192.963C237.977 192.35 238.164 191.681 238.164 190.956V188.642C238.019 188.762 237.772 188.872 237.423 188.975C237.082 189.077 236.698 189.166 236.272 189.243C235.846 189.32 235.424 189.388 235.007 189.448C234.589 189.507 234.227 189.558 233.92 189.601C233.23 189.695 232.612 189.848 232.066 190.061C231.521 190.274 231.09 190.573 230.775 190.956C230.46 191.331 230.302 191.817 230.302 192.414C230.302 193.266 230.613 193.909 231.235 194.344C231.857 194.779 232.65 194.996 233.613 194.996Z" fill="white"/>
<path d="M263.649 198.345C262.107 198.345 260.726 197.949 259.507 197.156C258.289 196.364 257.325 195.213 256.618 193.705C255.911 192.196 255.557 190.364 255.557 188.208C255.557 186.026 255.915 184.185 256.631 182.685C257.355 181.176 258.331 180.039 259.558 179.271C260.786 178.496 262.154 178.108 263.662 178.108C264.813 178.108 265.759 178.304 266.5 178.696C267.242 179.08 267.83 179.544 268.264 180.09C268.699 180.627 269.036 181.134 269.274 181.611H269.466V171.818H274.107V198H269.556V194.906H269.274C269.036 195.384 268.691 195.891 268.239 196.428C267.787 196.956 267.191 197.408 266.449 197.783C265.708 198.158 264.774 198.345 263.649 198.345ZM264.941 194.548C265.921 194.548 266.756 194.284 267.446 193.756C268.137 193.219 268.661 192.473 269.019 191.519C269.377 190.564 269.556 189.452 269.556 188.182C269.556 186.912 269.377 185.808 269.019 184.871C268.669 183.933 268.149 183.205 267.459 182.685C266.777 182.165 265.938 181.905 264.941 181.905C263.909 181.905 263.048 182.173 262.358 182.71C261.668 183.247 261.148 183.989 260.798 184.935C260.449 185.881 260.274 186.963 260.274 188.182C260.274 189.409 260.449 190.504 260.798 191.468C261.156 192.422 261.681 193.176 262.371 193.73C263.07 194.276 263.926 194.548 264.941 194.548Z" fill="white"/>
<path d="M287.731 198.384C285.763 198.384 284.062 197.975 282.631 197.156C281.207 196.33 280.112 195.162 279.345 193.654C278.578 192.137 278.194 190.351 278.194 188.297C278.194 186.277 278.578 184.504 279.345 182.979C280.121 181.445 281.203 180.252 282.592 179.399C283.981 178.539 285.613 178.108 287.488 178.108C288.699 178.108 289.841 178.304 290.915 178.696C291.997 179.08 292.952 179.676 293.778 180.486C294.613 181.296 295.27 182.327 295.747 183.58C296.224 184.824 296.463 186.307 296.463 188.029V189.448H280.368V186.328H292.027C292.018 185.442 291.827 184.654 291.452 183.963C291.077 183.264 290.552 182.715 289.879 182.314C289.214 181.914 288.439 181.713 287.552 181.713C286.606 181.713 285.775 181.943 285.059 182.404C284.344 182.855 283.785 183.452 283.385 184.193C282.993 184.926 282.792 185.732 282.784 186.61V189.333C282.784 190.475 282.993 191.455 283.41 192.273C283.828 193.083 284.412 193.705 285.162 194.139C285.912 194.566 286.79 194.779 287.795 194.779C288.469 194.779 289.078 194.685 289.623 194.497C290.169 194.301 290.642 194.016 291.042 193.641C291.443 193.266 291.746 192.801 291.95 192.247L296.271 192.733C295.998 193.875 295.479 194.872 294.711 195.725C293.953 196.568 292.981 197.225 291.797 197.693C290.612 198.154 289.257 198.384 287.731 198.384Z" fill="white"/>
<path d="M300.378 198V178.364H305.006V198H300.378ZM302.705 175.577C301.972 175.577 301.341 175.334 300.813 174.848C300.284 174.354 300.02 173.762 300.02 173.071C300.02 172.372 300.284 171.78 300.813 171.294C301.341 170.8 301.972 170.553 302.705 170.553C303.446 170.553 304.077 170.8 304.597 171.294C305.125 171.78 305.389 172.372 305.389 173.071C305.389 173.762 305.125 174.354 304.597 174.848C304.077 175.334 303.446 175.577 302.705 175.577Z" fill="white"/>
<path d="M328.5 178.364V181.943H317.211V178.364H328.5ZM319.998 173.659H324.626V192.094C324.626 192.716 324.72 193.193 324.908 193.526C325.104 193.85 325.359 194.071 325.675 194.191C325.99 194.31 326.339 194.369 326.723 194.369C327.013 194.369 327.277 194.348 327.515 194.306C327.763 194.263 327.95 194.225 328.078 194.191L328.858 197.808C328.611 197.894 328.257 197.987 327.797 198.09C327.345 198.192 326.791 198.252 326.135 198.269C324.976 198.303 323.932 198.128 323.003 197.744C322.074 197.352 321.336 196.747 320.791 195.929C320.254 195.111 319.99 194.088 319.998 192.861V173.659Z" fill="white"/>
<path d="M344.886 189.742V178.364H349.514V198H345.026V194.51H344.822C344.379 195.61 343.65 196.509 342.636 197.208C341.63 197.906 340.39 198.256 338.916 198.256C337.629 198.256 336.491 197.97 335.502 197.399C334.522 196.82 333.755 195.98 333.201 194.881C332.647 193.773 332.37 192.435 332.37 190.867V178.364H336.998V190.151C336.998 191.395 337.339 192.384 338.021 193.117C338.703 193.85 339.597 194.216 340.705 194.216C341.387 194.216 342.048 194.05 342.687 193.718C343.326 193.385 343.85 192.891 344.259 192.235C344.677 191.57 344.886 190.739 344.886 189.742Z" fill="white"/>
<path d="M362.838 198.384C360.92 198.384 359.258 197.962 357.852 197.118C356.446 196.274 355.355 195.094 354.579 193.577C353.812 192.06 353.429 190.287 353.429 188.259C353.429 186.23 353.812 184.453 354.579 182.928C355.355 181.402 356.446 180.218 357.852 179.374C359.258 178.53 360.92 178.108 362.838 178.108C364.756 178.108 366.417 178.53 367.824 179.374C369.23 180.218 370.317 181.402 371.084 182.928C371.859 184.453 372.247 186.23 372.247 188.259C372.247 190.287 371.859 192.06 371.084 193.577C370.317 195.094 369.23 196.274 367.824 197.118C366.417 197.962 364.756 198.384 362.838 198.384ZM362.863 194.676C363.903 194.676 364.773 194.391 365.471 193.82C366.17 193.24 366.69 192.465 367.031 191.493C367.38 190.521 367.555 189.439 367.555 188.246C367.555 187.044 367.38 185.958 367.031 184.986C366.69 184.006 366.17 183.226 365.471 182.646C364.773 182.067 363.903 181.777 362.863 181.777C361.798 181.777 360.912 182.067 360.204 182.646C359.506 183.226 358.981 184.006 358.632 184.986C358.291 185.958 358.121 187.044 358.121 188.246C358.121 189.439 358.291 190.521 358.632 191.493C358.981 192.465 359.506 193.24 360.204 193.82C360.912 194.391 361.798 194.676 362.863 194.676Z" fill="white"/>
<path d="M376.175 198V178.364H380.803V198H376.175ZM378.502 175.577C377.769 175.577 377.138 175.334 376.61 174.848C376.081 174.354 375.817 173.762 375.817 173.071C375.817 172.372 376.081 171.78 376.61 171.294C377.138 170.8 377.769 170.553 378.502 170.553C379.243 170.553 379.874 170.8 380.394 171.294C380.922 171.78 381.186 172.372 381.186 173.071C381.186 173.762 380.922 174.354 380.394 174.848C379.874 175.334 379.243 175.577 378.502 175.577Z" fill="white"/>
<path d="M410.011 183.554L405.792 184.014C405.673 183.588 405.464 183.188 405.166 182.813C404.876 182.438 404.484 182.135 403.99 181.905C403.496 181.675 402.89 181.56 402.175 181.56C401.211 181.56 400.402 181.769 399.746 182.186C399.098 182.604 398.778 183.145 398.787 183.81C398.778 184.381 398.987 184.845 399.413 185.203C399.848 185.561 400.564 185.855 401.561 186.085L404.91 186.801C406.768 187.202 408.149 187.837 409.052 188.706C409.964 189.575 410.425 190.713 410.433 192.119C410.425 193.355 410.062 194.446 409.346 195.392C408.639 196.33 407.655 197.063 406.393 197.591C405.132 198.119 403.683 198.384 402.047 198.384C399.643 198.384 397.709 197.881 396.243 196.875C394.777 195.861 393.903 194.45 393.622 192.644L398.135 192.209C398.339 193.095 398.774 193.764 399.439 194.216C400.104 194.668 400.969 194.894 402.034 194.894C403.133 194.894 404.015 194.668 404.68 194.216C405.354 193.764 405.69 193.206 405.69 192.541C405.69 191.979 405.473 191.514 405.038 191.148C404.612 190.781 403.947 190.5 403.044 190.304L399.694 189.601C397.811 189.209 396.417 188.548 395.514 187.619C394.611 186.682 394.163 185.497 394.172 184.066C394.163 182.855 394.491 181.807 395.156 180.921C395.829 180.026 396.763 179.335 397.956 178.85C399.157 178.355 400.542 178.108 402.111 178.108C404.412 178.108 406.223 178.598 407.544 179.578C408.873 180.558 409.696 181.884 410.011 183.554Z" fill="white"/>
<path d="M422.814 198.384C420.897 198.384 419.235 197.962 417.829 197.118C416.422 196.274 415.332 195.094 414.556 193.577C413.789 192.06 413.405 190.287 413.405 188.259C413.405 186.23 413.789 184.453 414.556 182.928C415.332 181.402 416.422 180.218 417.829 179.374C419.235 178.53 420.897 178.108 422.814 178.108C424.732 178.108 426.394 178.53 427.8 179.374C429.207 180.218 430.293 181.402 431.06 182.928C431.836 184.453 432.224 186.23 432.224 188.259C432.224 190.287 431.836 192.06 431.06 193.577C430.293 195.094 429.207 196.274 427.8 197.118C426.394 197.962 424.732 198.384 422.814 198.384ZM422.84 194.676C423.88 194.676 424.749 194.391 425.448 193.82C426.147 193.24 426.667 192.465 427.008 191.493C427.357 190.521 427.532 189.439 427.532 188.246C427.532 187.044 427.357 185.958 427.008 184.986C426.667 184.006 426.147 183.226 425.448 182.646C424.749 182.067 423.88 181.777 422.84 181.777C421.775 181.777 420.888 182.067 420.181 182.646C419.482 183.226 418.958 184.006 418.608 184.986C418.268 185.958 418.097 187.044 418.097 188.246C418.097 189.439 418.268 190.521 418.608 191.493C418.958 192.465 419.482 193.24 420.181 193.82C420.888 194.391 421.775 194.676 422.84 194.676Z" fill="white"/>
<path d="M444.691 205.773C443.029 205.773 441.602 205.547 440.409 205.095C439.215 204.652 438.257 204.056 437.532 203.306C436.808 202.556 436.305 201.725 436.024 200.813L440.191 199.803C440.379 200.186 440.651 200.566 441.009 200.941C441.367 201.324 441.849 201.639 442.454 201.887C443.068 202.142 443.839 202.27 444.768 202.27C446.08 202.27 447.167 201.95 448.028 201.311C448.889 200.681 449.319 199.641 449.319 198.192V194.472H449.089C448.85 194.949 448.501 195.439 448.041 195.942C447.589 196.445 446.988 196.867 446.238 197.208C445.497 197.548 444.563 197.719 443.438 197.719C441.93 197.719 440.562 197.365 439.335 196.658C438.116 195.942 437.144 194.877 436.42 193.462C435.704 192.039 435.346 190.257 435.346 188.118C435.346 185.962 435.704 184.142 436.42 182.659C437.144 181.168 438.12 180.039 439.347 179.271C440.575 178.496 441.943 178.108 443.451 178.108C444.602 178.108 445.548 178.304 446.289 178.696C447.039 179.08 447.636 179.544 448.079 180.09C448.522 180.627 448.859 181.134 449.089 181.611H449.345V178.364H453.909V198.32C453.909 199.999 453.508 201.388 452.707 202.487C451.906 203.587 450.811 204.409 449.421 204.955C448.032 205.5 446.455 205.773 444.691 205.773ZM444.73 194.088C445.71 194.088 446.545 193.85 447.235 193.372C447.926 192.895 448.45 192.209 448.808 191.314C449.166 190.419 449.345 189.345 449.345 188.093C449.345 186.857 449.166 185.774 448.808 184.845C448.458 183.916 447.938 183.196 447.248 182.685C446.566 182.165 445.727 181.905 444.73 181.905C443.698 181.905 442.838 182.173 442.147 182.71C441.457 183.247 440.937 183.985 440.588 184.922C440.238 185.851 440.063 186.908 440.063 188.093C440.063 189.294 440.238 190.347 440.588 191.25C440.946 192.145 441.47 192.844 442.16 193.347C442.859 193.841 443.715 194.088 444.73 194.088Z" fill="white"/>
<path d="M463.279 186.494V198H458.651V178.364H463.075V181.7H463.305C463.757 180.601 464.477 179.727 465.465 179.08C466.463 178.432 467.694 178.108 469.16 178.108C470.515 178.108 471.695 178.398 472.701 178.977C473.715 179.557 474.499 180.396 475.053 181.496C475.616 182.595 475.893 183.929 475.884 185.497V198H471.257V186.213C471.257 184.901 470.916 183.874 470.234 183.132C469.561 182.391 468.627 182.02 467.434 182.02C466.624 182.02 465.904 182.199 465.274 182.557C464.651 182.906 464.161 183.414 463.803 184.078C463.454 184.743 463.279 185.548 463.279 186.494Z" fill="white"/>
<path d="M480.589 198V178.364H485.217V198H480.589ZM482.916 175.577C482.183 175.577 481.552 175.334 481.024 174.848C480.495 174.354 480.231 173.762 480.231 173.071C480.231 172.372 480.495 171.78 481.024 171.294C481.552 170.8 482.183 170.553 482.916 170.553C483.657 170.553 484.288 170.8 484.808 171.294C485.336 171.78 485.6 172.372 485.6 173.071C485.6 173.762 485.336 174.354 484.808 174.848C484.288 175.334 483.657 175.577 482.916 175.577Z" fill="white"/>
</g>
<defs>
<clipPath id="clip0_36_1160">
<rect width="700" height="700" fill="white"/>
</clipPath>
</defs>
</svg>
