<svg width="700" height="700" viewBox="0 0 700 700" fill="none" xmlns="http://www.w3.org/2000/svg">
<g clip-path="url(#clip0_314_2)">
<path d="M0 0H700V700L681.862 681.862V17.4664H17.4664V681.862H681.862L700 700H0V0Z" fill="#004AC8"/>
<path d="M70.5596 452.783V344.321H143.645V363.228H93.4915V389.072H139.885V407.979H93.4915V433.876H143.856V452.783H70.5596ZM180.306 371.437L195.241 399.876L210.547 371.437H233.69L210.124 412.109L234.326 452.783H211.289L195.241 424.661L179.46 452.783H156.157L180.306 412.109L157.004 371.437H180.306ZM247.089 483.289V371.437H269.332V385.099H270.339C271.327 382.911 272.758 380.686 274.629 378.427C276.535 376.132 279.007 374.226 282.044 372.708C285.115 371.153 288.928 370.377 293.483 370.377C299.415 370.377 304.887 371.93 309.9 375.038C314.914 378.109 318.922 382.752 321.922 388.966C324.924 395.144 326.425 402.895 326.425 412.215C326.425 421.29 324.959 428.951 322.028 435.2C319.133 441.414 315.179 446.128 310.165 449.341C305.187 452.518 299.608 454.107 293.43 454.107C289.052 454.107 285.327 453.384 282.255 451.935C279.218 450.488 276.73 448.67 274.788 446.48C272.846 444.257 271.364 442.014 270.339 439.755H269.651V483.289H247.089ZM269.174 412.109C269.174 416.946 269.845 421.166 271.186 424.767C272.529 428.368 274.47 431.176 277.012 433.187C279.554 435.165 282.643 436.154 286.28 436.154C289.952 436.154 293.06 435.147 295.602 433.135C298.144 431.087 300.068 428.263 301.374 424.661C302.716 421.025 303.386 416.841 303.386 412.109C303.386 407.413 302.733 403.283 301.427 399.718C300.12 396.15 298.196 393.361 295.654 391.35C293.112 389.337 289.987 388.331 286.28 388.331C282.608 388.331 279.502 389.301 276.96 391.244C274.453 393.185 272.529 395.939 271.186 399.505C269.845 403.071 269.174 407.272 269.174 412.109ZM378.219 454.373C369.992 454.373 362.878 452.625 356.877 449.129C350.91 445.598 346.301 440.691 343.054 434.406C339.805 428.086 338.181 420.759 338.181 412.428C338.181 404.025 339.805 396.681 343.054 390.396C346.301 384.076 350.91 379.169 356.877 375.673C362.878 372.142 369.992 370.377 378.219 370.377C386.446 370.377 393.543 372.142 399.509 375.673C405.511 379.169 410.137 384.076 413.384 390.396C416.633 396.681 418.257 404.025 418.257 412.428C418.257 420.759 416.633 428.086 413.384 434.406C410.137 440.691 405.511 445.598 399.509 449.129C393.543 452.625 386.446 454.373 378.219 454.373ZM378.325 436.895C382.067 436.895 385.192 435.835 387.699 433.718C390.206 431.564 392.095 428.634 393.367 424.926C394.672 421.219 395.325 417 395.325 412.269C395.325 407.537 394.672 403.318 393.367 399.611C392.095 395.903 390.206 392.973 387.699 390.819C385.192 388.665 382.067 387.589 378.325 387.589C374.547 387.589 371.37 388.665 368.793 390.819C366.251 392.973 364.327 395.903 363.019 399.611C361.748 403.318 361.113 407.537 361.113 412.269C361.113 417 361.748 421.219 363.019 424.926C364.327 428.634 366.251 431.564 368.793 433.718C371.37 435.835 374.547 436.895 378.325 436.895Z" fill="#004AC8"/>
<path d="M79.849 638.196H55.2754L92.7183 529.733H122.27L159.66 638.196H135.086L107.918 554.518H107.071L79.849 638.196ZM78.3131 595.563H136.357V613.463H78.3131V595.563ZM170.8 638.196V556.849H192.673V571.041H193.519C195.003 565.994 197.492 562.181 200.987 559.602C204.483 556.99 208.508 555.683 213.062 555.683C214.192 555.683 215.41 555.754 216.716 555.895C218.023 556.036 219.171 556.231 220.158 556.478V576.496C219.1 576.179 217.635 575.897 215.763 575.65C213.892 575.403 212.179 575.279 210.626 575.279C207.307 575.279 204.342 576.003 201.729 577.45C199.152 578.862 197.104 580.84 195.586 583.382C194.102 585.924 193.361 588.854 193.361 592.173V638.196H170.8ZM230.332 638.196V556.849H252.205V571.041H253.052C254.535 565.994 257.025 562.181 260.519 559.602C264.015 556.99 268.039 555.683 272.594 555.683C273.724 555.683 274.942 555.754 276.248 555.895C277.556 556.036 278.703 556.231 279.691 556.478V576.496C278.632 576.179 277.166 575.897 275.296 575.65C273.424 575.403 271.711 575.279 270.158 575.279C266.839 575.279 263.874 576.003 261.261 577.45C258.684 578.862 256.636 580.84 255.118 583.382C253.635 585.924 252.893 588.854 252.893 592.173V638.196H230.332ZM323.15 639.785C314.782 639.785 307.579 638.09 301.542 634.7C295.539 631.275 290.915 626.438 287.666 620.189C284.419 613.904 282.794 606.473 282.794 597.893C282.794 589.525 284.419 582.181 287.666 575.861C290.915 569.542 295.487 564.616 301.382 561.086C307.314 557.555 314.27 555.789 322.249 555.789C327.616 555.789 332.612 556.654 337.237 558.385C341.898 560.079 345.958 562.639 349.418 566.063C352.914 569.488 355.632 573.796 357.575 578.986C359.516 584.141 360.486 590.178 360.486 597.099V603.295H291.797V589.314H339.25C339.25 586.065 338.543 583.187 337.131 580.68C335.719 578.174 333.76 576.214 331.253 574.802C328.781 573.355 325.904 572.631 322.62 572.631C319.196 572.631 316.159 573.425 313.511 575.014C310.898 576.568 308.85 578.669 307.368 581.316C305.885 583.929 305.126 586.842 305.091 590.054V603.348C305.091 607.373 305.831 610.85 307.314 613.78C308.833 616.712 310.969 618.971 313.723 620.56C316.476 622.148 319.742 622.944 323.52 622.944C326.028 622.944 328.322 622.59 330.405 621.883C332.489 621.178 334.272 620.118 335.754 618.706C337.237 617.294 338.367 615.565 339.144 613.516L360.01 614.893C358.95 619.907 356.779 624.284 353.496 628.028C350.248 631.735 346.047 634.63 340.891 636.712C335.772 638.76 329.858 639.785 323.15 639.785ZM403.694 639.519C397.515 639.519 391.919 637.931 386.906 634.753C381.927 631.541 377.973 626.826 375.042 620.612C372.147 614.363 370.7 606.702 370.7 597.628C370.7 588.308 372.201 580.557 375.201 574.379C378.202 568.165 382.191 563.521 387.171 560.45C392.184 557.342 397.673 555.789 403.642 555.789C408.195 555.789 411.991 556.566 415.027 558.12C418.1 559.639 420.571 561.545 422.442 563.84C424.349 566.098 425.796 568.323 426.785 570.512H427.472V529.733H449.981V638.196H427.739V625.167H426.785C425.726 627.427 424.225 629.669 422.284 631.893C420.376 634.083 417.887 635.901 414.816 637.348C411.78 638.796 408.071 639.519 403.694 639.519ZM410.843 621.566C414.48 621.566 417.552 620.578 420.059 618.6C422.601 616.588 424.542 613.78 425.884 610.18C427.262 606.579 427.949 602.359 427.949 597.522C427.949 592.685 427.279 588.484 425.937 584.918C424.596 581.352 422.653 578.598 420.111 576.656C417.569 574.713 414.48 573.743 410.843 573.743C407.136 573.743 404.011 574.75 401.469 576.762C398.927 578.774 397.003 581.563 395.697 585.13C394.391 588.696 393.737 592.826 393.737 597.522C393.737 602.254 394.391 606.438 395.697 610.073C397.038 613.676 398.963 616.5 401.469 618.547C404.011 620.56 407.136 621.566 410.843 621.566ZM503.794 639.785C495.567 639.785 488.453 638.037 482.45 634.541C476.483 631.01 471.876 626.104 468.627 619.818C465.38 613.498 463.756 606.172 463.756 597.84C463.756 589.438 465.38 582.094 468.627 575.808C471.876 569.488 476.483 564.582 482.45 561.086C488.453 557.555 495.567 555.789 503.794 555.789C512.021 555.789 519.117 557.555 525.084 561.086C531.086 564.582 535.711 569.488 538.959 575.808C542.208 582.094 543.832 589.438 543.832 597.84C543.832 606.172 542.208 613.498 538.959 619.818C535.711 626.104 531.086 631.01 525.084 634.541C519.117 638.037 512.021 639.785 503.794 639.785ZM503.9 622.308C507.642 622.308 510.767 621.248 513.274 619.13C515.78 616.977 517.669 614.046 518.94 610.338C520.247 606.631 520.9 602.412 520.9 597.682C520.9 592.95 520.247 588.731 518.94 585.024C517.669 581.316 515.78 578.385 513.274 576.232C510.767 574.078 507.642 573.002 503.9 573.002C500.122 573.002 496.944 574.078 494.366 576.232C491.824 578.385 489.9 581.316 488.594 585.024C487.323 588.731 486.688 592.95 486.688 597.682C486.688 602.412 487.323 606.631 488.594 610.338C489.9 614.046 491.824 616.977 494.366 619.13C496.944 621.248 500.122 622.308 503.9 622.308Z" fill="#004AC8"/>
<path d="M61.4812 132.454V157.909H56.0994V132.454H61.4812Z" fill="white"/>
<path d="M66.1596 157.909V138.818H71.2057V142.186H71.4295C71.8272 141.067 72.4901 140.185 73.4181 139.539C74.3461 138.892 75.4564 138.569 76.7491 138.569C78.0582 138.569 79.1727 138.897 80.0925 139.551C81.0122 140.197 81.6254 141.076 81.9319 142.186H82.1308C82.5202 141.092 83.2246 140.218 84.2437 139.564C85.2712 138.901 86.4851 138.569 87.8854 138.569C89.6669 138.569 91.1128 139.137 92.2231 140.272C93.3417 141.399 93.9011 142.998 93.9011 145.07V157.909H88.6187V146.114C88.6187 145.053 88.337 144.258 87.7736 143.727C87.2101 143.197 86.5058 142.932 85.6606 142.932C84.6995 142.932 83.9496 143.238 83.411 143.852C82.8724 144.456 82.6031 145.256 82.6031 146.25V157.909H77.4699V146.002C77.4699 145.065 77.2006 144.32 76.6621 143.765C76.1318 143.209 75.4316 142.932 74.5616 142.932C73.9733 142.932 73.443 143.081 72.9706 143.379C72.5066 143.669 72.1379 144.079 71.8645 144.61C71.591 145.132 71.4543 145.745 71.4543 146.449V157.909H66.1596Z" fill="white"/>
<path d="M103.877 158.269C102.659 158.269 101.574 158.058 100.621 157.635C99.668 157.204 98.914 156.571 98.3588 155.734C97.812 154.888 97.5385 153.836 97.5385 152.577C97.5385 151.516 97.7332 150.625 98.1227 149.904C98.5121 149.184 99.0424 148.604 99.7136 148.164C100.385 147.725 101.147 147.394 102.001 147.17C102.862 146.946 103.765 146.789 104.71 146.698C105.82 146.582 106.715 146.474 107.395 146.375C108.074 146.267 108.567 146.109 108.874 145.902C109.18 145.695 109.334 145.389 109.334 144.983V144.908C109.334 144.121 109.085 143.512 108.588 143.081C108.099 142.65 107.403 142.435 106.5 142.435C105.547 142.435 104.789 142.646 104.225 143.069C103.662 143.483 103.289 144.005 103.107 144.635L98.2097 144.237C98.4583 143.077 98.9471 142.074 99.6763 141.229C100.405 140.376 101.346 139.721 102.498 139.265C103.658 138.801 105 138.569 106.525 138.569C107.585 138.569 108.6 138.694 109.57 138.942C110.548 139.191 111.413 139.576 112.167 140.098C112.93 140.62 113.53 141.291 113.97 142.112C114.409 142.924 114.628 143.897 114.628 145.032V157.909H109.607V155.261H109.458C109.151 155.858 108.741 156.384 108.227 156.84C107.714 157.287 107.096 157.639 106.376 157.896C105.655 158.145 104.822 158.269 103.877 158.269ZM105.394 154.615C106.173 154.615 106.86 154.462 107.457 154.155C108.053 153.84 108.522 153.418 108.861 152.887C109.201 152.357 109.371 151.756 109.371 151.085V149.059C109.205 149.167 108.977 149.266 108.687 149.358C108.406 149.44 108.087 149.519 107.73 149.594C107.374 149.66 107.018 149.722 106.661 149.78C106.305 149.83 105.982 149.875 105.692 149.917C105.07 150.008 104.528 150.153 104.064 150.352C103.6 150.551 103.239 150.82 102.982 151.16C102.726 151.491 102.597 151.906 102.597 152.403C102.597 153.124 102.858 153.675 103.38 154.056C103.91 154.429 104.582 154.615 105.394 154.615Z" fill="white"/>
<path d="M127.687 165.466C125.972 165.466 124.501 165.229 123.275 164.757C122.057 164.293 121.087 163.659 120.366 162.855C119.645 162.052 119.177 161.149 118.962 160.146L123.859 159.487C124.008 159.868 124.244 160.225 124.567 160.556C124.89 160.888 125.317 161.153 125.847 161.352C126.386 161.559 127.041 161.662 127.811 161.662C128.963 161.662 129.912 161.381 130.658 160.817C131.412 160.262 131.789 159.33 131.789 158.021V154.528H131.565C131.333 155.058 130.985 155.56 130.521 156.032C130.057 156.504 129.46 156.89 128.731 157.188C128.002 157.486 127.132 157.635 126.121 157.635C124.687 157.635 123.382 157.304 122.206 156.641C121.037 155.97 120.105 154.946 119.409 153.571C118.722 152.187 118.378 150.439 118.378 148.326C118.378 146.163 118.73 144.357 119.434 142.907C120.138 141.457 121.075 140.371 122.243 139.651C123.42 138.93 124.708 138.569 126.109 138.569C127.177 138.569 128.072 138.752 128.793 139.116C129.514 139.472 130.094 139.92 130.533 140.458C130.981 140.989 131.325 141.511 131.565 142.025H131.764V138.818H137.021V158.095C137.021 159.719 136.623 161.078 135.828 162.172C135.033 163.266 133.93 164.086 132.522 164.633C131.122 165.188 129.51 165.466 127.687 165.466ZM127.799 153.658C128.652 153.658 129.373 153.447 129.961 153.024C130.558 152.593 131.014 151.98 131.329 151.185C131.652 150.381 131.813 149.42 131.813 148.301C131.813 147.183 131.656 146.213 131.341 145.393C131.026 144.564 130.571 143.922 129.974 143.466C129.377 143.011 128.652 142.783 127.799 142.783C126.929 142.783 126.196 143.019 125.599 143.491C125.002 143.955 124.551 144.601 124.244 145.43C123.938 146.259 123.784 147.216 123.784 148.301C123.784 149.403 123.938 150.356 124.244 151.16C124.559 151.955 125.011 152.573 125.599 153.012C126.196 153.443 126.929 153.658 127.799 153.658Z" fill="white"/>
<path d="M141.585 157.909V138.818H146.879V157.909H141.585ZM144.244 136.357C143.457 136.357 142.782 136.096 142.218 135.574C141.663 135.044 141.386 134.41 141.386 133.672C141.386 132.943 141.663 132.317 142.218 131.795C142.782 131.265 143.457 131 144.244 131C145.032 131 145.703 131.265 146.258 131.795C146.821 132.317 147.103 132.943 147.103 133.672C147.103 134.41 146.821 135.044 146.258 135.574C145.703 136.096 145.032 136.357 144.244 136.357Z" fill="white"/>
<path d="M156.765 146.872V157.909H151.471V138.818H156.517V142.186H156.741C157.163 141.076 157.872 140.197 158.866 139.551C159.86 138.897 161.066 138.569 162.483 138.569C163.809 138.569 164.964 138.859 165.95 139.439C166.936 140.019 167.703 140.848 168.25 141.925C168.797 142.994 169.07 144.27 169.07 145.753V157.909H163.775V146.698C163.784 145.529 163.485 144.618 162.881 143.963C162.276 143.301 161.443 142.969 160.382 142.969C159.67 142.969 159.04 143.122 158.493 143.429C157.954 143.736 157.532 144.183 157.225 144.771C156.927 145.351 156.774 146.051 156.765 146.872Z" fill="white"/>
<path d="M182.293 158.282C180.33 158.282 178.639 157.884 177.222 157.088C175.814 156.285 174.728 155.15 173.966 153.683C173.204 152.208 172.823 150.464 172.823 148.45C172.823 146.487 173.204 144.763 173.966 143.28C174.728 141.797 175.801 140.641 177.185 139.812C178.577 138.984 180.21 138.569 182.082 138.569C183.342 138.569 184.514 138.772 185.6 139.178C186.693 139.576 187.646 140.177 188.458 140.98C189.279 141.784 189.917 142.795 190.372 144.013C190.828 145.223 191.056 146.64 191.056 148.264V149.718H174.935V146.437H186.072C186.072 145.674 185.906 144.999 185.575 144.411C185.243 143.823 184.783 143.363 184.195 143.031C183.615 142.692 182.94 142.522 182.169 142.522C181.365 142.522 180.653 142.708 180.031 143.081C179.418 143.446 178.938 143.939 178.59 144.56C178.242 145.173 178.063 145.857 178.055 146.611V149.73C178.055 150.675 178.229 151.491 178.577 152.179C178.933 152.867 179.435 153.397 180.081 153.77C180.727 154.143 181.494 154.329 182.38 154.329C182.969 154.329 183.507 154.246 183.996 154.081C184.485 153.915 184.904 153.666 185.252 153.335C185.6 153.003 185.865 152.597 186.047 152.117L190.944 152.44C190.695 153.617 190.186 154.644 189.415 155.522C188.653 156.392 187.667 157.072 186.457 157.561C185.256 158.041 183.868 158.282 182.293 158.282Z" fill="white"/>
<path d="M200.616 154.429L200.479 155.796C200.371 156.89 200.164 157.979 199.858 159.065C199.559 160.158 199.244 161.149 198.913 162.035C198.59 162.922 198.329 163.618 198.13 164.123H194.7C194.824 163.634 194.994 162.951 195.209 162.072C195.425 161.202 195.628 160.225 195.818 159.139C196.009 158.054 196.129 156.948 196.179 155.821L196.241 154.429H200.616Z" fill="white"/>
<path d="M221.687 158.282C219.756 158.282 218.087 157.871 216.678 157.051C215.278 156.223 214.196 155.071 213.434 153.596C212.672 152.113 212.291 150.393 212.291 148.438C212.291 146.466 212.672 144.742 213.434 143.267C214.196 141.784 215.278 140.632 216.678 139.812C218.087 138.984 219.756 138.569 221.687 138.569C223.617 138.569 225.283 138.984 226.683 139.812C228.092 140.632 229.177 141.784 229.94 143.267C230.702 144.742 231.083 146.466 231.083 148.438C231.083 150.393 230.702 152.113 229.94 153.596C229.177 155.071 228.092 156.223 226.683 157.051C225.283 157.871 223.617 158.282 221.687 158.282ZM221.712 154.18C222.59 154.18 223.323 153.931 223.912 153.434C224.5 152.929 224.943 152.241 225.242 151.371C225.548 150.501 225.701 149.511 225.701 148.401C225.701 147.29 225.548 146.3 225.242 145.43C224.943 144.56 224.5 143.872 223.912 143.367C223.323 142.861 222.59 142.609 221.712 142.609C220.825 142.609 220.079 142.861 219.474 143.367C218.878 143.872 218.426 144.56 218.12 145.43C217.821 146.3 217.672 147.29 217.672 148.401C217.672 149.511 217.821 150.501 218.12 151.371C218.426 152.241 218.878 152.929 219.474 153.434C220.079 153.931 220.825 154.18 221.712 154.18Z" fill="white"/>
<path d="M234.876 157.909V138.818H240.009V142.149H240.208C240.556 140.964 241.14 140.069 241.96 139.464C242.781 138.851 243.725 138.544 244.794 138.544C245.059 138.544 245.345 138.561 245.652 138.594C245.958 138.627 246.228 138.673 246.46 138.731V143.429C246.211 143.354 245.867 143.288 245.428 143.23C244.989 143.172 244.587 143.143 244.223 143.143C243.444 143.143 242.748 143.313 242.134 143.653C241.53 143.984 241.049 144.448 240.693 145.045C240.345 145.641 240.171 146.329 240.171 147.108V157.909H234.876Z" fill="white"/>
<path d="M257.259 165.466C255.544 165.466 254.073 165.229 252.847 164.757C251.629 164.293 250.66 163.659 249.939 162.855C249.218 162.052 248.75 161.149 248.534 160.146L253.431 159.487C253.58 159.868 253.817 160.225 254.14 160.556C254.463 160.888 254.89 161.153 255.42 161.352C255.959 161.559 256.613 161.662 257.384 161.662C258.535 161.662 259.484 161.381 260.23 160.817C260.984 160.262 261.361 159.33 261.361 158.021V154.528H261.137C260.905 155.058 260.557 155.56 260.093 156.032C259.629 156.504 259.033 156.89 258.303 157.188C257.574 157.486 256.704 157.635 255.693 157.635C254.26 157.635 252.955 157.304 251.778 156.641C250.61 155.97 249.678 154.946 248.982 153.571C248.294 152.187 247.95 150.439 247.95 148.326C247.95 146.163 248.302 144.357 249.007 142.907C249.711 141.457 250.647 140.371 251.816 139.651C252.992 138.93 254.281 138.569 255.681 138.569C256.75 138.569 257.645 138.752 258.366 139.116C259.087 139.472 259.667 139.92 260.106 140.458C260.553 140.989 260.897 141.511 261.137 142.025H261.336V138.818H266.594V158.095C266.594 159.719 266.196 161.078 265.4 162.172C264.605 163.266 263.503 164.086 262.094 164.633C260.694 165.188 259.082 165.466 257.259 165.466ZM257.371 153.658C258.225 153.658 258.946 153.447 259.534 153.024C260.131 152.593 260.586 151.98 260.901 151.185C261.224 150.381 261.386 149.42 261.386 148.301C261.386 147.183 261.228 146.213 260.914 145.393C260.599 144.564 260.143 143.922 259.546 143.466C258.95 143.011 258.225 142.783 257.371 142.783C256.501 142.783 255.768 143.019 255.171 143.491C254.575 143.955 254.123 144.601 253.817 145.43C253.51 146.259 253.357 147.216 253.357 148.301C253.357 149.403 253.51 150.356 253.817 151.16C254.131 151.955 254.583 152.573 255.171 153.012C255.768 153.443 256.501 153.658 257.371 153.658Z" fill="white"/>
<path d="M276.601 158.269C275.383 158.269 274.297 158.058 273.345 157.635C272.392 157.204 271.638 156.571 271.082 155.734C270.536 154.888 270.262 153.836 270.262 152.577C270.262 151.516 270.457 150.625 270.846 149.904C271.236 149.184 271.766 148.604 272.437 148.164C273.108 147.725 273.871 147.394 274.724 147.17C275.586 146.946 276.489 146.789 277.434 146.698C278.544 146.582 279.439 146.474 280.118 146.375C280.798 146.267 281.291 146.109 281.597 145.902C281.904 145.695 282.057 145.389 282.057 144.983V144.908C282.057 144.121 281.809 143.512 281.311 143.081C280.823 142.65 280.127 142.435 279.223 142.435C278.271 142.435 277.512 142.646 276.949 143.069C276.385 143.483 276.013 144.005 275.83 144.635L270.933 144.237C271.182 143.077 271.671 142.074 272.4 141.229C273.129 140.376 274.07 139.721 275.221 139.265C276.381 138.801 277.724 138.569 279.248 138.569C280.309 138.569 281.324 138.694 282.293 138.942C283.271 139.191 284.137 139.576 284.891 140.098C285.653 140.62 286.254 141.291 286.693 142.112C287.132 142.924 287.352 143.897 287.352 145.032V157.909H282.331V155.261H282.182C281.875 155.858 281.465 156.384 280.951 156.84C280.437 157.287 279.82 157.639 279.099 157.896C278.378 158.145 277.546 158.269 276.601 158.269ZM278.117 154.615C278.896 154.615 279.584 154.462 280.18 154.155C280.777 153.84 281.245 153.418 281.585 152.887C281.925 152.357 282.095 151.756 282.095 151.085V149.059C281.929 149.167 281.701 149.266 281.411 149.358C281.129 149.44 280.81 149.519 280.454 149.594C280.098 149.66 279.741 149.722 279.385 149.78C279.029 149.83 278.706 149.875 278.416 149.917C277.794 150.008 277.251 150.153 276.787 150.352C276.323 150.551 275.963 150.82 275.706 151.16C275.449 151.491 275.321 151.906 275.321 152.403C275.321 153.124 275.582 153.675 276.104 154.056C276.634 154.429 277.305 154.615 278.117 154.615Z" fill="white"/>
<path d="M297.105 146.872V157.909H291.81V138.818H296.856V142.186H297.08C297.502 141.076 298.211 140.197 299.205 139.551C300.199 138.897 301.405 138.569 302.822 138.569C304.148 138.569 305.303 138.859 306.29 139.439C307.276 140.019 308.042 140.848 308.589 141.925C309.136 142.994 309.409 144.27 309.409 145.753V157.909H304.114V146.698C304.123 145.529 303.824 144.618 303.22 143.963C302.615 143.301 301.782 142.969 300.721 142.969C300.009 142.969 299.379 143.122 298.832 143.429C298.294 143.736 297.871 144.183 297.564 144.771C297.266 145.351 297.113 146.051 297.105 146.872Z" fill="white"/>
<path d="M313.932 157.909V138.818H319.227V157.909H313.932ZM316.592 136.357C315.805 136.357 315.13 136.096 314.566 135.574C314.011 135.044 313.733 134.41 313.733 133.672C313.733 132.943 314.011 132.317 314.566 131.795C315.13 131.265 315.805 131 316.592 131C317.379 131 318.05 131.265 318.606 131.795C319.169 132.317 319.451 132.943 319.451 133.672C319.451 134.41 319.169 135.044 318.606 135.574C318.05 136.096 317.379 136.357 316.592 136.357Z" fill="white"/>
<path d="M323.719 157.909V154.752L333.066 143.18V143.044H324.042V138.818H339.442V142.261L330.667 153.546V153.683H339.765V157.909H323.719Z" fill="white"/>
<path d="M352.317 158.282C350.353 158.282 348.663 157.884 347.246 157.088C345.837 156.285 344.752 155.15 343.99 153.683C343.227 152.208 342.846 150.464 342.846 148.45C342.846 146.487 343.227 144.763 343.99 143.28C344.752 141.797 345.825 140.641 347.209 139.812C348.601 138.984 350.233 138.569 352.106 138.569C353.365 138.569 354.538 138.772 355.623 139.178C356.717 139.576 357.67 140.177 358.482 140.98C359.302 141.784 359.94 142.795 360.396 144.013C360.851 145.223 361.079 146.64 361.079 148.264V149.718H344.959V146.437H356.095C356.095 145.674 355.93 144.999 355.598 144.411C355.267 143.823 354.807 143.363 354.219 143.031C353.639 142.692 352.963 142.522 352.193 142.522C351.389 142.522 350.676 142.708 350.055 143.081C349.442 143.446 348.961 143.939 348.613 144.56C348.265 145.173 348.087 145.857 348.079 146.611V149.73C348.079 150.675 348.253 151.491 348.601 152.179C348.957 152.867 349.458 153.397 350.105 153.77C350.751 154.143 351.517 154.329 352.404 154.329C352.992 154.329 353.531 154.246 354.02 154.081C354.509 153.915 354.927 153.666 355.275 153.335C355.623 153.003 355.888 152.597 356.07 152.117L360.967 152.44C360.719 153.617 360.209 154.644 359.439 155.522C358.676 156.392 357.69 157.072 356.481 157.561C355.279 158.041 353.891 158.282 352.317 158.282Z" fill="white"/>
<path d="M378.779 158.269C377.561 158.269 376.476 158.058 375.523 157.635C374.57 157.204 373.816 156.571 373.261 155.734C372.714 154.888 372.44 153.836 372.44 152.577C372.44 151.516 372.635 150.625 373.024 149.904C373.414 149.184 373.944 148.604 374.615 148.164C375.286 147.725 376.049 147.394 376.902 147.17C377.764 146.946 378.667 146.789 379.612 146.698C380.722 146.582 381.617 146.474 382.296 146.375C382.976 146.267 383.469 146.109 383.775 145.902C384.082 145.695 384.235 145.389 384.235 144.983V144.908C384.235 144.121 383.987 143.512 383.49 143.081C383.001 142.65 382.305 142.435 381.402 142.435C380.449 142.435 379.69 142.646 379.127 143.069C378.564 143.483 378.191 144.005 378.008 144.635L373.111 144.237C373.36 143.077 373.849 142.074 374.578 141.229C375.307 140.376 376.248 139.721 377.399 139.265C378.559 138.801 379.902 138.569 381.426 138.569C382.487 138.569 383.502 138.694 384.472 138.942C385.449 139.191 386.315 139.576 387.069 140.098C387.831 140.62 388.432 141.291 388.871 142.112C389.311 142.924 389.53 143.897 389.53 145.032V157.909H384.509V155.261H384.36C384.053 155.858 383.643 156.384 383.129 156.84C382.615 157.287 381.998 157.639 381.277 157.896C380.556 158.145 379.724 158.269 378.779 158.269ZM380.295 154.615C381.074 154.615 381.762 154.462 382.359 154.155C382.955 153.84 383.423 153.418 383.763 152.887C384.103 152.357 384.273 151.756 384.273 151.085V149.059C384.107 149.167 383.879 149.266 383.589 149.358C383.307 149.44 382.988 149.519 382.632 149.594C382.276 149.66 381.919 149.722 381.563 149.78C381.207 149.83 380.884 149.875 380.594 149.917C379.972 150.008 379.43 150.153 378.965 150.352C378.501 150.551 378.141 150.82 377.884 151.16C377.627 151.491 377.499 151.906 377.499 152.403C377.499 153.124 377.76 153.675 378.282 154.056C378.812 154.429 379.483 154.615 380.295 154.615Z" fill="white"/>
<path d="M399.283 146.872V157.909H393.988V138.818H399.034V142.186H399.258C399.68 141.076 400.389 140.197 401.383 139.551C402.377 138.897 403.583 138.569 405 138.569C406.326 138.569 407.482 138.859 408.468 139.439C409.454 140.019 410.22 140.848 410.767 141.925C411.314 142.994 411.587 144.27 411.587 145.753V157.909H406.293V146.698C406.301 145.529 406.003 144.618 405.398 143.963C404.793 143.301 403.96 142.969 402.899 142.969C402.187 142.969 401.557 143.122 401.01 143.429C400.472 143.736 400.049 144.183 399.743 144.771C399.444 145.351 399.291 146.051 399.283 146.872Z" fill="white"/>
<path d="M423.145 158.219C421.695 158.219 420.382 157.847 419.205 157.101C418.037 156.347 417.109 155.241 416.421 153.782C415.742 152.316 415.402 150.518 415.402 148.388C415.402 146.201 415.754 144.382 416.458 142.932C417.163 141.473 418.099 140.384 419.267 139.663C420.444 138.934 421.732 138.569 423.133 138.569C424.202 138.569 425.092 138.752 425.805 139.116C426.526 139.472 427.106 139.92 427.545 140.458C427.992 140.989 428.332 141.511 428.564 142.025H428.726V132.454H434.008V157.909H428.788V154.851H428.564C428.316 155.382 427.963 155.908 427.508 156.43C427.06 156.943 426.476 157.37 425.755 157.71C425.043 158.05 424.173 158.219 423.145 158.219ZM424.823 154.006C425.677 154.006 426.397 153.774 426.986 153.31C427.582 152.838 428.038 152.179 428.353 151.334C428.676 150.489 428.838 149.498 428.838 148.363C428.838 147.228 428.68 146.242 428.365 145.405C428.05 144.568 427.595 143.922 426.998 143.466C426.402 143.011 425.677 142.783 424.823 142.783C423.953 142.783 423.22 143.019 422.623 143.491C422.027 143.963 421.575 144.618 421.268 145.455C420.962 146.292 420.809 147.261 420.809 148.363C420.809 149.474 420.962 150.455 421.268 151.309C421.583 152.154 422.035 152.817 422.623 153.298C423.22 153.77 423.953 154.006 424.823 154.006Z" fill="white"/>
<path d="M61.2947 174.454V199.909H56V174.454H61.2947Z" fill="white"/>
<path d="M65.8861 199.909V180.818H71.1809V199.909H65.8861ZM68.5459 178.357C67.7588 178.357 67.0835 178.096 66.52 177.574C65.9648 177.044 65.6873 176.41 65.6873 175.672C65.6873 174.943 65.9648 174.317 66.52 173.795C67.0835 173.265 67.7588 173 68.5459 173C69.3331 173 70.0043 173.265 70.5594 173.795C71.1229 174.317 71.4046 174.943 71.4046 175.672C71.4046 176.41 71.1229 177.044 70.5594 177.574C70.0043 178.096 69.3331 178.357 68.5459 178.357Z" fill="white"/>
<path d="M93.5706 180.818L86.8962 199.909H80.9303L74.2559 180.818H79.849L83.8138 194.477H84.0127L87.9651 180.818H93.5706Z" fill="white"/>
<path d="M104.715 200.282C102.751 200.282 101.061 199.884 99.6441 199.088C98.2355 198.285 97.15 197.15 96.3877 195.683C95.6254 194.208 95.2442 192.464 95.2442 190.45C95.2442 188.487 95.6254 186.763 96.3877 185.28C97.15 183.797 98.2231 182.641 99.6068 181.812C100.999 180.984 102.631 180.569 104.504 180.569C105.763 180.569 106.936 180.772 108.021 181.178C109.115 181.576 110.068 182.177 110.88 182.98C111.7 183.784 112.338 184.795 112.794 186.013C113.25 187.223 113.478 188.64 113.478 190.264V191.718H97.3572V188.437H108.494C108.494 187.674 108.328 186.999 107.996 186.411C107.665 185.823 107.205 185.363 106.617 185.031C106.037 184.692 105.361 184.522 104.591 184.522C103.787 184.522 103.075 184.708 102.453 185.081C101.84 185.446 101.359 185.939 101.011 186.56C100.663 187.173 100.485 187.857 100.477 188.611V191.73C100.477 192.675 100.651 193.491 100.999 194.179C101.355 194.867 101.856 195.397 102.503 195.77C103.149 196.143 103.916 196.329 104.802 196.329C105.39 196.329 105.929 196.246 106.418 196.081C106.907 195.915 107.325 195.666 107.673 195.335C108.021 195.003 108.286 194.597 108.469 194.117L113.366 194.44C113.117 195.617 112.608 196.644 111.837 197.522C111.075 198.392 110.089 199.072 108.879 199.561C107.677 200.041 106.289 200.282 104.715 200.282Z" fill="white"/>
<path d="M129.002 207.068C128.331 207.068 127.701 207.014 127.113 206.906C126.533 206.807 126.052 206.678 125.671 206.521L126.864 202.569C127.486 202.759 128.045 202.863 128.542 202.879C129.048 202.896 129.483 202.78 129.847 202.531C130.22 202.283 130.523 201.86 130.755 201.263L131.065 200.456L124.217 180.818H129.785L133.738 194.838H133.937L137.926 180.818H143.532L136.112 201.972C135.755 202.999 135.271 203.894 134.657 204.657C134.053 205.427 133.286 206.02 132.358 206.434C131.43 206.857 130.311 207.068 129.002 207.068Z" fill="white"/>
<path d="M154.602 200.282C152.671 200.282 151.001 199.871 149.593 199.051C148.192 198.223 147.111 197.071 146.349 195.596C145.587 194.113 145.205 192.393 145.205 190.438C145.205 188.466 145.587 186.742 146.349 185.267C147.111 183.784 148.192 182.632 149.593 181.812C151.001 180.984 152.671 180.569 154.602 180.569C156.532 180.569 158.198 180.984 159.598 181.812C161.007 182.632 162.092 183.784 162.855 185.267C163.617 186.742 163.998 188.466 163.998 190.438C163.998 192.393 163.617 194.113 162.855 195.596C162.092 197.071 161.007 198.223 159.598 199.051C158.198 199.871 156.532 200.282 154.602 200.282ZM154.627 196.18C155.505 196.18 156.238 195.931 156.826 195.434C157.415 194.929 157.858 194.241 158.156 193.371C158.463 192.501 158.616 191.511 158.616 190.401C158.616 189.29 158.463 188.3 158.156 187.43C157.858 186.56 157.415 185.872 156.826 185.367C156.238 184.861 155.505 184.609 154.627 184.609C153.74 184.609 152.994 184.861 152.389 185.367C151.793 185.872 151.341 186.56 151.035 187.43C150.736 188.3 150.587 189.29 150.587 190.401C150.587 191.511 150.736 192.501 151.035 193.371C151.341 194.241 151.793 194.929 152.389 195.434C152.994 195.931 153.74 196.18 154.627 196.18Z" fill="white"/>
<path d="M180.033 191.78V180.818H185.328V199.909H180.245V196.441H180.046C179.615 197.56 178.898 198.459 177.896 199.138C176.901 199.818 175.687 200.157 174.254 200.157C172.978 200.157 171.855 199.867 170.886 199.287C169.916 198.707 169.158 197.883 168.611 196.814C168.073 195.745 167.799 194.465 167.791 192.973V180.818H173.086V192.029C173.094 193.156 173.396 194.046 173.993 194.701C174.589 195.356 175.389 195.683 176.392 195.683C177.03 195.683 177.626 195.538 178.181 195.248C178.737 194.95 179.184 194.51 179.524 193.93C179.872 193.35 180.042 192.634 180.033 191.78Z" fill="white"/>
<path d="M189.913 199.909V180.818H195.046V184.149H195.245C195.593 182.964 196.177 182.069 196.998 181.464C197.818 180.851 198.763 180.544 199.832 180.544C200.097 180.544 200.383 180.561 200.689 180.594C200.996 180.627 201.265 180.673 201.497 180.731V185.429C201.249 185.354 200.905 185.288 200.465 185.23C200.026 185.172 199.624 185.143 199.26 185.143C198.481 185.143 197.785 185.313 197.172 185.653C196.567 185.984 196.086 186.448 195.73 187.045C195.382 187.641 195.208 188.329 195.208 189.108V199.909H189.913Z" fill="white"/>
<path d="M220.07 200.219C218.62 200.219 217.307 199.847 216.13 199.101C214.962 198.347 214.034 197.241 213.346 195.782C212.666 194.316 212.327 192.518 212.327 190.388C212.327 188.201 212.679 186.382 213.383 184.932C214.087 183.473 215.024 182.384 216.192 181.663C217.369 180.934 218.657 180.569 220.058 180.569C221.126 180.569 222.017 180.752 222.73 181.116C223.451 181.472 224.031 181.92 224.47 182.458C224.917 182.989 225.257 183.511 225.489 184.025H225.651V174.454H230.933V199.909H225.713V196.851H225.489C225.24 197.382 224.888 197.908 224.433 198.43C223.985 198.943 223.401 199.37 222.68 199.71C221.967 200.05 221.097 200.219 220.07 200.219ZM221.748 196.006C222.601 196.006 223.322 195.774 223.911 195.31C224.507 194.838 224.963 194.179 225.278 193.334C225.601 192.489 225.762 191.498 225.762 190.363C225.762 189.228 225.605 188.242 225.29 187.405C224.975 186.568 224.52 185.922 223.923 185.466C223.326 185.011 222.601 184.783 221.748 184.783C220.878 184.783 220.145 185.019 219.548 185.491C218.951 185.963 218.5 186.618 218.193 187.455C217.887 188.292 217.733 189.261 217.733 190.363C217.733 191.474 217.887 192.455 218.193 193.309C218.508 194.154 218.96 194.817 219.548 195.298C220.145 195.77 220.878 196.006 221.748 196.006Z" fill="white"/>
<path d="M235.636 199.909V180.818H240.769V184.149H240.968C241.316 182.964 241.9 182.069 242.721 181.464C243.541 180.851 244.486 180.544 245.554 180.544C245.82 180.544 246.105 180.561 246.412 180.594C246.719 180.627 246.988 180.673 247.22 180.731V185.429C246.971 185.354 246.627 185.288 246.188 185.23C245.749 185.172 245.347 185.143 244.983 185.143C244.204 185.143 243.508 185.313 242.895 185.653C242.29 185.984 241.809 186.448 241.453 187.045C241.105 187.641 240.931 188.329 240.931 189.108V199.909H235.636Z" fill="white"/>
<path d="M258.119 200.282C256.155 200.282 254.465 199.884 253.048 199.088C251.639 198.285 250.554 197.15 249.792 195.683C249.029 194.208 248.648 192.464 248.648 190.45C248.648 188.487 249.029 186.763 249.792 185.28C250.554 183.797 251.627 182.641 253.011 181.812C254.403 180.984 256.035 180.569 257.908 180.569C259.167 180.569 260.34 180.772 261.425 181.178C262.519 181.576 263.472 182.177 264.284 182.98C265.104 183.784 265.742 184.795 266.198 186.013C266.654 187.223 266.881 188.64 266.881 190.264V191.718H250.761V188.437H261.897C261.897 187.674 261.732 186.999 261.4 186.411C261.069 185.823 260.609 185.363 260.021 185.031C259.441 184.692 258.765 184.522 257.995 184.522C257.191 184.522 256.478 184.708 255.857 185.081C255.244 185.446 254.763 185.939 254.415 186.56C254.067 187.173 253.889 187.857 253.881 188.611V191.73C253.881 192.675 254.055 193.491 254.403 194.179C254.759 194.867 255.26 195.397 255.907 195.77C256.553 196.143 257.319 196.329 258.206 196.329C258.794 196.329 259.333 196.246 259.822 196.081C260.311 195.915 260.729 195.666 261.077 195.335C261.425 195.003 261.69 194.597 261.873 194.117L266.77 194.44C266.521 195.617 266.011 196.644 265.241 197.522C264.479 198.392 263.492 199.072 262.283 199.561C261.081 200.041 259.693 200.282 258.119 200.282Z" fill="white"/>
<path d="M276.131 200.269C274.913 200.269 273.827 200.058 272.874 199.635C271.921 199.204 271.167 198.571 270.612 197.734C270.065 196.888 269.792 195.836 269.792 194.577C269.792 193.516 269.987 192.625 270.376 191.904C270.765 191.184 271.296 190.604 271.967 190.164C272.638 189.725 273.4 189.394 274.254 189.17C275.116 188.946 276.019 188.789 276.963 188.698C278.074 188.582 278.969 188.474 279.648 188.375C280.327 188.267 280.82 188.109 281.127 187.902C281.434 187.695 281.587 187.389 281.587 186.983V186.908C281.587 186.121 281.338 185.512 280.841 185.081C280.352 184.65 279.656 184.435 278.753 184.435C277.8 184.435 277.042 184.646 276.479 185.069C275.915 185.483 275.542 186.005 275.36 186.635L270.463 186.237C270.712 185.077 271.2 184.074 271.93 183.229C272.659 182.376 273.599 181.721 274.751 181.265C275.911 180.801 277.253 180.569 278.778 180.569C279.839 180.569 280.854 180.694 281.823 180.942C282.801 181.191 283.667 181.576 284.421 182.098C285.183 182.62 285.784 183.291 286.223 184.112C286.662 184.924 286.882 185.897 286.882 187.032V199.909H281.86V197.261H281.711C281.405 197.858 280.994 198.384 280.481 198.84C279.967 199.287 279.35 199.639 278.629 199.896C277.908 200.145 277.075 200.269 276.131 200.269ZM277.647 196.615C278.426 196.615 279.114 196.462 279.71 196.155C280.307 195.84 280.775 195.418 281.115 194.887C281.454 194.357 281.624 193.756 281.624 193.085V191.059C281.459 191.167 281.231 191.266 280.941 191.358C280.659 191.44 280.34 191.519 279.984 191.594C279.627 191.66 279.271 191.722 278.915 191.78C278.558 191.83 278.235 191.875 277.945 191.917C277.324 192.008 276.781 192.153 276.317 192.352C275.853 192.551 275.493 192.82 275.236 193.16C274.979 193.491 274.85 193.906 274.85 194.403C274.85 195.124 275.111 195.675 275.633 196.056C276.164 196.429 276.835 196.615 277.647 196.615Z" fill="white"/>
<path d="M291.339 199.909V180.818H296.386V184.186H296.609C297.007 183.067 297.67 182.185 298.598 181.539C299.526 180.892 300.636 180.569 301.929 180.569C303.238 180.569 304.353 180.897 305.272 181.551C306.192 182.197 306.805 183.076 307.112 184.186H307.311C307.7 183.092 308.404 182.218 309.424 181.564C310.451 180.901 311.665 180.569 313.065 180.569C314.847 180.569 316.293 181.137 317.403 182.272C318.522 183.399 319.081 184.998 319.081 187.07V199.909H313.799V188.114C313.799 187.053 313.517 186.258 312.953 185.727C312.39 185.197 311.686 184.932 310.84 184.932C309.879 184.932 309.129 185.238 308.591 185.852C308.052 186.456 307.783 187.256 307.783 188.25V199.909H302.65V188.002C302.65 187.065 302.381 186.32 301.842 185.765C301.312 185.209 300.611 184.932 299.741 184.932C299.153 184.932 298.623 185.081 298.151 185.379C297.687 185.669 297.318 186.079 297.044 186.61C296.771 187.132 296.634 187.745 296.634 188.449V199.909H291.339Z" fill="white"/>
<path d="M337.359 188.872V199.909H332.064V174.454H337.209V184.186H337.433C337.864 183.059 338.56 182.177 339.521 181.539C340.482 180.892 341.688 180.569 343.138 180.569C344.464 180.569 345.62 180.859 346.606 181.439C347.6 182.011 348.371 182.835 348.918 183.913C349.473 184.982 349.746 186.262 349.738 187.753V199.909H344.443V188.698C344.451 187.521 344.153 186.606 343.548 185.951C342.952 185.296 342.115 184.969 341.038 184.969C340.317 184.969 339.679 185.122 339.124 185.429C338.577 185.736 338.146 186.183 337.831 186.771C337.524 187.351 337.367 188.051 337.359 188.872Z" fill="white"/>
<path d="M362.88 200.282C360.95 200.282 359.28 199.871 357.872 199.051C356.471 198.223 355.39 197.071 354.628 195.596C353.865 194.113 353.484 192.393 353.484 190.438C353.484 188.466 353.865 186.742 354.628 185.267C355.39 183.784 356.471 182.632 357.872 181.812C359.28 180.984 360.95 180.569 362.88 180.569C364.811 180.569 366.477 180.984 367.877 181.812C369.285 182.632 370.371 183.784 371.133 185.267C371.896 186.742 372.277 188.466 372.277 190.438C372.277 192.393 371.896 194.113 371.133 195.596C370.371 197.071 369.285 198.223 367.877 199.051C366.477 199.871 364.811 200.282 362.88 200.282ZM362.905 196.18C363.784 196.18 364.517 195.931 365.105 195.434C365.693 194.929 366.137 194.241 366.435 193.371C366.742 192.501 366.895 191.511 366.895 190.401C366.895 189.29 366.742 188.3 366.435 187.43C366.137 186.56 365.693 185.872 365.105 185.367C364.517 184.861 363.784 184.609 362.905 184.609C362.019 184.609 361.273 184.861 360.668 185.367C360.071 185.872 359.62 186.56 359.313 187.43C359.015 188.3 358.866 189.29 358.866 190.401C358.866 191.511 359.015 192.501 359.313 193.371C359.62 194.241 360.071 194.929 360.668 195.434C361.273 195.931 362.019 196.18 362.905 196.18Z" fill="white"/>
<path d="M376.07 199.909V180.818H381.116V184.186H381.339C381.737 183.067 382.4 182.185 383.328 181.539C384.256 180.892 385.366 180.569 386.659 180.569C387.968 180.569 389.083 180.897 390.002 181.551C390.922 182.197 391.535 183.076 391.842 184.186H392.041C392.43 183.092 393.135 182.218 394.154 181.564C395.181 180.901 396.395 180.569 397.795 180.569C399.577 180.569 401.023 181.137 402.133 182.272C403.252 183.399 403.811 184.998 403.811 187.07V199.909H398.529V188.114C398.529 187.053 398.247 186.258 397.684 185.727C397.12 185.197 396.416 184.932 395.571 184.932C394.609 184.932 393.86 185.238 393.321 185.852C392.782 186.456 392.513 187.256 392.513 188.25V199.909H387.38V188.002C387.38 187.065 387.111 186.32 386.572 185.765C386.042 185.209 385.342 184.932 384.472 184.932C383.883 184.932 383.353 185.081 382.881 185.379C382.417 185.669 382.048 186.079 381.774 186.61C381.501 187.132 381.364 187.745 381.364 188.449V199.909H376.07Z" fill="white"/>
<path d="M417.044 200.282C415.08 200.282 413.39 199.884 411.973 199.088C410.564 198.285 409.479 197.15 408.716 195.683C407.954 194.208 407.573 192.464 407.573 190.45C407.573 188.487 407.954 186.763 408.716 185.28C409.479 183.797 410.552 182.641 411.935 181.812C413.327 180.984 414.96 180.569 416.832 180.569C418.092 180.569 419.264 180.772 420.35 181.178C421.444 181.576 422.396 182.177 423.208 182.98C424.029 183.784 424.667 184.795 425.122 186.013C425.578 187.223 425.806 188.64 425.806 190.264V191.718H409.686V188.437H420.822C420.822 187.674 420.656 186.999 420.325 186.411C419.993 185.823 419.534 185.363 418.945 185.031C418.365 184.692 417.69 184.522 416.919 184.522C416.116 184.522 415.403 184.708 414.782 185.081C414.168 185.446 413.688 185.939 413.34 186.56C412.992 187.173 412.814 187.857 412.805 188.611V191.73C412.805 192.675 412.979 193.491 413.327 194.179C413.684 194.867 414.185 195.397 414.831 195.77C415.478 196.143 416.244 196.329 417.131 196.329C417.719 196.329 418.258 196.246 418.746 196.081C419.235 195.915 419.654 195.666 420.002 195.335C420.35 195.003 420.615 194.597 420.797 194.117L425.694 194.44C425.446 195.617 424.936 196.644 424.165 197.522C423.403 198.392 422.417 199.072 421.207 199.561C420.006 200.041 418.618 200.282 417.044 200.282Z" fill="white"/>
</g>
<defs>
<clipPath id="clip0_314_2">
<rect width="700" height="700" fill="white"/>
</clipPath>
</defs>
</svg>
