<svg width="700" height="700" viewBox="0 0 700 700" fill="none" xmlns="http://www.w3.org/2000/svg">
<g clip-path="url(#clip0_314_2)">
<path d="M0 0H700V700L681.862 681.862V17.4664H17.4664V681.862H681.862L700 700H0V0Z" fill="#004AC8"/>
<path d="M70.5596 452.783V344.321H143.645V363.228H93.4915V389.072H139.885V407.979H93.4915V433.876H143.856V452.783H70.5596ZM180.306 371.437L195.241 399.876L210.547 371.437H233.69L210.124 412.109L234.326 452.783H211.289L195.241 424.661L179.46 452.783H156.157L180.306 412.109L157.004 371.437H180.306ZM247.089 483.289V371.437H269.332V385.099H270.339C271.327 382.911 272.758 380.686 274.629 378.427C276.535 376.132 279.007 374.226 282.044 372.708C285.115 371.153 288.928 370.377 293.483 370.377C299.415 370.377 304.887 371.93 309.9 375.038C314.914 378.109 318.922 382.752 321.922 388.966C324.924 395.144 326.425 402.895 326.425 412.215C326.425 421.29 324.959 428.951 322.028 435.2C319.133 441.414 315.179 446.128 310.165 449.341C305.187 452.518 299.608 454.107 293.43 454.107C289.052 454.107 285.327 453.384 282.255 451.935C279.218 450.488 276.73 448.67 274.788 446.48C272.846 444.257 271.364 442.014 270.339 439.755H269.651V483.289H247.089ZM269.174 412.109C269.174 416.946 269.845 421.166 271.186 424.767C272.529 428.368 274.47 431.176 277.012 433.187C279.554 435.165 282.643 436.154 286.28 436.154C289.952 436.154 293.06 435.147 295.602 433.135C298.144 431.087 300.068 428.263 301.374 424.661C302.716 421.025 303.386 416.841 303.386 412.109C303.386 407.413 302.733 403.283 301.427 399.718C300.12 396.15 298.196 393.361 295.654 391.35C293.112 389.337 289.987 388.331 286.28 388.331C282.608 388.331 279.502 389.301 276.96 391.244C274.453 393.185 272.529 395.939 271.186 399.505C269.845 403.071 269.174 407.272 269.174 412.109ZM378.219 454.373C369.992 454.373 362.878 452.625 356.877 449.129C350.91 445.598 346.301 440.691 343.054 434.406C339.805 428.086 338.181 420.759 338.181 412.428C338.181 404.025 339.805 396.681 343.054 390.396C346.301 384.076 350.91 379.169 356.877 375.673C362.878 372.142 369.992 370.377 378.219 370.377C386.446 370.377 393.543 372.142 399.509 375.673C405.511 379.169 410.137 384.076 413.384 390.396C416.633 396.681 418.257 404.025 418.257 412.428C418.257 420.759 416.633 428.086 413.384 434.406C410.137 440.691 405.511 445.598 399.509 449.129C393.543 452.625 386.446 454.373 378.219 454.373ZM378.325 436.895C382.067 436.895 385.192 435.835 387.699 433.718C390.206 431.564 392.095 428.634 393.367 424.926C394.672 421.219 395.325 417 395.325 412.269C395.325 407.537 394.672 403.318 393.367 399.611C392.095 395.903 390.206 392.973 387.699 390.819C385.192 388.665 382.067 387.589 378.325 387.589C374.547 387.589 371.37 388.665 368.793 390.819C366.251 392.973 364.327 395.903 363.019 399.611C361.748 403.318 361.113 407.537 361.113 412.269C361.113 417 361.748 421.219 363.019 424.926C364.327 428.634 366.251 431.564 368.793 433.718C371.37 435.835 374.547 436.895 378.325 436.895Z" fill="#004AC8"/>
<path d="M79.849 638.196H55.2754L92.7183 529.733H122.27L159.66 638.196H135.086L107.918 554.518H107.071L79.849 638.196ZM78.3131 595.563H136.357V613.463H78.3131V595.563ZM170.8 638.196V556.849H192.673V571.041H193.519C195.003 565.994 197.492 562.181 200.987 559.602C204.483 556.99 208.508 555.683 213.062 555.683C214.192 555.683 215.41 555.754 216.716 555.895C218.023 556.036 219.171 556.231 220.158 556.478V576.496C219.1 576.179 217.635 575.897 215.763 575.65C213.892 575.403 212.179 575.279 210.626 575.279C207.307 575.279 204.342 576.003 201.729 577.45C199.152 578.862 197.104 580.84 195.586 583.382C194.102 585.924 193.361 588.854 193.361 592.173V638.196H170.8ZM230.332 638.196V556.849H252.205V571.041H253.052C254.535 565.994 257.025 562.181 260.519 559.602C264.015 556.99 268.039 555.683 272.594 555.683C273.724 555.683 274.942 555.754 276.248 555.895C277.556 556.036 278.703 556.231 279.691 556.478V576.496C278.632 576.179 277.166 575.897 275.296 575.65C273.424 575.403 271.711 575.279 270.158 575.279C266.839 575.279 263.874 576.003 261.261 577.45C258.684 578.862 256.636 580.84 255.118 583.382C253.635 585.924 252.893 588.854 252.893 592.173V638.196H230.332ZM323.15 639.785C314.782 639.785 307.579 638.09 301.542 634.7C295.539 631.275 290.915 626.438 287.666 620.189C284.419 613.904 282.794 606.473 282.794 597.893C282.794 589.525 284.419 582.181 287.666 575.861C290.915 569.542 295.487 564.616 301.382 561.086C307.314 557.555 314.27 555.789 322.249 555.789C327.616 555.789 332.612 556.654 337.237 558.385C341.898 560.079 345.958 562.639 349.418 566.063C352.914 569.488 355.632 573.796 357.575 578.986C359.516 584.141 360.486 590.178 360.486 597.099V603.295H291.797V589.314H339.25C339.25 586.065 338.543 583.187 337.131 580.68C335.719 578.174 333.76 576.214 331.253 574.802C328.781 573.355 325.904 572.631 322.62 572.631C319.196 572.631 316.159 573.425 313.511 575.014C310.898 576.568 308.85 578.669 307.368 581.316C305.885 583.929 305.126 586.842 305.091 590.054V603.348C305.091 607.373 305.831 610.85 307.314 613.78C308.833 616.712 310.969 618.971 313.723 620.56C316.476 622.148 319.742 622.944 323.52 622.944C326.028 622.944 328.322 622.59 330.405 621.883C332.489 621.178 334.272 620.118 335.754 618.706C337.237 617.294 338.367 615.565 339.144 613.516L360.01 614.893C358.95 619.907 356.779 624.284 353.496 628.028C350.248 631.735 346.047 634.63 340.891 636.712C335.772 638.76 329.858 639.785 323.15 639.785ZM403.694 639.519C397.515 639.519 391.919 637.931 386.906 634.753C381.927 631.541 377.973 626.826 375.042 620.612C372.147 614.363 370.7 606.702 370.7 597.628C370.7 588.308 372.201 580.557 375.201 574.379C378.202 568.165 382.191 563.521 387.171 560.45C392.184 557.342 397.673 555.789 403.642 555.789C408.195 555.789 411.991 556.566 415.027 558.12C418.1 559.639 420.571 561.545 422.442 563.84C424.349 566.098 425.796 568.323 426.785 570.512H427.472V529.733H449.981V638.196H427.739V625.167H426.785C425.726 627.427 424.225 629.669 422.284 631.893C420.376 634.083 417.887 635.901 414.816 637.348C411.78 638.796 408.071 639.519 403.694 639.519ZM410.843 621.566C414.48 621.566 417.552 620.578 420.059 618.6C422.601 616.588 424.542 613.78 425.884 610.18C427.262 606.579 427.949 602.359 427.949 597.522C427.949 592.685 427.279 588.484 425.937 584.918C424.596 581.352 422.653 578.598 420.111 576.656C417.569 574.713 414.48 573.743 410.843 573.743C407.136 573.743 404.011 574.75 401.469 576.762C398.927 578.774 397.003 581.563 395.697 585.13C394.391 588.696 393.737 592.826 393.737 597.522C393.737 602.254 394.391 606.438 395.697 610.073C397.038 613.676 398.963 616.5 401.469 618.547C404.011 620.56 407.136 621.566 410.843 621.566ZM503.794 639.785C495.567 639.785 488.453 638.037 482.45 634.541C476.483 631.01 471.876 626.104 468.627 619.818C465.38 613.498 463.756 606.172 463.756 597.84C463.756 589.438 465.38 582.094 468.627 575.808C471.876 569.488 476.483 564.582 482.45 561.086C488.453 557.555 495.567 555.789 503.794 555.789C512.021 555.789 519.117 557.555 525.084 561.086C531.086 564.582 535.711 569.488 538.959 575.808C542.208 582.094 543.832 589.438 543.832 597.84C543.832 606.172 542.208 613.498 538.959 619.818C535.711 626.104 531.086 631.01 525.084 634.541C519.117 638.037 512.021 639.785 503.794 639.785ZM503.9 622.308C507.642 622.308 510.767 621.248 513.274 619.13C515.78 616.977 517.669 614.046 518.94 610.338C520.247 606.631 520.9 602.412 520.9 597.682C520.9 592.95 520.247 588.731 518.94 585.024C517.669 581.316 515.78 578.385 513.274 576.232C510.767 574.078 507.642 573.002 503.9 573.002C500.122 573.002 496.944 574.078 494.366 576.232C491.824 578.385 489.9 581.316 488.594 585.024C487.323 588.731 486.688 592.95 486.688 597.682C486.688 602.412 487.323 606.631 488.594 610.338C489.9 614.046 491.824 616.977 494.366 619.13C496.944 621.248 500.122 622.308 503.9 622.308Z" fill="#004AC8"/>
<path d="M62.9975 132.454V157.909H57.6158V132.454H62.9975Z" fill="white"/>
<path d="M67.6759 157.909V138.818H72.7221V142.186H72.9458C73.3435 141.067 74.0064 140.185 74.9344 139.539C75.8625 138.892 76.9728 138.569 78.2654 138.569C79.5746 138.569 80.689 138.897 81.6088 139.551C82.5285 140.197 83.1417 141.076 83.4483 142.186H83.6471C84.0366 141.092 84.7409 140.218 85.7601 139.564C86.7875 138.901 88.0014 138.569 89.4018 138.569C91.1832 138.569 92.6292 139.137 93.7395 140.272C94.8581 141.399 95.4174 142.998 95.4174 145.07V157.909H90.1351V146.114C90.1351 145.053 89.8533 144.258 89.2899 143.727C88.7265 143.197 88.0221 142.932 87.177 142.932C86.2158 142.932 85.4659 143.238 84.9273 143.852C84.3887 144.456 84.1194 145.256 84.1194 146.25V157.909H78.9863V146.002C78.9863 145.065 78.717 144.32 78.1784 143.765C77.6481 143.209 76.9479 142.932 76.0779 142.932C75.4896 142.932 74.9593 143.081 74.487 143.379C74.023 143.669 73.6542 144.079 73.3808 144.61C73.1074 145.132 72.9707 145.745 72.9707 146.449V157.909H67.6759Z" fill="white"/>
<path d="M105.394 158.269C104.176 158.269 103.09 158.058 102.137 157.635C101.184 157.204 100.43 156.571 99.8752 155.734C99.3283 154.888 99.0548 153.836 99.0548 152.577C99.0548 151.516 99.2496 150.625 99.639 149.904C100.028 149.184 100.559 148.604 101.23 148.164C101.901 147.725 102.663 147.394 103.517 147.17C104.379 146.946 105.282 146.789 106.226 146.698C107.337 146.582 108.232 146.474 108.911 146.375C109.59 146.267 110.083 146.109 110.39 145.902C110.697 145.695 110.85 145.389 110.85 144.983V144.908C110.85 144.121 110.601 143.512 110.104 143.081C109.615 142.65 108.919 142.435 108.016 142.435C107.063 142.435 106.305 142.646 105.742 143.069C105.178 143.483 104.805 144.005 104.623 144.635L99.726 144.237C99.9746 143.077 100.463 142.074 101.193 141.229C101.922 140.376 102.862 139.721 104.014 139.265C105.174 138.801 106.516 138.569 108.041 138.569C109.102 138.569 110.117 138.694 111.086 138.942C112.064 139.191 112.93 139.576 113.684 140.098C114.446 140.62 115.047 141.291 115.486 142.112C115.925 142.924 116.145 143.897 116.145 145.032V157.909H111.123V155.261H110.974C110.668 155.858 110.257 156.384 109.744 156.84C109.23 157.287 108.613 157.639 107.892 157.896C107.171 158.145 106.338 158.269 105.394 158.269ZM106.91 154.615C107.689 154.615 108.377 154.462 108.973 154.155C109.57 153.84 110.038 153.418 110.378 152.887C110.717 152.357 110.887 151.756 110.887 151.085V149.059C110.722 149.167 110.494 149.266 110.204 149.358C109.922 149.44 109.603 149.519 109.247 149.594C108.89 149.66 108.534 149.722 108.178 149.78C107.821 149.83 107.498 149.875 107.208 149.917C106.587 150.008 106.044 150.153 105.58 150.352C105.116 150.551 104.756 150.82 104.499 151.16C104.242 151.491 104.113 151.906 104.113 152.403C104.113 153.124 104.374 153.675 104.896 154.056C105.427 154.429 106.098 154.615 106.91 154.615Z" fill="white"/>
<path d="M129.203 165.466C127.488 165.466 126.017 165.229 124.791 164.757C123.573 164.293 122.604 163.659 121.883 162.855C121.162 162.052 120.694 161.149 120.478 160.146L125.375 159.487C125.524 159.868 125.76 160.225 126.084 160.556C126.407 160.888 126.834 161.153 127.364 161.352C127.902 161.559 128.557 161.662 129.328 161.662C130.479 161.662 131.428 161.381 132.174 160.817C132.928 160.262 133.305 159.33 133.305 158.021V154.528H133.081C132.849 155.058 132.501 155.56 132.037 156.032C131.573 156.504 130.977 156.89 130.247 157.188C129.518 157.486 128.648 157.635 127.637 157.635C126.204 157.635 124.899 157.304 123.722 156.641C122.554 155.97 121.622 154.946 120.926 153.571C120.238 152.187 119.894 150.439 119.894 148.326C119.894 146.163 120.246 144.357 120.95 142.907C121.655 141.457 122.591 140.371 123.759 139.651C124.936 138.93 126.225 138.569 127.625 138.569C128.694 138.569 129.589 138.752 130.31 139.116C131.03 139.472 131.61 139.92 132.05 140.458C132.497 140.989 132.841 141.511 133.081 142.025H133.28V138.818H138.537V158.095C138.537 159.719 138.14 161.078 137.344 162.172C136.549 163.266 135.447 164.086 134.038 164.633C132.638 165.188 131.026 165.466 129.203 165.466ZM129.315 153.658C130.169 153.658 130.89 153.447 131.478 153.024C132.074 152.593 132.53 151.98 132.845 151.185C133.168 150.381 133.33 149.42 133.33 148.301C133.33 147.183 133.172 146.213 132.857 145.393C132.543 144.564 132.087 143.922 131.49 143.466C130.894 143.011 130.169 142.783 129.315 142.783C128.445 142.783 127.712 143.019 127.115 143.491C126.519 143.955 126.067 144.601 125.76 145.43C125.454 146.259 125.301 147.216 125.301 148.301C125.301 149.403 125.454 150.356 125.76 151.16C126.075 151.955 126.527 152.573 127.115 153.012C127.712 153.443 128.445 153.658 129.315 153.658Z" fill="white"/>
<path d="M143.101 157.909V138.818H148.396V157.909H143.101ZM145.761 136.357C144.974 136.357 144.298 136.096 143.735 135.574C143.18 135.044 142.902 134.41 142.902 133.672C142.902 132.943 143.18 132.317 143.735 131.795C144.298 131.265 144.974 131 145.761 131C146.548 131 147.219 131.265 147.774 131.795C148.338 132.317 148.619 132.943 148.619 133.672C148.619 134.41 148.338 135.044 147.774 135.574C147.219 136.096 146.548 136.357 145.761 136.357Z" fill="white"/>
<path d="M158.282 146.872V157.909H152.987V138.818H158.033V142.186H158.257C158.68 141.076 159.388 140.197 160.382 139.551C161.377 138.897 162.582 138.569 163.999 138.569C165.325 138.569 166.481 138.859 167.467 139.439C168.453 140.019 169.219 140.848 169.766 141.925C170.313 142.994 170.586 144.27 170.586 145.753V157.909H165.292V146.698C165.3 145.529 165.002 144.618 164.397 143.963C163.792 143.301 162.959 142.969 161.899 142.969C161.186 142.969 160.556 143.122 160.009 143.429C159.471 143.736 159.048 144.183 158.742 144.771C158.443 145.351 158.29 146.051 158.282 146.872Z" fill="white"/>
<path d="M183.81 158.282C181.846 158.282 180.156 157.884 178.739 157.088C177.33 156.285 176.245 155.15 175.482 153.683C174.72 152.208 174.339 150.464 174.339 148.45C174.339 146.487 174.72 144.763 175.482 143.28C176.245 141.797 177.318 140.641 178.701 139.812C180.094 138.984 181.726 138.569 183.598 138.569C184.858 138.569 186.03 138.772 187.116 139.178C188.21 139.576 189.163 140.177 189.975 140.98C190.795 141.784 191.433 142.795 191.889 144.013C192.344 145.223 192.572 146.64 192.572 148.264V149.718H176.452V146.437H187.588C187.588 145.674 187.422 144.999 187.091 144.411C186.76 143.823 186.3 143.363 185.711 143.031C185.131 142.692 184.456 142.522 183.686 142.522C182.882 142.522 182.169 142.708 181.548 143.081C180.935 143.446 180.454 143.939 180.106 144.56C179.758 145.173 179.58 145.857 179.572 146.611V149.73C179.572 150.675 179.746 151.491 180.094 152.179C180.45 152.867 180.951 153.397 181.597 153.77C182.244 154.143 183.01 154.329 183.897 154.329C184.485 154.329 185.024 154.246 185.513 154.081C186.001 153.915 186.42 153.666 186.768 153.335C187.116 153.003 187.381 152.597 187.563 152.117L192.46 152.44C192.212 153.617 191.702 154.644 190.932 155.522C190.169 156.392 189.183 157.072 187.973 157.561C186.772 158.041 185.384 158.282 183.81 158.282Z" fill="white"/>
<path d="M196.278 157.909V154.752L205.625 143.18V143.044H196.601V138.818H212.001V142.261L203.226 153.546V153.683H212.324V157.909H196.278Z" fill="white"/>
<path d="M222.477 154.429L222.34 155.796C222.233 156.89 222.026 157.979 221.719 159.065C221.421 160.158 221.106 161.149 220.774 162.035C220.451 162.922 220.19 163.618 219.991 164.123H216.561C216.685 163.634 216.855 162.951 217.071 162.072C217.286 161.202 217.489 160.225 217.68 159.139C217.87 158.054 217.99 156.948 218.04 155.821L218.102 154.429H222.477Z" fill="white"/>
<path d="M243.548 158.282C241.618 158.282 239.948 157.871 238.539 157.051C237.139 156.223 236.058 155.071 235.295 153.596C234.533 152.113 234.152 150.393 234.152 148.438C234.152 146.466 234.533 144.742 235.295 143.267C236.058 141.784 237.139 140.632 238.539 139.812C239.948 138.984 241.618 138.569 243.548 138.569C245.479 138.569 247.144 138.984 248.545 139.812C249.953 140.632 251.039 141.784 251.801 143.267C252.563 144.742 252.945 146.466 252.945 148.438C252.945 150.393 252.563 152.113 251.801 153.596C251.039 155.071 249.953 156.223 248.545 157.051C247.144 157.871 245.479 158.282 243.548 158.282ZM243.573 154.18C244.451 154.18 245.185 153.931 245.773 153.434C246.361 152.929 246.805 152.241 247.103 151.371C247.41 150.501 247.563 149.511 247.563 148.401C247.563 147.29 247.41 146.3 247.103 145.43C246.805 144.56 246.361 143.872 245.773 143.367C245.185 142.861 244.451 142.609 243.573 142.609C242.687 142.609 241.941 142.861 241.336 143.367C240.739 143.872 240.288 144.56 239.981 145.43C239.683 146.3 239.534 147.29 239.534 148.401C239.534 149.511 239.683 150.501 239.981 151.371C240.288 152.241 240.739 152.929 241.336 153.434C241.941 153.931 242.687 154.18 243.573 154.18Z" fill="white"/>
<path d="M256.737 157.909V138.818H261.871V142.149H262.069C262.417 140.964 263.002 140.069 263.822 139.464C264.642 138.851 265.587 138.544 266.656 138.544C266.921 138.544 267.207 138.561 267.513 138.594C267.82 138.627 268.089 138.673 268.321 138.731V143.429C268.073 143.354 267.729 143.288 267.29 143.23C266.85 143.172 266.449 143.143 266.084 143.143C265.305 143.143 264.609 143.313 263.996 143.653C263.391 143.984 262.91 144.448 262.554 145.045C262.206 145.641 262.032 146.329 262.032 147.108V157.909H256.737Z" fill="white"/>
<path d="M279.121 165.466C277.406 165.466 275.935 165.229 274.709 164.757C273.491 164.293 272.521 163.659 271.8 162.855C271.079 162.052 270.611 161.149 270.396 160.146L275.293 159.487C275.442 159.868 275.678 160.225 276.001 160.556C276.324 160.888 276.751 161.153 277.281 161.352C277.82 161.559 278.475 161.662 279.245 161.662C280.397 161.662 281.346 161.381 282.091 160.817C282.845 160.262 283.222 159.33 283.222 158.021V154.528H282.999C282.767 155.058 282.419 155.56 281.955 156.032C281.491 156.504 280.894 156.89 280.165 157.188C279.436 157.486 278.566 157.635 277.555 157.635C276.121 157.635 274.816 157.304 273.64 156.641C272.471 155.97 271.539 154.946 270.843 153.571C270.155 152.187 269.812 150.439 269.812 148.326C269.812 146.163 270.164 144.357 270.868 142.907C271.572 141.457 272.509 140.371 273.677 139.651C274.854 138.93 276.142 138.569 277.542 138.569C278.611 138.569 279.506 138.752 280.227 139.116C280.948 139.472 281.528 139.92 281.967 140.458C282.415 140.989 282.758 141.511 282.999 142.025H283.198V138.818H288.455V158.095C288.455 159.719 288.057 161.078 287.262 162.172C286.466 163.266 285.364 164.086 283.956 164.633C282.555 165.188 280.944 165.466 279.121 165.466ZM279.233 153.658C280.086 153.658 280.807 153.447 281.395 153.024C281.992 152.593 282.448 151.98 282.763 151.185C283.086 150.381 283.247 149.42 283.247 148.301C283.247 147.183 283.09 146.213 282.775 145.393C282.46 144.564 282.004 143.922 281.408 143.466C280.811 143.011 280.086 142.783 279.233 142.783C278.363 142.783 277.629 143.019 277.033 143.491C276.436 143.955 275.985 144.601 275.678 145.43C275.371 146.259 275.218 147.216 275.218 148.301C275.218 149.403 275.371 150.356 275.678 151.16C275.993 151.955 276.445 152.573 277.033 153.012C277.629 153.443 278.363 153.658 279.233 153.658Z" fill="white"/>
<path d="M298.462 158.269C297.244 158.269 296.159 158.058 295.206 157.635C294.253 157.204 293.499 156.571 292.944 155.734C292.397 154.888 292.124 153.836 292.124 152.577C292.124 151.516 292.318 150.625 292.708 149.904C293.097 149.184 293.628 148.604 294.299 148.164C294.97 147.725 295.732 147.394 296.586 147.17C297.447 146.946 298.351 146.789 299.295 146.698C300.405 146.582 301.3 146.474 301.98 146.375C302.659 146.267 303.152 146.109 303.459 145.902C303.765 145.695 303.919 145.389 303.919 144.983V144.908C303.919 144.121 303.67 143.512 303.173 143.081C302.684 142.65 301.988 142.435 301.085 142.435C300.132 142.435 299.374 142.646 298.81 143.069C298.247 143.483 297.874 144.005 297.692 144.635L292.795 144.237C293.043 143.077 293.532 142.074 294.261 141.229C294.991 140.376 295.931 139.721 297.083 139.265C298.243 138.801 299.585 138.569 301.11 138.569C302.17 138.569 303.185 138.694 304.155 138.942C305.133 139.191 305.998 139.576 306.753 140.098C307.515 140.62 308.116 141.291 308.555 142.112C308.994 142.924 309.213 143.897 309.213 145.032V157.909H304.192V155.261H304.043C303.736 155.858 303.326 156.384 302.813 156.84C302.299 157.287 301.681 157.639 300.961 157.896C300.24 158.145 299.407 158.269 298.462 158.269ZM299.979 154.615C300.758 154.615 301.445 154.462 302.042 154.155C302.639 153.84 303.107 153.418 303.446 152.887C303.786 152.357 303.956 151.756 303.956 151.085V149.059C303.79 149.167 303.562 149.266 303.272 149.358C302.991 149.44 302.672 149.519 302.315 149.594C301.959 149.66 301.603 149.722 301.246 149.78C300.89 149.83 300.567 149.875 300.277 149.917C299.656 150.008 299.113 150.153 298.649 150.352C298.185 150.551 297.824 150.82 297.567 151.16C297.311 151.491 297.182 151.906 297.182 152.403C297.182 153.124 297.443 153.675 297.965 154.056C298.496 154.429 299.167 154.615 299.979 154.615Z" fill="white"/>
<path d="M318.966 146.872V157.909H313.671V138.818H318.717V142.186H318.941C319.364 141.076 320.072 140.197 321.066 139.551C322.061 138.897 323.266 138.569 324.683 138.569C326.009 138.569 327.165 138.859 328.151 139.439C329.137 140.019 329.903 140.848 330.45 141.925C330.997 142.994 331.271 144.27 331.271 145.753V157.909H325.976V146.698C325.984 145.529 325.686 144.618 325.081 143.963C324.476 143.301 323.643 142.969 322.583 142.969C321.87 142.969 321.24 143.122 320.694 143.429C320.155 143.736 319.732 144.183 319.426 144.771C319.128 145.351 318.974 146.051 318.966 146.872Z" fill="white"/>
<path d="M335.794 157.909V138.818H341.088V157.909H335.794ZM338.453 136.357C337.666 136.357 336.991 136.096 336.428 135.574C335.872 135.044 335.595 134.41 335.595 133.672C335.595 132.943 335.872 132.317 336.428 131.795C336.991 131.265 337.666 131 338.453 131C339.241 131 339.912 131.265 340.467 131.795C341.03 132.317 341.312 132.943 341.312 133.672C341.312 134.41 341.03 135.044 340.467 135.574C339.912 136.096 339.241 136.357 338.453 136.357Z" fill="white"/>
<path d="M361.564 144.262L356.717 144.56C356.634 144.146 356.456 143.773 356.182 143.441C355.909 143.102 355.548 142.832 355.101 142.634C354.662 142.426 354.136 142.323 353.522 142.323C352.702 142.323 352.01 142.497 351.447 142.845C350.883 143.185 350.602 143.64 350.602 144.212C350.602 144.668 350.784 145.053 351.149 145.368C351.513 145.683 352.139 145.935 353.025 146.126L356.481 146.822C358.337 147.203 359.72 147.816 360.632 148.662C361.543 149.507 361.999 150.617 361.999 151.993C361.999 153.244 361.63 154.342 360.893 155.286C360.164 156.231 359.161 156.968 357.885 157.499C356.617 158.021 355.155 158.282 353.498 158.282C350.97 158.282 348.957 157.755 347.457 156.703C345.966 155.643 345.092 154.201 344.835 152.378L350.042 152.104C350.2 152.875 350.581 153.463 351.186 153.869C351.791 154.267 352.565 154.466 353.51 154.466C354.438 154.466 355.184 154.288 355.747 153.931C356.319 153.567 356.609 153.099 356.617 152.527C356.609 152.046 356.406 151.653 356.008 151.346C355.611 151.031 354.997 150.791 354.169 150.625L350.863 149.967C348.998 149.594 347.61 148.947 346.699 148.028C345.796 147.108 345.344 145.935 345.344 144.51C345.344 143.284 345.676 142.228 346.339 141.341C347.01 140.454 347.95 139.771 349.16 139.29C350.378 138.81 351.803 138.569 353.436 138.569C355.847 138.569 357.744 139.079 359.128 140.098C360.52 141.117 361.332 142.505 361.564 144.262Z" fill="white"/>
<path d="M374.383 158.282C372.42 158.282 370.729 157.884 369.312 157.088C367.904 156.285 366.818 155.15 366.056 153.683C365.294 152.208 364.913 150.464 364.913 148.45C364.913 146.487 365.294 144.763 366.056 143.28C366.818 141.797 367.891 140.641 369.275 139.812C370.667 138.984 372.3 138.569 374.172 138.569C375.432 138.569 376.604 138.772 377.69 139.178C378.783 139.576 379.736 140.177 380.548 140.98C381.369 141.784 382.007 142.795 382.462 144.013C382.918 145.223 383.146 146.64 383.146 148.264V149.718H367.025V146.437H378.162C378.162 145.674 377.996 144.999 377.665 144.411C377.333 143.823 376.873 143.363 376.285 143.031C375.705 142.692 375.03 142.522 374.259 142.522C373.455 142.522 372.743 142.708 372.121 143.081C371.508 143.446 371.028 143.939 370.68 144.56C370.332 145.173 370.153 145.857 370.145 146.611V149.73C370.145 150.675 370.319 151.491 370.667 152.179C371.023 152.867 371.525 153.397 372.171 153.77C372.817 154.143 373.584 154.329 374.47 154.329C375.059 154.329 375.597 154.246 376.086 154.081C376.575 153.915 376.994 153.666 377.342 153.335C377.69 153.003 377.955 152.597 378.137 152.117L383.034 152.44C382.785 153.617 382.276 154.644 381.505 155.522C380.743 156.392 379.757 157.072 378.547 157.561C377.346 158.041 375.958 158.282 374.383 158.282Z" fill="white"/>
<path d="M386.852 157.909V154.752L396.198 143.18V143.044H387.175V138.818H402.574V142.261L393.799 153.546V153.683H402.897V157.909H386.852Z" fill="white"/>
<path d="M424.447 158.282C422.483 158.282 420.793 157.884 419.376 157.088C417.967 156.285 416.882 155.15 416.12 153.683C415.357 152.208 414.976 150.464 414.976 148.45C414.976 146.487 415.357 144.763 416.12 143.28C416.882 141.797 417.955 140.641 419.339 139.812C420.731 138.984 422.363 138.569 424.236 138.569C425.495 138.569 426.668 138.772 427.753 139.178C428.847 139.576 429.8 140.177 430.612 140.98C431.432 141.784 432.07 142.795 432.526 144.013C432.982 145.223 433.21 146.64 433.21 148.264V149.718H417.089V146.437H428.225C428.225 145.674 428.06 144.999 427.728 144.411C427.397 143.823 426.937 143.363 426.349 143.031C425.769 142.692 425.093 142.522 424.323 142.522C423.519 142.522 422.806 142.708 422.185 143.081C421.572 143.446 421.091 143.939 420.743 144.56C420.395 145.173 420.217 145.857 420.209 146.611V149.73C420.209 150.675 420.383 151.491 420.731 152.179C421.087 152.867 421.588 153.397 422.235 153.77C422.881 154.143 423.647 154.329 424.534 154.329C425.122 154.329 425.661 154.246 426.15 154.081C426.639 153.915 427.057 153.666 427.405 153.335C427.753 153.003 428.018 152.597 428.201 152.117L433.098 152.44C432.849 153.617 432.34 154.644 431.569 155.522C430.807 156.392 429.821 157.072 428.611 157.561C427.409 158.041 426.021 158.282 424.447 158.282Z" fill="white"/>
<path d="M447.169 138.818V142.795H435.672V138.818H447.169ZM438.283 134.244H443.577V152.042C443.577 152.531 443.652 152.912 443.801 153.186C443.95 153.451 444.157 153.637 444.422 153.745C444.696 153.853 445.011 153.907 445.367 153.907C445.616 153.907 445.864 153.886 446.113 153.844C446.361 153.795 446.552 153.757 446.685 153.733L447.517 157.673C447.252 157.755 446.879 157.851 446.399 157.958C445.918 158.074 445.334 158.145 444.646 158.17C443.37 158.219 442.252 158.05 441.29 157.66C440.337 157.271 439.596 156.666 439.066 155.846C438.535 155.025 438.274 153.989 438.283 152.738V134.244Z" fill="white"/>
<path d="M75.3146 180.818L68.6403 199.909H62.6744L56 180.818H61.593L65.5579 194.477H65.7567L69.7092 180.818H75.3146Z" fill="white"/>
<path d="M78.3741 199.909V180.818H83.6689V199.909H78.3741ZM81.034 178.357C80.2468 178.357 79.5715 178.096 79.008 177.574C78.4529 177.044 78.1753 176.41 78.1753 175.672C78.1753 174.943 78.4529 174.317 79.008 173.795C79.5715 173.265 80.2468 173 81.034 173C81.8211 173 82.4923 173.265 83.0474 173.795C83.6109 174.317 83.8926 174.943 83.8926 175.672C83.8926 176.41 83.6109 177.044 83.0474 177.574C82.4923 178.096 81.8211 178.357 81.034 178.357Z" fill="white"/>
<path d="M106.059 180.818L99.3842 199.909H93.4183L86.7439 180.818H92.337L96.3018 194.477H96.5007L100.453 180.818H106.059Z" fill="white"/>
<path d="M117.203 200.282C115.239 200.282 113.549 199.884 112.132 199.088C110.724 198.285 109.638 197.15 108.876 195.683C108.113 194.208 107.732 192.464 107.732 190.45C107.732 188.487 108.113 186.763 108.876 185.28C109.638 183.797 110.711 182.641 112.095 181.812C113.487 180.984 115.119 180.569 116.992 180.569C118.251 180.569 119.424 180.772 120.509 181.178C121.603 181.576 122.556 182.177 123.368 182.98C124.188 183.784 124.826 184.795 125.282 186.013C125.738 187.223 125.966 188.64 125.966 190.264V191.718H109.845V188.437H120.982C120.982 187.674 120.816 186.999 120.484 186.411C120.153 185.823 119.693 185.363 119.105 185.031C118.525 184.692 117.849 184.522 117.079 184.522C116.275 184.522 115.563 184.708 114.941 185.081C114.328 185.446 113.847 185.939 113.499 186.56C113.151 187.173 112.973 187.857 112.965 188.611V191.73C112.965 192.675 113.139 193.491 113.487 194.179C113.843 194.867 114.344 195.397 114.991 195.77C115.637 196.143 116.404 196.329 117.29 196.329C117.878 196.329 118.417 196.246 118.906 196.081C119.395 195.915 119.813 195.666 120.161 195.335C120.509 195.003 120.774 194.597 120.957 194.117L125.854 194.44C125.605 195.617 125.096 196.644 124.325 197.522C123.563 198.392 122.577 199.072 121.367 199.561C120.165 200.041 118.777 200.282 117.203 200.282Z" fill="white"/>
<path d="M129.671 199.909V196.752L139.018 185.18V185.044H129.995V180.818H145.394V184.261L136.619 195.546V195.683H145.717V199.909H129.671Z" fill="white"/>
<path d="M163.861 174.454V199.909H158.567V174.454H163.861Z" fill="white"/>
<path d="M173.897 200.269C172.679 200.269 171.593 200.058 170.64 199.635C169.687 199.204 168.933 198.571 168.378 197.734C167.831 196.888 167.558 195.836 167.558 194.577C167.558 193.516 167.752 192.625 168.142 191.904C168.531 191.184 169.062 190.604 169.733 190.164C170.404 189.725 171.166 189.394 172.02 189.17C172.882 188.946 173.785 188.789 174.729 188.698C175.84 188.582 176.735 188.474 177.414 188.375C178.093 188.267 178.586 188.109 178.893 187.902C179.2 187.695 179.353 187.389 179.353 186.983V186.908C179.353 186.121 179.104 185.512 178.607 185.081C178.118 184.65 177.422 184.435 176.519 184.435C175.566 184.435 174.808 184.646 174.245 185.069C173.681 185.483 173.308 186.005 173.126 186.635L168.229 186.237C168.478 185.077 168.966 184.074 169.696 183.229C170.425 182.376 171.365 181.721 172.517 181.265C173.677 180.801 175.019 180.569 176.544 180.569C177.605 180.569 178.62 180.694 179.589 180.942C180.567 181.191 181.433 181.576 182.187 182.098C182.949 182.62 183.55 183.291 183.989 184.112C184.428 184.924 184.648 185.897 184.648 187.032V199.909H179.626V197.261H179.477C179.171 197.858 178.76 198.384 178.247 198.84C177.733 199.287 177.116 199.639 176.395 199.896C175.674 200.145 174.841 200.269 173.897 200.269ZM175.413 196.615C176.192 196.615 176.88 196.462 177.476 196.155C178.073 195.84 178.541 195.418 178.881 194.887C179.22 194.357 179.39 193.756 179.39 193.085V191.059C179.224 191.167 178.997 191.266 178.707 191.358C178.425 191.44 178.106 191.519 177.75 191.594C177.393 191.66 177.037 191.722 176.681 191.78C176.324 191.83 176.001 191.875 175.711 191.917C175.09 192.008 174.547 192.153 174.083 192.352C173.619 192.551 173.259 192.82 173.002 193.16C172.745 193.491 172.616 193.906 172.616 194.403C172.616 195.124 172.877 195.675 173.399 196.056C173.93 196.429 174.601 196.615 175.413 196.615Z" fill="white"/>
<path d="M197.556 199.909V180.818H202.602V184.186H202.826C203.224 183.067 203.886 182.185 204.814 181.539C205.743 180.892 206.853 180.569 208.145 180.569C209.455 180.569 210.569 180.897 211.489 181.551C212.409 182.197 213.022 183.076 213.328 184.186H213.527C213.917 183.092 214.621 182.218 215.64 181.564C216.668 180.901 217.881 180.569 219.282 180.569C221.063 180.569 222.509 181.137 223.62 182.272C224.738 183.399 225.297 184.998 225.297 187.07V199.909H220.015V188.114C220.015 187.053 219.733 186.258 219.17 185.727C218.607 185.197 217.902 184.932 217.057 184.932C216.096 184.932 215.346 185.238 214.807 185.852C214.269 186.456 214 187.256 214 188.25V199.909H208.866V188.002C208.866 187.065 208.597 186.32 208.058 185.765C207.528 185.209 206.828 184.932 205.958 184.932C205.37 184.932 204.839 185.081 204.367 185.379C203.903 185.669 203.534 186.079 203.261 186.61C202.987 187.132 202.851 187.745 202.851 188.449V199.909H197.556Z" fill="white"/>
<path d="M235.274 200.269C234.056 200.269 232.97 200.058 232.017 199.635C231.064 199.204 230.31 198.571 229.755 197.734C229.208 196.888 228.935 195.836 228.935 194.577C228.935 193.516 229.13 192.625 229.519 191.904C229.909 191.184 230.439 190.604 231.11 190.164C231.781 189.725 232.543 189.394 233.397 189.17C234.259 188.946 235.162 188.789 236.106 188.698C237.217 188.582 238.112 188.474 238.791 188.375C239.471 188.267 239.964 188.109 240.27 187.902C240.577 187.695 240.73 187.389 240.73 186.983V186.908C240.73 186.121 240.481 185.512 239.984 185.081C239.495 184.65 238.799 184.435 237.896 184.435C236.943 184.435 236.185 184.646 235.622 185.069C235.058 185.483 234.685 186.005 234.503 186.635L229.606 186.237C229.855 185.077 230.344 184.074 231.073 183.229C231.802 182.376 232.742 181.721 233.894 181.265C235.054 180.801 236.396 180.569 237.921 180.569C238.982 180.569 239.997 180.694 240.966 180.942C241.944 181.191 242.81 181.576 243.564 182.098C244.326 182.62 244.927 183.291 245.366 184.112C245.805 184.924 246.025 185.897 246.025 187.032V199.909H241.003V197.261H240.854C240.548 197.858 240.138 198.384 239.624 198.84C239.11 199.287 238.493 199.639 237.772 199.896C237.051 200.145 236.218 200.269 235.274 200.269ZM236.79 196.615C237.569 196.615 238.257 196.462 238.853 196.155C239.45 195.84 239.918 195.418 240.258 194.887C240.597 194.357 240.767 193.756 240.767 193.085V191.059C240.602 191.167 240.374 191.266 240.084 191.358C239.802 191.44 239.483 191.519 239.127 191.594C238.77 191.66 238.414 191.722 238.058 191.78C237.702 191.83 237.378 191.875 237.088 191.917C236.467 192.008 235.924 192.153 235.46 192.352C234.996 192.551 234.636 192.82 234.379 193.16C234.122 193.491 233.994 193.906 233.994 194.403C233.994 195.124 234.255 195.675 234.777 196.056C235.307 196.429 235.978 196.615 236.79 196.615Z" fill="white"/>
<path d="M250.483 199.909V180.818H255.777V199.909H250.483ZM253.142 178.357C252.355 178.357 251.68 178.096 251.116 177.574C250.561 177.044 250.284 176.41 250.284 175.672C250.284 174.943 250.561 174.317 251.116 173.795C251.68 173.265 252.355 173 253.142 173C253.93 173 254.601 173.265 255.156 173.795C255.719 174.317 256.001 174.943 256.001 175.672C256.001 176.41 255.719 177.044 255.156 177.574C254.601 178.096 253.93 178.357 253.142 178.357Z" fill="white"/>
<path d="M276.253 186.262L271.406 186.56C271.323 186.146 271.145 185.773 270.871 185.441C270.598 185.102 270.237 184.832 269.79 184.634C269.351 184.426 268.825 184.323 268.211 184.323C267.391 184.323 266.699 184.497 266.136 184.845C265.572 185.185 265.291 185.64 265.291 186.212C265.291 186.668 265.473 187.053 265.837 187.368C266.202 187.683 266.828 187.935 267.714 188.126L271.169 188.822C273.026 189.203 274.409 189.816 275.321 190.662C276.232 191.507 276.688 192.617 276.688 193.993C276.688 195.244 276.319 196.342 275.582 197.286C274.853 198.231 273.85 198.968 272.574 199.499C271.306 200.021 269.844 200.282 268.187 200.282C265.659 200.282 263.646 199.755 262.146 198.703C260.655 197.643 259.78 196.201 259.524 194.378L264.731 194.104C264.889 194.875 265.27 195.463 265.875 195.869C266.48 196.267 267.254 196.466 268.199 196.466C269.127 196.466 269.873 196.288 270.436 195.931C271.008 195.567 271.298 195.099 271.306 194.527C271.298 194.046 271.095 193.653 270.697 193.346C270.299 193.031 269.686 192.791 268.858 192.625L265.552 191.967C263.687 191.594 262.299 190.947 261.388 190.028C260.485 189.108 260.033 187.935 260.033 186.51C260.033 185.284 260.365 184.228 261.027 183.341C261.699 182.454 262.639 181.771 263.849 181.29C265.067 180.81 266.492 180.569 268.124 180.569C270.536 180.569 272.433 181.079 273.817 182.098C275.209 183.117 276.021 184.505 276.253 186.262Z" fill="white"/>
<path d="M288.998 200.282C287.067 200.282 285.397 199.871 283.989 199.051C282.588 198.223 281.507 197.071 280.745 195.596C279.983 194.113 279.601 192.393 279.601 190.438C279.601 188.466 279.983 186.742 280.745 185.267C281.507 183.784 282.588 182.632 283.989 181.812C285.397 180.984 287.067 180.569 288.998 180.569C290.928 180.569 292.594 180.984 293.994 181.812C295.403 182.632 296.488 183.784 297.251 185.267C298.013 186.742 298.394 188.466 298.394 190.438C298.394 192.393 298.013 194.113 297.251 195.596C296.488 197.071 295.403 198.223 293.994 199.051C292.594 199.871 290.928 200.282 288.998 200.282ZM289.023 196.18C289.901 196.18 290.634 195.931 291.223 195.434C291.811 194.929 292.254 194.241 292.552 193.371C292.859 192.501 293.012 191.511 293.012 190.401C293.012 189.29 292.859 188.3 292.552 187.43C292.254 186.56 291.811 185.872 291.223 185.367C290.634 184.861 289.901 184.609 289.023 184.609C288.136 184.609 287.39 184.861 286.785 185.367C286.189 185.872 285.737 186.56 285.431 187.43C285.132 188.3 284.983 189.29 284.983 190.401C284.983 191.511 285.132 192.501 285.431 193.371C285.737 194.241 286.189 194.929 286.785 195.434C287.39 195.931 288.136 196.18 289.023 196.18Z" fill="white"/>
<path d="M307.482 188.872V199.909H302.187V180.818H307.233V184.186H307.457C307.879 183.076 308.588 182.197 309.582 181.551C310.576 180.897 311.782 180.569 313.199 180.569C314.525 180.569 315.681 180.859 316.667 181.439C317.653 182.019 318.419 182.848 318.966 183.925C319.513 184.994 319.786 186.27 319.786 187.753V199.909H314.492V188.698C314.5 187.529 314.202 186.618 313.597 185.963C312.992 185.301 312.159 184.969 311.098 184.969C310.386 184.969 309.756 185.122 309.209 185.429C308.671 185.736 308.248 186.183 307.941 186.771C307.643 187.351 307.49 188.051 307.482 188.872Z" fill="white"/>
<path d="M339.795 200.219C338.345 200.219 337.031 199.847 335.855 199.101C334.686 198.347 333.758 197.241 333.071 195.782C332.391 194.316 332.051 192.518 332.051 190.388C332.051 188.201 332.404 186.382 333.108 184.932C333.812 183.473 334.749 182.384 335.917 181.663C337.093 180.934 338.382 180.569 339.782 180.569C340.851 180.569 341.742 180.752 342.454 181.116C343.175 181.472 343.755 181.92 344.195 182.458C344.642 182.989 344.982 183.511 345.214 184.025H345.375V174.454H350.658V199.909H345.437V196.851H345.214C344.965 197.382 344.613 197.908 344.157 198.43C343.71 198.943 343.126 199.37 342.405 199.71C341.692 200.05 340.822 200.219 339.795 200.219ZM341.473 196.006C342.326 196.006 343.047 195.774 343.635 195.31C344.232 194.838 344.688 194.179 345.002 193.334C345.326 192.489 345.487 191.498 345.487 190.363C345.487 189.228 345.33 188.242 345.015 187.405C344.7 186.568 344.244 185.922 343.648 185.466C343.051 185.011 342.326 184.783 341.473 184.783C340.603 184.783 339.869 185.019 339.273 185.491C338.676 185.963 338.225 186.618 337.918 187.455C337.611 188.292 337.458 189.261 337.458 190.363C337.458 191.474 337.611 192.455 337.918 193.309C338.233 194.154 338.684 194.817 339.273 195.298C339.869 195.77 340.603 196.006 341.473 196.006Z" fill="white"/>
<path d="M364.061 200.282C362.097 200.282 360.407 199.884 358.99 199.088C357.582 198.285 356.496 197.15 355.734 195.683C354.971 194.208 354.59 192.464 354.59 190.45C354.59 188.487 354.971 186.763 355.734 185.28C356.496 183.797 357.569 182.641 358.953 181.812C360.345 180.984 361.977 180.569 363.85 180.569C365.109 180.569 366.282 180.772 367.367 181.178C368.461 181.576 369.414 182.177 370.226 182.98C371.046 183.784 371.684 184.795 372.14 186.013C372.596 187.223 372.824 188.64 372.824 190.264V191.718H356.703V188.437H367.84C367.84 187.674 367.674 186.999 367.342 186.411C367.011 185.823 366.551 185.363 365.963 185.031C365.383 184.692 364.707 184.522 363.937 184.522C363.133 184.522 362.421 184.708 361.799 185.081C361.186 185.446 360.705 185.939 360.357 186.56C360.009 187.173 359.831 187.857 359.823 188.611V191.73C359.823 192.675 359.997 193.491 360.345 194.179C360.701 194.867 361.203 195.397 361.849 195.77C362.495 196.143 363.262 196.329 364.148 196.329C364.736 196.329 365.275 196.246 365.764 196.081C366.253 195.915 366.671 195.666 367.019 195.335C367.367 195.003 367.632 194.597 367.815 194.117L372.712 194.44C372.463 195.617 371.954 196.644 371.183 197.522C370.421 198.392 369.435 199.072 368.225 199.561C367.023 200.041 365.635 200.282 364.061 200.282Z" fill="white"/>
<path d="M402.878 180.818L396.203 199.909H390.237L383.563 180.818H389.156L393.121 194.477H393.32L397.272 180.818H402.878Z" fill="white"/>
<path d="M413.948 200.282C412.017 200.282 410.347 199.871 408.939 199.051C407.539 198.223 406.457 197.071 405.695 195.596C404.933 194.113 404.551 192.393 404.551 190.438C404.551 188.466 404.933 186.742 405.695 185.267C406.457 183.784 407.539 182.632 408.939 181.812C410.347 180.984 412.017 180.569 413.948 180.569C415.878 180.569 417.544 180.984 418.944 181.812C420.353 182.632 421.438 183.784 422.201 185.267C422.963 186.742 423.344 188.466 423.344 190.438C423.344 192.393 422.963 194.113 422.201 195.596C421.438 197.071 420.353 198.223 418.944 199.051C417.544 199.871 415.878 200.282 413.948 200.282ZM413.973 196.18C414.851 196.18 415.584 195.931 416.172 195.434C416.761 194.929 417.204 194.241 417.502 193.371C417.809 192.501 417.962 191.511 417.962 190.401C417.962 189.29 417.809 188.3 417.502 187.43C417.204 186.56 416.761 185.872 416.172 185.367C415.584 184.861 414.851 184.609 413.973 184.609C413.086 184.609 412.34 184.861 411.735 185.367C411.139 185.872 410.687 186.56 410.381 187.43C410.082 188.3 409.933 189.29 409.933 190.401C409.933 191.511 410.082 192.501 410.381 193.371C410.687 194.241 411.139 194.929 411.735 195.434C412.34 195.931 413.086 196.18 413.973 196.18Z" fill="white"/>
<path d="M443.021 186.262L438.174 186.56C438.091 186.146 437.913 185.773 437.639 185.441C437.366 185.102 437.005 184.832 436.558 184.634C436.119 184.426 435.593 184.323 434.98 184.323C434.159 184.323 433.467 184.497 432.904 184.845C432.34 185.185 432.059 185.64 432.059 186.212C432.059 186.668 432.241 187.053 432.606 187.368C432.97 187.683 433.596 187.935 434.482 188.126L437.938 188.822C439.794 189.203 441.177 189.816 442.089 190.662C443 191.507 443.456 192.617 443.456 193.993C443.456 195.244 443.087 196.342 442.35 197.286C441.621 198.231 440.618 198.968 439.342 199.499C438.074 200.021 436.612 200.282 434.955 200.282C432.427 200.282 430.414 199.755 428.914 198.703C427.423 197.643 426.549 196.201 426.292 194.378L431.499 194.104C431.657 194.875 432.038 195.463 432.643 195.869C433.248 196.267 434.023 196.466 434.967 196.466C435.895 196.466 436.641 196.288 437.204 195.931C437.776 195.567 438.066 195.099 438.074 194.527C438.066 194.046 437.863 193.653 437.465 193.346C437.068 193.031 436.454 192.791 435.626 192.625L432.32 191.967C430.455 191.594 429.067 190.947 428.156 190.028C427.253 189.108 426.801 187.935 426.801 186.51C426.801 185.284 427.133 184.228 427.796 183.341C428.467 182.454 429.407 181.771 430.617 181.29C431.835 180.81 433.26 180.569 434.893 180.569C437.304 180.569 439.201 181.079 440.585 182.098C441.977 183.117 442.789 184.505 443.021 186.262Z" fill="white"/>
<path d="M455.591 199.909V180.818H460.724V184.149H460.923C461.271 182.964 461.855 182.069 462.675 181.464C463.496 180.851 464.44 180.544 465.509 180.544C465.774 180.544 466.06 180.561 466.367 180.594C466.673 180.627 466.943 180.673 467.175 180.731V185.429C466.926 185.354 466.582 185.288 466.143 185.23C465.704 185.172 465.302 185.143 464.937 185.143C464.158 185.143 463.462 185.313 462.849 185.653C462.244 185.984 461.764 186.448 461.408 187.045C461.059 187.641 460.885 188.329 460.885 189.108V199.909H455.591Z" fill="white"/>
<path d="M478.074 200.282C476.11 200.282 474.42 199.884 473.003 199.088C471.594 198.285 470.509 197.15 469.746 195.683C468.984 194.208 468.603 192.464 468.603 190.45C468.603 188.487 468.984 186.763 469.746 185.28C470.509 183.797 471.582 182.641 472.965 181.812C474.357 180.984 475.99 180.569 477.862 180.569C479.122 180.569 480.294 180.772 481.38 181.178C482.474 181.576 483.426 182.177 484.238 182.98C485.059 183.784 485.697 184.795 486.152 186.013C486.608 187.223 486.836 188.64 486.836 190.264V191.718H470.716V188.437H481.852C481.852 187.674 481.686 186.999 481.355 186.411C481.023 185.823 480.564 185.363 479.975 185.031C479.395 184.692 478.72 184.522 477.949 184.522C477.146 184.522 476.433 184.708 475.812 185.081C475.198 185.446 474.718 185.939 474.37 186.56C474.022 187.173 473.844 187.857 473.835 188.611V191.73C473.835 192.675 474.009 193.491 474.357 194.179C474.714 194.867 475.215 195.397 475.861 195.77C476.508 196.143 477.274 196.329 478.161 196.329C478.749 196.329 479.288 196.246 479.776 196.081C480.265 195.915 480.684 195.666 481.032 195.335C481.38 195.003 481.645 194.597 481.827 194.117L486.724 194.44C486.476 195.617 485.966 196.644 485.195 197.522C484.433 198.392 483.447 199.072 482.237 199.561C481.036 200.041 479.648 200.282 478.074 200.282ZM480.236 178.531L477.738 175.498L475.24 178.531H470.728V178.357L475.762 172.888H479.702L484.748 178.357V178.531H480.236Z" fill="white"/>
<path d="M507.927 180.818L501.253 199.909H495.287L488.612 180.818H494.205L498.17 194.477H498.369L502.321 180.818H507.927Z" fill="white"/>
<path d="M519.072 200.282C517.108 200.282 515.417 199.884 514 199.088C512.592 198.285 511.506 197.15 510.744 195.683C509.982 194.208 509.601 192.464 509.601 190.45C509.601 188.487 509.982 186.763 510.744 185.28C511.506 183.797 512.579 182.641 513.963 181.812C515.355 180.984 516.988 180.569 518.86 180.569C520.12 180.569 521.292 180.772 522.378 181.178C523.471 181.576 524.424 182.177 525.236 182.98C526.057 183.784 526.695 184.795 527.15 186.013C527.606 187.223 527.834 188.64 527.834 190.264V191.718H511.714V188.437H522.85C522.85 187.674 522.684 186.999 522.353 186.411C522.021 185.823 521.561 185.363 520.973 185.031C520.393 184.692 519.718 184.522 518.947 184.522C518.143 184.522 517.431 184.708 516.809 185.081C516.196 185.446 515.716 185.939 515.368 186.56C515.02 187.173 514.842 187.857 514.833 188.611V191.73C514.833 192.675 515.007 193.491 515.355 194.179C515.712 194.867 516.213 195.397 516.859 195.77C517.505 196.143 518.272 196.329 519.159 196.329C519.747 196.329 520.285 196.246 520.774 196.081C521.263 195.915 521.682 195.666 522.03 195.335C522.378 195.003 522.643 194.597 522.825 194.117L527.722 194.44C527.473 195.617 526.964 196.644 526.193 197.522C525.431 198.392 524.445 199.072 523.235 199.561C522.034 200.041 520.646 200.282 519.072 200.282Z" fill="white"/>
<path d="M547.523 186.262L542.676 186.56C542.593 186.146 542.415 185.773 542.142 185.441C541.868 185.102 541.508 184.832 541.06 184.634C540.621 184.426 540.095 184.323 539.482 184.323C538.662 184.323 537.97 184.497 537.406 184.845C536.843 185.185 536.561 185.64 536.561 186.212C536.561 186.668 536.743 187.053 537.108 187.368C537.473 187.683 538.098 187.935 538.985 188.126L542.44 188.822C544.296 189.203 545.68 189.816 546.591 190.662C547.503 191.507 547.958 192.617 547.958 193.993C547.958 195.244 547.59 196.342 546.852 197.286C546.123 198.231 545.12 198.968 543.844 199.499C542.577 200.021 541.114 200.282 539.457 200.282C536.93 200.282 534.916 199.755 533.417 198.703C531.925 197.643 531.051 196.201 530.794 194.378L536.002 194.104C536.159 194.875 536.54 195.463 537.145 195.869C537.75 196.267 538.525 196.466 539.469 196.466C540.397 196.466 541.143 196.288 541.707 195.931C542.278 195.567 542.568 195.099 542.577 194.527C542.568 194.046 542.365 193.653 541.968 193.346C541.57 193.031 540.957 192.791 540.128 192.625L536.822 191.967C534.958 191.594 533.57 190.947 532.658 190.028C531.755 189.108 531.304 187.935 531.304 186.51C531.304 185.284 531.635 184.228 532.298 183.341C532.969 182.454 533.91 181.771 535.119 181.29C536.337 180.81 537.763 180.569 539.395 180.569C541.806 180.569 543.704 181.079 545.087 182.098C546.479 183.117 547.291 184.505 547.523 186.262Z" fill="white"/>
</g>
<defs>
<clipPath id="clip0_314_2">
<rect width="700" height="700" fill="white"/>
</clipPath>
</defs>
</svg>
