<svg width="700" height="700" viewBox="0 0 700 700" fill="none" xmlns="http://www.w3.org/2000/svg">
<g clip-path="url(#clip0_314_11)">
<path d="M0 0H700V700L681.862 681.862V17.4664H17.4664V681.862H681.862L700 700H0V0Z" fill="#004AC8"/>
<path d="M70.5596 452.783V344.321H143.645V363.228H93.4915V389.072H139.885V407.979H93.4915V433.876H143.856V452.783H70.5596ZM180.306 371.437L195.241 399.876L210.547 371.437H233.69L210.124 412.109L234.326 452.783H211.289L195.241 424.661L179.46 452.783H156.157L180.306 412.109L157.004 371.437H180.306ZM247.089 483.289V371.437H269.332V385.099H270.339C271.327 382.911 272.758 380.686 274.629 378.427C276.535 376.132 279.007 374.226 282.044 372.708C285.115 371.153 288.928 370.377 293.483 370.377C299.415 370.377 304.887 371.93 309.9 375.038C314.914 378.109 318.922 382.752 321.922 388.966C324.924 395.144 326.425 402.895 326.425 412.215C326.425 421.29 324.959 428.951 322.028 435.2C319.133 441.414 315.179 446.128 310.165 449.341C305.187 452.518 299.608 454.107 293.43 454.107C289.052 454.107 285.327 453.384 282.255 451.935C279.218 450.488 276.73 448.67 274.788 446.48C272.846 444.257 271.364 442.014 270.339 439.755H269.651V483.289H247.089ZM269.174 412.109C269.174 416.946 269.845 421.166 271.186 424.767C272.529 428.368 274.47 431.176 277.012 433.187C279.554 435.165 282.643 436.154 286.28 436.154C289.952 436.154 293.06 435.147 295.602 433.135C298.144 431.087 300.068 428.263 301.374 424.661C302.716 421.025 303.386 416.841 303.386 412.109C303.386 407.413 302.733 403.283 301.427 399.718C300.12 396.15 298.196 393.361 295.654 391.35C293.112 389.337 289.987 388.331 286.28 388.331C282.608 388.331 279.502 389.301 276.96 391.244C274.453 393.185 272.529 395.939 271.186 399.505C269.845 403.071 269.174 407.272 269.174 412.109ZM378.219 454.373C369.992 454.373 362.878 452.625 356.877 449.129C350.91 445.598 346.301 440.691 343.054 434.406C339.805 428.086 338.181 420.759 338.181 412.428C338.181 404.025 339.805 396.681 343.054 390.396C346.301 384.076 350.91 379.169 356.877 375.673C362.878 372.142 369.992 370.377 378.219 370.377C386.446 370.377 393.543 372.142 399.509 375.673C405.511 379.169 410.137 384.076 413.384 390.396C416.633 396.681 418.257 404.025 418.257 412.428C418.257 420.759 416.633 428.086 413.384 434.406C410.137 440.691 405.511 445.598 399.509 449.129C393.543 452.625 386.446 454.373 378.219 454.373ZM378.325 436.895C382.067 436.895 385.192 435.835 387.699 433.718C390.206 431.564 392.095 428.634 393.367 424.926C394.672 421.219 395.325 417 395.325 412.269C395.325 407.537 394.672 403.318 393.367 399.611C392.095 395.903 390.206 392.973 387.699 390.819C385.192 388.665 382.067 387.589 378.325 387.589C374.547 387.589 371.37 388.665 368.793 390.819C366.251 392.973 364.327 395.903 363.019 399.611C361.748 403.318 361.113 407.537 361.113 412.269C361.113 417 361.748 421.219 363.019 424.926C364.327 428.634 366.251 431.564 368.793 433.718C371.37 435.835 374.547 436.895 378.325 436.895Z" fill="#004AC8"/>
<path d="M154.655 571.071H129.797C129.466 568.519 128.786 566.215 127.759 564.161C126.731 562.106 125.373 560.349 123.682 558.891C121.992 557.432 119.987 556.322 117.667 555.56C115.38 554.764 112.844 554.366 110.06 554.366C105.122 554.366 100.863 555.576 97.283 557.996C93.7366 560.415 91.0023 563.912 89.08 568.486C87.1908 573.06 86.2462 578.595 86.2462 585.091C86.2462 591.852 87.2074 597.52 89.1297 602.094C91.0852 606.634 93.8196 610.065 97.3328 612.385C100.879 614.672 105.072 615.815 109.911 615.815C112.629 615.815 115.098 615.467 117.319 614.771C119.572 614.075 121.544 613.064 123.235 611.739C124.958 610.38 126.367 608.739 127.461 606.817C128.587 604.861 129.366 602.657 129.797 600.205L154.655 600.354C154.224 604.861 152.915 609.303 150.728 613.678C148.573 618.053 145.607 622.046 141.828 625.659C138.05 629.239 133.443 632.089 128.007 634.21C122.605 636.331 116.407 637.392 109.414 637.392C100.2 637.392 91.9469 635.37 84.6552 631.327C77.3967 627.25 71.6628 621.317 67.4535 613.528C63.2442 605.74 61.1396 596.26 61.1396 585.091C61.1396 573.888 63.2774 564.393 67.553 556.604C71.8286 548.815 77.6122 542.899 84.9039 538.855C92.1955 534.812 100.365 532.79 109.414 532.79C115.578 532.79 121.279 533.652 126.516 535.375C131.753 537.065 136.36 539.551 140.337 542.832C144.314 546.08 147.546 550.074 150.032 554.814C152.517 559.554 154.059 564.973 154.655 571.071ZM204.384 637.442C196.363 637.442 189.469 635.801 183.702 632.52C177.968 629.205 173.543 624.598 170.428 618.699C167.345 612.766 165.804 605.889 165.804 598.067C165.804 590.212 167.345 583.334 170.428 577.435C173.543 571.502 177.968 566.895 183.702 563.614C189.469 560.299 196.363 558.642 204.384 558.642C212.404 558.642 219.282 560.299 225.016 563.614C230.783 566.895 235.207 571.502 238.29 577.435C241.405 583.334 242.963 590.212 242.963 598.067C242.963 605.889 241.405 612.766 238.29 618.699C235.207 624.598 230.783 629.205 225.016 632.52C219.282 635.801 212.404 637.442 204.384 637.442ZM204.533 619.097C207.449 619.097 209.919 618.202 211.94 616.412C213.962 614.622 215.503 612.136 216.564 608.955C217.658 605.773 218.205 602.094 218.205 597.918C218.205 593.675 217.658 589.963 216.564 586.781C215.503 583.599 213.962 581.114 211.94 579.324C209.919 577.534 207.449 576.639 204.533 576.639C201.517 576.639 198.964 577.534 196.876 579.324C194.821 581.114 193.247 583.599 192.153 586.781C191.093 589.963 190.562 593.675 190.562 597.918C190.562 602.094 191.093 605.773 192.153 608.955C193.247 612.136 194.821 614.622 196.876 616.412C198.964 618.202 201.517 619.097 204.533 619.097ZM255.417 636V559.636H279.032V573.557H279.827C281.219 568.519 283.49 564.774 286.638 562.321C289.787 559.835 293.45 558.592 297.626 558.592C298.753 558.592 299.913 558.675 301.106 558.841C302.299 558.973 303.409 559.189 304.437 559.487V580.616C303.277 580.219 301.752 579.904 299.863 579.672C298.007 579.44 296.35 579.324 294.891 579.324C292.008 579.324 289.406 579.97 287.086 581.263C284.799 582.522 282.993 584.295 281.667 586.582C280.374 588.836 279.728 591.488 279.728 594.537V636H255.417ZM338.654 592.449V636H314.343V559.636H337.461V573.656H338.306C339.996 568.983 342.88 565.321 346.956 562.669C351.033 559.984 355.889 558.642 361.523 558.642C366.892 558.642 371.549 559.852 375.493 562.271C379.471 564.658 382.553 568.005 384.74 572.314C386.961 576.589 388.055 581.594 388.022 587.328V636H363.711V592.101C363.744 587.858 362.667 584.544 360.479 582.158C358.325 579.771 355.325 578.578 351.48 578.578C348.928 578.578 346.675 579.142 344.719 580.268C342.797 581.362 341.305 582.937 340.245 584.991C339.217 587.046 338.687 589.532 338.654 592.449ZM403.073 636V559.636H427.384V636H403.073ZM415.254 550.737C411.84 550.737 408.906 549.61 406.454 547.357C404.001 545.07 402.775 542.319 402.775 539.104C402.775 535.922 404.001 533.204 406.454 530.95C408.906 528.663 411.84 527.52 415.254 527.52C418.701 527.52 421.634 528.663 424.053 530.95C426.506 533.204 427.732 535.922 427.732 539.104C427.732 542.319 426.506 545.07 424.053 547.357C421.634 549.61 418.701 550.737 415.254 550.737ZM478.505 637.442C470.451 637.442 463.54 635.785 457.773 632.47C452.039 629.156 447.631 624.549 444.549 618.649C441.466 612.716 439.925 605.856 439.925 598.067C439.925 590.245 441.466 583.384 444.549 577.484C447.664 571.552 452.089 566.928 457.823 563.614C463.59 560.299 470.467 558.642 478.455 558.642C485.515 558.642 491.663 559.918 496.9 562.47C502.169 565.022 506.279 568.635 509.229 573.308C512.212 577.948 513.786 583.401 513.952 589.665H491.232C490.768 585.754 489.442 582.688 487.255 580.467C485.1 578.247 482.283 577.136 478.803 577.136C475.986 577.136 473.516 577.932 471.395 579.523C469.274 581.08 467.617 583.401 466.424 586.483C465.264 589.532 464.684 593.311 464.684 597.818C464.684 602.326 465.264 606.137 466.424 609.253C467.617 612.335 469.274 614.672 471.395 616.263C473.516 617.821 475.986 618.599 478.803 618.599C481.057 618.599 483.045 618.119 484.769 617.158C486.525 616.196 487.967 614.788 489.094 612.932C490.221 611.043 490.934 608.756 491.232 606.071H513.952C513.72 612.368 512.146 617.87 509.229 622.577C506.346 627.283 502.285 630.946 497.049 633.564C491.845 636.149 485.664 637.442 478.505 637.442ZM526.393 636V559.636H550.705V636H526.393ZM538.574 550.737C535.16 550.737 532.227 549.61 529.774 547.357C527.321 545.07 526.095 542.319 526.095 539.104C526.095 535.922 527.321 533.204 529.774 530.95C532.227 528.663 535.16 527.52 538.574 527.52C542.021 527.52 544.954 528.663 547.374 530.95C549.826 533.204 551.053 535.922 551.053 539.104C551.053 542.319 549.826 545.07 547.374 547.357C544.954 549.61 542.021 550.737 538.574 550.737Z" fill="#004AC8"/>
<path d="M60.2122 157V131.545H77.0659V135.983H65.594V142.048H75.9473V146.485H65.594V157H60.2122Z" fill="white"/>
<path d="M80.6288 157V137.909H85.762V141.24H85.9608C86.3089 140.055 86.893 139.16 87.7133 138.555C88.5336 137.942 89.4782 137.636 90.5471 137.636C90.8123 137.636 91.0982 137.652 91.4047 137.685C91.7113 137.719 91.9806 137.764 92.2126 137.822V142.52C91.964 142.446 91.6202 142.379 91.181 142.321C90.7419 142.263 90.34 142.234 89.9754 142.234C89.1965 142.234 88.5005 142.404 87.8873 142.744C87.2825 143.075 86.8019 143.539 86.4456 144.136C86.0976 144.733 85.9236 145.42 85.9236 146.199V157H80.6288Z" fill="white"/>
<path d="M100.197 157.36C98.9791 157.36 97.8936 157.149 96.9407 156.727C95.9878 156.296 95.2338 155.662 94.6786 154.825C94.1318 153.98 93.8583 152.927 93.8583 151.668C93.8583 150.607 94.0531 149.717 94.4425 148.996C94.8319 148.275 95.3622 147.695 96.0334 147.256C96.7046 146.817 97.4669 146.485 98.3203 146.261C99.1821 146.038 100.085 145.88 101.03 145.789C102.14 145.673 103.035 145.565 103.715 145.466C104.394 145.358 104.887 145.201 105.194 144.994C105.5 144.787 105.653 144.48 105.653 144.074V143.999C105.653 143.212 105.405 142.603 104.908 142.172C104.419 141.741 103.723 141.526 102.82 141.526C101.867 141.526 101.109 141.737 100.545 142.16C99.9817 142.574 99.6088 143.096 99.4265 143.726L94.5295 143.328C94.7781 142.168 95.267 141.166 95.9961 140.32C96.7253 139.467 97.6657 138.812 98.8175 138.357C99.9775 137.893 101.32 137.661 102.844 137.661C103.905 137.661 104.92 137.785 105.89 138.033C106.867 138.282 107.733 138.667 108.487 139.189C109.25 139.711 109.85 140.383 110.289 141.203C110.729 142.015 110.948 142.988 110.948 144.124V157H105.927V154.353H105.778C105.471 154.949 105.061 155.475 104.547 155.931C104.034 156.379 103.416 156.731 102.695 156.988C101.974 157.236 101.142 157.36 100.197 157.36ZM101.713 153.706C102.492 153.706 103.18 153.553 103.777 153.246C104.373 152.932 104.841 152.509 105.181 151.979C105.521 151.448 105.691 150.848 105.691 150.177V148.151C105.525 148.258 105.297 148.358 105.007 148.449C104.725 148.532 104.406 148.61 104.05 148.685C103.694 148.751 103.338 148.813 102.981 148.871C102.625 148.921 102.302 148.967 102.012 149.008C101.39 149.099 100.848 149.244 100.384 149.443C99.9195 149.642 99.5591 149.911 99.3022 150.251C99.0454 150.583 98.9169 150.997 98.9169 151.494C98.9169 152.215 99.1779 152.766 99.7 153.147C100.23 153.52 100.901 153.706 101.713 153.706Z" fill="white"/>
<path d="M115.406 157V137.909H120.452V141.277H120.676C121.074 140.159 121.736 139.276 122.664 138.63C123.593 137.984 124.703 137.661 125.995 137.661C127.305 137.661 128.419 137.988 129.339 138.642C130.259 139.289 130.872 140.167 131.178 141.277H131.377C131.767 140.184 132.471 139.309 133.49 138.655C134.518 137.992 135.731 137.661 137.132 137.661C138.913 137.661 140.359 138.228 141.47 139.363C142.588 140.49 143.147 142.089 143.147 144.161V157H137.865V145.205C137.865 144.144 137.583 143.349 137.02 142.819C136.457 142.288 135.752 142.023 134.907 142.023C133.946 142.023 133.196 142.33 132.657 142.943C132.119 143.548 131.849 144.347 131.849 145.342V157H126.716V145.093C126.716 144.157 126.447 143.411 125.908 142.856C125.378 142.301 124.678 142.023 123.808 142.023C123.22 142.023 122.689 142.172 122.217 142.471C121.753 142.761 121.384 143.171 121.111 143.701C120.837 144.223 120.701 144.836 120.701 145.541V157H115.406Z" fill="white"/>
<path d="M156.38 157.373C154.416 157.373 152.726 156.975 151.309 156.18C149.9 155.376 148.815 154.241 148.053 152.774C147.29 151.299 146.909 149.555 146.909 147.542C146.909 145.578 147.29 143.854 148.053 142.371C148.815 140.888 149.888 139.732 151.272 138.903C152.664 138.075 154.296 137.661 156.169 137.661C157.428 137.661 158.601 137.864 159.686 138.27C160.78 138.667 161.733 139.268 162.545 140.072C163.365 140.876 164.003 141.886 164.459 143.104C164.915 144.314 165.143 145.731 165.143 147.355V148.809H149.022V145.528H160.158C160.158 144.766 159.993 144.09 159.661 143.502C159.33 142.914 158.87 142.454 158.282 142.123C157.702 141.783 157.026 141.613 156.256 141.613C155.452 141.613 154.739 141.799 154.118 142.172C153.505 142.537 153.024 143.03 152.676 143.651C152.328 144.264 152.15 144.948 152.142 145.702V148.822C152.142 149.766 152.316 150.583 152.664 151.27C153.02 151.958 153.521 152.488 154.168 152.861C154.814 153.234 155.58 153.42 156.467 153.42C157.055 153.42 157.594 153.338 158.083 153.172C158.572 153.006 158.99 152.758 159.338 152.426C159.686 152.095 159.951 151.689 160.134 151.208L165.031 151.531C164.782 152.708 164.272 153.735 163.502 154.614C162.74 155.484 161.754 156.163 160.544 156.652C159.342 157.133 157.954 157.373 156.38 157.373Z" fill="white"/>
<path d="M174.702 153.52L174.566 154.887C174.458 155.981 174.251 157.07 173.944 158.156C173.646 159.25 173.331 160.24 173 161.126C172.676 162.013 172.415 162.709 172.217 163.215H168.786C168.91 162.726 169.08 162.042 169.296 161.164C169.511 160.294 169.714 159.316 169.905 158.231C170.095 157.145 170.216 156.039 170.265 154.912L170.327 153.52H174.702Z" fill="white"/>
<path d="M187.148 157V137.909H192.281V141.24H192.48C192.828 140.055 193.412 139.16 194.232 138.555C195.053 137.942 195.997 137.636 197.066 137.636C197.331 137.636 197.617 137.652 197.924 137.685C198.23 137.719 198.5 137.764 198.732 137.822V142.52C198.483 142.446 198.139 142.379 197.7 142.321C197.261 142.263 196.859 142.234 196.494 142.234C195.715 142.234 195.019 142.404 194.406 142.744C193.801 143.075 193.321 143.539 192.965 144.136C192.616 144.733 192.442 145.42 192.442 146.199V157H187.148Z" fill="white"/>
<path d="M209.631 157.373C207.667 157.373 205.977 156.975 204.56 156.18C203.151 155.376 202.066 154.241 201.303 152.774C200.541 151.299 200.16 149.555 200.16 147.542C200.16 145.578 200.541 143.854 201.303 142.371C202.066 140.888 203.139 139.732 204.522 138.903C205.914 138.075 207.547 137.661 209.419 137.661C210.679 137.661 211.851 137.864 212.937 138.27C214.031 138.667 214.983 139.268 215.795 140.072C216.616 140.876 217.254 141.886 217.709 143.104C218.165 144.314 218.393 145.731 218.393 147.355V148.809H202.273V145.528H213.409C213.409 144.766 213.243 144.09 212.912 143.502C212.58 142.914 212.121 142.454 211.532 142.123C210.952 141.783 210.277 141.613 209.506 141.613C208.703 141.613 207.99 141.799 207.369 142.172C206.755 142.537 206.275 143.03 205.927 143.651C205.579 144.264 205.401 144.948 205.392 145.702V148.822C205.392 149.766 205.566 150.583 205.914 151.27C206.271 151.958 206.772 152.488 207.418 152.861C208.065 153.234 208.831 153.42 209.718 153.42C210.306 153.42 210.845 153.338 211.333 153.172C211.822 153.006 212.241 152.758 212.589 152.426C212.937 152.095 213.202 151.689 213.384 151.208L218.281 151.531C218.033 152.708 217.523 153.735 216.752 154.614C215.99 155.484 215.004 156.163 213.794 156.652C212.593 157.133 211.205 157.373 209.631 157.373Z" fill="white"/>
<path d="M222.198 164.159V137.909H227.419V141.116H227.655C227.887 140.602 228.222 140.08 228.661 139.55C229.109 139.011 229.689 138.564 230.401 138.207C231.122 137.843 232.017 137.661 233.086 137.661C234.478 137.661 235.762 138.025 236.939 138.754C238.116 139.475 239.056 140.565 239.76 142.023C240.465 143.473 240.817 145.292 240.817 147.479C240.817 149.609 240.473 151.407 239.785 152.874C239.106 154.332 238.178 155.438 237.001 156.192C235.833 156.938 234.524 157.311 233.074 157.311C232.046 157.311 231.172 157.141 230.451 156.801C229.739 156.461 229.154 156.035 228.699 155.521C228.243 154.999 227.895 154.473 227.655 153.943H227.493V164.159H222.198ZM227.381 147.455C227.381 148.59 227.539 149.58 227.854 150.425C228.168 151.27 228.624 151.929 229.221 152.401C229.817 152.865 230.542 153.097 231.396 153.097C232.258 153.097 232.987 152.861 233.583 152.389C234.18 151.908 234.631 151.245 234.938 150.4C235.253 149.547 235.41 148.565 235.41 147.455C235.41 146.353 235.257 145.383 234.95 144.546C234.644 143.709 234.192 143.055 233.596 142.582C232.999 142.11 232.266 141.874 231.396 141.874C230.534 141.874 229.805 142.102 229.208 142.558C228.62 143.013 228.168 143.66 227.854 144.496C227.539 145.333 227.381 146.319 227.381 147.455Z" fill="white"/>
<path d="M250.141 157.36C248.923 157.36 247.837 157.149 246.884 156.727C245.931 156.296 245.177 155.662 244.622 154.825C244.075 153.98 243.802 152.927 243.802 151.668C243.802 150.607 243.997 149.717 244.386 148.996C244.775 148.275 245.306 147.695 245.977 147.256C246.648 146.817 247.41 146.485 248.264 146.261C249.126 146.038 250.029 145.88 250.973 145.789C252.084 145.673 252.979 145.565 253.658 145.466C254.338 145.358 254.831 145.201 255.137 144.994C255.444 144.787 255.597 144.48 255.597 144.074V143.999C255.597 143.212 255.348 142.603 254.851 142.172C254.362 141.741 253.666 141.526 252.763 141.526C251.81 141.526 251.052 141.737 250.489 142.16C249.925 142.574 249.552 143.096 249.37 143.726L244.473 143.328C244.722 142.168 245.211 141.166 245.94 140.32C246.669 139.467 247.609 138.812 248.761 138.357C249.921 137.893 251.263 137.661 252.788 137.661C253.849 137.661 254.864 137.785 255.833 138.033C256.811 138.282 257.677 138.667 258.431 139.189C259.193 139.711 259.794 140.383 260.233 141.203C260.672 142.015 260.892 142.988 260.892 144.124V157H255.87V154.353H255.721C255.415 154.949 255.005 155.475 254.491 155.931C253.977 156.379 253.36 156.731 252.639 156.988C251.918 157.236 251.085 157.36 250.141 157.36ZM251.657 153.706C252.436 153.706 253.124 153.553 253.72 153.246C254.317 152.932 254.785 152.509 255.125 151.979C255.464 151.448 255.634 150.848 255.634 150.177V148.151C255.469 148.258 255.241 148.358 254.951 148.449C254.669 148.532 254.35 148.61 253.994 148.685C253.637 148.751 253.281 148.813 252.925 148.871C252.568 148.921 252.245 148.967 251.955 149.008C251.334 149.099 250.791 149.244 250.327 149.443C249.863 149.642 249.503 149.911 249.246 150.251C248.989 150.583 248.86 150.997 248.86 151.494C248.86 152.215 249.121 152.766 249.644 153.147C250.174 153.52 250.845 153.706 251.657 153.706Z" fill="white"/>
<path d="M265.35 157V137.909H270.644V157H265.35ZM268.009 135.448C267.222 135.448 266.547 135.187 265.983 134.665C265.428 134.135 265.151 133.501 265.151 132.764C265.151 132.034 265.428 131.409 265.983 130.887C266.547 130.356 267.222 130.091 268.009 130.091C268.796 130.091 269.468 130.356 270.023 130.887C270.586 131.409 270.868 132.034 270.868 132.764C270.868 133.501 270.586 134.135 270.023 134.665C269.468 135.187 268.796 135.448 268.009 135.448Z" fill="white"/>
<path d="M275.236 157V137.909H280.369V141.24H280.568C280.916 140.055 281.5 139.16 282.32 138.555C283.14 137.942 284.085 137.636 285.154 137.636C285.419 137.636 285.705 137.652 286.012 137.685C286.318 137.719 286.587 137.764 286.819 137.822V142.52C286.571 142.446 286.227 142.379 285.788 142.321C285.349 142.263 284.947 142.234 284.582 142.234C283.803 142.234 283.107 142.404 282.494 142.744C281.889 143.075 281.409 143.539 281.052 144.136C280.704 144.733 280.53 145.42 280.53 146.199V157H275.236Z" fill="white"/>
<path d="M303.801 157.36C302.583 157.36 301.498 157.149 300.545 156.727C299.592 156.296 298.838 155.662 298.283 154.825C297.736 153.98 297.463 152.927 297.463 151.668C297.463 150.607 297.657 149.717 298.047 148.996C298.436 148.275 298.967 147.695 299.638 147.256C300.309 146.817 301.071 146.485 301.925 146.261C302.786 146.038 303.69 145.88 304.634 145.789C305.744 145.673 306.639 145.565 307.319 145.466C307.998 145.358 308.491 145.201 308.798 144.994C309.104 144.787 309.258 144.48 309.258 144.074V143.999C309.258 143.212 309.009 142.603 308.512 142.172C308.023 141.741 307.327 141.526 306.424 141.526C305.471 141.526 304.713 141.737 304.149 142.16C303.586 142.574 303.213 143.096 303.031 143.726L298.134 143.328C298.382 142.168 298.871 141.166 299.6 140.32C300.33 139.467 301.27 138.812 302.422 138.357C303.582 137.893 304.924 137.661 306.449 137.661C307.509 137.661 308.524 137.785 309.494 138.033C310.472 138.282 311.337 138.667 312.092 139.189C312.854 139.711 313.455 140.383 313.894 141.203C314.333 142.015 314.552 142.988 314.552 144.124V157H309.531V154.353H309.382C309.075 154.949 308.665 155.475 308.152 155.931C307.638 156.379 307.021 156.731 306.3 156.988C305.579 157.236 304.746 157.36 303.801 157.36ZM305.318 153.706C306.097 153.706 306.784 153.553 307.381 153.246C307.978 152.932 308.446 152.509 308.785 151.979C309.125 151.448 309.295 150.848 309.295 150.177V148.151C309.129 148.258 308.901 148.358 308.611 148.449C308.33 148.532 308.011 148.61 307.654 148.685C307.298 148.751 306.942 148.813 306.585 148.871C306.229 148.921 305.906 148.967 305.616 149.008C304.995 149.099 304.452 149.244 303.988 149.443C303.524 149.642 303.163 149.911 302.907 150.251C302.65 150.583 302.521 150.997 302.521 151.494C302.521 152.215 302.782 152.766 303.304 153.147C303.835 153.52 304.506 153.706 305.318 153.706Z" fill="white"/>
<path d="M324.305 145.963V157H319.01V137.909H324.056V141.277H324.28C324.703 140.167 325.411 139.289 326.406 138.642C327.4 137.988 328.605 137.661 330.022 137.661C331.348 137.661 332.504 137.951 333.49 138.531C334.476 139.111 335.243 139.939 335.789 141.016C336.336 142.085 336.61 143.361 336.61 144.845V157H331.315V145.789C331.323 144.621 331.025 143.709 330.42 143.055C329.815 142.392 328.982 142.06 327.922 142.06C327.209 142.06 326.579 142.214 326.033 142.52C325.494 142.827 325.071 143.274 324.765 143.863C324.467 144.443 324.313 145.143 324.305 145.963Z" fill="white"/>
<path d="M348.168 157.311C346.717 157.311 345.404 156.938 344.228 156.192C343.059 155.438 342.131 154.332 341.443 152.874C340.764 151.407 340.424 149.609 340.424 147.479C340.424 145.292 340.776 143.473 341.481 142.023C342.185 140.565 343.121 139.475 344.29 138.754C345.466 138.025 346.755 137.661 348.155 137.661C349.224 137.661 350.115 137.843 350.827 138.207C351.548 138.564 352.128 139.011 352.567 139.55C353.015 140.08 353.355 140.602 353.587 141.116H353.748V131.545H359.03V157H353.81V153.943H353.587C353.338 154.473 352.986 154.999 352.53 155.521C352.083 156.035 351.498 156.461 350.778 156.801C350.065 157.141 349.195 157.311 348.168 157.311ZM349.845 153.097C350.699 153.097 351.42 152.865 352.008 152.401C352.605 151.929 353.06 151.27 353.375 150.425C353.698 149.58 353.86 148.59 353.86 147.455C353.86 146.319 353.703 145.333 353.388 144.496C353.073 143.66 352.617 143.013 352.021 142.558C351.424 142.102 350.699 141.874 349.845 141.874C348.975 141.874 348.242 142.11 347.646 142.582C347.049 143.055 346.597 143.709 346.291 144.546C345.984 145.383 345.831 146.353 345.831 147.455C345.831 148.565 345.984 149.547 346.291 150.4C346.606 151.245 347.057 151.908 347.646 152.389C348.242 152.861 348.975 153.097 349.845 153.097Z" fill="white"/>
<path d="M377.479 131.545V157H372.184V131.545H377.479Z" fill="white"/>
<path d="M382.07 157V137.909H387.365V157H382.07ZM384.73 135.448C383.943 135.448 383.268 135.187 382.704 134.665C382.149 134.135 381.872 133.501 381.872 132.764C381.872 132.034 382.149 131.409 382.704 130.887C383.268 130.356 383.943 130.091 384.73 130.091C385.517 130.091 386.189 130.356 386.744 130.887C387.307 131.409 387.589 132.034 387.589 132.764C387.589 133.501 387.307 134.135 386.744 134.665C386.189 135.187 385.517 135.448 384.73 135.448Z" fill="white"/>
<path d="M409.755 137.909L403.08 157H397.115L390.44 137.909H396.033L399.998 151.569H400.197L404.149 137.909H409.755Z" fill="white"/>
<path d="M420.899 157.373C418.936 157.373 417.245 156.975 415.828 156.18C414.42 155.376 413.334 154.241 412.572 152.774C411.81 151.299 411.429 149.555 411.429 147.542C411.429 145.578 411.81 143.854 412.572 142.371C413.334 140.888 414.407 139.732 415.791 138.903C417.183 138.075 418.816 137.661 420.688 137.661C421.948 137.661 423.12 137.864 424.206 138.27C425.299 138.667 426.252 139.268 427.064 140.072C427.885 140.876 428.523 141.886 428.978 143.104C429.434 144.314 429.662 145.731 429.662 147.355V148.809H413.541V145.528H424.678C424.678 144.766 424.512 144.09 424.181 143.502C423.849 142.914 423.389 142.454 422.801 142.123C422.221 141.783 421.546 141.613 420.775 141.613C419.971 141.613 419.259 141.799 418.637 142.172C418.024 142.537 417.544 143.03 417.196 143.651C416.848 144.264 416.669 144.948 416.661 145.702V148.822C416.661 149.766 416.835 150.583 417.183 151.27C417.539 151.958 418.041 152.488 418.687 152.861C419.333 153.234 420.1 153.42 420.986 153.42C421.575 153.42 422.113 153.338 422.602 153.172C423.091 153.006 423.51 152.758 423.858 152.426C424.206 152.095 424.471 151.689 424.653 151.208L429.55 151.531C429.301 152.708 428.792 153.735 428.021 154.614C427.259 155.484 426.273 156.163 425.063 156.652C423.862 157.133 422.474 157.373 420.899 157.373Z" fill="white"/>
<path d="M452.072 137.909V141.886H440.575V137.909H452.072ZM443.185 133.335H448.48V151.134C448.48 151.622 448.555 152.004 448.704 152.277C448.853 152.542 449.06 152.729 449.325 152.836C449.599 152.944 449.914 152.998 450.27 152.998C450.519 152.998 450.767 152.977 451.016 152.936C451.264 152.886 451.455 152.849 451.587 152.824L452.42 156.764C452.155 156.847 451.782 156.942 451.302 157.05C450.821 157.166 450.237 157.236 449.549 157.261C448.273 157.311 447.154 157.141 446.193 156.751C445.24 156.362 444.499 155.757 443.968 154.937C443.438 154.117 443.177 153.081 443.185 151.83V133.335Z" fill="white"/>
<path d="M461.576 145.963V157H456.281V131.545H461.427V141.277H461.651C462.082 140.15 462.778 139.268 463.739 138.63C464.7 137.984 465.906 137.661 467.356 137.661C468.681 137.661 469.837 137.951 470.823 138.531C471.818 139.102 472.588 139.927 473.135 141.004C473.69 142.073 473.964 143.353 473.955 144.845V157H468.661V145.789C468.669 144.612 468.371 143.697 467.766 143.042C467.169 142.388 466.332 142.06 465.255 142.06C464.534 142.06 463.896 142.214 463.341 142.52C462.794 142.827 462.363 143.274 462.048 143.863C461.742 144.443 461.584 145.143 461.576 145.963Z" fill="white"/>
<path d="M487.172 157.373C485.209 157.373 483.518 156.975 482.101 156.18C480.693 155.376 479.607 154.241 478.845 152.774C478.083 151.299 477.702 149.555 477.702 147.542C477.702 145.578 478.083 143.854 478.845 142.371C479.607 140.888 480.68 139.732 482.064 138.903C483.456 138.075 485.089 137.661 486.961 137.661C488.221 137.661 489.393 137.864 490.479 138.27C491.572 138.667 492.525 139.268 493.337 140.072C494.158 140.876 494.796 141.886 495.251 143.104C495.707 144.314 495.935 145.731 495.935 147.355V148.809H479.815V145.528H490.951C490.951 144.766 490.785 144.09 490.454 143.502C490.122 142.914 489.662 142.454 489.074 142.123C488.494 141.783 487.819 141.613 487.048 141.613C486.244 141.613 485.532 141.799 484.91 142.172C484.297 142.537 483.817 143.03 483.469 143.651C483.121 144.264 482.942 144.948 482.934 145.702V148.822C482.934 149.766 483.108 150.583 483.456 151.27C483.813 151.958 484.314 152.488 484.96 152.861C485.606 153.234 486.373 153.42 487.259 153.42C487.848 153.42 488.386 153.338 488.875 153.172C489.364 153.006 489.783 152.758 490.131 152.426C490.479 152.095 490.744 151.689 490.926 151.208L495.823 151.531C495.574 152.708 495.065 153.735 494.294 154.614C493.532 155.484 492.546 156.163 491.336 156.652C490.135 157.133 488.747 157.373 487.172 157.373Z" fill="white"/>
<path d="M60.1128 206.159V179.909H65.333V183.116H65.5691C65.8011 182.602 66.1367 182.08 66.5759 181.55C67.0233 181.011 67.6033 180.564 68.3159 180.207C69.0368 179.843 69.9317 179.661 71.0006 179.661C72.3926 179.661 73.6769 180.025 74.8536 180.754C76.0302 181.475 76.9706 182.565 77.6749 184.023C78.3792 185.473 78.7314 187.292 78.7314 189.479C78.7314 191.609 78.3875 193.407 77.6998 194.874C77.0203 196.332 76.0923 197.438 74.9157 198.192C73.7474 198.938 72.4382 199.311 70.9881 199.311C69.9607 199.311 69.0865 199.141 68.3656 198.801C67.653 198.461 67.0689 198.035 66.6131 197.521C66.1574 196.999 65.8094 196.473 65.5691 195.943H65.4075V206.159H60.1128ZM65.2957 189.455C65.2957 190.59 65.4531 191.58 65.768 192.425C66.0828 193.27 66.5386 193.929 67.1352 194.401C67.7318 194.865 68.4568 195.097 69.3102 195.097C70.172 195.097 70.9011 194.861 71.4977 194.389C72.0943 193.908 72.5459 193.245 72.8525 192.4C73.1674 191.547 73.3248 190.565 73.3248 189.455C73.3248 188.353 73.1715 187.383 72.8649 186.546C72.5583 185.709 72.1068 185.055 71.5102 184.582C70.9136 184.11 70.1803 183.874 69.3102 183.874C68.4485 183.874 67.7193 184.102 67.1227 184.558C66.5344 185.013 66.0828 185.66 65.768 186.496C65.4531 187.333 65.2957 188.319 65.2957 189.455Z" fill="white"/>
<path d="M82.6112 199V179.909H87.906V199H82.6112ZM85.271 177.448C84.4839 177.448 83.8086 177.187 83.2451 176.665C82.6899 176.135 82.4124 175.501 82.4124 174.764C82.4124 174.034 82.6899 173.409 83.2451 172.887C83.8086 172.356 84.4839 172.091 85.271 172.091C86.0582 172.091 86.7294 172.356 87.2845 172.887C87.848 173.409 88.1297 174.034 88.1297 174.764C88.1297 175.501 87.848 176.135 87.2845 176.665C86.7294 177.187 86.0582 177.448 85.271 177.448Z" fill="white"/>
<path d="M101.123 199.373C99.1676 199.373 97.4855 198.959 96.0769 198.13C94.6766 197.293 93.5994 196.133 92.8454 194.65C92.0996 193.167 91.7268 191.46 91.7268 189.529C91.7268 187.574 92.1038 185.858 92.8578 184.384C93.6201 182.9 94.7014 181.744 96.1018 180.916C97.5021 180.079 99.1676 179.661 101.098 179.661C102.764 179.661 104.222 179.963 105.473 180.568C106.724 181.173 107.715 182.022 108.444 183.116C109.173 184.21 109.575 185.494 109.649 186.969H104.653C104.512 186.016 104.139 185.249 103.534 184.669C102.938 184.081 102.155 183.787 101.185 183.787C100.365 183.787 99.6482 184.011 99.035 184.458C98.4301 184.897 97.9578 185.539 97.6181 186.385C97.2784 187.23 97.1085 188.253 97.1085 189.455C97.1085 190.673 97.2742 191.708 97.6057 192.562C97.9454 193.415 98.4218 194.066 99.035 194.513C99.6482 194.961 100.365 195.184 101.185 195.184C101.79 195.184 102.333 195.06 102.813 194.811C103.302 194.563 103.704 194.202 104.019 193.73C104.342 193.25 104.553 192.674 104.653 192.003H109.649C109.566 193.461 109.169 194.745 108.456 195.856C107.752 196.958 106.778 197.819 105.535 198.441C104.292 199.062 102.822 199.373 101.123 199.373Z" fill="white"/>
<path d="M123.544 179.909V183.886H112.047V179.909H123.544ZM114.657 175.335H119.952V193.134C119.952 193.622 120.026 194.004 120.176 194.277C120.325 194.542 120.532 194.729 120.797 194.836C121.07 194.944 121.385 194.998 121.742 194.998C121.99 194.998 122.239 194.977 122.487 194.936C122.736 194.886 122.927 194.849 123.059 194.824L123.892 198.764C123.627 198.847 123.254 198.942 122.773 199.05C122.293 199.166 121.708 199.236 121.021 199.261C119.745 199.311 118.626 199.141 117.665 198.751C116.712 198.362 115.97 197.757 115.44 196.937C114.91 196.117 114.649 195.081 114.657 193.83V175.335Z" fill="white"/>
<path d="M139.585 190.871V179.909H144.88V199H139.797V195.532H139.598C139.167 196.651 138.45 197.55 137.448 198.229C136.453 198.909 135.239 199.249 133.806 199.249C132.53 199.249 131.407 198.959 130.438 198.379C129.468 197.799 128.71 196.974 128.163 195.905C127.625 194.836 127.351 193.556 127.343 192.065V179.909H132.638V191.12C132.646 192.247 132.948 193.138 133.545 193.792C134.142 194.447 134.941 194.774 135.944 194.774C136.582 194.774 137.178 194.629 137.734 194.339C138.289 194.041 138.736 193.602 139.076 193.022C139.424 192.442 139.594 191.725 139.585 190.871Z" fill="white"/>
<path d="M149.465 199V179.909H154.599V183.24H154.797C155.145 182.055 155.73 181.16 156.55 180.555C157.37 179.942 158.315 179.636 159.384 179.636C159.649 179.636 159.935 179.652 160.241 179.685C160.548 179.719 160.817 179.764 161.049 179.822V184.52C160.801 184.446 160.457 184.379 160.018 184.321C159.578 184.263 159.177 184.234 158.812 184.234C158.033 184.234 157.337 184.404 156.724 184.744C156.119 185.075 155.638 185.539 155.282 186.136C154.934 186.733 154.76 187.42 154.76 188.199V199H149.465Z" fill="white"/>
<path d="M171.948 199.373C169.984 199.373 168.294 198.975 166.877 198.18C165.469 197.376 164.383 196.241 163.621 194.774C162.859 193.299 162.477 191.555 162.477 189.542C162.477 187.578 162.859 185.854 163.621 184.371C164.383 182.888 165.456 181.732 166.84 180.903C168.232 180.075 169.864 179.661 171.737 179.661C172.996 179.661 174.169 179.864 175.254 180.27C176.348 180.667 177.301 181.268 178.113 182.072C178.933 182.876 179.571 183.886 180.027 185.104C180.483 186.314 180.711 187.731 180.711 189.355V190.809H164.59V187.528H175.727C175.727 186.766 175.561 186.09 175.229 185.502C174.898 184.914 174.438 184.454 173.85 184.123C173.27 183.783 172.595 183.613 171.824 183.613C171.02 183.613 170.308 183.799 169.686 184.172C169.073 184.537 168.592 185.03 168.244 185.651C167.896 186.264 167.718 186.948 167.71 187.702V190.822C167.71 191.766 167.884 192.583 168.232 193.27C168.588 193.958 169.09 194.488 169.736 194.861C170.382 195.234 171.149 195.421 172.035 195.421C172.624 195.421 173.162 195.338 173.651 195.172C174.14 195.006 174.558 194.758 174.906 194.426C175.254 194.095 175.519 193.689 175.702 193.208L180.599 193.531C180.35 194.708 179.841 195.735 179.07 196.614C178.308 197.484 177.322 198.163 176.112 198.652C174.91 199.133 173.523 199.373 171.948 199.373Z" fill="white"/>
<path d="M200.4 185.353L195.553 185.651C195.47 185.237 195.292 184.864 195.018 184.533C194.745 184.193 194.385 183.924 193.937 183.725C193.498 183.518 192.972 183.414 192.359 183.414C191.538 183.414 190.846 183.588 190.283 183.936C189.72 184.276 189.438 184.732 189.438 185.303C189.438 185.759 189.62 186.144 189.985 186.459C190.349 186.774 190.975 187.027 191.861 187.217L195.317 187.913C197.173 188.295 198.557 188.908 199.468 189.753C200.379 190.598 200.835 191.708 200.835 193.084C200.835 194.335 200.466 195.433 199.729 196.378C199 197.322 197.997 198.06 196.721 198.59C195.453 199.112 193.991 199.373 192.334 199.373C189.807 199.373 187.793 198.847 186.293 197.794C184.802 196.734 183.928 195.292 183.671 193.469L188.878 193.196C189.036 193.966 189.417 194.555 190.022 194.961C190.627 195.358 191.402 195.557 192.346 195.557C193.274 195.557 194.02 195.379 194.583 195.023C195.155 194.658 195.445 194.19 195.453 193.618C195.445 193.138 195.242 192.744 194.844 192.438C194.447 192.123 193.833 191.882 193.005 191.717L189.699 191.058C187.834 190.685 186.447 190.039 185.535 189.119C184.632 188.199 184.18 187.027 184.18 185.602C184.18 184.375 184.512 183.319 185.175 182.432C185.846 181.546 186.786 180.862 187.996 180.381C189.214 179.901 190.639 179.661 192.272 179.661C194.683 179.661 196.58 180.17 197.964 181.189C199.356 182.208 200.168 183.596 200.4 185.353Z" fill="white"/>
<path d="M221.596 199.373C219.665 199.373 217.995 198.963 216.587 198.142C215.186 197.314 214.105 196.162 213.343 194.687C212.58 193.204 212.199 191.485 212.199 189.529C212.199 187.557 212.58 185.834 213.343 184.359C214.105 182.876 215.186 181.724 216.587 180.903C217.995 180.075 219.665 179.661 221.596 179.661C223.526 179.661 225.192 180.075 226.592 180.903C228.001 181.724 229.086 182.876 229.848 184.359C230.611 185.834 230.992 187.557 230.992 189.529C230.992 191.485 230.611 193.204 229.848 194.687C229.086 196.162 228.001 197.314 226.592 198.142C225.192 198.963 223.526 199.373 221.596 199.373ZM221.62 195.271C222.499 195.271 223.232 195.023 223.82 194.526C224.409 194.02 224.852 193.332 225.15 192.462C225.457 191.592 225.61 190.602 225.61 189.492C225.61 188.382 225.457 187.391 225.15 186.521C224.852 185.651 224.409 184.964 223.82 184.458C223.232 183.953 222.499 183.7 221.62 183.7C220.734 183.7 219.988 183.953 219.383 184.458C218.787 184.964 218.335 185.651 218.028 186.521C217.73 187.391 217.581 188.382 217.581 189.492C217.581 190.602 217.73 191.592 218.028 192.462C218.335 193.332 218.787 194.02 219.383 194.526C219.988 195.023 220.734 195.271 221.62 195.271Z" fill="white"/>
<path d="M245.051 179.909V183.886H233.268V179.909H245.051ZM235.965 199V178.53C235.965 177.146 236.235 175.998 236.773 175.087C237.32 174.175 238.066 173.492 239.011 173.036C239.955 172.58 241.028 172.352 242.23 172.352C243.042 172.352 243.783 172.414 244.454 172.539C245.134 172.663 245.639 172.775 245.971 172.874L245.026 176.852C244.819 176.785 244.562 176.723 244.256 176.665C243.957 176.607 243.651 176.578 243.336 176.578C242.557 176.578 242.014 176.76 241.708 177.125C241.401 177.481 241.248 177.983 241.248 178.629V199H235.965Z" fill="white"/>
<path d="M260.355 206.159C259.684 206.159 259.054 206.105 258.466 205.998C257.886 205.898 257.405 205.77 257.024 205.612L258.217 201.66C258.839 201.85 259.398 201.954 259.895 201.971C260.401 201.987 260.836 201.871 261.2 201.623C261.573 201.374 261.876 200.951 262.108 200.355L262.418 199.547L255.57 179.909H261.138L265.09 193.929H265.289L269.279 179.909H274.885L267.464 201.063C267.108 202.091 266.623 202.986 266.01 203.748C265.405 204.519 264.639 205.111 263.711 205.525C262.783 205.948 261.664 206.159 260.355 206.159Z" fill="white"/>
<path d="M285.955 199.373C284.024 199.373 282.354 198.963 280.946 198.142C279.545 197.314 278.464 196.162 277.702 194.687C276.939 193.204 276.558 191.485 276.558 189.529C276.558 187.557 276.939 185.834 277.702 184.359C278.464 182.876 279.545 181.724 280.946 180.903C282.354 180.075 284.024 179.661 285.955 179.661C287.885 179.661 289.551 180.075 290.951 180.903C292.36 181.724 293.445 182.876 294.207 184.359C294.97 185.834 295.351 187.557 295.351 189.529C295.351 191.485 294.97 193.204 294.207 194.687C293.445 196.162 292.36 197.314 290.951 198.142C289.551 198.963 287.885 199.373 285.955 199.373ZM285.979 195.271C286.858 195.271 287.591 195.023 288.179 194.526C288.768 194.02 289.211 193.332 289.509 192.462C289.816 191.592 289.969 190.602 289.969 189.492C289.969 188.382 289.816 187.391 289.509 186.521C289.211 185.651 288.768 184.964 288.179 184.458C287.591 183.953 286.858 183.7 285.979 183.7C285.093 183.7 284.347 183.953 283.742 184.458C283.146 184.964 282.694 185.651 282.387 186.521C282.089 187.391 281.94 188.382 281.94 189.492C281.94 190.602 282.089 191.592 282.387 192.462C282.694 193.332 283.146 194.02 283.742 194.526C284.347 195.023 285.093 195.271 285.979 195.271Z" fill="white"/>
<path d="M311.386 190.871V179.909H316.681V199H311.597V195.532H311.399C310.968 196.651 310.251 197.55 309.248 198.229C308.254 198.909 307.04 199.249 305.607 199.249C304.331 199.249 303.208 198.959 302.238 198.379C301.269 197.799 300.511 196.974 299.964 195.905C299.425 194.836 299.152 193.556 299.144 192.065V179.909H304.438V191.12C304.447 192.247 304.749 193.138 305.346 193.792C305.942 194.447 306.742 194.774 307.744 194.774C308.383 194.774 308.979 194.629 309.534 194.339C310.089 194.041 310.537 193.602 310.877 193.022C311.225 192.442 311.394 191.725 311.386 190.871Z" fill="white"/>
<path d="M321.266 199V179.909H326.399V183.24H326.598C326.946 182.055 327.53 181.16 328.351 180.555C329.171 179.942 330.116 179.636 331.184 179.636C331.45 179.636 331.735 179.652 332.042 179.685C332.349 179.719 332.618 179.764 332.85 179.822V184.52C332.601 184.446 332.257 184.379 331.818 184.321C331.379 184.263 330.977 184.234 330.613 184.234C329.834 184.234 329.138 184.404 328.525 184.744C327.92 185.075 327.439 185.539 327.083 186.136C326.735 186.733 326.561 187.42 326.561 188.199V199H321.266Z" fill="white"/>
<path d="M351.423 199.311C349.973 199.311 348.659 198.938 347.483 198.192C346.314 197.438 345.386 196.332 344.699 194.874C344.019 193.407 343.68 191.609 343.68 189.479C343.68 187.292 344.032 185.473 344.736 184.023C345.44 182.565 346.377 181.475 347.545 180.754C348.722 180.025 350.01 179.661 351.41 179.661C352.479 179.661 353.37 179.843 354.083 180.207C354.803 180.564 355.384 181.011 355.823 181.55C356.27 182.08 356.61 182.602 356.842 183.116H357.003V173.545H362.286V199H357.066V195.943H356.842C356.593 196.473 356.241 196.999 355.785 197.521C355.338 198.035 354.754 198.461 354.033 198.801C353.32 199.141 352.45 199.311 351.423 199.311ZM353.101 195.097C353.954 195.097 354.675 194.865 355.263 194.401C355.86 193.929 356.316 193.27 356.631 192.425C356.954 191.58 357.115 190.59 357.115 189.455C357.115 188.319 356.958 187.333 356.643 186.496C356.328 185.66 355.872 185.013 355.276 184.558C354.679 184.102 353.954 183.874 353.101 183.874C352.231 183.874 351.497 184.11 350.901 184.582C350.304 185.055 349.853 185.709 349.546 186.546C349.239 187.383 349.086 188.353 349.086 189.455C349.086 190.565 349.239 191.547 349.546 192.4C349.861 193.245 350.312 193.908 350.901 194.389C351.497 194.861 352.231 195.097 353.101 195.097Z" fill="white"/>
<path d="M366.989 199V179.909H372.122V183.24H372.321C372.669 182.055 373.253 181.16 374.073 180.555C374.894 179.942 375.838 179.636 376.907 179.636C377.172 179.636 377.458 179.652 377.765 179.685C378.071 179.719 378.341 179.764 378.573 179.822V184.52C378.324 184.446 377.98 184.379 377.541 184.321C377.102 184.263 376.7 184.234 376.336 184.234C375.557 184.234 374.861 184.404 374.247 184.744C373.643 185.075 373.162 185.539 372.806 186.136C372.458 186.733 372.284 187.42 372.284 188.199V199H366.989Z" fill="white"/>
<path d="M389.472 199.373C387.508 199.373 385.818 198.975 384.401 198.18C382.992 197.376 381.907 196.241 381.144 194.774C380.382 193.299 380.001 191.555 380.001 189.542C380.001 187.578 380.382 185.854 381.144 184.371C381.907 182.888 382.98 181.732 384.364 180.903C385.756 180.075 387.388 179.661 389.261 179.661C390.52 179.661 391.693 179.864 392.778 180.27C393.872 180.667 394.825 181.268 395.637 182.072C396.457 182.876 397.095 183.886 397.551 185.104C398.006 186.314 398.234 187.731 398.234 189.355V190.809H382.114V187.528H393.25C393.25 186.766 393.085 186.09 392.753 185.502C392.422 184.914 391.962 184.454 391.374 184.123C390.793 183.783 390.118 183.613 389.348 183.613C388.544 183.613 387.831 183.799 387.21 184.172C386.597 184.537 386.116 185.03 385.768 185.651C385.42 186.264 385.242 186.948 385.234 187.702V190.822C385.234 191.766 385.408 192.583 385.756 193.27C386.112 193.958 386.613 194.488 387.26 194.861C387.906 195.234 388.672 195.421 389.559 195.421C390.147 195.421 390.686 195.338 391.175 195.172C391.664 195.006 392.082 194.758 392.43 194.426C392.778 194.095 393.043 193.689 393.225 193.208L398.122 193.531C397.874 194.708 397.364 195.735 396.594 196.614C395.831 197.484 394.845 198.163 393.636 198.652C392.434 199.133 391.046 199.373 389.472 199.373Z" fill="white"/>
<path d="M407.483 199.36C406.265 199.36 405.18 199.149 404.227 198.727C403.274 198.296 402.52 197.662 401.965 196.825C401.418 195.98 401.145 194.927 401.145 193.668C401.145 192.607 401.339 191.717 401.729 190.996C402.118 190.275 402.649 189.695 403.32 189.256C403.991 188.817 404.753 188.485 405.607 188.261C406.468 188.038 407.372 187.88 408.316 187.789C409.427 187.673 410.321 187.565 411.001 187.466C411.68 187.358 412.173 187.201 412.48 186.994C412.786 186.787 412.94 186.48 412.94 186.074V185.999C412.94 185.212 412.691 184.603 412.194 184.172C411.705 183.741 411.009 183.526 410.106 183.526C409.153 183.526 408.395 183.737 407.831 184.16C407.268 184.574 406.895 185.096 406.713 185.726L401.816 185.328C402.064 184.168 402.553 183.166 403.282 182.32C404.012 181.467 404.952 180.812 406.104 180.357C407.264 179.893 408.606 179.661 410.131 179.661C411.191 179.661 412.206 179.785 413.176 180.033C414.154 180.282 415.02 180.667 415.774 181.189C416.536 181.711 417.137 182.383 417.576 183.203C418.015 184.015 418.235 184.988 418.235 186.124V199H413.213V196.353H413.064C412.757 196.949 412.347 197.475 411.834 197.931C411.32 198.379 410.703 198.731 409.982 198.988C409.261 199.236 408.428 199.36 407.483 199.36ZM409 195.706C409.779 195.706 410.466 195.553 411.063 195.246C411.66 194.932 412.128 194.509 412.467 193.979C412.807 193.448 412.977 192.848 412.977 192.177V190.151C412.811 190.258 412.583 190.358 412.293 190.449C412.012 190.532 411.693 190.61 411.336 190.685C410.98 190.751 410.624 190.813 410.268 190.871C409.911 190.921 409.588 190.967 409.298 191.008C408.677 191.099 408.134 191.244 407.67 191.443C407.206 191.642 406.845 191.911 406.589 192.251C406.332 192.583 406.203 192.997 406.203 193.494C406.203 194.215 406.464 194.766 406.986 195.147C407.517 195.52 408.188 195.706 409 195.706Z" fill="white"/>
<path d="M422.692 199V179.909H427.738V183.277H427.962C428.36 182.159 429.023 181.276 429.951 180.63C430.879 179.984 431.989 179.661 433.282 179.661C434.591 179.661 435.705 179.988 436.625 180.642C437.545 181.289 438.158 182.167 438.465 183.277H438.664C439.053 182.184 439.757 181.309 440.776 180.655C441.804 179.992 443.018 179.661 444.418 179.661C446.2 179.661 447.646 180.228 448.756 181.363C449.874 182.49 450.434 184.089 450.434 186.161V199H445.151V187.205C445.151 186.144 444.87 185.349 444.306 184.819C443.743 184.288 443.039 184.023 442.193 184.023C441.232 184.023 440.482 184.33 439.944 184.943C439.405 185.548 439.136 186.347 439.136 187.342V199H434.003V187.093C434.003 186.157 433.733 185.411 433.195 184.856C432.664 184.301 431.964 184.023 431.094 184.023C430.506 184.023 429.976 184.172 429.503 184.471C429.039 184.761 428.671 185.171 428.397 185.701C428.124 186.223 427.987 186.836 427.987 187.541V199H422.692Z" fill="white"/>
<path d="M470.85 185.353L466.003 185.651C465.92 185.237 465.742 184.864 465.469 184.533C465.195 184.193 464.835 183.924 464.387 183.725C463.948 183.518 463.422 183.414 462.809 183.414C461.988 183.414 461.297 183.588 460.733 183.936C460.17 184.276 459.888 184.732 459.888 185.303C459.888 185.759 460.07 186.144 460.435 186.459C460.799 186.774 461.425 187.027 462.312 187.217L465.767 187.913C467.623 188.295 469.007 188.908 469.918 189.753C470.83 190.598 471.285 191.708 471.285 193.084C471.285 194.335 470.917 195.433 470.179 196.378C469.45 197.322 468.447 198.06 467.171 198.59C465.904 199.112 464.441 199.373 462.784 199.373C460.257 199.373 458.243 198.847 456.743 197.794C455.252 196.734 454.378 195.292 454.121 193.469L459.329 193.196C459.486 193.966 459.867 194.555 460.472 194.961C461.077 195.358 461.852 195.557 462.796 195.557C463.724 195.557 464.47 195.379 465.034 195.023C465.605 194.658 465.895 194.19 465.904 193.618C465.895 193.138 465.692 192.744 465.295 192.438C464.897 192.123 464.284 191.882 463.455 191.717L460.149 191.058C458.285 190.685 456.897 190.039 455.985 189.119C455.082 188.199 454.631 187.027 454.631 185.602C454.631 184.375 454.962 183.319 455.625 182.432C456.296 181.546 457.237 180.862 458.446 180.381C459.664 179.901 461.089 179.661 462.722 179.661C465.133 179.661 467.031 180.17 468.414 181.189C469.806 182.208 470.618 183.596 470.85 185.353Z" fill="white"/>
</g>
<defs>
<clipPath id="clip0_314_11">
<rect width="700" height="700" fill="white"/>
</clipPath>
</defs>
</svg>
