<svg width="700" height="700" viewBox="0 0 700 700" fill="none" xmlns="http://www.w3.org/2000/svg">
<g clip-path="url(#clip0_314_11)">
<path d="M0 0H700V700L681.862 681.862V17.4664H17.4664V681.862H681.862L700 700H0V0Z" fill="#004AC8"/>
<path d="M70.5596 452.783V344.321H143.645V363.228H93.4915V389.072H139.885V407.979H93.4915V433.876H143.856V452.783H70.5596ZM180.306 371.437L195.241 399.876L210.547 371.437H233.69L210.124 412.109L234.326 452.783H211.289L195.241 424.661L179.46 452.783H156.157L180.306 412.109L157.004 371.437H180.306ZM247.089 483.289V371.437H269.332V385.099H270.339C271.327 382.911 272.758 380.686 274.629 378.427C276.535 376.132 279.007 374.226 282.044 372.708C285.115 371.153 288.928 370.377 293.483 370.377C299.415 370.377 304.887 371.93 309.9 375.038C314.914 378.109 318.922 382.752 321.922 388.966C324.924 395.144 326.425 402.895 326.425 412.215C326.425 421.29 324.959 428.951 322.028 435.2C319.133 441.414 315.179 446.128 310.165 449.341C305.187 452.518 299.608 454.107 293.43 454.107C289.052 454.107 285.327 453.384 282.255 451.935C279.218 450.488 276.73 448.67 274.788 446.48C272.846 444.257 271.364 442.014 270.339 439.755H269.651V483.289H247.089ZM269.174 412.109C269.174 416.946 269.845 421.166 271.186 424.767C272.529 428.368 274.47 431.176 277.012 433.187C279.554 435.165 282.643 436.154 286.28 436.154C289.952 436.154 293.06 435.147 295.602 433.135C298.144 431.087 300.068 428.263 301.374 424.661C302.716 421.025 303.386 416.841 303.386 412.109C303.386 407.413 302.733 403.283 301.427 399.718C300.12 396.15 298.196 393.361 295.654 391.35C293.112 389.337 289.987 388.331 286.28 388.331C282.608 388.331 279.502 389.301 276.96 391.244C274.453 393.185 272.529 395.939 271.186 399.505C269.845 403.071 269.174 407.272 269.174 412.109ZM378.219 454.373C369.992 454.373 362.878 452.625 356.877 449.129C350.91 445.598 346.301 440.691 343.054 434.406C339.805 428.086 338.181 420.759 338.181 412.428C338.181 404.025 339.805 396.681 343.054 390.396C346.301 384.076 350.91 379.169 356.877 375.673C362.878 372.142 369.992 370.377 378.219 370.377C386.446 370.377 393.543 372.142 399.509 375.673C405.511 379.169 410.137 384.076 413.384 390.396C416.633 396.681 418.257 404.025 418.257 412.428C418.257 420.759 416.633 428.086 413.384 434.406C410.137 440.691 405.511 445.598 399.509 449.129C393.543 452.625 386.446 454.373 378.219 454.373ZM378.325 436.895C382.067 436.895 385.192 435.835 387.699 433.718C390.206 431.564 392.095 428.634 393.367 424.926C394.672 421.219 395.325 417 395.325 412.269C395.325 407.537 394.672 403.318 393.367 399.611C392.095 395.903 390.206 392.973 387.699 390.819C385.192 388.665 382.067 387.589 378.325 387.589C374.547 387.589 371.37 388.665 368.793 390.819C366.251 392.973 364.327 395.903 363.019 399.611C361.748 403.318 361.113 407.537 361.113 412.269C361.113 417 361.748 421.219 363.019 424.926C364.327 428.634 366.251 431.564 368.793 433.718C371.37 435.835 374.547 436.895 378.325 436.895Z" fill="#004AC8"/>
<path d="M154.655 571.071H129.797C129.466 568.519 128.786 566.215 127.759 564.161C126.731 562.106 125.373 560.349 123.682 558.891C121.992 557.432 119.987 556.322 117.667 555.56C115.38 554.764 112.844 554.366 110.06 554.366C105.122 554.366 100.863 555.576 97.283 557.996C93.7366 560.415 91.0023 563.912 89.08 568.486C87.1908 573.06 86.2462 578.595 86.2462 585.091C86.2462 591.852 87.2074 597.52 89.1297 602.094C91.0852 606.634 93.8196 610.065 97.3328 612.385C100.879 614.672 105.072 615.815 109.911 615.815C112.629 615.815 115.098 615.467 117.319 614.771C119.572 614.075 121.544 613.064 123.235 611.739C124.958 610.38 126.367 608.739 127.461 606.817C128.587 604.861 129.366 602.657 129.797 600.205L154.655 600.354C154.224 604.861 152.915 609.303 150.728 613.678C148.573 618.053 145.607 622.046 141.828 625.659C138.05 629.239 133.443 632.089 128.007 634.21C122.605 636.331 116.407 637.392 109.414 637.392C100.2 637.392 91.9469 635.37 84.6552 631.327C77.3967 627.25 71.6628 621.317 67.4535 613.528C63.2442 605.74 61.1396 596.26 61.1396 585.091C61.1396 573.888 63.2774 564.393 67.553 556.604C71.8286 548.815 77.6122 542.899 84.9039 538.855C92.1955 534.812 100.365 532.79 109.414 532.79C115.578 532.79 121.279 533.652 126.516 535.375C131.753 537.065 136.36 539.551 140.337 542.832C144.314 546.08 147.546 550.074 150.032 554.814C152.517 559.554 154.059 564.973 154.655 571.071ZM204.384 637.442C196.363 637.442 189.469 635.801 183.702 632.52C177.968 629.205 173.543 624.598 170.428 618.699C167.345 612.766 165.804 605.889 165.804 598.067C165.804 590.212 167.345 583.334 170.428 577.435C173.543 571.502 177.968 566.895 183.702 563.614C189.469 560.299 196.363 558.642 204.384 558.642C212.404 558.642 219.282 560.299 225.016 563.614C230.783 566.895 235.207 571.502 238.29 577.435C241.405 583.334 242.963 590.212 242.963 598.067C242.963 605.889 241.405 612.766 238.29 618.699C235.207 624.598 230.783 629.205 225.016 632.52C219.282 635.801 212.404 637.442 204.384 637.442ZM204.533 619.097C207.449 619.097 209.919 618.202 211.94 616.412C213.962 614.622 215.503 612.136 216.564 608.955C217.658 605.773 218.205 602.094 218.205 597.918C218.205 593.675 217.658 589.963 216.564 586.781C215.503 583.599 213.962 581.114 211.94 579.324C209.919 577.534 207.449 576.639 204.533 576.639C201.517 576.639 198.964 577.534 196.876 579.324C194.821 581.114 193.247 583.599 192.153 586.781C191.093 589.963 190.562 593.675 190.562 597.918C190.562 602.094 191.093 605.773 192.153 608.955C193.247 612.136 194.821 614.622 196.876 616.412C198.964 618.202 201.517 619.097 204.533 619.097ZM255.417 636V559.636H279.032V573.557H279.827C281.219 568.519 283.49 564.774 286.638 562.321C289.787 559.835 293.45 558.592 297.626 558.592C298.753 558.592 299.913 558.675 301.106 558.841C302.299 558.973 303.409 559.189 304.437 559.487V580.616C303.277 580.219 301.752 579.904 299.863 579.672C298.007 579.44 296.35 579.324 294.891 579.324C292.008 579.324 289.406 579.97 287.086 581.263C284.799 582.522 282.993 584.295 281.667 586.582C280.374 588.836 279.728 591.488 279.728 594.537V636H255.417ZM338.654 592.449V636H314.343V559.636H337.461V573.656H338.306C339.996 568.983 342.88 565.321 346.956 562.669C351.033 559.984 355.889 558.642 361.523 558.642C366.892 558.642 371.549 559.852 375.493 562.271C379.471 564.658 382.553 568.005 384.74 572.314C386.961 576.589 388.055 581.594 388.022 587.328V636H363.711V592.101C363.744 587.858 362.667 584.544 360.479 582.158C358.325 579.771 355.325 578.578 351.48 578.578C348.928 578.578 346.675 579.142 344.719 580.268C342.797 581.362 341.305 582.937 340.245 584.991C339.217 587.046 338.687 589.532 338.654 592.449ZM403.073 636V559.636H427.384V636H403.073ZM415.254 550.737C411.84 550.737 408.906 549.61 406.454 547.357C404.001 545.07 402.775 542.319 402.775 539.104C402.775 535.922 404.001 533.204 406.454 530.95C408.906 528.663 411.84 527.52 415.254 527.52C418.701 527.52 421.634 528.663 424.053 530.95C426.506 533.204 427.732 535.922 427.732 539.104C427.732 542.319 426.506 545.07 424.053 547.357C421.634 549.61 418.701 550.737 415.254 550.737ZM478.505 637.442C470.451 637.442 463.54 635.785 457.773 632.47C452.039 629.156 447.631 624.549 444.549 618.649C441.466 612.716 439.925 605.856 439.925 598.067C439.925 590.245 441.466 583.384 444.549 577.484C447.664 571.552 452.089 566.928 457.823 563.614C463.59 560.299 470.467 558.642 478.455 558.642C485.515 558.642 491.663 559.918 496.9 562.47C502.169 565.022 506.279 568.635 509.229 573.308C512.212 577.948 513.786 583.401 513.952 589.665H491.232C490.768 585.754 489.442 582.688 487.255 580.467C485.1 578.247 482.283 577.136 478.803 577.136C475.986 577.136 473.516 577.932 471.395 579.523C469.274 581.08 467.617 583.401 466.424 586.483C465.264 589.532 464.684 593.311 464.684 597.818C464.684 602.326 465.264 606.137 466.424 609.253C467.617 612.335 469.274 614.672 471.395 616.263C473.516 617.821 475.986 618.599 478.803 618.599C481.057 618.599 483.045 618.119 484.769 617.158C486.525 616.196 487.967 614.788 489.094 612.932C490.221 611.043 490.934 608.756 491.232 606.071H513.952C513.72 612.368 512.146 617.87 509.229 622.577C506.346 627.283 502.285 630.946 497.049 633.564C491.845 636.149 485.664 637.442 478.505 637.442ZM526.393 636V559.636H550.705V636H526.393ZM538.574 550.737C535.16 550.737 532.227 549.61 529.774 547.357C527.321 545.07 526.095 542.319 526.095 539.104C526.095 535.922 527.321 533.204 529.774 530.95C532.227 528.663 535.16 527.52 538.574 527.52C542.021 527.52 544.954 528.663 547.374 530.95C549.826 533.204 551.053 535.922 551.053 539.104C551.053 542.319 549.826 545.07 547.374 547.357C544.954 549.61 542.021 550.737 538.574 550.737Z" fill="#004AC8"/>
<path d="M57.2122 158V132.545H74.3642V136.983H62.594V143.048H73.4818V147.485H62.594V153.563H74.4139V158H57.2122Z" fill="white"/>
<path d="M84.1882 146.963V158H78.8935V138.909H83.9396V142.277H84.1633C84.5859 141.167 85.2944 140.289 86.2887 139.642C87.283 138.988 88.4886 138.661 89.9055 138.661C91.2313 138.661 92.3872 138.951 93.3732 139.531C94.3592 140.111 95.1257 140.939 95.6726 142.016C96.2195 143.085 96.4929 144.361 96.4929 145.844V158H91.1981V146.789C91.2064 145.621 90.9081 144.709 90.3033 144.055C89.6984 143.392 88.8656 143.06 87.805 143.06C87.0924 143.06 86.4627 143.214 85.9158 143.52C85.3772 143.827 84.9547 144.274 84.6481 144.863C84.3498 145.443 84.1965 146.143 84.1882 146.963Z" fill="white"/>
<path d="M109.642 158.373C107.686 158.373 106.004 157.959 104.595 157.13C103.195 156.293 102.118 155.133 101.364 153.65C100.618 152.167 100.245 150.46 100.245 148.529C100.245 146.574 100.622 144.858 101.376 143.384C102.139 141.9 103.22 140.744 104.62 139.916C106.021 139.079 107.686 138.661 109.617 138.661C111.282 138.661 112.741 138.963 113.992 139.568C115.243 140.173 116.233 141.022 116.962 142.116C117.691 143.21 118.093 144.494 118.168 145.969H113.171C113.031 145.016 112.658 144.249 112.053 143.669C111.456 143.081 110.673 142.787 109.704 142.787C108.883 142.787 108.167 143.011 107.554 143.458C106.949 143.897 106.476 144.539 106.137 145.385C105.797 146.23 105.627 147.253 105.627 148.455C105.627 149.673 105.793 150.708 106.124 151.562C106.464 152.415 106.94 153.066 107.554 153.513C108.167 153.961 108.883 154.184 109.704 154.184C110.309 154.184 110.851 154.06 111.332 153.811C111.821 153.563 112.223 153.202 112.538 152.73C112.861 152.25 113.072 151.674 113.171 151.002H118.168C118.085 152.461 117.687 153.745 116.975 154.855C116.27 155.958 115.297 156.819 114.054 157.441C112.811 158.062 111.34 158.373 109.642 158.373Z" fill="white"/>
<path d="M127.352 158.36C126.134 158.36 125.048 158.149 124.095 157.727C123.143 157.296 122.389 156.662 121.833 155.825C121.286 154.98 121.013 153.927 121.013 152.668C121.013 151.607 121.208 150.717 121.597 149.996C121.987 149.275 122.517 148.695 123.188 148.256C123.859 147.817 124.622 147.485 125.475 147.261C126.337 147.038 127.24 146.88 128.185 146.789C129.295 146.673 130.19 146.565 130.869 146.466C131.549 146.358 132.042 146.201 132.348 145.994C132.655 145.786 132.808 145.48 132.808 145.074V144.999C132.808 144.212 132.56 143.603 132.062 143.172C131.574 142.741 130.877 142.526 129.974 142.526C129.021 142.526 128.263 142.737 127.7 143.16C127.136 143.574 126.764 144.096 126.581 144.726L121.684 144.328C121.933 143.168 122.422 142.165 123.151 141.32C123.88 140.467 124.82 139.812 125.972 139.357C127.132 138.893 128.475 138.661 129.999 138.661C131.06 138.661 132.075 138.785 133.044 139.033C134.022 139.282 134.888 139.667 135.642 140.189C136.404 140.711 137.005 141.382 137.444 142.203C137.883 143.015 138.103 143.988 138.103 145.124V158H133.082V155.353H132.932C132.626 155.949 132.216 156.475 131.702 156.931C131.188 157.379 130.571 157.731 129.85 157.988C129.129 158.236 128.296 158.36 127.352 158.36ZM128.868 154.706C129.647 154.706 130.335 154.553 130.931 154.246C131.528 153.932 131.996 153.509 132.336 152.979C132.676 152.448 132.845 151.848 132.845 151.176V149.151C132.68 149.258 132.452 149.358 132.162 149.449C131.88 149.532 131.561 149.61 131.205 149.685C130.848 149.751 130.492 149.813 130.136 149.871C129.78 149.921 129.456 149.967 129.166 150.008C128.545 150.099 128.002 150.244 127.538 150.443C127.074 150.642 126.714 150.911 126.457 151.251C126.2 151.583 126.072 151.997 126.072 152.494C126.072 153.215 126.333 153.766 126.855 154.147C127.385 154.52 128.056 154.706 128.868 154.706Z" fill="white"/>
<path d="M149.595 158.311C148.145 158.311 146.832 157.938 145.655 157.192C144.487 156.438 143.559 155.332 142.871 153.874C142.192 152.407 141.852 150.609 141.852 148.479C141.852 146.292 142.204 144.473 142.909 143.023C143.613 141.565 144.549 140.475 145.718 139.754C146.894 139.025 148.183 138.661 149.583 138.661C150.652 138.661 151.543 138.843 152.255 139.207C152.976 139.564 153.556 140.011 153.995 140.55C154.443 141.08 154.782 141.602 155.014 142.116H155.176V132.545H160.458V158H155.238V154.942H155.014C154.766 155.473 154.414 155.999 153.958 156.521C153.511 157.035 152.926 157.461 152.206 157.801C151.493 158.141 150.623 158.311 149.595 158.311ZM151.273 154.097C152.127 154.097 152.848 153.865 153.436 153.401C154.033 152.929 154.488 152.27 154.803 151.425C155.126 150.58 155.288 149.59 155.288 148.455C155.288 147.319 155.13 146.333 154.816 145.496C154.501 144.66 154.045 144.013 153.448 143.558C152.852 143.102 152.127 142.874 151.273 142.874C150.403 142.874 149.67 143.11 149.073 143.582C148.477 144.055 148.025 144.709 147.719 145.546C147.412 146.383 147.259 147.353 147.259 148.455C147.259 149.565 147.412 150.547 147.719 151.4C148.034 152.245 148.485 152.908 149.073 153.389C149.67 153.861 150.403 154.097 151.273 154.097Z" fill="white"/>
<path d="M165.162 158V138.909H170.295V142.24H170.494C170.842 141.055 171.426 140.16 172.246 139.555C173.066 138.942 174.011 138.636 175.08 138.636C175.345 138.636 175.631 138.652 175.938 138.685C176.244 138.719 176.513 138.764 176.745 138.822V143.52C176.497 143.446 176.153 143.379 175.714 143.321C175.275 143.263 174.873 143.234 174.508 143.234C173.729 143.234 173.033 143.404 172.42 143.744C171.815 144.075 171.335 144.539 170.978 145.136C170.63 145.733 170.456 146.42 170.456 147.199V158H165.162Z" fill="white"/>
<path d="M187.645 158.373C185.681 158.373 183.99 157.975 182.574 157.18C181.165 156.376 180.079 155.241 179.317 153.774C178.555 152.299 178.174 150.555 178.174 148.542C178.174 146.578 178.555 144.854 179.317 143.371C180.079 141.888 181.152 140.732 182.536 139.903C183.928 139.075 185.561 138.661 187.433 138.661C188.693 138.661 189.865 138.864 190.951 139.27C192.044 139.667 192.997 140.268 193.809 141.072C194.63 141.875 195.268 142.886 195.723 144.104C196.179 145.314 196.407 146.731 196.407 148.355V149.809H180.287V146.528H191.423C191.423 145.766 191.257 145.09 190.926 144.502C190.594 143.914 190.134 143.454 189.546 143.123C188.966 142.783 188.291 142.613 187.52 142.613C186.716 142.613 186.004 142.799 185.382 143.172C184.769 143.537 184.289 144.03 183.941 144.651C183.593 145.264 183.415 145.948 183.406 146.702V149.822C183.406 150.766 183.58 151.583 183.928 152.27C184.285 152.958 184.786 153.488 185.432 153.861C186.078 154.234 186.845 154.42 187.732 154.42C188.32 154.42 188.858 154.338 189.347 154.172C189.836 154.006 190.255 153.758 190.603 153.426C190.951 153.095 191.216 152.689 191.398 152.208L196.295 152.531C196.047 153.708 195.537 154.735 194.766 155.614C194.004 156.484 193.018 157.163 191.808 157.652C190.607 158.133 189.219 158.373 187.645 158.373Z" fill="white"/>
<path d="M200.113 158V154.843L209.459 143.272V143.135H200.436V138.909H215.835V142.352L207.061 153.637V153.774H216.159V158H200.113Z" fill="white"/>
<path d="M226.312 154.52L226.175 155.887C226.067 156.981 225.86 158.07 225.554 159.156C225.255 160.25 224.941 161.24 224.609 162.126C224.286 163.013 224.025 163.709 223.826 164.214H220.396C220.52 163.726 220.69 163.042 220.905 162.164C221.121 161.294 221.324 160.316 221.514 159.23C221.705 158.145 221.825 157.039 221.875 155.912L221.937 154.52H226.312Z" fill="white"/>
<path d="M238.757 158V138.909H243.89V142.24H244.089C244.437 141.055 245.022 140.16 245.842 139.555C246.662 138.942 247.607 138.636 248.676 138.636C248.941 138.636 249.227 138.652 249.533 138.685C249.84 138.719 250.109 138.764 250.341 138.822V143.52C250.093 143.446 249.749 143.379 249.31 143.321C248.87 143.263 248.468 143.234 248.104 143.234C247.325 143.234 246.629 143.404 246.016 143.744C245.411 144.075 244.93 144.539 244.574 145.136C244.226 145.733 244.052 146.42 244.052 147.199V158H238.757Z" fill="white"/>
<path d="M261.24 158.373C259.276 158.373 257.586 157.975 256.169 157.18C254.761 156.376 253.675 155.241 252.913 153.774C252.151 152.299 251.769 150.555 251.769 148.542C251.769 146.578 252.151 144.854 252.913 143.371C253.675 141.888 254.748 140.732 256.132 139.903C257.524 139.075 259.156 138.661 261.029 138.661C262.288 138.661 263.461 138.864 264.546 139.27C265.64 139.667 266.593 140.268 267.405 141.072C268.225 141.875 268.863 142.886 269.319 144.104C269.775 145.314 270.003 146.731 270.003 148.355V149.809H253.882V146.528H265.019C265.019 145.766 264.853 145.09 264.521 144.502C264.19 143.914 263.73 143.454 263.142 143.123C262.562 142.783 261.887 142.613 261.116 142.613C260.312 142.613 259.6 142.799 258.978 143.172C258.365 143.537 257.884 144.03 257.536 144.651C257.188 145.264 257.01 145.948 257.002 146.702V149.822C257.002 150.766 257.176 151.583 257.524 152.27C257.88 152.958 258.382 153.488 259.028 153.861C259.674 154.234 260.441 154.42 261.327 154.42C261.916 154.42 262.454 154.338 262.943 154.172C263.432 154.006 263.85 153.758 264.198 153.426C264.546 153.095 264.811 152.689 264.994 152.208L269.891 152.531C269.642 153.708 269.133 154.735 268.362 155.614C267.6 156.484 266.614 157.163 265.404 157.652C264.202 158.133 262.815 158.373 261.24 158.373ZM259.003 136.448L261.638 130.793H266.535L262.744 136.448H259.003Z" fill="white"/>
<path d="M273.808 165.159V138.909H279.028V142.116H279.264C279.496 141.602 279.832 141.08 280.271 140.55C280.718 140.011 281.298 139.564 282.011 139.207C282.732 138.843 283.627 138.661 284.696 138.661C286.088 138.661 287.372 139.025 288.549 139.754C289.725 140.475 290.666 141.565 291.37 143.023C292.074 144.473 292.427 146.292 292.427 148.479C292.427 150.609 292.083 152.407 291.395 153.874C290.715 155.332 289.787 156.438 288.611 157.192C287.442 157.938 286.133 158.311 284.683 158.311C283.656 158.311 282.782 158.141 282.061 157.801C281.348 157.461 280.764 157.035 280.308 156.521C279.853 155.999 279.505 155.473 279.264 154.942H279.103V165.159H273.808ZM278.991 148.455C278.991 149.59 279.148 150.58 279.463 151.425C279.778 152.27 280.234 152.929 280.83 153.401C281.427 153.865 282.152 154.097 283.005 154.097C283.867 154.097 284.596 153.861 285.193 153.389C285.789 152.908 286.241 152.245 286.548 151.4C286.862 150.547 287.02 149.565 287.02 148.455C287.02 147.353 286.867 146.383 286.56 145.546C286.253 144.709 285.802 144.055 285.205 143.582C284.609 143.11 283.875 142.874 283.005 142.874C282.144 142.874 281.414 143.102 280.818 143.558C280.23 144.013 279.778 144.66 279.463 145.496C279.148 146.333 278.991 147.319 278.991 148.455Z" fill="white"/>
<path d="M301.75 158.36C300.532 158.36 299.447 158.149 298.494 157.727C297.541 157.296 296.787 156.662 296.232 155.825C295.685 154.98 295.411 153.927 295.411 152.668C295.411 151.607 295.606 150.717 295.996 149.996C296.385 149.275 296.915 148.695 297.587 148.256C298.258 147.817 299.02 147.485 299.873 147.261C300.735 147.038 301.638 146.88 302.583 146.789C303.693 146.673 304.588 146.565 305.268 146.466C305.947 146.358 306.44 146.201 306.747 145.994C307.053 145.786 307.207 145.48 307.207 145.074V144.999C307.207 144.212 306.958 143.603 306.461 143.172C305.972 142.741 305.276 142.526 304.373 142.526C303.42 142.526 302.662 142.737 302.098 143.16C301.535 143.574 301.162 144.096 300.98 144.726L296.083 144.328C296.331 143.168 296.82 142.165 297.549 141.32C298.278 140.467 299.219 139.812 300.371 139.357C301.531 138.893 302.873 138.661 304.398 138.661C305.458 138.661 306.473 138.785 307.443 139.033C308.42 139.282 309.286 139.667 310.04 140.189C310.803 140.711 311.403 141.382 311.843 142.203C312.282 143.015 312.501 143.988 312.501 145.124V158H307.48V155.353H307.331C307.024 155.949 306.614 156.475 306.1 156.931C305.587 157.379 304.969 157.731 304.248 157.988C303.528 158.236 302.695 158.36 301.75 158.36ZM303.267 154.706C304.045 154.706 304.733 154.553 305.33 154.246C305.926 153.932 306.395 153.509 306.734 152.979C307.074 152.448 307.244 151.848 307.244 151.176V149.151C307.078 149.258 306.85 149.358 306.56 149.449C306.279 149.532 305.96 149.61 305.603 149.685C305.247 149.751 304.891 149.813 304.534 149.871C304.178 149.921 303.855 149.967 303.565 150.008C302.943 150.099 302.401 150.244 301.937 150.443C301.473 150.642 301.112 150.911 300.855 151.251C300.598 151.583 300.47 151.997 300.47 152.494C300.47 153.215 300.731 153.766 301.253 154.147C301.783 154.52 302.455 154.706 303.267 154.706Z" fill="white"/>
<path d="M316.959 158V138.909H322.092V142.24H322.291C322.639 141.055 323.223 140.16 324.044 139.555C324.864 138.942 325.809 138.636 326.877 138.636C327.143 138.636 327.428 138.652 327.735 138.685C328.042 138.719 328.311 138.764 328.543 138.822V143.52C328.294 143.446 327.95 143.379 327.511 143.321C327.072 143.263 326.67 143.234 326.306 143.234C325.527 143.234 324.831 143.404 324.218 143.744C323.613 144.075 323.132 144.539 322.776 145.136C322.428 145.733 322.254 146.42 322.254 147.199V158H316.959Z" fill="white"/>
<path d="M339.442 158.373C337.478 158.373 335.788 157.975 334.371 157.18C332.962 156.376 331.877 155.241 331.115 153.774C330.352 152.299 329.971 150.555 329.971 148.542C329.971 146.578 330.352 144.854 331.115 143.371C331.877 141.888 332.95 140.732 334.334 139.903C335.726 139.075 337.358 138.661 339.231 138.661C340.49 138.661 341.663 138.864 342.748 139.27C343.842 139.667 344.795 140.268 345.607 141.072C346.427 141.875 347.065 142.886 347.521 144.104C347.977 145.314 348.204 146.731 348.204 148.355V149.809H332.084V146.528H343.22C343.22 145.766 343.055 145.09 342.723 144.502C342.392 143.914 341.932 143.454 341.344 143.123C340.764 142.783 340.088 142.613 339.318 142.613C338.514 142.613 337.801 142.799 337.18 143.172C336.567 143.537 336.086 144.03 335.738 144.651C335.39 145.264 335.212 145.948 335.204 146.702V149.822C335.204 150.766 335.378 151.583 335.726 152.27C336.082 152.958 336.583 153.488 337.23 153.861C337.876 154.234 338.642 154.42 339.529 154.42C340.117 154.42 340.656 154.338 341.145 154.172C341.634 154.006 342.052 153.758 342.4 153.426C342.748 153.095 343.013 152.689 343.196 152.208L348.093 152.531C347.844 153.708 347.334 154.735 346.564 155.614C345.802 156.484 344.815 157.163 343.606 157.652C342.404 158.133 341.016 158.373 339.442 158.373Z" fill="white"/>
<path d="M351.91 158V154.843L361.257 143.272V143.135H352.233V138.909H367.633V142.352L358.858 153.637V153.774H367.956V158H351.91Z" fill="white"/>
<path d="M389.506 158.373C387.542 158.373 385.852 157.975 384.435 157.18C383.026 156.376 381.941 155.241 381.178 153.774C380.416 152.299 380.035 150.555 380.035 148.542C380.035 146.578 380.416 144.854 381.178 143.371C381.941 141.888 383.014 140.732 384.397 139.903C385.789 139.075 387.422 138.661 389.294 138.661C390.554 138.661 391.726 138.864 392.812 139.27C393.906 139.667 394.858 140.268 395.67 141.072C396.491 141.875 397.129 142.886 397.585 144.104C398.04 145.314 398.268 146.731 398.268 148.355V149.809H382.148V146.528H393.284C393.284 145.766 393.118 145.09 392.787 144.502C392.455 143.914 391.996 143.454 391.407 143.123C390.827 142.783 390.152 142.613 389.381 142.613C388.578 142.613 387.865 142.799 387.244 143.172C386.63 143.537 386.15 144.03 385.802 144.651C385.454 145.264 385.276 145.948 385.267 146.702V149.822C385.267 150.766 385.441 151.583 385.789 152.27C386.146 152.958 386.647 153.488 387.293 153.861C387.94 154.234 388.706 154.42 389.593 154.42C390.181 154.42 390.72 154.338 391.208 154.172C391.697 154.006 392.116 153.758 392.464 153.426C392.812 153.095 393.077 152.689 393.259 152.208L398.156 152.531C397.908 153.708 397.398 154.735 396.627 155.614C395.865 156.484 394.879 157.163 393.669 157.652C392.468 158.133 391.08 158.373 389.506 158.373Z" fill="white"/>
<path d="M412.228 138.909V142.886H400.731V138.909H412.228ZM403.341 134.335H408.636V152.134C408.636 152.622 408.71 153.004 408.86 153.277C409.009 153.542 409.216 153.729 409.481 153.836C409.754 153.944 410.069 153.998 410.426 153.998C410.674 153.998 410.923 153.977 411.171 153.936C411.42 153.886 411.611 153.849 411.743 153.824L412.576 157.764C412.311 157.847 411.938 157.942 411.457 158.05C410.977 158.166 410.392 158.236 409.705 158.261C408.429 158.311 407.31 158.141 406.349 157.751C405.396 157.362 404.654 156.757 404.124 155.937C403.594 155.116 403.333 154.081 403.341 152.83V134.335Z" fill="white"/>
<path d="M442.276 138.909L435.601 158H429.635L422.961 138.909H428.554L432.519 152.569H432.718L436.67 138.909H442.276Z" fill="white"/>
<path d="M445.335 158V138.909H450.63V158H445.335ZM447.995 136.448C447.208 136.448 446.533 136.187 445.969 135.665C445.414 135.135 445.136 134.501 445.136 133.763C445.136 133.034 445.414 132.409 445.969 131.887C446.533 131.356 447.208 131.091 447.995 131.091C448.782 131.091 449.453 131.356 450.009 131.887C450.572 132.409 450.854 133.034 450.854 133.763C450.854 134.501 450.572 135.135 450.009 135.665C449.453 136.187 448.782 136.448 447.995 136.448Z" fill="white"/>
<path d="M473.02 138.909L466.345 158H460.379L453.705 138.909H459.298L463.263 152.569H463.462L467.414 138.909H473.02Z" fill="white"/>
<path d="M484.164 158.373C482.2 158.373 480.51 157.975 479.093 157.18C477.685 156.376 476.599 155.241 475.837 153.774C475.075 152.299 474.693 150.555 474.693 148.542C474.693 146.578 475.075 144.854 475.837 143.371C476.599 141.888 477.672 140.732 479.056 139.903C480.448 139.075 482.08 138.661 483.953 138.661C485.212 138.661 486.385 138.864 487.47 139.27C488.564 139.667 489.517 140.268 490.329 141.072C491.149 141.875 491.787 142.886 492.243 144.104C492.699 145.314 492.927 146.731 492.927 148.355V149.809H476.806V146.528H487.943C487.943 145.766 487.777 145.09 487.445 144.502C487.114 143.914 486.654 143.454 486.066 143.123C485.486 142.783 484.811 142.613 484.04 142.613C483.236 142.613 482.524 142.799 481.902 143.172C481.289 143.537 480.808 144.03 480.46 144.651C480.112 145.264 479.934 145.948 479.926 146.702V149.822C479.926 150.766 480.1 151.583 480.448 152.27C480.804 152.958 481.306 153.488 481.952 153.861C482.598 154.234 483.365 154.42 484.251 154.42C484.84 154.42 485.378 154.338 485.867 154.172C486.356 154.006 486.774 153.758 487.122 153.426C487.47 153.095 487.736 152.689 487.918 152.208L492.815 152.531C492.566 153.708 492.057 154.735 491.286 155.614C490.524 156.484 489.538 157.163 488.328 157.652C487.127 158.133 485.739 158.373 484.164 158.373Z" fill="white"/>
<path d="M496.633 158V154.843L505.979 143.272V143.135H496.956V138.909H512.355V142.352L503.58 153.637V153.774H512.678V158H496.633Z" fill="white"/>
<path d="M530.822 132.545V158H525.528V132.545H530.822Z" fill="white"/>
<path d="M544.114 158.373C542.15 158.373 540.46 157.975 539.043 157.18C537.634 156.376 536.549 155.241 535.787 153.774C535.024 152.299 534.643 150.555 534.643 148.542C534.643 146.578 535.024 144.854 535.787 143.371C536.549 141.888 537.622 140.732 539.006 139.903C540.398 139.075 542.03 138.661 543.903 138.661C545.162 138.661 546.335 138.864 547.42 139.27C548.514 139.667 549.467 140.268 550.279 141.072C551.099 141.875 551.737 142.886 552.193 144.104C552.649 145.314 552.876 146.731 552.876 148.355V149.809H536.756V146.528H547.892C547.892 145.766 547.727 145.09 547.395 144.502C547.064 143.914 546.604 143.454 546.016 143.123C545.436 142.783 544.76 142.613 543.99 142.613C543.186 142.613 542.473 142.799 541.852 143.172C541.239 143.537 540.758 144.03 540.41 144.651C540.062 145.264 539.884 145.948 539.876 146.702V149.822C539.876 150.766 540.05 151.583 540.398 152.27C540.754 152.958 541.255 153.488 541.902 153.861C542.548 154.234 543.314 154.42 544.201 154.42C544.789 154.42 545.328 154.338 545.817 154.172C546.306 154.006 546.724 153.758 547.072 153.426C547.42 153.095 547.685 152.689 547.868 152.208L552.765 152.531C552.516 153.708 552.006 154.735 551.236 155.614C550.474 156.484 549.488 157.163 548.278 157.652C547.076 158.133 545.688 158.373 544.114 158.373Z" fill="white"/>
<path d="M572.566 144.353L567.719 144.651C567.636 144.237 567.458 143.864 567.184 143.533C566.911 143.193 566.55 142.924 566.103 142.725C565.664 142.518 565.138 142.414 564.524 142.414C563.704 142.414 563.012 142.588 562.449 142.936C561.885 143.276 561.604 143.732 561.604 144.303C561.604 144.759 561.786 145.144 562.15 145.459C562.515 145.774 563.141 146.027 564.027 146.217L567.483 146.913C569.339 147.295 570.722 147.908 571.634 148.753C572.545 149.598 573.001 150.708 573.001 152.084C573.001 153.335 572.632 154.433 571.895 155.377C571.166 156.322 570.163 157.06 568.887 157.59C567.619 158.112 566.157 158.373 564.5 158.373C561.972 158.373 559.959 157.847 558.459 156.794C556.968 155.734 556.093 154.292 555.837 152.469L561.044 152.196C561.202 152.966 561.583 153.555 562.188 153.961C562.793 154.358 563.567 154.557 564.512 154.557C565.44 154.557 566.186 154.379 566.749 154.023C567.321 153.658 567.611 153.19 567.619 152.618C567.611 152.138 567.408 151.744 567.01 151.438C566.613 151.123 565.999 150.882 565.171 150.717L561.865 150.058C560 149.685 558.612 149.039 557.701 148.119C556.798 147.199 556.346 146.027 556.346 144.602C556.346 143.375 556.678 142.319 557.34 141.432C558.012 140.546 558.952 139.862 560.162 139.381C561.38 138.901 562.805 138.661 564.437 138.661C566.849 138.661 568.746 139.17 570.13 140.189C571.522 141.208 572.334 142.596 572.566 144.353Z" fill="white"/>
<path d="M57.1128 207.159V180.909H62.333V184.116H62.5691C62.8011 183.602 63.1367 183.08 63.5759 182.55C64.0233 182.011 64.6033 181.564 65.3159 181.207C66.0368 180.843 66.9317 180.661 68.0006 180.661C69.3926 180.661 70.6769 181.025 71.8536 181.754C73.0302 182.475 73.9706 183.565 74.6749 185.023C75.3792 186.473 75.7314 188.292 75.7314 190.479C75.7314 192.609 75.3875 194.407 74.6998 195.874C74.0203 197.332 73.0923 198.438 71.9157 199.192C70.7474 199.938 69.4382 200.311 67.9881 200.311C66.9607 200.311 66.0865 200.141 65.3656 199.801C64.653 199.461 64.0689 199.035 63.6131 198.521C63.1574 197.999 62.8094 197.473 62.5691 196.942H62.4075V207.159H57.1128ZM62.2957 190.455C62.2957 191.59 62.4531 192.58 62.768 193.425C63.0828 194.27 63.5386 194.929 64.1352 195.401C64.7318 195.865 65.4568 196.097 66.3102 196.097C67.172 196.097 67.9011 195.861 68.4977 195.389C69.0943 194.908 69.5459 194.245 69.8525 193.4C70.1674 192.547 70.3248 191.565 70.3248 190.455C70.3248 189.353 70.1715 188.383 69.8649 187.546C69.5583 186.709 69.1068 186.055 68.5102 185.582C67.9136 185.11 67.1803 184.874 66.3102 184.874C65.4485 184.874 64.7193 185.102 64.1227 185.558C63.5344 186.013 63.0828 186.66 62.768 187.496C62.4531 188.333 62.2957 189.319 62.2957 190.455Z" fill="white"/>
<path d="M88.3115 200.373C86.3477 200.373 84.6574 199.975 83.2405 199.18C81.8319 198.376 80.7464 197.241 79.9841 195.774C79.2218 194.299 78.8406 192.555 78.8406 190.542C78.8406 188.578 79.2218 186.854 79.9841 185.371C80.7464 183.888 81.8194 182.732 83.2032 181.903C84.5953 181.075 86.2276 180.661 88.1002 180.661C89.3597 180.661 90.5322 180.864 91.6176 181.27C92.7114 181.667 93.6643 182.268 94.4763 183.072C95.2966 183.875 95.9346 184.886 96.3904 186.104C96.8461 187.314 97.0739 188.731 97.0739 190.355V191.809H80.9536V188.528H92.0899C92.0899 187.766 91.9242 187.09 91.5928 186.502C91.2613 185.914 90.8015 185.454 90.2131 185.123C89.6331 184.783 88.9578 184.613 88.1872 184.613C87.3835 184.613 86.6709 184.799 86.0494 185.172C85.4363 185.537 84.9557 186.03 84.6077 186.651C84.2597 187.264 84.0815 187.948 84.0732 188.702V191.822C84.0732 192.766 84.2472 193.583 84.5953 194.27C84.9515 194.958 85.4529 195.488 86.0992 195.861C86.7455 196.234 87.5119 196.42 88.3985 196.42C88.9868 196.42 89.5254 196.338 90.0143 196.172C90.5032 196.006 90.9216 195.758 91.2696 195.426C91.6176 195.095 91.8828 194.689 92.0651 194.208L96.9621 194.531C96.7135 195.708 96.2039 196.735 95.4333 197.614C94.671 198.484 93.685 199.163 92.4752 199.652C91.2738 200.133 89.8859 200.373 88.3115 200.373Z" fill="white"/>
<path d="M100.879 200V180.909H106.174V200H100.879ZM103.539 178.448C102.752 178.448 102.077 178.187 101.513 177.665C100.958 177.135 100.68 176.501 100.68 175.763C100.68 175.034 100.958 174.409 101.513 173.887C102.077 173.356 102.752 173.091 103.539 173.091C104.326 173.091 104.997 173.356 105.552 173.887C106.116 174.409 106.398 175.034 106.398 175.763C106.398 176.501 106.116 177.135 105.552 177.665C104.997 178.187 104.326 178.448 103.539 178.448Z" fill="white"/>
<path d="M116.06 188.963V200H110.765V180.909H115.811V184.277H116.035C116.458 183.167 117.166 182.289 118.161 181.642C119.155 180.988 120.361 180.661 121.777 180.661C123.103 180.661 124.259 180.951 125.245 181.531C126.231 182.111 126.998 182.939 127.544 184.016C128.091 185.085 128.365 186.361 128.365 187.844V200H123.07V188.789C123.078 187.621 122.78 186.709 122.175 186.055C121.57 185.392 120.738 185.06 119.677 185.06C118.964 185.06 118.335 185.214 117.788 185.52C117.249 185.827 116.827 186.274 116.52 186.863C116.222 187.443 116.068 188.143 116.06 188.963Z" fill="white"/>
<path d="M143.042 180.909V184.886H131.545V180.909H143.042ZM134.156 176.335H139.45V194.134C139.45 194.622 139.525 195.004 139.674 195.277C139.823 195.542 140.03 195.729 140.295 195.836C140.569 195.944 140.884 195.998 141.24 195.998C141.489 195.998 141.737 195.977 141.986 195.936C142.234 195.886 142.425 195.849 142.558 195.824L143.39 199.764C143.125 199.847 142.752 199.942 142.272 200.05C141.791 200.166 141.207 200.236 140.519 200.261C139.243 200.311 138.125 200.141 137.163 199.751C136.21 199.362 135.469 198.757 134.939 197.937C134.408 197.116 134.147 196.081 134.156 194.83V176.335Z" fill="white"/>
<path d="M159.084 191.871V180.909H164.379V200H159.295V196.532H159.096C158.665 197.651 157.949 198.55 156.946 199.229C155.952 199.909 154.738 200.249 153.304 200.249C152.028 200.249 150.906 199.959 149.936 199.379C148.967 198.799 148.208 197.974 147.662 196.905C147.123 195.836 146.85 194.556 146.841 193.065V180.909H152.136V192.12C152.144 193.247 152.447 194.138 153.043 194.792C153.64 195.447 154.44 195.774 155.442 195.774C156.08 195.774 156.677 195.629 157.232 195.339C157.787 195.041 158.235 194.602 158.574 194.022C158.922 193.442 159.092 192.725 159.084 191.871Z" fill="white"/>
<path d="M168.964 200V180.909H174.097V184.24H174.296C174.644 183.055 175.228 182.16 176.048 181.555C176.869 180.942 177.813 180.636 178.882 180.636C179.147 180.636 179.433 180.652 179.74 180.685C180.046 180.719 180.316 180.764 180.548 180.822V185.52C180.299 185.446 179.955 185.379 179.516 185.321C179.077 185.263 178.675 185.234 178.31 185.234C177.531 185.234 176.835 185.404 176.222 185.744C175.617 186.075 175.137 186.539 174.781 187.136C174.433 187.733 174.259 188.42 174.259 189.199V200H168.964Z" fill="white"/>
<path d="M191.447 200.373C189.483 200.373 187.793 199.975 186.376 199.18C184.967 198.376 183.882 197.241 183.119 195.774C182.357 194.299 181.976 192.555 181.976 190.542C181.976 188.578 182.357 186.854 183.119 185.371C183.882 183.888 184.955 182.732 186.338 181.903C187.73 181.075 189.363 180.661 191.235 180.661C192.495 180.661 193.667 180.864 194.753 181.27C195.847 181.667 196.799 182.268 197.611 183.072C198.432 183.875 199.07 184.886 199.525 186.104C199.981 187.314 200.209 188.731 200.209 190.355V191.809H184.089V188.528H195.225C195.225 187.766 195.059 187.09 194.728 186.502C194.396 185.914 193.937 185.454 193.348 185.123C192.768 184.783 192.093 184.613 191.322 184.613C190.519 184.613 189.806 184.799 189.185 185.172C188.571 185.537 188.091 186.03 187.743 186.651C187.395 187.264 187.217 187.948 187.208 188.702V191.822C187.208 192.766 187.382 193.583 187.73 194.27C188.087 194.958 188.588 195.488 189.234 195.861C189.881 196.234 190.647 196.42 191.534 196.42C192.122 196.42 192.661 196.338 193.149 196.172C193.638 196.006 194.057 195.758 194.405 195.426C194.753 195.095 195.018 194.689 195.2 194.208L200.097 194.531C199.849 195.708 199.339 196.735 198.568 197.614C197.806 198.484 196.82 199.163 195.61 199.652C194.409 200.133 193.021 200.373 191.447 200.373Z" fill="white"/>
<path d="M219.899 186.353L215.051 186.651C214.968 186.237 214.79 185.864 214.517 185.533C214.243 185.193 213.883 184.924 213.436 184.725C212.996 184.518 212.47 184.414 211.857 184.414C211.037 184.414 210.345 184.588 209.781 184.936C209.218 185.276 208.936 185.732 208.936 186.303C208.936 186.759 209.119 187.144 209.483 187.459C209.848 187.774 210.473 188.027 211.36 188.217L214.815 188.913C216.671 189.295 218.055 189.908 218.966 190.753C219.878 191.598 220.334 192.708 220.334 194.084C220.334 195.335 219.965 196.433 219.227 197.377C218.498 198.322 217.496 199.06 216.22 199.59C214.952 200.112 213.489 200.373 211.832 200.373C209.305 200.373 207.291 199.847 205.792 198.794C204.3 197.734 203.426 196.292 203.169 194.469L208.377 194.196C208.534 194.966 208.916 195.555 209.52 195.961C210.125 196.358 210.9 196.557 211.845 196.557C212.773 196.557 213.518 196.379 214.082 196.023C214.654 195.658 214.944 195.19 214.952 194.618C214.944 194.138 214.741 193.744 214.343 193.438C213.945 193.123 213.332 192.882 212.503 192.717L209.197 192.058C207.333 191.685 205.945 191.039 205.034 190.119C204.13 189.199 203.679 188.027 203.679 186.602C203.679 185.375 204.01 184.319 204.673 183.432C205.344 182.546 206.285 181.862 207.494 181.381C208.713 180.901 210.138 180.661 211.77 180.661C214.181 180.661 216.079 181.17 217.463 182.189C218.855 183.208 219.667 184.596 219.899 186.353Z" fill="white"/>
<path d="M239.503 200.311C238.053 200.311 236.74 199.938 235.563 199.192C234.395 198.438 233.467 197.332 232.779 195.874C232.1 194.407 231.76 192.609 231.76 190.479C231.76 188.292 232.112 186.473 232.816 185.023C233.521 183.565 234.457 182.475 235.625 181.754C236.802 181.025 238.09 180.661 239.491 180.661C240.56 180.661 241.45 180.843 242.163 181.207C242.884 181.564 243.464 182.011 243.903 182.55C244.35 183.08 244.69 183.602 244.922 184.116H245.084V174.545H250.366V200H245.146V196.942H244.922C244.674 197.473 244.321 197.999 243.866 198.521C243.418 199.035 242.834 199.461 242.113 199.801C241.401 200.141 240.531 200.311 239.503 200.311ZM241.181 196.097C242.034 196.097 242.755 195.865 243.344 195.401C243.94 194.929 244.396 194.27 244.711 193.425C245.034 192.58 245.196 191.59 245.196 190.455C245.196 189.319 245.038 188.333 244.723 187.496C244.408 186.66 243.953 186.013 243.356 185.558C242.759 185.102 242.034 184.874 241.181 184.874C240.311 184.874 239.578 185.11 238.981 185.582C238.384 186.055 237.933 186.709 237.626 187.546C237.32 188.383 237.166 189.353 237.166 190.455C237.166 191.565 237.32 192.547 237.626 193.4C237.941 194.245 238.393 194.908 238.981 195.389C239.578 195.861 240.311 196.097 241.181 196.097Z" fill="white"/>
<path d="M263.77 200.373C261.806 200.373 260.115 199.975 258.699 199.18C257.29 198.376 256.204 197.241 255.442 195.774C254.68 194.299 254.299 192.555 254.299 190.542C254.299 188.578 254.68 186.854 255.442 185.371C256.204 183.888 257.277 182.732 258.661 181.903C260.053 181.075 261.686 180.661 263.558 180.661C264.818 180.661 265.99 180.864 267.076 181.27C268.169 181.667 269.122 182.268 269.934 183.072C270.755 183.875 271.393 184.886 271.848 186.104C272.304 187.314 272.532 188.731 272.532 190.355V191.809H256.412V188.528H267.548C267.548 187.766 267.382 187.09 267.051 186.502C266.719 185.914 266.259 185.454 265.671 185.123C265.091 184.783 264.416 184.613 263.645 184.613C262.841 184.613 262.129 184.799 261.507 185.172C260.894 185.537 260.414 186.03 260.066 186.651C259.718 187.264 259.54 187.948 259.531 188.702V191.822C259.531 192.766 259.705 193.583 260.053 194.27C260.41 194.958 260.911 195.488 261.557 195.861C262.203 196.234 262.97 196.42 263.857 196.42C264.445 196.42 264.983 196.338 265.472 196.172C265.961 196.006 266.38 195.758 266.728 195.426C267.076 195.095 267.341 194.689 267.523 194.208L272.42 194.531C272.172 195.708 271.662 196.735 270.891 197.614C270.129 198.484 269.143 199.163 267.933 199.652C266.732 200.133 265.344 200.373 263.77 200.373Z" fill="white"/>
<path d="M302.586 180.909L295.912 200H289.946L283.271 180.909H288.865L292.829 194.569H293.028L296.981 180.909H302.586Z" fill="white"/>
<path d="M313.656 200.373C311.725 200.373 310.056 199.963 308.647 199.142C307.247 198.314 306.166 197.162 305.403 195.687C304.641 194.204 304.26 192.485 304.26 190.529C304.26 188.557 304.641 186.834 305.403 185.359C306.166 183.875 307.247 182.724 308.647 181.903C310.056 181.075 311.725 180.661 313.656 180.661C315.587 180.661 317.252 181.075 318.653 181.903C320.061 182.724 321.147 183.875 321.909 185.359C322.671 186.834 323.052 188.557 323.052 190.529C323.052 192.485 322.671 194.204 321.909 195.687C321.147 197.162 320.061 198.314 318.653 199.142C317.252 199.963 315.587 200.373 313.656 200.373ZM313.681 196.271C314.559 196.271 315.293 196.023 315.881 195.526C316.469 195.02 316.912 194.332 317.211 193.462C317.517 192.592 317.671 191.602 317.671 190.492C317.671 189.382 317.517 188.391 317.211 187.521C316.912 186.651 316.469 185.964 315.881 185.458C315.293 184.953 314.559 184.7 313.681 184.7C312.794 184.7 312.049 184.953 311.444 185.458C310.847 185.964 310.396 186.651 310.089 187.521C309.791 188.391 309.642 189.382 309.642 190.492C309.642 191.602 309.791 192.592 310.089 193.462C310.396 194.332 310.847 195.02 311.444 195.526C312.049 196.023 312.794 196.271 313.681 196.271Z" fill="white"/>
<path d="M342.729 186.353L337.882 186.651C337.799 186.237 337.621 185.864 337.348 185.533C337.074 185.193 336.714 184.924 336.266 184.725C335.827 184.518 335.301 184.414 334.688 184.414C333.868 184.414 333.176 184.588 332.612 184.936C332.049 185.276 331.767 185.732 331.767 186.303C331.767 186.759 331.949 187.144 332.314 187.459C332.679 187.774 333.304 188.027 334.191 188.217L337.646 188.913C339.502 189.295 340.886 189.908 341.797 190.753C342.709 191.598 343.164 192.708 343.164 194.084C343.164 195.335 342.796 196.433 342.058 197.377C341.329 198.322 340.327 199.06 339.05 199.59C337.783 200.112 336.32 200.373 334.663 200.373C332.136 200.373 330.122 199.847 328.623 198.794C327.131 197.734 326.257 196.292 326 194.469L331.208 194.196C331.365 194.966 331.746 195.555 332.351 195.961C332.956 196.358 333.731 196.557 334.675 196.557C335.604 196.557 336.349 196.379 336.913 196.023C337.484 195.658 337.774 195.19 337.783 194.618C337.774 194.138 337.571 193.744 337.174 193.438C336.776 193.123 336.163 192.882 335.334 192.717L332.028 192.058C330.164 191.685 328.776 191.039 327.864 190.119C326.961 189.199 326.51 188.027 326.51 186.602C326.51 185.375 326.841 184.319 327.504 183.432C328.175 182.546 329.116 181.862 330.325 181.381C331.543 180.901 332.969 180.661 334.601 180.661C337.012 180.661 338.91 181.17 340.293 182.189C341.685 183.208 342.497 184.596 342.729 186.353Z" fill="white"/>
<path d="M355.299 200V180.909H360.432V184.24H360.631C360.979 183.055 361.563 182.16 362.384 181.555C363.204 180.942 364.149 180.636 365.217 180.636C365.483 180.636 365.768 180.652 366.075 180.685C366.382 180.719 366.651 180.764 366.883 180.822V185.52C366.634 185.446 366.291 185.379 365.851 185.321C365.412 185.263 365.01 185.234 364.646 185.234C363.867 185.234 363.171 185.404 362.558 185.744C361.953 186.075 361.472 186.539 361.116 187.136C360.768 187.733 360.594 188.42 360.594 189.199V200H355.299Z" fill="white"/>
<path d="M377.782 200.373C375.818 200.373 374.128 199.975 372.711 199.18C371.302 198.376 370.217 197.241 369.455 195.774C368.692 194.299 368.311 192.555 368.311 190.542C368.311 188.578 368.692 186.854 369.455 185.371C370.217 183.888 371.29 182.732 372.674 181.903C374.066 181.075 375.698 180.661 377.571 180.661C378.83 180.661 380.003 180.864 381.088 181.27C382.182 181.667 383.135 182.268 383.947 183.072C384.767 183.875 385.405 184.886 385.861 186.104C386.317 187.314 386.544 188.731 386.544 190.355V191.809H370.424V188.528H381.56C381.56 187.766 381.395 187.09 381.063 186.502C380.732 185.914 380.272 185.454 379.684 185.123C379.104 184.783 378.428 184.613 377.658 184.613C376.854 184.613 376.141 184.799 375.52 185.172C374.907 185.537 374.426 186.03 374.078 186.651C373.73 187.264 373.552 187.948 373.544 188.702V191.822C373.544 192.766 373.718 193.583 374.066 194.27C374.422 194.958 374.923 195.488 375.57 195.861C376.216 196.234 376.982 196.42 377.869 196.42C378.457 196.42 378.996 196.338 379.485 196.172C379.974 196.006 380.392 195.758 380.74 195.426C381.088 195.095 381.353 194.689 381.536 194.208L386.433 194.531C386.184 195.708 385.674 196.735 384.904 197.614C384.142 198.484 383.155 199.163 381.946 199.652C380.744 200.133 379.356 200.373 377.782 200.373ZM379.945 178.622L377.446 175.589L374.948 178.622H370.436V178.448L375.47 172.979H379.41L384.456 178.448V178.622H379.945Z" fill="white"/>
<path d="M407.635 180.909L400.961 200H394.995L388.321 180.909H393.914L397.879 194.569H398.077L402.03 180.909H407.635Z" fill="white"/>
<path d="M418.78 200.373C416.816 200.373 415.126 199.975 413.709 199.18C412.3 198.376 411.215 197.241 410.452 195.774C409.69 194.299 409.309 192.555 409.309 190.542C409.309 188.578 409.69 186.854 410.452 185.371C411.215 183.888 412.288 182.732 413.672 181.903C415.064 181.075 416.696 180.661 418.569 180.661C419.828 180.661 421.001 180.864 422.086 181.27C423.18 181.667 424.133 182.268 424.945 183.072C425.765 183.875 426.403 184.886 426.859 186.104C427.314 187.314 427.542 188.731 427.542 190.355V191.809H411.422V188.528H422.558C422.558 187.766 422.393 187.09 422.061 186.502C421.73 185.914 421.27 185.454 420.682 185.123C420.101 184.783 419.426 184.613 418.656 184.613C417.852 184.613 417.139 184.799 416.518 185.172C415.905 185.537 415.424 186.03 415.076 186.651C414.728 187.264 414.55 187.948 414.542 188.702V191.822C414.542 192.766 414.716 193.583 415.064 194.27C415.42 194.958 415.921 195.488 416.568 195.861C417.214 196.234 417.98 196.42 418.867 196.42C419.455 196.42 419.994 196.338 420.483 196.172C420.972 196.006 421.39 195.758 421.738 195.426C422.086 195.095 422.351 194.689 422.533 194.208L427.43 194.531C427.182 195.708 426.672 196.735 425.902 197.614C425.139 198.484 424.153 199.163 422.944 199.652C421.742 200.133 420.354 200.373 418.78 200.373Z" fill="white"/>
<path d="M447.232 186.353L442.385 186.651C442.302 186.237 442.124 185.864 441.85 185.533C441.577 185.193 441.216 184.924 440.769 184.725C440.33 184.518 439.803 184.414 439.19 184.414C438.37 184.414 437.678 184.588 437.115 184.936C436.551 185.276 436.269 185.732 436.269 186.303C436.269 186.759 436.452 187.144 436.816 187.459C437.181 187.774 437.807 188.027 438.693 188.217L442.148 188.913C444.004 189.295 445.388 189.908 446.3 190.753C447.211 191.598 447.667 192.708 447.667 194.084C447.667 195.335 447.298 196.433 446.561 197.377C445.831 198.322 444.829 199.06 443.553 199.59C442.285 200.112 440.823 200.373 439.165 200.373C436.638 200.373 434.625 199.847 433.125 198.794C431.633 197.734 430.759 196.292 430.502 194.469L435.71 194.196C435.868 194.966 436.249 195.555 436.854 195.961C437.458 196.358 438.233 196.557 439.178 196.557C440.106 196.557 440.852 196.379 441.415 196.023C441.987 195.658 442.277 195.19 442.285 194.618C442.277 194.138 442.074 193.744 441.676 193.438C441.278 193.123 440.665 192.882 439.837 192.717L436.53 192.058C434.666 191.685 433.278 191.039 432.367 190.119C431.464 189.199 431.012 188.027 431.012 186.602C431.012 185.375 431.343 184.319 432.006 183.432C432.677 182.546 433.618 181.862 434.828 181.381C436.046 180.901 437.471 180.661 439.103 180.661C441.514 180.661 443.412 181.17 444.796 182.189C446.188 183.208 447 184.596 447.232 186.353Z" fill="white"/>
</g>
<defs>
<clipPath id="clip0_314_11">
<rect width="700" height="700" fill="white"/>
</clipPath>
</defs>
</svg>
