<svg width="700" height="700" viewBox="0 0 700 700" fill="none" xmlns="http://www.w3.org/2000/svg">
<g clip-path="url(#clip0_306_3)">
<path d="M0 0H700V700L681.862 681.862V17.4664H17.4664V681.862H681.862L700 700H0V0Z" fill="#004AC8"/>
<path d="M70.5596 452.783V344.321H143.645V363.228H93.4915V389.072H139.885V407.979H93.4915V433.876H143.856V452.783H70.5596ZM180.306 371.437L195.241 399.876L210.547 371.437H233.69L210.124 412.109L234.326 452.783H211.289L195.241 424.661L179.46 452.783H156.157L180.306 412.109L157.004 371.437H180.306ZM247.089 483.289V371.437H269.332V385.099H270.339C271.327 382.911 272.758 380.686 274.629 378.427C276.535 376.132 279.007 374.226 282.044 372.708C285.115 371.153 288.928 370.377 293.483 370.377C299.415 370.377 304.887 371.93 309.9 375.038C314.914 378.109 318.922 382.752 321.922 388.966C324.924 395.144 326.425 402.895 326.425 412.215C326.425 421.29 324.959 428.951 322.028 435.2C319.133 441.414 315.179 446.128 310.165 449.341C305.187 452.518 299.608 454.107 293.43 454.107C289.052 454.107 285.327 453.384 282.255 451.935C279.218 450.488 276.73 448.67 274.788 446.48C272.846 444.257 271.364 442.014 270.339 439.755H269.651V483.289H247.089ZM269.174 412.109C269.174 416.946 269.845 421.166 271.186 424.767C272.529 428.368 274.47 431.176 277.012 433.187C279.554 435.165 282.643 436.154 286.28 436.154C289.952 436.154 293.06 435.147 295.602 433.135C298.144 431.087 300.068 428.263 301.374 424.661C302.716 421.025 303.386 416.841 303.386 412.109C303.386 407.413 302.733 403.283 301.427 399.718C300.12 396.15 298.196 393.361 295.654 391.35C293.112 389.337 289.987 388.331 286.28 388.331C282.608 388.331 279.502 389.301 276.96 391.244C274.453 393.185 272.529 395.939 271.186 399.505C269.845 403.071 269.174 407.272 269.174 412.109ZM378.219 454.373C369.992 454.373 362.878 452.625 356.877 449.129C350.91 445.598 346.301 440.691 343.054 434.406C339.805 428.086 338.181 420.759 338.181 412.428C338.181 404.025 339.805 396.681 343.054 390.396C346.301 384.076 350.91 379.169 356.877 375.673C362.878 372.142 369.992 370.377 378.219 370.377C386.446 370.377 393.543 372.142 399.509 375.673C405.511 379.169 410.137 384.076 413.384 390.396C416.633 396.681 418.257 404.025 418.257 412.428C418.257 420.759 416.633 428.086 413.384 434.406C410.137 440.691 405.511 445.598 399.509 449.129C393.543 452.625 386.446 454.373 378.219 454.373ZM378.325 436.895C382.067 436.895 385.192 435.835 387.699 433.718C390.206 431.564 392.095 428.634 393.367 424.926C394.672 421.219 395.325 417 395.325 412.269C395.325 407.537 394.672 403.318 393.367 399.611C392.095 395.903 390.206 392.973 387.699 390.819C385.192 388.665 382.067 387.589 378.325 387.589C374.547 387.589 371.37 388.665 368.793 390.819C366.251 392.973 364.327 395.903 363.019 399.611C361.748 403.318 361.113 407.537 361.113 412.269C361.113 417 361.748 421.219 363.019 424.926C364.327 428.634 366.251 431.564 368.793 433.718C371.37 435.835 374.547 436.895 378.325 436.895Z" fill="#004AC8"/>
<path d="M62.3253 131.818V158H57.5824V131.818H62.3253ZM71.8846 146.494V158H67.2567V138.364H71.68V141.7H71.9102C72.3619 140.601 73.082 139.727 74.0707 139.08C75.0678 138.432 76.2994 138.108 77.7653 138.108C79.1204 138.108 80.3008 138.398 81.3065 138.977C82.3207 139.557 83.1048 140.396 83.6587 141.496C84.2212 142.595 84.4982 143.929 84.4897 145.497V158H79.8619V146.213C79.8619 144.901 79.521 143.874 78.8391 143.132C78.1658 142.391 77.2326 142.02 76.0394 142.02C75.2298 142.02 74.5096 142.199 73.8789 142.557C73.2567 142.906 72.7667 143.413 72.4087 144.078C72.0593 144.743 71.8846 145.548 71.8846 146.494ZM97.7596 158.384C95.7994 158.384 94.1161 157.953 92.7099 157.092C91.3121 156.232 90.234 155.043 89.4755 153.526C88.7255 152 88.3505 150.244 88.3505 148.259C88.3505 146.264 88.734 144.504 89.5011 142.979C90.2681 141.445 91.3505 140.251 92.7482 139.399C94.1545 138.538 95.8164 138.108 97.734 138.108C99.3278 138.108 100.738 138.402 101.966 138.99C103.201 139.57 104.186 140.392 104.919 141.457C105.652 142.514 106.069 143.75 106.172 145.165H101.748C101.569 144.219 101.143 143.43 100.47 142.8C99.805 142.161 98.9144 141.841 97.7979 141.841C96.8519 141.841 96.021 142.097 95.305 142.608C94.5891 143.111 94.0309 143.835 93.6303 144.781C93.2383 145.727 93.0423 146.861 93.0423 148.182C93.0423 149.52 93.2383 150.67 93.6303 151.634C94.0224 152.588 94.5721 153.325 95.2795 153.845C95.9954 154.357 96.8349 154.612 97.7979 154.612C98.4798 154.612 99.0891 154.484 99.6261 154.229C100.172 153.964 100.627 153.585 100.994 153.091C101.36 152.597 101.612 151.996 101.748 151.288H106.172C106.061 152.678 105.652 153.909 104.944 154.983C104.237 156.048 103.274 156.884 102.055 157.489C100.836 158.085 99.4045 158.384 97.7596 158.384ZM118.537 158.384C116.619 158.384 114.957 157.962 113.551 157.118C112.145 156.274 111.054 155.094 110.278 153.577C109.511 152.06 109.128 150.287 109.128 148.259C109.128 146.23 109.511 144.453 110.278 142.928C111.054 141.402 112.145 140.217 113.551 139.374C114.957 138.53 116.619 138.108 118.537 138.108C120.455 138.108 122.116 138.53 123.523 139.374C124.929 140.217 126.016 141.402 126.783 142.928C127.558 144.453 127.946 146.23 127.946 148.259C127.946 150.287 127.558 152.06 126.783 153.577C126.016 155.094 124.929 156.274 123.523 157.118C122.116 157.962 120.455 158.384 118.537 158.384ZM118.562 154.676C119.602 154.676 120.472 154.391 121.17 153.82C121.869 153.24 122.389 152.464 122.73 151.493C123.08 150.521 123.254 149.439 123.254 148.246C123.254 147.044 123.08 145.957 122.73 144.986C122.389 144.006 121.869 143.226 121.17 142.646C120.472 142.067 119.602 141.777 118.562 141.777C117.497 141.777 116.611 142.067 115.903 142.646C115.205 143.226 114.68 144.006 114.331 144.986C113.99 145.957 113.82 147.044 113.82 148.246C113.82 149.439 113.99 150.521 114.331 151.493C114.68 152.464 115.205 153.24 115.903 153.82C116.611 154.391 117.497 154.676 118.562 154.676ZM131.874 158V138.364H136.361V141.636H136.566C136.924 140.503 137.537 139.629 138.407 139.016C139.284 138.393 140.286 138.082 141.411 138.082C141.667 138.082 141.952 138.095 142.267 138.121C142.591 138.138 142.86 138.168 143.073 138.21V142.467C142.877 142.399 142.566 142.339 142.14 142.288C141.722 142.229 141.317 142.199 140.925 142.199C140.081 142.199 139.323 142.382 138.65 142.749C137.985 143.107 137.461 143.605 137.077 144.244C136.694 144.884 136.502 145.621 136.502 146.456V158H131.874ZM150.775 146.494V158H146.147V138.364H150.571V141.7H150.801C151.252 140.601 151.973 139.727 152.961 139.08C153.958 138.432 155.19 138.108 156.656 138.108C158.011 138.108 159.191 138.398 160.197 138.977C161.211 139.557 161.995 140.396 162.549 141.496C163.112 142.595 163.389 143.929 163.38 145.497V158H158.752V146.213C158.752 144.901 158.412 143.874 157.73 143.132C157.056 142.391 156.123 142.02 154.93 142.02C154.12 142.02 153.4 142.199 152.77 142.557C152.147 142.906 151.657 143.413 151.299 144.078C150.95 144.743 150.775 145.548 150.775 146.494ZM168.085 158V138.364H172.713V158H168.085ZM170.412 135.577C169.679 135.577 169.048 135.334 168.52 134.848C167.991 134.354 167.727 133.761 167.727 133.071C167.727 132.372 167.991 131.78 168.52 131.294C169.048 130.8 169.679 130.553 170.412 130.553C171.153 130.553 171.784 130.8 172.304 131.294C172.832 131.78 173.096 132.372 173.096 133.071C173.096 133.761 172.832 134.354 172.304 134.848C171.784 135.334 171.153 135.577 170.412 135.577ZM186.037 158.384C184.077 158.384 182.393 157.953 180.987 157.092C179.589 156.232 178.511 155.043 177.753 153.526C177.003 152 176.628 150.244 176.628 148.259C176.628 146.264 177.011 144.504 177.778 142.979C178.545 141.445 179.628 140.251 181.026 139.399C182.432 138.538 184.094 138.108 186.011 138.108C187.605 138.108 189.016 138.402 190.243 138.99C191.479 139.57 192.463 140.392 193.196 141.457C193.929 142.514 194.347 143.75 194.449 145.165H190.026C189.847 144.219 189.42 143.43 188.747 142.8C188.082 142.161 187.192 141.841 186.075 141.841C185.129 141.841 184.298 142.097 183.582 142.608C182.866 143.111 182.308 143.835 181.908 144.781C181.516 145.727 181.32 146.861 181.32 148.182C181.32 149.52 181.516 150.67 181.908 151.634C182.3 152.588 182.849 153.325 183.557 153.845C184.273 154.357 185.112 154.612 186.075 154.612C186.757 154.612 187.366 154.484 187.903 154.229C188.449 153.964 188.905 153.585 189.271 153.091C189.638 152.597 189.889 151.996 190.026 151.288H194.449C194.338 152.678 193.929 153.909 193.222 154.983C192.514 156.048 191.551 156.884 190.332 157.489C189.114 158.085 187.682 158.384 186.037 158.384ZM198.249 158V138.364H202.877V158H198.249ZM200.576 135.577C199.843 135.577 199.212 135.334 198.684 134.848C198.155 134.354 197.891 133.761 197.891 133.071C197.891 132.372 198.155 131.78 198.684 131.294C199.212 130.8 199.843 130.553 200.576 130.553C201.317 130.553 201.948 130.8 202.468 131.294C202.996 131.78 203.26 132.372 203.26 133.071C203.26 133.761 202.996 134.354 202.468 134.848C201.948 135.334 201.317 135.577 200.576 135.577ZM213.286 158.396C212.042 158.396 210.921 158.175 209.924 157.732C208.935 157.28 208.151 156.615 207.572 155.737C207.001 154.859 206.715 153.777 206.715 152.49C206.715 151.382 206.92 150.466 207.329 149.741C207.738 149.017 208.296 148.438 209.004 148.003C209.711 147.568 210.508 147.24 211.394 147.018C212.289 146.788 213.214 146.622 214.168 146.52C215.319 146.401 216.252 146.294 216.968 146.2C217.684 146.098 218.204 145.945 218.528 145.74C218.86 145.527 219.026 145.199 219.026 144.756V144.679C219.026 143.716 218.741 142.97 218.17 142.442C217.599 141.913 216.776 141.649 215.702 141.649C214.569 141.649 213.67 141.896 213.005 142.391C212.349 142.885 211.906 143.469 211.675 144.142L207.354 143.528C207.695 142.335 208.258 141.338 209.042 140.537C209.826 139.727 210.785 139.122 211.918 138.722C213.052 138.312 214.305 138.108 215.677 138.108C216.623 138.108 217.565 138.219 218.502 138.44C219.44 138.662 220.296 139.028 221.072 139.54C221.847 140.043 222.469 140.729 222.938 141.598C223.415 142.467 223.654 143.554 223.654 144.858V158H219.205V155.303H219.052C218.771 155.848 218.374 156.359 217.863 156.837C217.36 157.305 216.725 157.685 215.958 157.974C215.2 158.256 214.309 158.396 213.286 158.396ZM214.488 154.996C215.417 154.996 216.222 154.812 216.904 154.446C217.586 154.071 218.11 153.577 218.477 152.963C218.852 152.349 219.039 151.68 219.039 150.956V148.642C218.894 148.761 218.647 148.872 218.298 148.974C217.957 149.077 217.573 149.166 217.147 149.243C216.721 149.32 216.299 149.388 215.881 149.447C215.464 149.507 215.102 149.558 214.795 149.601C214.104 149.695 213.487 149.848 212.941 150.061C212.396 150.274 211.965 150.572 211.65 150.956C211.335 151.331 211.177 151.817 211.177 152.413C211.177 153.266 211.488 153.909 212.11 154.344C212.732 154.778 213.525 154.996 214.488 154.996ZM233.741 154.42L233.575 155.827C233.455 156.901 233.242 157.991 232.935 159.099C232.637 160.216 232.322 161.243 231.989 162.18C231.657 163.118 231.388 163.855 231.184 164.392H228.065C228.184 163.872 228.346 163.165 228.55 162.27C228.763 161.375 228.968 160.369 229.164 159.253C229.36 158.136 229.492 157.003 229.56 155.852L229.65 154.42H233.741ZM247.046 158V138.364H251.533V141.636H251.738C252.096 140.503 252.709 139.629 253.578 139.016C254.456 138.393 255.458 138.082 256.583 138.082C256.838 138.082 257.124 138.095 257.439 138.121C257.763 138.138 258.032 138.168 258.245 138.21V142.467C258.049 142.399 257.738 142.339 257.311 142.288C256.894 142.229 256.489 142.199 256.097 142.199C255.253 142.199 254.495 142.382 253.821 142.749C253.157 143.107 252.632 143.605 252.249 144.244C251.865 144.884 251.674 145.621 251.674 146.456V158H247.046ZM261.319 158V138.364H265.947V158H261.319ZM263.646 135.577C262.913 135.577 262.282 135.334 261.754 134.848C261.225 134.354 260.961 133.761 260.961 133.071C260.961 132.372 261.225 131.78 261.754 131.294C262.282 130.8 262.913 130.553 263.646 130.553C264.387 130.553 265.018 130.8 265.538 131.294C266.066 131.78 266.331 132.372 266.331 133.071C266.331 133.761 266.066 134.354 265.538 134.848C265.018 135.334 264.387 135.577 263.646 135.577ZM270.706 165.364V138.364H275.257V141.611H275.526C275.764 141.134 276.101 140.626 276.536 140.089C276.97 139.544 277.558 139.08 278.3 138.696C279.041 138.304 279.987 138.108 281.138 138.108C282.655 138.108 284.023 138.496 285.241 139.271C286.469 140.038 287.44 141.176 288.156 142.685C288.881 144.185 289.243 146.026 289.243 148.207C289.243 150.364 288.889 152.196 288.182 153.705C287.474 155.213 286.511 156.364 285.293 157.156C284.074 157.949 282.693 158.345 281.151 158.345C280.026 158.345 279.092 158.158 278.351 157.783C277.609 157.408 277.013 156.956 276.561 156.428C276.118 155.891 275.773 155.384 275.526 154.906H275.334V165.364H270.706ZM275.244 148.182C275.244 149.452 275.423 150.564 275.781 151.518C276.148 152.473 276.672 153.219 277.354 153.756C278.044 154.284 278.879 154.548 279.859 154.548C280.882 154.548 281.739 154.276 282.429 153.73C283.119 153.176 283.639 152.422 283.989 151.467C284.347 150.504 284.526 149.409 284.526 148.182C284.526 146.963 284.351 145.881 284.001 144.935C283.652 143.989 283.132 143.247 282.442 142.71C281.751 142.173 280.891 141.905 279.859 141.905C278.871 141.905 278.031 142.165 277.341 142.685C276.651 143.205 276.126 143.933 275.768 144.871C275.419 145.808 275.244 146.912 275.244 148.182ZM298.857 158.396C297.612 158.396 296.491 158.175 295.494 157.732C294.506 157.28 293.722 156.615 293.142 155.737C292.571 154.859 292.286 153.777 292.286 152.49C292.286 151.382 292.49 150.466 292.899 149.741C293.308 149.017 293.866 148.438 294.574 148.003C295.281 147.568 296.078 147.24 296.964 147.018C297.859 146.788 298.784 146.622 299.739 146.52C300.889 146.401 301.822 146.294 302.538 146.2C303.254 146.098 303.774 145.945 304.098 145.74C304.43 145.527 304.597 145.199 304.597 144.756V144.679C304.597 143.716 304.311 142.97 303.74 142.442C303.169 141.913 302.347 141.649 301.273 141.649C300.139 141.649 299.24 141.896 298.575 142.391C297.919 142.885 297.476 143.469 297.246 144.142L292.925 143.528C293.266 142.335 293.828 141.338 294.612 140.537C295.396 139.727 296.355 139.122 297.489 138.722C298.622 138.312 299.875 138.108 301.247 138.108C302.193 138.108 303.135 138.219 304.072 138.44C305.01 138.662 305.866 139.028 306.642 139.54C307.418 140.043 308.04 140.729 308.509 141.598C308.986 142.467 309.224 143.554 309.224 144.858V158H304.776V155.303H304.622C304.341 155.848 303.945 156.359 303.433 156.837C302.93 157.305 302.295 157.685 301.528 157.974C300.77 158.256 299.879 158.396 298.857 158.396ZM300.058 154.996C300.987 154.996 301.793 154.812 302.474 154.446C303.156 154.071 303.68 153.577 304.047 152.963C304.422 152.349 304.609 151.68 304.609 150.956V148.642C304.464 148.761 304.217 148.872 303.868 148.974C303.527 149.077 303.143 149.166 302.717 149.243C302.291 149.32 301.869 149.388 301.452 149.447C301.034 149.507 300.672 149.558 300.365 149.601C299.675 149.695 299.057 149.848 298.511 150.061C297.966 150.274 297.536 150.572 297.22 150.956C296.905 151.331 296.747 151.817 296.747 152.413C296.747 153.266 297.058 153.909 297.68 154.344C298.303 154.778 299.095 154.996 300.058 154.996ZM313.878 158V138.364H318.365V141.636H318.57C318.928 140.503 319.541 139.629 320.411 139.016C321.288 138.393 322.29 138.082 323.415 138.082C323.67 138.082 323.956 138.095 324.271 138.121C324.595 138.138 324.864 138.168 325.077 138.21V142.467C324.881 142.399 324.57 142.339 324.143 142.288C323.726 142.229 323.321 142.199 322.929 142.199C322.085 142.199 321.327 142.382 320.653 142.749C319.989 143.107 319.464 143.605 319.081 144.244C318.697 144.884 318.506 145.621 318.506 146.456V158H313.878ZM333.45 158.396C332.206 158.396 331.085 158.175 330.088 157.732C329.099 157.28 328.315 156.615 327.736 155.737C327.165 154.859 326.879 153.777 326.879 152.49C326.879 151.382 327.084 150.466 327.493 149.741C327.902 149.017 328.46 148.438 329.168 148.003C329.875 147.568 330.672 147.24 331.558 147.018C332.453 146.788 333.378 146.622 334.332 146.52C335.483 146.401 336.416 146.294 337.132 146.2C337.848 146.098 338.368 145.945 338.692 145.74C339.024 145.527 339.19 145.199 339.19 144.756V144.679C339.19 143.716 338.905 142.97 338.334 142.442C337.763 141.913 336.94 141.649 335.866 141.649C334.733 141.649 333.834 141.896 333.169 142.391C332.513 142.885 332.07 143.469 331.839 144.142L327.518 143.528C327.859 142.335 328.422 141.338 329.206 140.537C329.99 139.727 330.949 139.122 332.082 138.722C333.216 138.312 334.469 138.108 335.841 138.108C336.787 138.108 337.729 138.219 338.666 138.44C339.604 138.662 340.46 139.028 341.236 139.54C342.011 140.043 342.634 140.729 343.102 141.598C343.58 142.467 343.818 143.554 343.818 144.858V158H339.369V155.303H339.216C338.935 155.848 338.538 156.359 338.027 156.837C337.524 157.305 336.889 157.685 336.122 157.974C335.364 158.256 334.473 158.396 333.45 158.396ZM334.652 154.996C335.581 154.996 336.386 154.812 337.068 154.446C337.75 154.071 338.274 153.577 338.641 152.963C339.016 152.349 339.203 151.68 339.203 150.956V148.642C339.058 148.761 338.811 148.872 338.462 148.974C338.121 149.077 337.737 149.166 337.311 149.243C336.885 149.32 336.463 149.388 336.045 149.447C335.628 149.507 335.266 149.558 334.959 149.601C334.268 149.695 333.651 149.848 333.105 150.061C332.56 150.274 332.129 150.572 331.814 150.956C331.499 151.331 331.341 151.817 331.341 152.413C331.341 153.266 331.652 153.909 332.274 154.344C332.896 154.778 333.689 154.996 334.652 154.996ZM366.094 158.384C364.126 158.384 362.425 157.974 360.994 157.156C359.57 156.33 358.475 155.162 357.708 153.653C356.941 152.136 356.558 150.351 356.558 148.297C356.558 146.277 356.941 144.504 357.708 142.979C358.484 141.445 359.566 140.251 360.955 139.399C362.344 138.538 363.977 138.108 365.852 138.108C367.062 138.108 368.204 138.304 369.278 138.696C370.36 139.08 371.315 139.676 372.141 140.486C372.977 141.295 373.633 142.327 374.11 143.58C374.587 144.824 374.826 146.307 374.826 148.028V149.447H358.731V146.328H370.39C370.381 145.442 370.19 144.653 369.815 143.963C369.44 143.264 368.915 142.714 368.242 142.314C367.577 141.913 366.802 141.713 365.915 141.713C364.969 141.713 364.138 141.943 363.423 142.403C362.707 142.855 362.148 143.452 361.748 144.193C361.356 144.926 361.156 145.732 361.147 146.609V149.332C361.147 150.474 361.356 151.455 361.773 152.273C362.191 153.082 362.775 153.705 363.525 154.139C364.275 154.565 365.153 154.778 366.158 154.778C366.832 154.778 367.441 154.685 367.987 154.497C368.532 154.301 369.005 154.016 369.406 153.641C369.806 153.266 370.109 152.801 370.313 152.247L374.634 152.733C374.362 153.875 373.842 154.872 373.075 155.724C372.316 156.568 371.344 157.224 370.16 157.693C368.975 158.153 367.62 158.384 366.094 158.384ZM405.211 138.364L398.218 158H393.104L386.111 138.364H391.046L395.559 152.95H395.763L400.289 138.364H405.211ZM408.413 158V138.364H413.041V158H408.413ZM410.74 135.577C410.007 135.577 409.376 135.334 408.848 134.848C408.319 134.354 408.055 133.761 408.055 133.071C408.055 132.372 408.319 131.78 408.848 131.294C409.376 130.8 410.007 130.553 410.74 130.553C411.481 130.553 412.112 130.8 412.632 131.294C413.16 131.78 413.424 132.372 413.424 133.071C413.424 133.761 413.16 134.354 412.632 134.848C412.112 135.334 411.481 135.577 410.74 135.577ZM435.339 138.364L428.347 158H423.233L416.24 138.364H421.175L425.688 152.95H425.892L430.418 138.364H435.339ZM438.542 158V138.364H443.17V158H438.542ZM440.869 135.577C440.136 135.577 439.505 135.334 438.977 134.848C438.448 134.354 438.184 133.761 438.184 133.071C438.184 132.372 438.448 131.78 438.977 131.294C439.505 130.8 440.136 130.553 440.869 130.553C441.61 130.553 442.241 130.8 442.761 131.294C443.289 131.78 443.553 132.372 443.553 133.071C443.553 133.761 443.289 134.354 442.761 134.848C442.241 135.334 441.61 135.577 440.869 135.577ZM456.858 158V138.364H461.486V158H456.858ZM459.185 135.577C458.452 135.577 457.821 135.334 457.293 134.848C456.765 134.354 456.5 133.761 456.5 133.071C456.5 132.372 456.765 131.78 457.293 131.294C457.821 130.8 458.452 130.553 459.185 130.553C459.926 130.553 460.557 130.8 461.077 131.294C461.605 131.78 461.87 132.372 461.87 133.071C461.87 133.761 461.605 134.354 461.077 134.848C460.557 135.334 459.926 135.577 459.185 135.577ZM70.4815 205.364V194.906H70.2898C70.0511 195.384 69.706 195.891 69.2543 196.428C68.8026 196.956 68.206 197.408 67.4645 197.783C66.723 198.158 65.7898 198.345 64.6648 198.345C63.1222 198.345 61.7415 197.949 60.5227 197.156C59.304 196.364 58.3409 195.213 57.6335 193.705C56.9261 192.196 56.5724 190.364 56.5724 188.207C56.5724 186.026 56.9304 184.185 57.6463 182.685C58.3707 181.176 59.3466 180.038 60.5739 179.271C61.8011 178.496 63.169 178.108 64.6776 178.108C65.8281 178.108 66.7741 178.304 67.5156 178.696C68.2571 179.08 68.8452 179.544 69.2798 180.089C69.7145 180.626 70.0511 181.134 70.2898 181.611H70.571V178.364H75.1222V205.364H70.4815ZM65.956 194.548C66.9361 194.548 67.7713 194.284 68.4616 193.756C69.152 193.219 69.6761 192.473 70.0341 191.518C70.392 190.564 70.571 189.452 70.571 188.182C70.571 186.912 70.392 185.808 70.0341 184.871C69.6847 183.933 69.1648 183.205 68.4744 182.685C67.7926 182.165 66.9531 181.905 65.956 181.905C64.9247 181.905 64.0639 182.173 63.3736 182.71C62.6832 183.247 62.1634 183.989 61.8139 184.935C61.4645 185.881 61.2898 186.963 61.2898 188.182C61.2898 189.409 61.4645 190.504 61.8139 191.467C62.1719 192.422 62.696 193.176 63.3864 193.73C64.0852 194.276 64.9418 194.548 65.956 194.548ZM92.3935 189.741V178.364H97.0213V198H92.5341V194.51H92.3295C91.8864 195.609 91.1577 196.509 90.1435 197.207C89.1378 197.906 87.8977 198.256 86.4233 198.256C85.1364 198.256 83.9986 197.97 83.0099 197.399C82.0298 196.82 81.2628 195.98 80.7088 194.881C80.1548 193.773 79.8778 192.435 79.8778 190.866V178.364H84.5057V190.151C84.5057 191.395 84.8466 192.384 85.5284 193.116C86.2102 193.849 87.1051 194.216 88.2131 194.216C88.8949 194.216 89.5554 194.05 90.1946 193.717C90.8338 193.385 91.358 192.891 91.767 192.234C92.1847 191.57 92.3935 190.739 92.3935 189.741ZM107.431 198.396C106.186 198.396 105.066 198.175 104.069 197.732C103.08 197.28 102.296 196.615 101.716 195.737C101.145 194.859 100.86 193.777 100.86 192.49C100.86 191.382 101.064 190.466 101.473 189.741C101.882 189.017 102.441 188.438 103.148 188.003C103.855 187.568 104.652 187.24 105.539 187.018C106.434 186.788 107.358 186.622 108.313 186.52C109.463 186.401 110.397 186.294 111.113 186.2C111.828 186.098 112.348 185.945 112.672 185.74C113.005 185.527 113.171 185.199 113.171 184.756V184.679C113.171 183.716 112.885 182.97 112.314 182.442C111.743 181.913 110.921 181.649 109.847 181.649C108.713 181.649 107.814 181.896 107.15 182.391C106.493 182.885 106.05 183.469 105.82 184.142L101.499 183.528C101.84 182.335 102.402 181.338 103.186 180.537C103.971 179.727 104.929 179.122 106.063 178.722C107.196 178.312 108.449 178.108 109.821 178.108C110.767 178.108 111.709 178.219 112.647 178.44C113.584 178.662 114.441 179.028 115.216 179.54C115.992 180.043 116.614 180.729 117.083 181.598C117.56 182.467 117.799 183.554 117.799 184.858V198H113.35V195.303H113.196C112.915 195.848 112.519 196.359 112.007 196.837C111.505 197.305 110.87 197.685 110.103 197.974C109.344 198.256 108.453 198.396 107.431 198.396ZM108.632 194.996C109.561 194.996 110.367 194.812 111.049 194.446C111.73 194.071 112.255 193.577 112.621 192.963C112.996 192.349 113.184 191.68 113.184 190.956V188.642C113.039 188.761 112.792 188.872 112.442 188.974C112.101 189.077 111.718 189.166 111.292 189.243C110.865 189.32 110.444 189.388 110.026 189.447C109.608 189.507 109.246 189.558 108.939 189.601C108.249 189.695 107.631 189.848 107.086 190.061C106.54 190.274 106.11 190.572 105.794 190.956C105.479 191.331 105.321 191.817 105.321 192.413C105.321 193.266 105.632 193.909 106.255 194.344C106.877 194.778 107.669 194.996 108.632 194.996ZM129.739 198.345C128.196 198.345 126.816 197.949 125.597 197.156C124.378 196.364 123.415 195.213 122.708 193.705C122 192.196 121.647 190.364 121.647 188.207C121.647 186.026 122.005 184.185 122.721 182.685C123.445 181.176 124.421 180.038 125.648 179.271C126.875 178.496 128.243 178.108 129.752 178.108C130.902 178.108 131.848 178.304 132.59 178.696C133.331 179.08 133.919 179.544 134.354 180.089C134.789 180.626 135.125 181.134 135.364 181.611H135.556V171.818H140.196V198H135.645V194.906H135.364C135.125 195.384 134.78 195.891 134.328 196.428C133.877 196.956 133.28 197.408 132.539 197.783C131.797 198.158 130.864 198.345 129.739 198.345ZM131.03 194.548C132.01 194.548 132.846 194.284 133.536 193.756C134.226 193.219 134.75 192.473 135.108 191.518C135.466 190.564 135.645 189.452 135.645 188.182C135.645 186.912 135.466 185.808 135.108 184.871C134.759 183.933 134.239 183.205 133.549 182.685C132.867 182.165 132.027 181.905 131.03 181.905C129.999 181.905 129.138 182.173 128.448 182.71C127.757 183.247 127.238 183.989 126.888 184.935C126.539 185.881 126.364 186.963 126.364 188.182C126.364 189.409 126.539 190.504 126.888 191.467C127.246 192.422 127.77 193.176 128.461 193.73C129.159 194.276 130.016 194.548 131.03 194.548ZM145.128 198V178.364H149.615V181.636H149.82C150.178 180.503 150.791 179.629 151.661 179.016C152.538 178.393 153.54 178.082 154.665 178.082C154.92 178.082 155.206 178.095 155.521 178.121C155.845 178.138 156.114 178.168 156.327 178.21V182.467C156.131 182.399 155.82 182.339 155.393 182.288C154.976 182.229 154.571 182.199 154.179 182.199C153.335 182.199 152.577 182.382 151.903 182.749C151.239 183.107 150.714 183.605 150.331 184.244C149.947 184.884 149.756 185.621 149.756 186.456V198H145.128ZM159.401 198V178.364H164.029V198H159.401ZM161.728 175.577C160.995 175.577 160.364 175.334 159.836 174.848C159.308 174.354 159.043 173.761 159.043 173.071C159.043 172.372 159.308 171.78 159.836 171.294C160.364 170.8 160.995 170.553 161.728 170.553C162.469 170.553 163.1 170.8 163.62 171.294C164.148 171.78 164.413 172.372 164.413 173.071C164.413 173.761 164.148 174.354 163.62 174.848C163.1 175.334 162.469 175.577 161.728 175.577ZM185.005 198.345C183.462 198.345 182.081 197.949 180.863 197.156C179.644 196.364 178.681 195.213 177.973 193.705C177.266 192.196 176.912 190.364 176.912 188.207C176.912 186.026 177.27 184.185 177.986 182.685C178.711 181.176 179.686 180.038 180.914 179.271C182.141 178.496 183.509 178.108 185.017 178.108C186.168 178.108 187.114 178.304 187.855 178.696C188.597 179.08 189.185 179.544 189.62 180.089C190.054 180.626 190.391 181.134 190.63 181.611H190.821V171.818H195.462V198H190.911V194.906H190.63C190.391 195.384 190.046 195.891 189.594 196.428C189.142 196.956 188.546 197.408 187.804 197.783C187.063 198.158 186.13 198.345 185.005 198.345ZM186.296 194.548C187.276 194.548 188.111 194.284 188.801 193.756C189.492 193.219 190.016 192.473 190.374 191.518C190.732 190.564 190.911 189.452 190.911 188.182C190.911 186.912 190.732 185.808 190.374 184.871C190.025 183.933 189.505 183.205 188.814 182.685C188.132 182.165 187.293 181.905 186.296 181.905C185.265 181.905 184.404 182.173 183.713 182.71C183.023 183.247 182.503 183.989 182.154 184.935C181.804 185.881 181.63 186.963 181.63 188.182C181.63 189.409 181.804 190.504 182.154 191.467C182.512 192.422 183.036 193.176 183.726 193.73C184.425 194.276 185.282 194.548 186.296 194.548ZM209.087 198.384C207.118 198.384 205.418 197.974 203.986 197.156C202.563 196.33 201.467 195.162 200.7 193.653C199.933 192.136 199.55 190.351 199.55 188.297C199.55 186.277 199.933 184.504 200.7 182.979C201.476 181.445 202.558 180.251 203.947 179.399C205.337 178.538 206.969 178.108 208.844 178.108C210.054 178.108 211.196 178.304 212.27 178.696C213.352 179.08 214.307 179.676 215.134 180.486C215.969 181.295 216.625 182.327 217.102 183.58C217.58 184.824 217.818 186.307 217.818 188.028V189.447H201.723V186.328H213.382C213.374 185.442 213.182 184.653 212.807 183.963C212.432 183.264 211.908 182.714 211.234 182.314C210.57 181.913 209.794 181.713 208.908 181.713C207.962 181.713 207.131 181.943 206.415 182.403C205.699 182.855 205.141 183.452 204.74 184.193C204.348 184.926 204.148 185.732 204.139 186.609V189.332C204.139 190.474 204.348 191.455 204.766 192.273C205.183 193.082 205.767 193.705 206.517 194.139C207.267 194.565 208.145 194.778 209.151 194.778C209.824 194.778 210.433 194.685 210.979 194.497C211.524 194.301 211.997 194.016 212.398 193.641C212.798 193.266 213.101 192.801 213.305 192.247L217.626 192.733C217.354 193.875 216.834 194.872 216.067 195.724C215.308 196.568 214.337 197.224 213.152 197.693C211.967 198.153 210.612 198.384 209.087 198.384ZM221.733 198V178.364H226.361V198H221.733ZM224.06 175.577C223.327 175.577 222.696 175.334 222.168 174.848C221.64 174.354 221.375 173.761 221.375 173.071C221.375 172.372 221.64 171.78 222.168 171.294C222.696 170.8 223.327 170.553 224.06 170.553C224.801 170.553 225.432 170.8 225.952 171.294C226.48 171.78 226.745 172.372 226.745 173.071C226.745 173.761 226.48 174.354 225.952 174.848C225.432 175.334 224.801 175.577 224.06 175.577ZM249.855 178.364V181.943H238.567V178.364H249.855ZM241.354 173.659H245.982V192.094C245.982 192.716 246.075 193.193 246.263 193.526C246.459 193.849 246.714 194.071 247.03 194.19C247.345 194.31 247.695 194.369 248.078 194.369C248.368 194.369 248.632 194.348 248.871 194.305C249.118 194.263 249.305 194.224 249.433 194.19L250.213 197.808C249.966 197.893 249.612 197.987 249.152 198.089C248.7 198.192 248.146 198.251 247.49 198.268C246.331 198.303 245.287 198.128 244.358 197.744C243.429 197.352 242.692 196.747 242.146 195.929C241.609 195.111 241.345 194.088 241.354 192.861V173.659ZM266.241 189.741V178.364H270.869V198H266.382V194.51H266.177C265.734 195.609 265.005 196.509 263.991 197.207C262.985 197.906 261.745 198.256 260.271 198.256C258.984 198.256 257.846 197.97 256.858 197.399C255.877 196.82 255.11 195.98 254.556 194.881C254.002 193.773 253.725 192.435 253.725 190.866V178.364H258.353V190.151C258.353 191.395 258.694 192.384 259.376 193.116C260.058 193.849 260.953 194.216 262.061 194.216C262.743 194.216 263.403 194.05 264.042 193.717C264.681 193.385 265.206 192.891 265.615 192.234C266.032 191.57 266.241 190.739 266.241 189.741ZM284.193 198.384C282.276 198.384 280.614 197.962 279.207 197.118C277.801 196.274 276.71 195.094 275.935 193.577C275.168 192.06 274.784 190.287 274.784 188.259C274.784 186.23 275.168 184.453 275.935 182.928C276.71 181.402 277.801 180.217 279.207 179.374C280.614 178.53 282.276 178.108 284.193 178.108C286.111 178.108 287.773 178.53 289.179 179.374C290.585 180.217 291.672 181.402 292.439 182.928C293.214 184.453 293.602 186.23 293.602 188.259C293.602 190.287 293.214 192.06 292.439 193.577C291.672 195.094 290.585 196.274 289.179 197.118C287.773 197.962 286.111 198.384 284.193 198.384ZM284.219 194.676C285.259 194.676 286.128 194.391 286.827 193.82C287.526 193.24 288.045 192.464 288.386 191.493C288.736 190.521 288.911 189.439 288.911 188.246C288.911 187.044 288.736 185.957 288.386 184.986C288.045 184.006 287.526 183.226 286.827 182.646C286.128 182.067 285.259 181.777 284.219 181.777C283.153 181.777 282.267 182.067 281.56 182.646C280.861 183.226 280.337 184.006 279.987 184.986C279.646 185.957 279.476 187.044 279.476 188.246C279.476 189.439 279.646 190.521 279.987 191.493C280.337 192.464 280.861 193.24 281.56 193.82C282.267 194.391 283.153 194.676 284.219 194.676ZM297.53 198V178.364H302.158V198H297.53ZM299.857 175.577C299.124 175.577 298.493 175.334 297.965 174.848C297.436 174.354 297.172 173.761 297.172 173.071C297.172 172.372 297.436 171.78 297.965 171.294C298.493 170.8 299.124 170.553 299.857 170.553C300.598 170.553 301.229 170.8 301.749 171.294C302.277 171.78 302.542 172.372 302.542 173.071C302.542 173.761 302.277 174.354 301.749 174.848C301.229 175.334 300.598 175.577 299.857 175.577ZM331.366 183.554L327.148 184.014C327.028 183.588 326.82 183.188 326.521 182.812C326.232 182.438 325.839 182.135 325.345 181.905C324.851 181.675 324.246 181.56 323.53 181.56C322.567 181.56 321.757 181.768 321.101 182.186C320.453 182.604 320.134 183.145 320.142 183.81C320.134 184.381 320.342 184.845 320.768 185.203C321.203 185.561 321.919 185.855 322.916 186.085L326.266 186.801C328.124 187.202 329.504 187.837 330.408 188.706C331.32 189.575 331.78 190.713 331.788 192.119C331.78 193.355 331.418 194.446 330.702 195.392C329.994 196.33 329.01 197.062 327.749 197.591C326.487 198.119 325.038 198.384 323.402 198.384C320.999 198.384 319.064 197.881 317.598 196.875C316.132 195.861 315.259 194.45 314.977 192.643L319.49 192.209C319.695 193.095 320.129 193.764 320.794 194.216C321.459 194.668 322.324 194.893 323.389 194.893C324.489 194.893 325.371 194.668 326.036 194.216C326.709 193.764 327.045 193.206 327.045 192.541C327.045 191.979 326.828 191.514 326.393 191.148C325.967 190.781 325.303 190.5 324.399 190.304L321.05 189.601C319.166 189.209 317.773 188.548 316.869 187.619C315.966 186.682 315.518 185.497 315.527 184.065C315.518 182.855 315.847 181.807 316.511 180.92C317.185 180.026 318.118 179.335 319.311 178.849C320.513 178.355 321.898 178.108 323.466 178.108C325.767 178.108 327.578 178.598 328.899 179.578C330.229 180.558 331.051 181.884 331.366 183.554ZM344.17 198.384C342.252 198.384 340.59 197.962 339.184 197.118C337.778 196.274 336.687 195.094 335.911 193.577C335.144 192.06 334.761 190.287 334.761 188.259C334.761 186.23 335.144 184.453 335.911 182.928C336.687 181.402 337.778 180.217 339.184 179.374C340.59 178.53 342.252 178.108 344.17 178.108C346.087 178.108 347.749 178.53 349.156 179.374C350.562 180.217 351.648 181.402 352.415 182.928C353.191 184.453 353.579 186.23 353.579 188.259C353.579 190.287 353.191 192.06 352.415 193.577C351.648 195.094 350.562 196.274 349.156 197.118C347.749 197.962 346.087 198.384 344.17 198.384ZM344.195 194.676C345.235 194.676 346.104 194.391 346.803 193.82C347.502 193.24 348.022 192.464 348.363 191.493C348.712 190.521 348.887 189.439 348.887 188.246C348.887 187.044 348.712 185.957 348.363 184.986C348.022 184.006 347.502 183.226 346.803 182.646C346.104 182.067 345.235 181.777 344.195 181.777C343.13 181.777 342.244 182.067 341.536 182.646C340.837 183.226 340.313 184.006 339.964 184.986C339.623 185.957 339.452 187.044 339.452 188.246C339.452 189.439 339.623 190.521 339.964 191.493C340.313 192.464 340.837 193.24 341.536 193.82C342.244 194.391 343.13 194.676 344.195 194.676ZM366.047 205.773C364.385 205.773 362.957 205.547 361.764 205.095C360.571 204.652 359.612 204.055 358.887 203.305C358.163 202.555 357.66 201.724 357.379 200.812L361.547 199.803C361.734 200.186 362.007 200.565 362.365 200.94C362.723 201.324 363.204 201.639 363.809 201.886C364.423 202.142 365.194 202.27 366.123 202.27C367.436 202.27 368.522 201.95 369.383 201.311C370.244 200.68 370.674 199.641 370.674 198.192V194.472H370.444C370.206 194.949 369.856 195.439 369.396 195.942C368.944 196.445 368.343 196.866 367.593 197.207C366.852 197.548 365.919 197.719 364.794 197.719C363.285 197.719 361.917 197.365 360.69 196.658C359.471 195.942 358.5 194.876 357.775 193.462C357.059 192.038 356.701 190.257 356.701 188.118C356.701 185.962 357.059 184.142 357.775 182.659C358.5 181.168 359.475 180.038 360.703 179.271C361.93 178.496 363.298 178.108 364.806 178.108C365.957 178.108 366.903 178.304 367.645 178.696C368.395 179.08 368.991 179.544 369.434 180.089C369.877 180.626 370.214 181.134 370.444 181.611H370.7V178.364H375.264V198.32C375.264 199.999 374.863 201.388 374.062 202.487C373.261 203.587 372.166 204.409 370.777 204.955C369.387 205.5 367.811 205.773 366.047 205.773ZM366.085 194.088C367.065 194.088 367.9 193.849 368.591 193.372C369.281 192.895 369.805 192.209 370.163 191.314C370.521 190.419 370.7 189.345 370.7 188.092C370.7 186.857 370.521 185.774 370.163 184.845C369.814 183.916 369.294 183.196 368.603 182.685C367.922 182.165 367.082 181.905 366.085 181.905C365.054 181.905 364.193 182.173 363.502 182.71C362.812 183.247 362.292 183.984 361.943 184.922C361.593 185.851 361.419 186.908 361.419 188.092C361.419 189.294 361.593 190.347 361.943 191.25C362.301 192.145 362.825 192.844 363.515 193.347C364.214 193.841 365.071 194.088 366.085 194.088ZM384.635 186.494V198H380.007V178.364H384.43V181.7H384.66C385.112 180.601 385.832 179.727 386.821 179.08C387.818 178.432 389.049 178.108 390.515 178.108C391.87 178.108 393.051 178.398 394.056 178.977C395.071 179.557 395.855 180.396 396.409 181.496C396.971 182.595 397.248 183.929 397.24 185.497V198H392.612V186.213C392.612 184.901 392.271 183.874 391.589 183.132C390.916 182.391 389.983 182.02 388.789 182.02C387.98 182.02 387.26 182.199 386.629 182.557C386.007 182.906 385.517 183.413 385.159 184.078C384.809 184.743 384.635 185.548 384.635 186.494ZM401.944 198V178.364H406.572V198H401.944ZM404.271 175.577C403.538 175.577 402.907 175.334 402.379 174.848C401.85 174.354 401.586 173.761 401.586 173.071C401.586 172.372 401.85 171.78 402.379 171.294C402.907 170.8 403.538 170.553 404.271 170.553C405.012 170.553 405.643 170.8 406.163 171.294C406.691 171.78 406.956 172.372 406.956 173.071C406.956 173.761 406.691 174.354 406.163 174.848C405.643 175.334 405.012 175.577 404.271 175.577Z" fill="white"/>
<path d="M154.655 571.071H129.797C129.466 568.519 128.786 566.215 127.759 564.161C126.731 562.106 125.373 560.349 123.682 558.891C121.992 557.432 119.987 556.322 117.667 555.56C115.38 554.764 112.844 554.366 110.06 554.366C105.122 554.366 100.863 555.576 97.283 557.996C93.7366 560.415 91.0022 563.912 89.0799 568.486C87.1907 573.06 86.2461 578.595 86.2461 585.091C86.2461 591.852 87.2073 597.52 89.1296 602.094C91.0851 606.634 93.8195 610.065 97.3327 612.385C100.879 614.672 105.072 615.815 109.911 615.815C112.629 615.815 115.098 615.467 117.319 614.771C119.572 614.075 121.544 613.064 123.235 611.739C124.958 610.38 126.367 608.739 127.461 606.817C128.587 604.861 129.366 602.657 129.797 600.205L154.655 600.354C154.224 604.861 152.915 609.303 150.728 613.678C148.573 618.053 145.607 622.046 141.828 625.659C138.05 629.239 133.443 632.089 128.007 634.21C122.605 636.331 116.407 637.392 109.414 637.392C100.2 637.392 91.9469 635.37 84.6552 631.327C77.3967 627.25 71.6628 621.317 67.4535 613.528C63.2442 605.74 61.1396 596.26 61.1396 585.091C61.1396 573.888 63.2773 564.393 67.5529 556.604C71.8285 548.815 77.6121 542.899 84.9038 538.855C92.1954 534.812 100.365 532.79 109.414 532.79C115.578 532.79 121.279 533.652 126.516 535.375C131.753 537.065 136.36 539.551 140.337 542.832C144.314 546.08 147.546 550.074 150.032 554.814C152.517 559.554 154.059 564.973 154.655 571.071ZM204.384 637.442C196.363 637.442 189.469 635.801 183.702 632.52C177.968 629.205 173.543 624.598 170.428 618.699C167.345 612.766 165.804 605.889 165.804 598.067C165.804 590.212 167.345 583.334 170.428 577.435C173.543 571.502 177.968 566.895 183.702 563.614C189.469 560.299 196.363 558.642 204.384 558.642C212.404 558.642 219.282 560.299 225.016 563.614C230.783 566.895 235.207 571.502 238.29 577.435C241.405 583.334 242.963 590.212 242.963 598.067C242.963 605.889 241.405 612.766 238.29 618.699C235.207 624.598 230.783 629.205 225.016 632.52C219.282 635.801 212.404 637.442 204.384 637.442ZM204.533 619.097C207.449 619.097 209.919 618.202 211.94 616.412C213.962 614.622 215.503 612.136 216.564 608.955C217.658 605.773 218.205 602.094 218.205 597.918C218.205 593.675 217.658 589.963 216.564 586.781C215.503 583.599 213.962 581.114 211.94 579.324C209.919 577.534 207.449 576.639 204.533 576.639C201.517 576.639 198.964 577.534 196.876 579.324C194.821 581.114 193.247 583.599 192.153 586.781C191.093 589.963 190.562 593.675 190.562 597.918C190.562 602.094 191.093 605.773 192.153 608.955C193.247 612.136 194.821 614.622 196.876 616.412C198.964 618.202 201.517 619.097 204.533 619.097ZM255.417 636V559.636H279.032V573.557H279.827C281.219 568.519 283.49 564.774 286.638 562.321C289.787 559.835 293.45 558.592 297.626 558.592C298.753 558.592 299.913 558.675 301.106 558.841C302.299 558.973 303.409 559.189 304.437 559.487V580.616C303.277 580.219 301.752 579.904 299.863 579.672C298.007 579.44 296.35 579.324 294.891 579.324C292.008 579.324 289.406 579.97 287.086 581.263C284.799 582.522 282.993 584.295 281.667 586.582C280.374 588.836 279.728 591.488 279.728 594.537V636H255.417ZM338.654 592.449V636H314.343V559.636H337.461V573.656H338.306C339.996 568.983 342.88 565.321 346.956 562.669C351.033 559.984 355.889 558.642 361.523 558.642C366.892 558.642 371.549 559.852 375.493 562.271C379.471 564.658 382.553 568.005 384.74 572.314C386.961 576.589 388.055 581.594 388.022 587.328V636H363.711V592.101C363.744 587.858 362.667 584.544 360.479 582.158C358.325 579.771 355.325 578.578 351.48 578.578C348.928 578.578 346.675 579.142 344.719 580.268C342.797 581.362 341.305 582.937 340.245 584.991C339.217 587.046 338.687 589.532 338.654 592.449ZM403.073 636V559.636H427.384V636H403.073ZM415.254 550.737C411.84 550.737 408.906 549.61 406.454 547.357C404.001 545.07 402.775 542.319 402.775 539.104C402.775 535.922 404.001 533.204 406.454 530.95C408.906 528.663 411.84 527.52 415.254 527.52C418.701 527.52 421.634 528.663 424.053 530.95C426.506 533.204 427.732 535.922 427.732 539.104C427.732 542.319 426.506 545.07 424.053 547.357C421.634 549.61 418.701 550.737 415.254 550.737ZM478.505 637.442C470.451 637.442 463.54 635.785 457.773 632.47C452.039 629.156 447.631 624.549 444.549 618.649C441.466 612.716 439.925 605.856 439.925 598.067C439.925 590.245 441.466 583.384 444.549 577.484C447.664 571.552 452.089 566.928 457.823 563.614C463.59 560.299 470.467 558.642 478.455 558.642C485.515 558.642 491.663 559.918 496.9 562.47C502.169 565.022 506.279 568.635 509.229 573.308C512.212 577.948 513.786 583.401 513.952 589.665H491.232C490.768 585.754 489.442 582.688 487.255 580.467C485.1 578.247 482.283 577.136 478.803 577.136C475.986 577.136 473.516 577.932 471.395 579.523C469.274 581.08 467.617 583.401 466.424 586.483C465.264 589.532 464.684 593.311 464.684 597.818C464.684 602.326 465.264 606.137 466.424 609.253C467.617 612.335 469.274 614.672 471.395 616.263C473.516 617.821 475.986 618.599 478.803 618.599C481.057 618.599 483.045 618.119 484.769 617.158C486.525 616.196 487.967 614.788 489.094 612.932C490.221 611.043 490.934 608.756 491.232 606.071H513.952C513.72 612.368 512.146 617.87 509.229 622.577C506.346 627.283 502.285 630.946 497.049 633.564C491.845 636.149 485.664 637.442 478.505 637.442ZM526.393 636V559.636H550.705V636H526.393ZM538.574 550.737C535.16 550.737 532.227 549.61 529.774 547.357C527.321 545.07 526.095 542.319 526.095 539.104C526.095 535.922 527.321 533.204 529.774 530.95C532.227 528.663 535.16 527.52 538.574 527.52C542.021 527.52 544.954 528.663 547.374 530.95C549.826 533.204 551.053 535.922 551.053 539.104C551.053 542.319 549.826 545.07 547.374 547.357C544.954 549.61 542.021 550.737 538.574 550.737Z" fill="#004AC8"/>
</g>
<defs>
<clipPath id="clip0_306_3">
<rect width="700" height="700" fill="white"/>
</clipPath>
</defs>
</svg>
