<svg width="700" height="700" viewBox="0 0 700 700" fill="none" xmlns="http://www.w3.org/2000/svg">
<g clip-path="url(#clip0_314_2)">
<path d="M0 0H700V700L681.862 681.862V17.4664H17.4664V681.862H681.862L700 700H0V0Z" fill="#004AC8"/>
<path d="M70.5596 452.783V344.321H143.645V363.228H93.4915V389.072H139.885V407.979H93.4915V433.876H143.856V452.783H70.5596ZM180.306 371.437L195.241 399.876L210.547 371.437H233.69L210.124 412.109L234.326 452.783H211.289L195.241 424.661L179.46 452.783H156.157L180.306 412.109L157.004 371.437H180.306ZM247.089 483.289V371.437H269.332V385.099H270.339C271.327 382.911 272.758 380.686 274.629 378.427C276.535 376.132 279.007 374.226 282.044 372.708C285.115 371.153 288.928 370.377 293.483 370.377C299.415 370.377 304.887 371.93 309.9 375.038C314.914 378.109 318.922 382.752 321.922 388.966C324.924 395.144 326.425 402.895 326.425 412.215C326.425 421.29 324.959 428.951 322.028 435.2C319.133 441.414 315.179 446.128 310.165 449.341C305.187 452.518 299.608 454.107 293.43 454.107C289.052 454.107 285.327 453.384 282.255 451.935C279.218 450.488 276.73 448.67 274.788 446.48C272.846 444.257 271.364 442.014 270.339 439.755H269.651V483.289H247.089ZM269.174 412.109C269.174 416.946 269.845 421.166 271.186 424.767C272.529 428.368 274.47 431.176 277.012 433.187C279.554 435.165 282.643 436.154 286.28 436.154C289.952 436.154 293.06 435.147 295.602 433.135C298.144 431.087 300.068 428.263 301.374 424.661C302.716 421.025 303.386 416.841 303.386 412.109C303.386 407.413 302.733 403.283 301.427 399.718C300.12 396.15 298.196 393.361 295.654 391.35C293.112 389.337 289.987 388.331 286.28 388.331C282.608 388.331 279.502 389.301 276.96 391.244C274.453 393.185 272.529 395.939 271.186 399.505C269.845 403.071 269.174 407.272 269.174 412.109ZM378.219 454.373C369.992 454.373 362.878 452.625 356.877 449.129C350.91 445.598 346.301 440.691 343.054 434.406C339.805 428.086 338.181 420.759 338.181 412.428C338.181 404.025 339.805 396.681 343.054 390.396C346.301 384.076 350.91 379.169 356.877 375.673C362.878 372.142 369.992 370.377 378.219 370.377C386.446 370.377 393.543 372.142 399.509 375.673C405.511 379.169 410.137 384.076 413.384 390.396C416.633 396.681 418.257 404.025 418.257 412.428C418.257 420.759 416.633 428.086 413.384 434.406C410.137 440.691 405.511 445.598 399.509 449.129C393.543 452.625 386.446 454.373 378.219 454.373ZM378.325 436.895C382.067 436.895 385.192 435.835 387.699 433.718C390.206 431.564 392.095 428.634 393.367 424.926C394.672 421.219 395.325 417 395.325 412.269C395.325 407.537 394.672 403.318 393.367 399.611C392.095 395.903 390.206 392.973 387.699 390.819C385.192 388.665 382.067 387.589 378.325 387.589C374.547 387.589 371.37 388.665 368.793 390.819C366.251 392.973 364.327 395.903 363.019 399.611C361.748 403.318 361.113 407.537 361.113 412.269C361.113 417 361.748 421.219 363.019 424.926C364.327 428.634 366.251 431.564 368.793 433.718C371.37 435.835 374.547 436.895 378.325 436.895Z" fill="#004AC8"/>
<path d="M79.849 638.196H55.2754L92.7183 529.733H122.27L159.66 638.196H135.086L107.918 554.518H107.071L79.849 638.196ZM78.3131 595.563H136.357V613.463H78.3131V595.563ZM170.8 638.196V556.849H192.673V571.041H193.519C195.003 565.994 197.492 562.181 200.987 559.602C204.483 556.99 208.508 555.683 213.062 555.683C214.192 555.683 215.41 555.754 216.716 555.895C218.023 556.036 219.171 556.231 220.158 556.478V576.496C219.1 576.179 217.635 575.897 215.763 575.65C213.892 575.403 212.179 575.279 210.626 575.279C207.307 575.279 204.342 576.003 201.729 577.45C199.152 578.862 197.104 580.84 195.586 583.382C194.102 585.924 193.361 588.854 193.361 592.173V638.196H170.8ZM230.332 638.196V556.849H252.205V571.041H253.052C254.535 565.994 257.025 562.181 260.519 559.602C264.015 556.99 268.039 555.683 272.594 555.683C273.724 555.683 274.942 555.754 276.248 555.895C277.556 556.036 278.703 556.231 279.691 556.478V576.496C278.632 576.179 277.166 575.897 275.296 575.65C273.424 575.403 271.711 575.279 270.158 575.279C266.839 575.279 263.874 576.003 261.261 577.45C258.684 578.862 256.636 580.84 255.118 583.382C253.635 585.924 252.893 588.854 252.893 592.173V638.196H230.332ZM323.15 639.785C314.782 639.785 307.579 638.09 301.542 634.7C295.539 631.275 290.915 626.438 287.666 620.189C284.419 613.904 282.794 606.473 282.794 597.893C282.794 589.525 284.419 582.181 287.666 575.861C290.915 569.542 295.487 564.616 301.382 561.086C307.314 557.555 314.27 555.789 322.249 555.789C327.616 555.789 332.612 556.654 337.237 558.385C341.898 560.079 345.958 562.639 349.418 566.063C352.914 569.488 355.632 573.796 357.575 578.986C359.516 584.141 360.486 590.178 360.486 597.099V603.295H291.797V589.314H339.25C339.25 586.065 338.543 583.187 337.131 580.68C335.719 578.174 333.76 576.214 331.253 574.802C328.781 573.355 325.904 572.631 322.62 572.631C319.196 572.631 316.159 573.425 313.511 575.014C310.898 576.568 308.85 578.669 307.368 581.316C305.885 583.929 305.126 586.842 305.091 590.054V603.348C305.091 607.373 305.831 610.85 307.314 613.78C308.833 616.712 310.969 618.971 313.723 620.56C316.476 622.148 319.742 622.944 323.52 622.944C326.028 622.944 328.322 622.59 330.405 621.883C332.489 621.178 334.272 620.118 335.754 618.706C337.237 617.294 338.367 615.565 339.144 613.516L360.01 614.893C358.95 619.907 356.779 624.284 353.496 628.028C350.248 631.735 346.047 634.63 340.891 636.712C335.772 638.76 329.858 639.785 323.15 639.785ZM403.694 639.519C397.515 639.519 391.919 637.931 386.906 634.753C381.927 631.541 377.973 626.826 375.042 620.612C372.147 614.363 370.7 606.702 370.7 597.628C370.7 588.308 372.201 580.557 375.201 574.379C378.202 568.165 382.191 563.521 387.171 560.45C392.184 557.342 397.673 555.789 403.642 555.789C408.195 555.789 411.991 556.566 415.027 558.12C418.1 559.639 420.571 561.545 422.442 563.84C424.349 566.098 425.796 568.323 426.785 570.512H427.472V529.733H449.981V638.196H427.739V625.167H426.785C425.726 627.427 424.225 629.669 422.284 631.893C420.376 634.083 417.887 635.901 414.816 637.348C411.78 638.796 408.071 639.519 403.694 639.519ZM410.843 621.566C414.48 621.566 417.552 620.578 420.059 618.6C422.601 616.588 424.542 613.78 425.884 610.18C427.262 606.579 427.949 602.359 427.949 597.522C427.949 592.685 427.279 588.484 425.937 584.918C424.596 581.352 422.653 578.598 420.111 576.656C417.569 574.713 414.48 573.743 410.843 573.743C407.136 573.743 404.011 574.75 401.469 576.762C398.927 578.774 397.003 581.563 395.697 585.13C394.391 588.696 393.737 592.826 393.737 597.522C393.737 602.254 394.391 606.438 395.697 610.073C397.038 613.676 398.963 616.5 401.469 618.547C404.011 620.56 407.136 621.566 410.843 621.566ZM503.794 639.785C495.567 639.785 488.453 638.037 482.45 634.541C476.483 631.01 471.876 626.104 468.627 619.818C465.38 613.498 463.756 606.172 463.756 597.84C463.756 589.438 465.38 582.094 468.627 575.808C471.876 569.488 476.483 564.582 482.45 561.086C488.453 557.555 495.567 555.789 503.794 555.789C512.021 555.789 519.117 557.555 525.084 561.086C531.086 564.582 535.711 569.488 538.959 575.808C542.208 582.094 543.832 589.438 543.832 597.84C543.832 606.172 542.208 613.498 538.959 619.818C535.711 626.104 531.086 631.01 525.084 634.541C519.117 638.037 512.021 639.785 503.794 639.785ZM503.9 622.308C507.642 622.308 510.767 621.248 513.274 619.13C515.78 616.977 517.669 614.046 518.94 610.338C520.247 606.631 520.9 602.412 520.9 597.682C520.9 592.95 520.247 588.731 518.94 585.024C517.669 581.316 515.78 578.385 513.274 576.232C510.767 574.078 507.642 573.002 503.9 573.002C500.122 573.002 496.944 574.078 494.366 576.232C491.824 578.385 489.9 581.316 488.594 585.024C487.323 588.731 486.688 592.95 486.688 597.682C486.688 602.412 487.323 606.631 488.594 610.338C489.9 614.046 491.824 616.977 494.366 619.13C496.944 621.248 500.122 622.308 503.9 622.308Z" fill="#004AC8"/>
<path d="M72.021 139.866C71.9216 138.864 71.4949 138.085 70.7409 137.53C69.9868 136.974 68.9635 136.697 67.6709 136.697C66.7926 136.697 66.051 136.821 65.4461 137.07C64.8412 137.31 64.3772 137.646 64.0541 138.076C63.7392 138.507 63.5818 138.996 63.5818 139.543C63.5652 139.999 63.6605 140.396 63.8676 140.736C64.0831 141.076 64.3772 141.37 64.7501 141.619C65.123 141.859 65.5538 142.07 66.0427 142.253C66.5316 142.427 67.0536 142.576 67.6088 142.7L69.8957 143.247C71.006 143.495 72.0252 143.827 72.9532 144.241C73.8812 144.655 74.685 145.165 75.3644 145.77C76.0439 146.375 76.57 147.087 76.9429 147.908C77.3241 148.728 77.5188 149.668 77.5271 150.729C77.5188 152.287 77.1211 153.637 76.3339 154.781C75.555 155.916 74.4281 156.799 72.9532 157.428C71.4866 158.05 69.7175 158.36 67.646 158.36C65.5911 158.36 63.8013 158.046 62.2767 157.416C60.7604 156.786 59.5755 155.854 58.722 154.619C57.8769 153.376 57.4336 151.839 57.3921 150.008H62.5999C62.6579 150.862 62.9023 151.574 63.3332 152.146C63.7723 152.709 64.3565 153.136 65.0857 153.426C65.8231 153.708 66.6559 153.849 67.5839 153.849C68.4954 153.849 69.2867 153.716 69.9578 153.451C70.6373 153.186 71.1634 152.817 71.5363 152.345C71.9092 151.873 72.0956 151.33 72.0956 150.717C72.0956 150.145 71.9258 149.664 71.586 149.275C71.2546 148.885 70.7657 148.554 70.1194 148.281C69.4814 148.007 68.6984 147.759 67.7703 147.535L64.9987 146.839C62.8526 146.317 61.1581 145.501 59.9152 144.39C58.6723 143.28 58.055 141.784 58.0633 139.903C58.055 138.362 58.4652 137.016 59.2938 135.864C60.1307 134.712 61.2783 133.813 62.7366 133.167C64.1949 132.521 65.8521 132.197 67.7082 132.197C69.5974 132.197 71.2463 132.521 72.6549 133.167C74.0718 133.813 75.1739 134.712 75.961 135.864C76.7482 137.016 77.1542 138.35 77.1791 139.866H72.021Z" fill="white"/>
<path d="M91.5521 138.909V142.886H80.0553V138.909H91.5521ZM82.6653 134.335H87.9601V152.134C87.9601 152.622 88.0347 153.004 88.1838 153.277C88.333 153.542 88.5401 153.729 88.8053 153.836C89.0787 153.944 89.3936 153.998 89.7499 153.998C89.9984 153.998 90.247 153.977 90.4956 153.936C90.7442 153.886 90.9348 153.849 91.0673 153.824L91.9001 157.764C91.6349 157.847 91.2621 157.942 90.7815 158.05C90.3009 158.166 89.7167 158.236 89.029 158.261C87.7529 158.311 86.6343 158.141 85.6732 157.751C84.7203 157.362 83.9787 156.757 83.4484 155.937C82.9181 155.117 82.6571 154.081 82.6653 152.83V134.335Z" fill="white"/>
<path d="M103.846 158.373C101.883 158.373 100.192 157.975 98.7753 157.18C97.3667 156.376 96.2812 155.241 95.5189 153.774C94.7566 152.299 94.3754 150.555 94.3754 148.542C94.3754 146.578 94.7566 144.854 95.5189 143.371C96.2812 141.888 97.3542 140.732 98.738 139.903C100.13 139.075 101.762 138.661 103.635 138.661C104.894 138.661 106.067 138.864 107.152 139.27C108.246 139.667 109.199 140.268 110.011 141.072C110.831 141.876 111.469 142.886 111.925 144.104C112.381 145.314 112.609 146.731 112.609 148.355V149.809H96.4884V146.528H107.625C107.625 145.766 107.459 145.09 107.128 144.502C106.796 143.914 106.336 143.454 105.748 143.123C105.168 142.783 104.493 142.613 103.722 142.613C102.918 142.613 102.206 142.799 101.584 143.172C100.971 143.537 100.49 144.03 100.142 144.651C99.7945 145.264 99.6163 145.948 99.608 146.702V149.822C99.608 150.766 99.782 151.583 100.13 152.27C100.486 152.958 100.988 153.488 101.634 153.861C102.28 154.234 103.047 154.42 103.933 154.42C104.522 154.42 105.06 154.338 105.549 154.172C106.038 154.006 106.456 153.758 106.804 153.426C107.152 153.095 107.418 152.689 107.6 152.208L112.497 152.531C112.248 153.708 111.739 154.735 110.968 155.614C110.206 156.484 109.22 157.163 108.01 157.652C106.809 158.133 105.421 158.373 103.846 158.373Z" fill="white"/>
<path d="M121.709 132.545V158H116.414V132.545H121.709Z" fill="white"/>
<path d="M131.595 132.545V158H126.3V132.545H131.595Z" fill="white"/>
<path d="M144.887 158.373C142.923 158.373 141.232 157.975 139.816 157.18C138.407 156.376 137.321 155.241 136.559 153.774C135.797 152.299 135.416 150.555 135.416 148.542C135.416 146.578 135.797 144.854 136.559 143.371C137.321 141.888 138.394 140.732 139.778 139.903C141.17 139.075 142.803 138.661 144.675 138.661C145.935 138.661 147.107 138.864 148.193 139.27C149.286 139.667 150.239 140.268 151.051 141.072C151.872 141.876 152.51 142.886 152.965 144.104C153.421 145.314 153.649 146.731 153.649 148.355V149.809H137.529V146.528H148.665C148.665 145.766 148.499 145.09 148.168 144.502C147.836 143.914 147.376 143.454 146.788 143.123C146.208 142.783 145.533 142.613 144.762 142.613C143.959 142.613 143.246 142.799 142.624 143.172C142.011 143.537 141.531 144.03 141.183 144.651C140.835 145.264 140.657 145.948 140.648 146.702V149.822C140.648 150.766 140.822 151.583 141.17 152.27C141.527 152.958 142.028 153.488 142.674 153.861C143.32 154.234 144.087 154.42 144.974 154.42C145.562 154.42 146.1 154.338 146.589 154.172C147.078 154.006 147.497 153.758 147.845 153.426C148.193 153.095 148.458 152.689 148.64 152.208L153.537 152.531C153.289 153.708 152.779 154.735 152.008 155.614C151.246 156.484 150.26 157.163 149.05 157.652C147.849 158.133 146.461 158.373 144.887 158.373Z" fill="white"/>
<path d="M162.749 146.963V158H157.454V138.909H162.5V142.277H162.724C163.147 141.167 163.855 140.289 164.849 139.642C165.844 138.988 167.049 138.661 168.466 138.661C169.792 138.661 170.948 138.951 171.934 139.531C172.92 140.111 173.686 140.939 174.233 142.016C174.78 143.085 175.054 144.361 175.054 145.845V158H169.759V146.789C169.767 145.621 169.469 144.709 168.864 144.055C168.259 143.392 167.426 143.06 166.366 143.06C165.653 143.06 165.023 143.214 164.477 143.52C163.938 143.827 163.515 144.274 163.209 144.863C162.911 145.443 162.757 146.143 162.749 146.963Z" fill="white"/>
<path d="M201.935 139.866C201.836 138.864 201.409 138.085 200.655 137.53C199.901 136.974 198.878 136.697 197.585 136.697C196.707 136.697 195.965 136.821 195.36 137.07C194.756 137.31 194.291 137.646 193.968 138.076C193.653 138.507 193.496 138.996 193.496 139.543C193.479 139.999 193.575 140.396 193.782 140.736C193.997 141.076 194.291 141.37 194.664 141.619C195.037 141.859 195.468 142.07 195.957 142.253C196.446 142.427 196.968 142.576 197.523 142.7L199.81 143.247C200.92 143.495 201.939 143.827 202.867 144.241C203.796 144.655 204.599 145.165 205.279 145.77C205.958 146.375 206.484 147.087 206.857 147.908C207.238 148.728 207.433 149.668 207.441 150.729C207.433 152.287 207.035 153.637 206.248 154.781C205.469 155.916 204.342 156.799 202.867 157.428C201.401 158.05 199.632 158.36 197.56 158.36C195.505 158.36 193.716 158.046 192.191 157.416C190.675 156.786 189.49 155.854 188.636 154.619C187.791 153.376 187.348 151.839 187.306 150.008H192.514C192.572 150.862 192.817 151.574 193.247 152.146C193.687 152.709 194.271 153.136 195 153.426C195.737 153.708 196.57 153.849 197.498 153.849C198.41 153.849 199.201 153.716 199.872 153.451C200.552 153.186 201.078 152.817 201.451 152.345C201.823 151.873 202.01 151.33 202.01 150.717C202.01 150.145 201.84 149.664 201.5 149.275C201.169 148.885 200.68 148.554 200.034 148.281C199.396 148.007 198.613 147.759 197.685 147.535L194.913 146.839C192.767 146.317 191.072 145.501 189.829 144.39C188.587 143.28 187.969 141.784 187.978 139.903C187.969 138.362 188.379 137.016 189.208 135.864C190.045 134.712 191.193 133.813 192.651 133.167C194.109 132.521 195.766 132.197 197.622 132.197C199.512 132.197 201.161 132.521 202.569 133.167C203.986 133.813 205.088 134.712 205.875 135.864C206.662 137.016 207.068 138.35 207.093 139.866H201.935Z" fill="white"/>
<path d="M211.312 158V138.909H216.607V158H211.312ZM213.972 136.448C213.184 136.448 212.509 136.187 211.946 135.665C211.391 135.135 211.113 134.501 211.113 133.764C211.113 133.034 211.391 132.409 211.946 131.887C212.509 131.356 213.184 131.091 213.972 131.091C214.759 131.091 215.43 131.356 215.985 131.887C216.549 132.409 216.83 133.034 216.83 133.764C216.83 134.501 216.549 135.135 215.985 135.665C215.43 136.187 214.759 136.448 213.972 136.448Z" fill="white"/>
<path d="M229.898 158.373C227.934 158.373 226.244 157.975 224.827 157.18C223.419 156.376 222.333 155.241 221.571 153.774C220.809 152.299 220.427 150.555 220.427 148.542C220.427 146.578 220.809 144.854 221.571 143.371C222.333 141.888 223.406 140.732 224.79 139.903C226.182 139.075 227.814 138.661 229.687 138.661C230.946 138.661 232.119 138.864 233.204 139.27C234.298 139.667 235.251 140.268 236.063 141.072C236.883 141.876 237.521 142.886 237.977 144.104C238.433 145.314 238.661 146.731 238.661 148.355V149.809H222.54V146.528H233.677C233.677 145.766 233.511 145.09 233.18 144.502C232.848 143.914 232.388 143.454 231.8 143.123C231.22 142.783 230.545 142.613 229.774 142.613C228.97 142.613 228.258 142.799 227.636 143.172C227.023 143.537 226.542 144.03 226.194 144.651C225.846 145.264 225.668 145.948 225.66 146.702V149.822C225.66 150.766 225.834 151.583 226.182 152.27C226.538 152.958 227.04 153.488 227.686 153.861C228.332 154.234 229.099 154.42 229.985 154.42C230.574 154.42 231.112 154.338 231.601 154.172C232.09 154.006 232.508 153.758 232.856 153.426C233.204 153.095 233.47 152.689 233.652 152.208L238.549 152.531C238.3 153.708 237.791 154.735 237.02 155.614C236.258 156.484 235.272 157.163 234.062 157.652C232.86 158.133 231.473 158.373 229.898 158.373Z" fill="white"/>
<path d="M266.801 144.353L261.953 144.651C261.871 144.237 261.692 143.864 261.419 143.533C261.146 143.193 260.785 142.924 260.338 142.725C259.899 142.518 259.372 142.414 258.759 142.414C257.939 142.414 257.247 142.588 256.684 142.936C256.12 143.276 255.838 143.732 255.838 144.303C255.838 144.759 256.021 145.144 256.385 145.459C256.75 145.774 257.375 146.027 258.262 146.217L261.717 146.913C263.573 147.295 264.957 147.908 265.869 148.753C266.78 149.598 267.236 150.708 267.236 152.084C267.236 153.335 266.867 154.433 266.13 155.378C265.4 156.322 264.398 157.06 263.122 157.59C261.854 158.112 260.392 158.373 258.734 158.373C256.207 158.373 254.194 157.847 252.694 156.794C251.202 155.734 250.328 154.292 250.071 152.469L255.279 152.196C255.437 152.966 255.818 153.555 256.423 153.961C257.027 154.358 257.802 154.557 258.747 154.557C259.675 154.557 260.421 154.379 260.984 154.023C261.556 153.658 261.846 153.19 261.854 152.618C261.846 152.138 261.643 151.744 261.245 151.438C260.847 151.123 260.234 150.882 259.406 150.717L256.099 150.058C254.235 149.685 252.847 149.039 251.936 148.119C251.033 147.199 250.581 146.027 250.581 144.602C250.581 143.375 250.912 142.319 251.575 141.432C252.246 140.546 253.187 139.862 254.397 139.381C255.615 138.901 257.04 138.661 258.672 138.661C261.083 138.661 262.981 139.17 264.365 140.189C265.757 141.208 266.569 142.596 266.801 144.353Z" fill="white"/>
<path d="M270.92 158V138.909H276.215V158H270.92ZM273.58 136.448C272.792 136.448 272.117 136.187 271.554 135.665C270.999 135.135 270.721 134.501 270.721 133.764C270.721 133.034 270.999 132.409 271.554 131.887C272.117 131.356 272.792 131.091 273.58 131.091C274.367 131.091 275.038 131.356 275.593 131.887C276.157 132.409 276.438 133.034 276.438 133.764C276.438 134.501 276.157 135.135 275.593 135.665C275.038 136.187 274.367 136.448 273.58 136.448Z" fill="white"/>
<path d="M289.432 158.373C287.476 158.373 285.794 157.959 284.386 157.13C282.985 156.293 281.908 155.133 281.154 153.65C280.408 152.167 280.035 150.46 280.035 148.529C280.035 146.574 280.412 144.858 281.166 143.384C281.929 141.9 283.01 140.744 284.41 139.916C285.811 139.079 287.476 138.661 289.407 138.661C291.072 138.661 292.531 138.963 293.782 139.568C295.033 140.173 296.023 141.022 296.752 142.116C297.482 143.21 297.883 144.494 297.958 145.969H292.962C292.821 145.016 292.448 144.249 291.843 143.669C291.246 143.081 290.463 142.787 289.494 142.787C288.674 142.787 287.957 143.011 287.344 143.458C286.739 143.897 286.266 144.539 285.927 145.385C285.587 146.23 285.417 147.253 285.417 148.455C285.417 149.673 285.583 150.708 285.914 151.562C286.254 152.415 286.73 153.066 287.344 153.513C287.957 153.961 288.674 154.184 289.494 154.184C290.099 154.184 290.641 154.06 291.122 153.811C291.611 153.563 292.013 153.202 292.328 152.73C292.651 152.25 292.862 151.674 292.962 151.003H297.958C297.875 152.461 297.477 153.745 296.765 154.856C296.06 155.958 295.087 156.819 293.844 157.441C292.601 158.062 291.13 158.373 289.432 158.373Z" fill="white"/>
<path d="M306.993 146.963V158H301.698V132.545H306.844V142.277H307.067C307.498 141.15 308.194 140.268 309.155 139.63C310.117 138.984 311.322 138.661 312.772 138.661C314.098 138.661 315.254 138.951 316.24 139.531C317.234 140.102 318.005 140.927 318.552 142.004C319.107 143.073 319.38 144.353 319.372 145.845V158H314.077V146.789C314.086 145.612 313.787 144.697 313.182 144.042C312.586 143.388 311.749 143.06 310.672 143.06C309.951 143.06 309.313 143.214 308.758 143.52C308.211 143.827 307.78 144.274 307.465 144.863C307.158 145.443 307.001 146.143 306.993 146.963Z" fill="white"/>
<path d="M337.821 132.545V158H332.439V132.545H337.821Z" fill="white"/>
<path d="M347.794 146.963V158H342.499V132.545H347.645V142.277H347.868C348.299 141.15 348.995 140.268 349.956 139.63C350.918 138.984 352.123 138.661 353.573 138.661C354.899 138.661 356.055 138.951 357.041 139.531C358.035 140.102 358.806 140.927 359.353 142.004C359.908 143.073 360.181 144.353 360.173 145.845V158H354.878V146.789C354.886 145.612 354.588 144.697 353.983 144.042C353.387 143.388 352.55 143.06 351.473 143.06C350.752 143.06 350.114 143.214 349.559 143.52C349.012 143.827 348.581 144.274 348.266 144.863C347.959 145.443 347.802 146.143 347.794 146.963Z" fill="white"/>
<path d="M364.69 158V138.909H369.823V142.24H370.022C370.37 141.055 370.954 140.16 371.774 139.555C372.595 138.942 373.539 138.636 374.608 138.636C374.873 138.636 375.159 138.652 375.466 138.685C375.772 138.719 376.042 138.764 376.274 138.822V143.52C376.025 143.446 375.681 143.379 375.242 143.321C374.803 143.263 374.401 143.234 374.036 143.234C373.257 143.234 372.561 143.404 371.948 143.744C371.343 144.075 370.863 144.539 370.507 145.136C370.159 145.733 369.985 146.42 369.985 147.199V158H364.69Z" fill="white"/>
<path d="M386.942 136.983V132.545H407.847V136.983H400.054V158H394.735V136.983H386.942Z" fill="white"/>
<path d="M409.558 158V138.909H414.691V142.24H414.89C415.238 141.055 415.822 140.16 416.643 139.555C417.463 138.942 418.408 138.636 419.476 138.636C419.742 138.636 420.027 138.652 420.334 138.685C420.641 138.719 420.91 138.764 421.142 138.822V143.52C420.893 143.446 420.55 143.379 420.11 143.321C419.671 143.263 419.269 143.234 418.905 143.234C418.126 143.234 417.43 143.404 416.817 143.744C416.212 144.075 415.731 144.539 415.375 145.136C415.027 145.733 414.853 146.42 414.853 147.199V158H409.558Z" fill="white"/>
<path d="M429.126 158.36C427.908 158.36 426.823 158.149 425.87 157.727C424.917 157.296 424.163 156.662 423.608 155.825C423.061 154.98 422.788 153.927 422.788 152.668C422.788 151.607 422.982 150.717 423.372 149.996C423.761 149.275 424.292 148.695 424.963 148.256C425.634 147.817 426.396 147.485 427.25 147.261C428.111 147.038 429.015 146.88 429.959 146.789C431.069 146.673 431.964 146.565 432.644 146.466C433.323 146.358 433.816 146.201 434.123 145.994C434.429 145.787 434.583 145.48 434.583 145.074V144.999C434.583 144.212 434.334 143.603 433.837 143.172C433.348 142.741 432.652 142.526 431.749 142.526C430.796 142.526 430.038 142.737 429.474 143.16C428.911 143.574 428.538 144.096 428.356 144.726L423.459 144.328C423.707 143.168 424.196 142.166 424.925 141.32C425.655 140.467 426.595 139.812 427.747 139.357C428.907 138.893 430.249 138.661 431.774 138.661C432.834 138.661 433.849 138.785 434.819 139.033C435.797 139.282 436.663 139.667 437.417 140.189C438.179 140.711 438.78 141.383 439.219 142.203C439.658 143.015 439.878 143.988 439.878 145.124V158H434.856V155.353H434.707C434.4 155.949 433.99 156.475 433.477 156.931C432.963 157.379 432.346 157.731 431.625 157.988C430.904 158.236 430.071 158.36 429.126 158.36ZM430.643 154.706C431.422 154.706 432.109 154.553 432.706 154.246C433.303 153.932 433.771 153.509 434.11 152.979C434.45 152.448 434.62 151.848 434.62 151.177V149.151C434.454 149.258 434.226 149.358 433.936 149.449C433.655 149.532 433.336 149.61 432.979 149.685C432.623 149.751 432.267 149.813 431.911 149.871C431.554 149.921 431.231 149.967 430.941 150.008C430.32 150.099 429.777 150.244 429.313 150.443C428.849 150.642 428.488 150.911 428.232 151.251C427.975 151.583 427.846 151.997 427.846 152.494C427.846 153.215 428.107 153.766 428.629 154.147C429.16 154.52 429.831 154.706 430.643 154.706Z" fill="white"/>
<path d="M456.578 149.871V138.909H461.873V158H456.789V154.532H456.59C456.159 155.651 455.443 156.55 454.44 157.229C453.446 157.909 452.232 158.249 450.798 158.249C449.522 158.249 448.4 157.959 447.43 157.379C446.461 156.799 445.702 155.974 445.156 154.905C444.617 153.836 444.344 152.556 444.335 151.065V138.909H449.63V150.12C449.638 151.247 449.941 152.138 450.537 152.792C451.134 153.447 451.934 153.774 452.936 153.774C453.574 153.774 454.171 153.629 454.726 153.339C455.281 153.041 455.729 152.602 456.068 152.022C456.416 151.442 456.586 150.725 456.578 149.871Z" fill="white"/>
<path d="M466.458 158V138.909H471.504V142.277H471.728C472.125 141.159 472.788 140.276 473.716 139.63C474.644 138.984 475.755 138.661 477.047 138.661C478.356 138.661 479.471 138.988 480.391 139.642C481.31 140.289 481.924 141.167 482.23 142.277H482.429C482.818 141.184 483.523 140.309 484.542 139.655C485.569 138.992 486.783 138.661 488.184 138.661C489.965 138.661 491.411 139.228 492.521 140.363C493.64 141.49 494.199 143.089 494.199 145.161V158H488.917V146.205C488.917 145.144 488.635 144.349 488.072 143.819C487.508 143.288 486.804 143.023 485.959 143.023C484.998 143.023 484.248 143.33 483.709 143.943C483.171 144.548 482.901 145.347 482.901 146.342V158H477.768V146.093C477.768 145.157 477.499 144.411 476.96 143.856C476.43 143.301 475.73 143.023 474.86 143.023C474.271 143.023 473.741 143.172 473.269 143.471C472.805 143.761 472.436 144.171 472.163 144.701C471.889 145.223 471.753 145.836 471.753 146.541V158H466.458Z" fill="white"/>
<path d="M504.026 146.963V158H498.732V132.545H503.877V142.277H504.101C504.532 141.15 505.228 140.268 506.189 139.63C507.15 138.984 508.356 138.661 509.806 138.661C511.132 138.661 512.287 138.951 513.273 139.531C514.268 140.102 515.038 140.927 515.585 142.004C516.14 143.073 516.414 144.353 516.406 145.845V158H511.111V146.789C511.119 145.612 510.821 144.697 510.216 144.042C509.619 143.388 508.782 143.06 507.705 143.06C506.984 143.06 506.346 143.214 505.791 143.52C505.244 143.827 504.813 144.274 504.499 144.863C504.192 145.443 504.035 146.143 504.026 146.963Z" fill="white"/>
<path d="M526.366 158.36C525.148 158.36 524.063 158.149 523.11 157.727C522.157 157.296 521.403 156.662 520.848 155.825C520.301 154.98 520.028 153.927 520.028 152.668C520.028 151.607 520.222 150.717 520.612 149.996C521.001 149.275 521.531 148.695 522.203 148.256C522.874 147.817 523.636 147.485 524.49 147.261C525.351 147.038 526.254 146.88 527.199 146.789C528.309 146.673 529.204 146.565 529.884 146.466C530.563 146.358 531.056 146.201 531.363 145.994C531.669 145.787 531.823 145.48 531.823 145.074V144.999C531.823 144.212 531.574 143.603 531.077 143.172C530.588 142.741 529.892 142.526 528.989 142.526C528.036 142.526 527.278 142.737 526.714 143.16C526.151 143.574 525.778 144.096 525.596 144.726L520.699 144.328C520.947 143.168 521.436 142.166 522.165 141.32C522.894 140.467 523.835 139.812 524.987 139.357C526.147 138.893 527.489 138.661 529.014 138.661C530.074 138.661 531.089 138.785 532.059 139.033C533.037 139.282 533.902 139.667 534.656 140.189C535.419 140.711 536.019 141.383 536.459 142.203C536.898 143.015 537.117 143.988 537.117 145.124V158H532.096V155.353H531.947C531.64 155.949 531.23 156.475 530.716 156.931C530.203 157.379 529.585 157.731 528.865 157.988C528.144 158.236 527.311 158.36 526.366 158.36ZM527.883 154.706C528.662 154.706 529.349 154.553 529.946 154.246C530.542 153.932 531.011 153.509 531.35 152.979C531.69 152.448 531.86 151.848 531.86 151.177V149.151C531.694 149.258 531.466 149.358 531.176 149.449C530.895 149.532 530.576 149.61 530.219 149.685C529.863 149.751 529.507 149.813 529.15 149.871C528.794 149.921 528.471 149.967 528.181 150.008C527.559 150.099 527.017 150.244 526.553 150.443C526.089 150.642 525.728 150.911 525.471 151.251C525.215 151.583 525.086 151.997 525.086 152.494C525.086 153.215 525.347 153.766 525.869 154.147C526.399 154.52 527.071 154.706 527.883 154.706Z" fill="white"/>
<path d="M553.818 149.871V138.909H559.112V158H554.029V154.532H553.83C553.399 155.651 552.682 156.55 551.68 157.229C550.686 157.909 549.472 158.249 548.038 158.249C546.762 158.249 545.639 157.959 544.67 157.379C543.7 156.799 542.942 155.974 542.395 154.905C541.857 153.836 541.583 152.556 541.575 151.065V138.909H546.87V150.12C546.878 151.247 547.181 152.138 547.777 152.792C548.374 153.447 549.173 153.774 550.176 153.774C550.814 153.774 551.411 153.629 551.966 153.339C552.521 153.041 552.968 152.602 553.308 152.022C553.656 151.442 553.826 150.725 553.818 149.871Z" fill="white"/>
<path d="M579.582 144.353L574.734 144.651C574.652 144.237 574.473 143.864 574.2 143.533C573.927 143.193 573.566 142.924 573.119 142.725C572.68 142.518 572.153 142.414 571.54 142.414C570.72 142.414 570.028 142.588 569.465 142.936C568.901 143.276 568.619 143.732 568.619 144.303C568.619 144.759 568.802 145.144 569.166 145.459C569.531 145.774 570.156 146.027 571.043 146.217L574.498 146.913C576.354 147.295 577.738 147.908 578.65 148.753C579.561 149.598 580.017 150.708 580.017 152.084C580.017 153.335 579.648 154.433 578.911 155.378C578.181 156.322 577.179 157.06 575.903 157.59C574.635 158.112 573.173 158.373 571.515 158.373C568.988 158.373 566.975 157.847 565.475 156.794C563.983 155.734 563.109 154.292 562.852 152.469L568.06 152.196C568.218 152.966 568.599 153.555 569.204 153.961C569.808 154.358 570.583 154.557 571.528 154.557C572.456 154.557 573.202 154.379 573.765 154.023C574.337 153.658 574.627 153.19 574.635 152.618C574.627 152.138 574.424 151.744 574.026 151.438C573.628 151.123 573.015 150.882 572.187 150.717L568.88 150.058C567.016 149.685 565.628 149.039 564.717 148.119C563.814 147.199 563.362 146.027 563.362 144.602C563.362 143.375 563.693 142.319 564.356 141.432C565.027 140.546 565.968 139.862 567.178 139.381C568.396 138.901 569.821 138.661 571.453 138.661C573.864 138.661 575.762 139.17 577.146 140.189C578.538 141.208 579.35 142.596 579.582 144.353Z" fill="white"/>
<path d="M75.9113 180.909L69.2369 200H63.271L56.5967 180.909H62.1897L66.1546 194.569H66.3534L70.3058 180.909H75.9113Z" fill="white"/>
<path d="M86.9813 200.373C85.0507 200.373 83.381 199.963 81.9724 199.142C80.5721 198.314 79.4908 197.162 78.7285 195.687C77.9662 194.204 77.585 192.485 77.585 190.529C77.585 188.557 77.9662 186.834 78.7285 185.359C79.4908 183.876 80.5721 182.724 81.9724 181.903C83.381 181.075 85.0507 180.661 86.9813 180.661C88.9119 180.661 90.5774 181.075 91.9778 181.903C93.3864 182.724 94.4718 183.876 95.2341 185.359C95.9965 186.834 96.3776 188.557 96.3776 190.529C96.3776 192.485 95.9965 194.204 95.2341 195.687C94.4718 197.162 93.3864 198.314 91.9778 199.142C90.5774 199.963 88.9119 200.373 86.9813 200.373ZM87.0062 196.271C87.8845 196.271 88.6178 196.023 89.2061 195.526C89.7944 195.02 90.2377 194.332 90.536 193.462C90.8426 192.592 90.9959 191.602 90.9959 190.492C90.9959 189.382 90.8426 188.391 90.536 187.521C90.2377 186.651 89.7944 185.964 89.2061 185.458C88.6178 184.953 87.8845 184.7 87.0062 184.7C86.1196 184.7 85.3738 184.953 84.7689 185.458C84.1724 185.964 83.7208 186.651 83.4142 187.521C83.1159 188.391 82.9667 189.382 82.9667 190.492C82.9667 191.602 83.1159 192.592 83.4142 193.462C83.7208 194.332 84.1724 195.02 84.7689 195.526C85.3738 196.023 86.1196 196.271 87.0062 196.271Z" fill="white"/>
<path d="M100.17 200V180.909H105.304V184.24H105.502C105.85 183.055 106.435 182.16 107.255 181.555C108.075 180.942 109.02 180.636 110.089 180.636C110.354 180.636 110.64 180.652 110.946 180.685C111.253 180.719 111.522 180.764 111.754 180.822V185.52C111.506 185.446 111.162 185.379 110.723 185.321C110.283 185.263 109.882 185.234 109.517 185.234C108.738 185.234 108.042 185.404 107.429 185.744C106.824 186.075 106.343 186.539 105.987 187.136C105.639 187.733 105.465 188.42 105.465 189.199V200H100.17Z" fill="white"/>
<path d="M118.409 196.52L118.272 197.887C118.164 198.981 117.957 200.07 117.651 201.156C117.352 202.25 117.038 203.24 116.706 204.126C116.383 205.013 116.122 205.709 115.923 206.215H112.493C112.617 205.726 112.787 205.042 113.002 204.164C113.218 203.294 113.421 202.316 113.611 201.231C113.802 200.145 113.922 199.039 113.972 197.912L114.034 196.52H118.409Z" fill="white"/>
<path d="M139.48 200.373C137.549 200.373 135.88 199.963 134.471 199.142C133.071 198.314 131.989 197.162 131.227 195.687C130.465 194.204 130.084 192.485 130.084 190.529C130.084 188.557 130.465 186.834 131.227 185.359C131.989 183.876 133.071 182.724 134.471 181.903C135.88 181.075 137.549 180.661 139.48 180.661C141.411 180.661 143.076 181.075 144.476 181.903C145.885 182.724 146.97 183.876 147.733 185.359C148.495 186.834 148.876 188.557 148.876 190.529C148.876 192.485 148.495 194.204 147.733 195.687C146.97 197.162 145.885 198.314 144.476 199.142C143.076 199.963 141.411 200.373 139.48 200.373ZM139.505 196.271C140.383 196.271 141.116 196.023 141.705 195.526C142.293 195.02 142.736 194.332 143.035 193.462C143.341 192.592 143.494 191.602 143.494 190.492C143.494 189.382 143.341 188.391 143.035 187.521C142.736 186.651 142.293 185.964 141.705 185.458C141.116 184.953 140.383 184.7 139.505 184.7C138.618 184.7 137.872 184.953 137.268 185.458C136.671 185.964 136.219 186.651 135.913 187.521C135.615 188.391 135.465 189.382 135.465 190.492C135.465 191.602 135.615 192.592 135.913 193.462C136.219 194.332 136.671 195.02 137.268 195.526C137.872 196.023 138.618 196.271 139.505 196.271Z" fill="white"/>
<path d="M152.669 200V180.909H157.802V184.24H158.001C158.349 183.055 158.933 182.16 159.754 181.555C160.574 180.942 161.519 180.636 162.587 180.636C162.853 180.636 163.138 180.652 163.445 180.685C163.752 180.719 164.021 180.764 164.253 180.822V185.52C164.004 185.446 163.66 185.379 163.221 185.321C162.782 185.263 162.38 185.234 162.016 185.234C161.237 185.234 160.541 185.404 159.928 185.744C159.323 186.075 158.842 186.539 158.486 187.136C158.138 187.733 157.964 188.42 157.964 189.199V200H152.669Z" fill="white"/>
<path d="M175.053 207.557C173.337 207.557 171.867 207.321 170.64 206.848C169.422 206.384 168.453 205.751 167.732 204.947C167.011 204.143 166.543 203.24 166.327 202.237L171.224 201.579C171.374 201.96 171.61 202.316 171.933 202.647C172.256 202.979 172.683 203.244 173.213 203.443C173.752 203.65 174.406 203.754 175.177 203.754C176.329 203.754 177.277 203.472 178.023 202.908C178.777 202.353 179.154 201.421 179.154 200.112V196.619H178.93C178.698 197.15 178.35 197.651 177.886 198.123C177.422 198.596 176.826 198.981 176.097 199.279C175.367 199.577 174.497 199.727 173.486 199.727C172.053 199.727 170.748 199.395 169.571 198.732C168.403 198.061 167.471 197.038 166.775 195.662C166.087 194.279 165.743 192.53 165.743 190.417C165.743 188.255 166.095 186.448 166.8 184.998C167.504 183.548 168.44 182.463 169.609 181.742C170.785 181.021 172.074 180.661 173.474 180.661C174.543 180.661 175.438 180.843 176.159 181.207C176.88 181.564 177.46 182.011 177.899 182.55C178.346 183.08 178.69 183.602 178.93 184.116H179.129V180.909H184.387V200.186C184.387 201.811 183.989 203.169 183.194 204.263C182.398 205.357 181.296 206.177 179.887 206.724C178.487 207.279 176.875 207.557 175.053 207.557ZM175.164 195.749C176.018 195.749 176.739 195.538 177.327 195.115C177.924 194.685 178.379 194.071 178.694 193.276C179.017 192.472 179.179 191.511 179.179 190.392C179.179 189.274 179.022 188.304 178.707 187.484C178.392 186.655 177.936 186.013 177.339 185.558C176.743 185.102 176.018 184.874 175.164 184.874C174.294 184.874 173.561 185.11 172.964 185.582C172.368 186.046 171.916 186.693 171.61 187.521C171.303 188.35 171.15 189.307 171.15 190.392C171.15 191.494 171.303 192.447 171.61 193.251C171.925 194.047 172.376 194.664 172.964 195.103C173.561 195.534 174.294 195.749 175.164 195.749Z" fill="white"/>
<path d="M194.394 200.36C193.176 200.36 192.091 200.149 191.138 199.727C190.185 199.296 189.431 198.662 188.876 197.825C188.329 196.98 188.055 195.927 188.055 194.668C188.055 193.607 188.25 192.717 188.639 191.996C189.029 191.275 189.559 190.695 190.23 190.256C190.901 189.817 191.664 189.485 192.517 189.261C193.379 189.038 194.282 188.88 195.227 188.789C196.337 188.673 197.232 188.565 197.911 188.466C198.591 188.358 199.084 188.201 199.39 187.994C199.697 187.787 199.85 187.48 199.85 187.074V186.999C199.85 186.212 199.602 185.603 199.105 185.172C198.616 184.741 197.92 184.526 197.017 184.526C196.064 184.526 195.305 184.737 194.742 185.16C194.179 185.574 193.806 186.096 193.623 186.726L188.726 186.328C188.975 185.168 189.464 184.166 190.193 183.32C190.922 182.467 191.863 181.812 193.014 181.357C194.174 180.893 195.517 180.661 197.041 180.661C198.102 180.661 199.117 180.785 200.086 181.033C201.064 181.282 201.93 181.667 202.684 182.189C203.446 182.711 204.047 183.383 204.486 184.203C204.926 185.015 205.145 185.988 205.145 187.124V200H200.124V197.353H199.975C199.668 197.949 199.258 198.475 198.744 198.931C198.23 199.379 197.613 199.731 196.892 199.988C196.171 200.236 195.339 200.36 194.394 200.36ZM195.91 196.706C196.689 196.706 197.377 196.553 197.974 196.246C198.57 195.932 199.038 195.509 199.378 194.979C199.718 194.448 199.888 193.848 199.888 193.177V191.151C199.722 191.258 199.494 191.358 199.204 191.449C198.922 191.532 198.603 191.61 198.247 191.685C197.891 191.751 197.534 191.813 197.178 191.871C196.822 191.921 196.499 191.967 196.209 192.008C195.587 192.099 195.044 192.244 194.58 192.443C194.116 192.642 193.756 192.911 193.499 193.251C193.242 193.583 193.114 193.997 193.114 194.494C193.114 195.215 193.375 195.766 193.897 196.147C194.427 196.52 195.098 196.706 195.91 196.706Z" fill="white"/>
<path d="M214.898 188.963V200H209.603V180.909H214.649V184.277H214.873C215.295 183.167 216.004 182.289 216.998 181.642C217.992 180.988 219.198 180.661 220.615 180.661C221.941 180.661 223.097 180.951 224.083 181.531C225.069 182.111 225.835 182.939 226.382 184.016C226.929 185.085 227.202 186.361 227.202 187.845V200H221.908V188.789C221.916 187.621 221.618 186.709 221.013 186.055C220.408 185.392 219.575 185.06 218.514 185.06C217.802 185.06 217.172 185.214 216.625 185.52C216.087 185.827 215.664 186.274 215.357 186.863C215.059 187.443 214.906 188.143 214.898 188.963Z" fill="white"/>
<path d="M231.725 200V180.909H237.02V200H231.725ZM234.385 178.448C233.598 178.448 232.923 178.187 232.359 177.665C231.804 177.135 231.526 176.501 231.526 175.764C231.526 175.034 231.804 174.409 232.359 173.887C232.923 173.356 233.598 173.091 234.385 173.091C235.172 173.091 235.843 173.356 236.399 173.887C236.962 174.409 237.244 175.034 237.244 175.764C237.244 176.501 236.962 177.135 236.399 177.665C235.843 178.187 235.172 178.448 234.385 178.448Z" fill="white"/>
<path d="M257.496 186.353L252.648 186.651C252.566 186.237 252.387 185.864 252.114 185.533C251.841 185.193 251.48 184.924 251.033 184.725C250.593 184.518 250.067 184.414 249.454 184.414C248.634 184.414 247.942 184.588 247.379 184.936C246.815 185.276 246.533 185.732 246.533 186.303C246.533 186.759 246.716 187.144 247.08 187.459C247.445 187.774 248.07 188.027 248.957 188.217L252.412 188.913C254.268 189.295 255.652 189.908 256.564 190.753C257.475 191.598 257.931 192.708 257.931 194.084C257.931 195.335 257.562 196.433 256.825 197.378C256.095 198.322 255.093 199.06 253.817 199.59C252.549 200.112 251.086 200.373 249.429 200.373C246.902 200.373 244.889 199.847 243.389 198.794C241.897 197.734 241.023 196.292 240.766 194.469L245.974 194.196C246.131 194.966 246.513 195.555 247.117 195.961C247.722 196.358 248.497 196.557 249.442 196.557C250.37 196.557 251.115 196.379 251.679 196.023C252.251 195.658 252.541 195.19 252.549 194.618C252.541 194.138 252.338 193.744 251.94 193.438C251.542 193.123 250.929 192.882 250.1 192.717L246.794 192.058C244.93 191.685 243.542 191.039 242.631 190.119C241.727 189.199 241.276 188.027 241.276 186.602C241.276 185.375 241.607 184.319 242.27 183.432C242.941 182.546 243.882 181.862 245.092 181.381C246.31 180.901 247.735 180.661 249.367 180.661C251.778 180.661 253.676 181.17 255.06 182.189C256.452 183.208 257.264 184.596 257.496 186.353Z" fill="white"/>
<path d="M261.615 200V180.909H266.91V200H261.615ZM264.275 178.448C263.487 178.448 262.812 178.187 262.249 177.665C261.693 177.135 261.416 176.501 261.416 175.764C261.416 175.034 261.693 174.409 262.249 173.887C262.812 173.356 263.487 173.091 264.275 173.091C265.062 173.091 265.733 173.356 266.288 173.887C266.852 174.409 267.133 175.034 267.133 175.764C267.133 176.501 266.852 177.135 266.288 177.665C265.733 178.187 265.062 178.448 264.275 178.448Z" fill="white"/>
<path d="M280.201 200.373C278.237 200.373 276.547 199.975 275.13 199.18C273.722 198.376 272.636 197.241 271.874 195.774C271.111 194.299 270.73 192.555 270.73 190.542C270.73 188.578 271.111 186.854 271.874 185.371C272.636 183.888 273.709 182.732 275.093 181.903C276.485 181.075 278.117 180.661 279.99 180.661C281.249 180.661 282.422 180.864 283.507 181.27C284.601 181.667 285.554 182.268 286.366 183.072C287.186 183.876 287.824 184.886 288.28 186.104C288.736 187.314 288.964 188.731 288.964 190.355V191.809H272.843V188.528H283.98C283.98 187.766 283.814 187.09 283.482 186.502C283.151 185.914 282.691 185.454 282.103 185.123C281.523 184.783 280.848 184.613 280.077 184.613C279.273 184.613 278.561 184.799 277.939 185.172C277.326 185.537 276.845 186.03 276.497 186.651C276.149 187.264 275.971 187.948 275.963 188.702V191.822C275.963 192.766 276.137 193.583 276.485 194.27C276.841 194.958 277.343 195.488 277.989 195.861C278.635 196.234 279.402 196.421 280.288 196.421C280.876 196.421 281.415 196.338 281.904 196.172C282.393 196.006 282.811 195.758 283.159 195.426C283.507 195.095 283.772 194.689 283.955 194.208L288.852 194.531C288.603 195.708 288.094 196.735 287.323 197.614C286.561 198.484 285.575 199.163 284.365 199.652C283.163 200.133 281.776 200.373 280.201 200.373Z" fill="white"/>
<path d="M292.769 200V180.909H297.902V184.24H298.101C298.449 183.055 299.033 182.16 299.853 181.555C300.674 180.942 301.618 180.636 302.687 180.636C302.952 180.636 303.238 180.652 303.545 180.685C303.851 180.719 304.121 180.764 304.353 180.822V185.52C304.104 185.446 303.76 185.379 303.321 185.321C302.882 185.263 302.48 185.234 302.115 185.234C301.337 185.234 300.641 185.404 300.027 185.744C299.423 186.075 298.942 186.539 298.586 187.136C298.238 187.733 298.064 188.42 298.064 189.199V200H292.769Z" fill="white"/>
<path d="M315.252 200.373C313.288 200.373 311.598 199.975 310.181 199.18C308.772 198.376 307.687 197.241 306.924 195.774C306.162 194.299 305.781 192.555 305.781 190.542C305.781 188.578 306.162 186.854 306.924 185.371C307.687 183.888 308.76 182.732 310.143 181.903C311.536 181.075 313.168 180.661 315.04 180.661C316.3 180.661 317.472 180.864 318.558 181.27C319.652 181.667 320.605 182.268 321.417 183.072C322.237 183.876 322.875 184.886 323.331 186.104C323.786 187.314 324.014 188.731 324.014 190.355V191.809H307.894V188.528H319.03C319.03 187.766 318.864 187.09 318.533 186.502C318.202 185.914 317.742 185.454 317.153 185.123C316.573 184.783 315.898 184.613 315.128 184.613C314.324 184.613 313.611 184.799 312.99 185.172C312.377 185.537 311.896 186.03 311.548 186.651C311.2 187.264 311.022 187.948 311.014 188.702V191.822C311.014 192.766 311.187 193.583 311.536 194.27C311.892 194.958 312.393 195.488 313.039 195.861C313.686 196.234 314.452 196.421 315.339 196.421C315.927 196.421 316.466 196.338 316.955 196.172C317.443 196.006 317.862 195.758 318.21 195.426C318.558 195.095 318.823 194.689 319.005 194.208L323.902 194.531C323.654 195.708 323.144 196.735 322.374 197.614C321.611 198.484 320.625 199.163 319.415 199.652C318.214 200.133 316.826 200.373 315.252 200.373Z" fill="white"/>
<path d="M333.114 188.963V200H327.819V180.909H332.866V184.277H333.089C333.512 183.167 334.22 182.289 335.215 181.642C336.209 180.988 337.415 180.661 338.832 180.661C340.157 180.661 341.313 180.951 342.299 181.531C343.285 182.111 344.052 182.939 344.599 184.016C345.145 185.085 345.419 186.361 345.419 187.845V200H340.124V188.789C340.132 187.621 339.834 186.709 339.229 186.055C338.624 185.392 337.792 185.06 336.731 185.06C336.018 185.06 335.389 185.214 334.842 185.52C334.303 185.827 333.881 186.274 333.574 186.863C333.276 187.443 333.123 188.143 333.114 188.963Z" fill="white"/>
<path d="M372.301 181.866C372.201 180.864 371.774 180.085 371.02 179.53C370.266 178.974 369.243 178.697 367.95 178.697C367.072 178.697 366.33 178.821 365.726 179.07C365.121 179.31 364.657 179.646 364.334 180.076C364.019 180.507 363.861 180.996 363.861 181.543C363.845 181.999 363.94 182.396 364.147 182.736C364.363 183.076 364.657 183.37 365.03 183.619C365.402 183.859 365.833 184.07 366.322 184.253C366.811 184.427 367.333 184.576 367.888 184.7L370.175 185.247C371.285 185.495 372.305 185.827 373.233 186.241C374.161 186.655 374.964 187.165 375.644 187.77C376.323 188.375 376.85 189.087 377.222 189.908C377.604 190.728 377.798 191.668 377.807 192.729C377.798 194.287 377.401 195.637 376.613 196.781C375.834 197.916 374.708 198.799 373.233 199.428C371.766 200.05 369.997 200.36 367.926 200.36C365.871 200.36 364.081 200.046 362.556 199.416C361.04 198.786 359.855 197.854 359.002 196.619C358.156 195.376 357.713 193.839 357.672 192.008H362.879C362.937 192.862 363.182 193.574 363.613 194.146C364.052 194.709 364.636 195.136 365.365 195.426C366.103 195.708 366.935 195.849 367.863 195.849C368.775 195.849 369.566 195.716 370.237 195.451C370.917 195.186 371.443 194.817 371.816 194.345C372.189 193.873 372.375 193.33 372.375 192.717C372.375 192.145 372.205 191.664 371.866 191.275C371.534 190.885 371.045 190.554 370.399 190.281C369.761 190.007 368.978 189.759 368.05 189.535L365.278 188.839C363.132 188.317 361.438 187.501 360.195 186.39C358.952 185.28 358.334 183.784 358.343 181.903C358.334 180.362 358.745 179.016 359.573 177.864C360.41 176.712 361.558 175.813 363.016 175.167C364.474 174.521 366.132 174.197 367.988 174.197C369.877 174.197 371.526 174.521 372.934 175.167C374.351 175.813 375.453 176.712 376.241 177.864C377.028 179.016 377.434 180.35 377.459 181.866H372.301Z" fill="white"/>
<path d="M381.677 200V180.909H386.972V200H381.677ZM384.337 178.448C383.55 178.448 382.874 178.187 382.311 177.665C381.756 177.135 381.478 176.501 381.478 175.764C381.478 175.034 381.756 174.409 382.311 173.887C382.874 173.356 383.55 173.091 384.337 173.091C385.124 173.091 385.795 173.356 386.35 173.887C386.914 174.409 387.196 175.034 387.196 175.764C387.196 176.501 386.914 177.135 386.35 177.665C385.795 178.187 385.124 178.448 384.337 178.448Z" fill="white"/>
<path d="M400.263 200.373C398.3 200.373 396.609 199.975 395.192 199.18C393.784 198.376 392.698 197.241 391.936 195.774C391.174 194.299 390.793 192.555 390.793 190.542C390.793 188.578 391.174 186.854 391.936 185.371C392.698 183.888 393.771 182.732 395.155 181.903C396.547 181.075 398.18 180.661 400.052 180.661C401.312 180.661 402.484 180.864 403.57 181.27C404.663 181.667 405.616 182.268 406.428 183.072C407.249 183.876 407.887 184.886 408.342 186.104C408.798 187.314 409.026 188.731 409.026 190.355V191.809H392.906V188.528H404.042C404.042 187.766 403.876 187.09 403.545 186.502C403.213 185.914 402.753 185.454 402.165 185.123C401.585 184.783 400.91 184.613 400.139 184.613C399.335 184.613 398.623 184.799 398.001 185.172C397.388 185.537 396.908 186.03 396.56 186.651C396.212 187.264 396.033 187.948 396.025 188.702V191.822C396.025 192.766 396.199 193.583 396.547 194.27C396.904 194.958 397.405 195.488 398.051 195.861C398.697 196.234 399.464 196.421 400.35 196.421C400.939 196.421 401.477 196.338 401.966 196.172C402.455 196.006 402.874 195.758 403.222 195.426C403.57 195.095 403.835 194.689 404.017 194.208L408.914 194.531C408.665 195.708 408.156 196.735 407.385 197.614C406.623 198.484 405.637 199.163 404.427 199.652C403.226 200.133 401.838 200.373 400.263 200.373Z" fill="white"/>
<path d="M429.982 200.373C428.018 200.373 426.328 199.975 424.911 199.18C423.502 198.376 422.417 197.241 421.655 195.774C420.892 194.299 420.511 192.555 420.511 190.542C420.511 188.578 420.892 186.854 421.655 185.371C422.417 183.888 423.49 182.732 424.874 181.903C426.266 181.075 427.898 180.661 429.771 180.661C431.03 180.661 432.203 180.864 433.288 181.27C434.382 181.667 435.335 182.268 436.147 183.072C436.967 183.876 437.605 184.886 438.061 186.104C438.517 187.314 438.745 188.731 438.745 190.355V191.809H422.624V188.528H433.76C433.76 187.766 433.595 187.09 433.263 186.502C432.932 185.914 432.472 185.454 431.884 185.123C431.304 184.783 430.628 184.613 429.858 184.613C429.054 184.613 428.341 184.799 427.72 185.172C427.107 185.537 426.626 186.03 426.278 186.651C425.93 187.264 425.752 187.948 425.744 188.702V191.822C425.744 192.766 425.918 193.583 426.266 194.27C426.622 194.958 427.123 195.488 427.77 195.861C428.416 196.234 429.182 196.421 430.069 196.421C430.657 196.421 431.196 196.338 431.685 196.172C432.174 196.006 432.592 195.758 432.94 195.426C433.288 195.095 433.553 194.689 433.736 194.208L438.633 194.531C438.384 195.708 437.874 196.735 437.104 197.614C436.342 198.484 435.356 199.163 434.146 199.652C432.944 200.133 431.556 200.373 429.982 200.373Z" fill="white"/>
<path d="M458.434 186.353L453.587 186.651C453.504 186.237 453.326 185.864 453.052 185.533C452.779 185.193 452.418 184.924 451.971 184.725C451.532 184.518 451.006 184.414 450.392 184.414C449.572 184.414 448.88 184.588 448.317 184.936C447.753 185.276 447.472 185.732 447.472 186.303C447.472 186.759 447.654 187.144 448.018 187.459C448.383 187.774 449.009 188.027 449.895 188.217L453.35 188.913C455.207 189.295 456.59 189.908 457.502 190.753C458.413 191.598 458.869 192.708 458.869 194.084C458.869 195.335 458.5 196.433 457.763 197.378C457.034 198.322 456.031 199.06 454.755 199.59C453.487 200.112 452.025 200.373 450.368 200.373C447.84 200.373 445.827 199.847 444.327 198.794C442.836 197.734 441.961 196.292 441.705 194.469L446.912 194.196C447.07 194.966 447.451 195.555 448.056 195.961C448.661 196.358 449.435 196.557 450.38 196.557C451.308 196.557 452.054 196.379 452.617 196.023C453.189 195.658 453.479 195.19 453.487 194.618C453.479 194.138 453.276 193.744 452.878 193.438C452.48 193.123 451.867 192.882 451.039 192.717L447.733 192.058C445.868 191.685 444.48 191.039 443.569 190.119C442.666 189.199 442.214 188.027 442.214 186.602C442.214 185.375 442.546 184.319 443.208 183.432C443.88 182.546 444.82 181.862 446.03 181.381C447.248 180.901 448.673 180.661 450.305 180.661C452.717 180.661 454.614 181.17 455.998 182.189C457.39 183.208 458.202 184.596 458.434 186.353Z" fill="white"/>
<path d="M483.246 191.871V180.909H488.541V200H483.457V196.532H483.259C482.828 197.651 482.111 198.55 481.108 199.229C480.114 199.909 478.9 200.249 477.467 200.249C476.191 200.249 475.068 199.959 474.098 199.379C473.129 198.799 472.371 197.974 471.824 196.905C471.285 195.836 471.012 194.556 471.004 193.065V180.909H476.298V192.12C476.307 193.247 476.609 194.138 477.206 194.792C477.802 195.447 478.602 195.774 479.604 195.774C480.243 195.774 480.839 195.629 481.394 195.339C481.949 195.041 482.397 194.602 482.737 194.022C483.085 193.442 483.254 192.725 483.246 191.871Z" fill="white"/>
<path d="M498.421 188.963V200H493.126V180.909H498.172V184.277H498.396C498.819 183.167 499.527 182.289 500.521 181.642C501.516 180.988 502.721 180.661 504.138 180.661C505.464 180.661 506.62 180.951 507.606 181.531C508.592 182.111 509.358 182.939 509.905 184.016C510.452 185.085 510.726 186.361 510.726 187.845V200H505.431V188.789C505.439 187.621 505.141 186.709 504.536 186.055C503.931 185.392 503.098 185.06 502.038 185.06C501.325 185.06 500.695 185.214 500.148 185.52C499.61 185.827 499.187 186.274 498.881 186.863C498.582 187.443 498.429 188.143 498.421 188.963Z" fill="white"/>
<path d="M522.283 200.311C520.833 200.311 519.52 199.938 518.343 199.192C517.175 198.438 516.247 197.332 515.559 195.874C514.88 194.407 514.54 192.609 514.54 190.479C514.54 188.292 514.892 186.473 515.597 185.023C516.301 183.565 517.237 182.475 518.406 181.754C519.582 181.025 520.871 180.661 522.271 180.661C523.34 180.661 524.231 180.843 524.943 181.207C525.664 181.564 526.244 182.011 526.683 182.55C527.131 183.08 527.47 183.602 527.702 184.116H527.864V174.545H533.146V200H527.926V196.943H527.702C527.454 197.473 527.102 197.999 526.646 198.521C526.198 199.035 525.614 199.461 524.893 199.801C524.181 200.141 523.311 200.311 522.283 200.311ZM523.961 196.097C524.815 196.097 525.536 195.865 526.124 195.401C526.721 194.929 527.176 194.27 527.491 193.425C527.814 192.58 527.976 191.59 527.976 190.455C527.976 189.319 527.818 188.333 527.504 187.496C527.189 186.66 526.733 186.013 526.136 185.558C525.54 185.102 524.815 184.874 523.961 184.874C523.091 184.874 522.358 185.11 521.761 185.582C521.165 186.055 520.713 186.709 520.407 187.546C520.1 188.383 519.947 189.353 519.947 190.455C519.947 191.565 520.1 192.547 520.407 193.4C520.721 194.245 521.173 194.908 521.761 195.389C522.358 195.861 523.091 196.097 523.961 196.097Z" fill="white"/>
<path d="M63.4078 216.546V242H58.113V216.546H63.4078Z" fill="white"/>
<path d="M76.6994 242.373C74.7357 242.373 73.0453 241.975 71.6284 241.18C70.2198 240.376 69.1343 239.241 68.372 237.774C67.6097 236.299 67.2286 234.555 67.2286 232.542C67.2286 230.578 67.6097 228.854 68.372 227.371C69.1343 225.888 70.2074 224.732 71.5911 223.903C72.9832 223.075 74.6155 222.661 76.4881 222.661C77.7476 222.661 78.9201 222.864 80.0055 223.27C81.0993 223.667 82.0522 224.268 82.8642 225.072C83.6845 225.876 84.3225 226.886 84.7783 228.104C85.234 229.314 85.4619 230.731 85.4619 232.355V233.809H69.3415V230.528H80.4778C80.4778 229.766 80.3121 229.09 79.9807 228.502C79.6492 227.914 79.1894 227.454 78.6011 227.123C78.021 226.783 77.3457 226.613 76.5751 226.613C75.7714 226.613 75.0588 226.799 74.4374 227.172C73.8242 227.537 73.3436 228.03 72.9956 228.651C72.6476 229.264 72.4694 229.948 72.4612 230.702V233.822C72.4612 234.766 72.6352 235.583 72.9832 236.27C73.3395 236.958 73.8408 237.488 74.4871 237.861C75.1334 238.234 75.8998 238.421 76.7864 238.421C77.3747 238.421 77.9133 238.338 78.4022 238.172C78.8911 238.006 79.3095 237.758 79.6575 237.426C80.0055 237.095 80.2707 236.689 80.453 236.208L85.35 236.531C85.1014 237.708 84.5918 238.735 83.8212 239.614C83.0589 240.484 82.0729 241.163 80.8631 241.652C79.6617 242.133 78.2738 242.373 76.6994 242.373Z" fill="white"/>
<path d="M89.3665 242V216.546H94.6613V226.116H94.8229C95.0549 225.602 95.3905 225.08 95.8296 224.55C96.2771 224.011 96.8571 223.564 97.5697 223.207C98.2906 222.843 99.1854 222.661 100.254 222.661C101.646 222.661 102.931 223.025 104.107 223.754C105.284 224.475 106.224 225.565 106.929 227.023C107.633 228.473 107.985 230.292 107.985 232.479C107.985 234.609 107.641 236.407 106.954 237.874C106.274 239.332 105.346 240.438 104.169 241.192C103.001 241.938 101.692 242.311 100.242 242.311C99.2144 242.311 98.3403 242.141 97.6194 241.801C96.9068 241.461 96.3226 241.035 95.8669 240.521C95.4112 239.999 95.0632 239.473 94.8229 238.943H94.5867V242H89.3665ZM94.5494 232.455C94.5494 233.59 94.7069 234.58 95.0217 235.425C95.3366 236.27 95.7923 236.929 96.3889 237.401C96.9855 237.865 97.7105 238.097 98.564 238.097C99.4257 238.097 100.155 237.861 100.751 237.389C101.348 236.908 101.8 236.245 102.106 235.4C102.421 234.547 102.579 233.565 102.579 232.455C102.579 231.353 102.425 230.383 102.119 229.546C101.812 228.709 101.361 228.055 100.764 227.582C100.167 227.11 99.434 226.874 98.564 226.874C97.7022 226.874 96.9731 227.102 96.3765 227.558C95.7882 228.013 95.3366 228.66 95.0217 229.496C94.7069 230.333 94.5494 231.319 94.5494 232.455Z" fill="white"/>
<path d="M120.568 242.373C118.605 242.373 116.914 241.975 115.497 241.18C114.089 240.376 113.003 239.241 112.241 237.774C111.479 236.299 111.097 234.555 111.097 232.542C111.097 230.578 111.479 228.854 112.241 227.371C113.003 225.888 114.076 224.732 115.46 223.903C116.852 223.075 118.484 222.661 120.357 222.661C121.617 222.661 122.789 222.864 123.874 223.27C124.968 223.667 125.921 224.268 126.733 225.072C127.553 225.876 128.191 226.886 128.647 228.104C129.103 229.314 129.331 230.731 129.331 232.355V233.809H113.21V230.528H124.347C124.347 229.766 124.181 229.09 123.85 228.502C123.518 227.914 123.058 227.454 122.47 227.123C121.89 226.783 121.215 226.613 120.444 226.613C119.64 226.613 118.928 226.799 118.306 227.172C117.693 227.537 117.213 228.03 116.865 228.651C116.517 229.264 116.338 229.948 116.33 230.702V233.822C116.33 234.766 116.504 235.583 116.852 236.27C117.208 236.958 117.71 237.488 118.356 237.861C119.002 238.234 119.769 238.421 120.655 238.421C121.244 238.421 121.782 238.338 122.271 238.172C122.76 238.006 123.178 237.758 123.526 237.426C123.874 237.095 124.14 236.689 124.322 236.208L129.219 236.531C128.97 237.708 128.461 238.735 127.69 239.614C126.928 240.484 125.942 241.163 124.732 241.652C123.531 242.133 122.143 242.373 120.568 242.373Z" fill="white"/>
<path d="M138.431 230.963V242H133.136V222.909H138.182V226.277H138.406C138.829 225.167 139.537 224.289 140.531 223.642C141.526 222.988 142.731 222.661 144.148 222.661C145.474 222.661 146.63 222.951 147.616 223.531C148.602 224.111 149.368 224.939 149.915 226.016C150.462 227.085 150.735 228.361 150.735 229.845V242H145.441V230.789C145.449 229.621 145.151 228.709 144.546 228.055C143.941 227.392 143.108 227.06 142.048 227.06C141.335 227.06 140.705 227.214 140.158 227.52C139.62 227.827 139.197 228.274 138.891 228.863C138.592 229.443 138.439 230.143 138.431 230.963Z" fill="white"/>
<path d="M177.617 223.866C177.518 222.864 177.091 222.085 176.337 221.53C175.583 220.974 174.56 220.697 173.267 220.697C172.389 220.697 171.647 220.821 171.042 221.07C170.437 221.31 169.973 221.646 169.65 222.076C169.335 222.507 169.178 222.996 169.178 223.543C169.161 223.999 169.257 224.396 169.464 224.736C169.679 225.076 169.973 225.37 170.346 225.619C170.719 225.859 171.15 226.07 171.639 226.253C172.128 226.427 172.65 226.576 173.205 226.7L175.492 227.247C176.602 227.495 177.621 227.827 178.549 228.241C179.477 228.655 180.281 229.165 180.961 229.77C181.64 230.375 182.166 231.087 182.539 231.908C182.92 232.728 183.115 233.668 183.123 234.729C183.115 236.287 182.717 237.637 181.93 238.781C181.151 239.916 180.024 240.799 178.549 241.428C177.083 242.05 175.314 242.36 173.242 242.36C171.187 242.36 169.397 242.046 167.873 241.416C166.356 240.786 165.172 239.854 164.318 238.619C163.473 237.376 163.03 235.839 162.988 234.008H168.196C168.254 234.862 168.498 235.574 168.929 236.146C169.368 236.709 169.953 237.136 170.682 237.426C171.419 237.708 172.252 237.849 173.18 237.849C174.091 237.849 174.883 237.716 175.554 237.451C176.233 237.186 176.76 236.817 177.132 236.345C177.505 235.873 177.692 235.33 177.692 234.717C177.692 234.145 177.522 233.664 177.182 233.275C176.851 232.885 176.362 232.554 175.715 232.281C175.077 232.007 174.294 231.759 173.366 231.535L170.595 230.839C168.449 230.317 166.754 229.501 165.511 228.39C164.268 227.28 163.651 225.784 163.659 223.903C163.651 222.362 164.061 221.016 164.89 219.864C165.727 218.712 166.874 217.813 168.333 217.167C169.791 216.521 171.448 216.197 173.304 216.197C175.193 216.197 176.842 216.521 178.251 217.167C179.668 217.813 180.77 218.712 181.557 219.864C182.344 221.016 182.75 222.35 182.775 223.866H177.617Z" fill="white"/>
<path d="M186.994 242V222.909H192.288V242H186.994ZM189.653 220.448C188.866 220.448 188.191 220.187 187.628 219.665C187.072 219.135 186.795 218.501 186.795 217.764C186.795 217.034 187.072 216.409 187.628 215.887C188.191 215.356 188.866 215.091 189.653 215.091C190.441 215.091 191.112 215.356 191.667 215.887C192.23 216.409 192.512 217.034 192.512 217.764C192.512 218.501 192.23 219.135 191.667 219.665C191.112 220.187 190.441 220.448 189.653 220.448Z" fill="white"/>
<path d="M205.58 242.373C203.616 242.373 201.926 241.975 200.509 241.18C199.1 240.376 198.015 239.241 197.253 237.774C196.49 236.299 196.109 234.555 196.109 232.542C196.109 230.578 196.49 228.854 197.253 227.371C198.015 225.888 199.088 224.732 200.472 223.903C201.864 223.075 203.496 222.661 205.369 222.661C206.628 222.661 207.801 222.864 208.886 223.27C209.98 223.667 210.933 224.268 211.745 225.072C212.565 225.876 213.203 226.886 213.659 228.104C214.115 229.314 214.343 230.731 214.343 232.355V233.809H198.222V230.528H209.359C209.359 229.766 209.193 229.09 208.861 228.502C208.53 227.914 208.07 227.454 207.482 227.123C206.902 226.783 206.226 226.613 205.456 226.613C204.652 226.613 203.939 226.799 203.318 227.172C202.705 227.537 202.224 228.03 201.876 228.651C201.528 229.264 201.35 229.948 201.342 230.702V233.822C201.342 234.766 201.516 235.583 201.864 236.27C202.22 236.958 202.721 237.488 203.368 237.861C204.014 238.234 204.78 238.421 205.667 238.421C206.255 238.421 206.794 238.338 207.283 238.172C207.772 238.006 208.19 237.758 208.538 237.426C208.886 237.095 209.151 236.689 209.334 236.208L214.231 236.531C213.982 237.708 213.473 238.735 212.702 239.614C211.94 240.484 210.954 241.163 209.744 241.652C208.542 242.133 207.154 242.373 205.58 242.373Z" fill="white"/>
<path d="M233.633 242.311C232.183 242.311 230.87 241.938 229.693 241.192C228.525 240.438 227.597 239.332 226.909 237.874C226.23 236.407 225.89 234.609 225.89 232.479C225.89 230.292 226.242 228.473 226.946 227.023C227.651 225.565 228.587 224.475 229.755 223.754C230.932 223.025 232.22 222.661 233.621 222.661C234.69 222.661 235.58 222.843 236.293 223.207C237.014 223.564 237.594 224.011 238.033 224.55C238.48 225.08 238.82 225.602 239.052 226.116H239.214V216.546H244.496V242H239.276V238.943H239.052C238.804 239.473 238.451 239.999 237.996 240.521C237.548 241.035 236.964 241.461 236.243 241.801C235.531 242.141 234.661 242.311 233.633 242.311ZM235.311 238.097C236.165 238.097 236.885 237.865 237.474 237.401C238.07 236.929 238.526 236.27 238.841 235.425C239.164 234.58 239.326 233.59 239.326 232.455C239.326 231.319 239.168 230.333 238.853 229.496C238.538 228.66 238.083 228.013 237.486 227.558C236.89 227.102 236.165 226.874 235.311 226.874C234.441 226.874 233.708 227.11 233.111 227.582C232.515 228.055 232.063 228.709 231.756 229.546C231.45 230.383 231.297 231.353 231.297 232.455C231.297 233.565 231.45 234.547 231.756 235.4C232.071 236.245 232.523 236.908 233.111 237.389C233.708 237.861 234.441 238.097 235.311 238.097Z" fill="white"/>
<path d="M254.643 242.36C253.425 242.36 252.34 242.149 251.387 241.727C250.434 241.296 249.68 240.662 249.125 239.825C248.578 238.98 248.304 237.927 248.304 236.668C248.304 235.607 248.499 234.717 248.889 233.996C249.278 233.275 249.808 232.695 250.48 232.256C251.151 231.817 251.913 231.485 252.766 231.261C253.628 231.038 254.531 230.88 255.476 230.789C256.586 230.673 257.481 230.565 258.161 230.466C258.84 230.358 259.333 230.201 259.64 229.994C259.946 229.787 260.1 229.48 260.1 229.074V228.999C260.1 228.212 259.851 227.603 259.354 227.172C258.865 226.741 258.169 226.526 257.266 226.526C256.313 226.526 255.555 226.737 254.991 227.16C254.428 227.574 254.055 228.096 253.873 228.726L248.976 228.328C249.224 227.168 249.713 226.166 250.442 225.32C251.171 224.467 252.112 223.812 253.264 223.357C254.424 222.893 255.766 222.661 257.291 222.661C258.351 222.661 259.366 222.785 260.336 223.033C261.313 223.282 262.179 223.667 262.933 224.189C263.696 224.711 264.296 225.382 264.736 226.203C265.175 227.015 265.394 227.988 265.394 229.124V242H260.373V239.353H260.224C259.917 239.949 259.507 240.475 258.993 240.931C258.48 241.379 257.862 241.731 257.141 241.988C256.421 242.236 255.588 242.36 254.643 242.36ZM256.16 238.706C256.938 238.706 257.626 238.553 258.223 238.246C258.819 237.932 259.288 237.509 259.627 236.979C259.967 236.448 260.137 235.848 260.137 235.177V233.151C259.971 233.258 259.743 233.358 259.453 233.449C259.172 233.532 258.853 233.61 258.496 233.685C258.14 233.751 257.784 233.813 257.427 233.871C257.071 233.921 256.748 233.967 256.458 234.008C255.836 234.099 255.294 234.244 254.83 234.443C254.366 234.642 254.005 234.911 253.748 235.251C253.491 235.583 253.363 235.997 253.363 236.494C253.363 237.215 253.624 237.766 254.146 238.147C254.676 238.52 255.348 238.706 256.16 238.706Z" fill="white"/>
<path d="M269.852 242V222.909H274.985V226.24H275.184C275.532 225.055 276.116 224.16 276.937 223.555C277.757 222.942 278.702 222.636 279.77 222.636C280.036 222.636 280.321 222.652 280.628 222.685C280.935 222.719 281.204 222.764 281.436 222.822V227.52C281.187 227.446 280.843 227.379 280.404 227.321C279.965 227.263 279.563 227.234 279.199 227.234C278.42 227.234 277.724 227.404 277.111 227.744C276.506 228.075 276.025 228.539 275.669 229.136C275.321 229.733 275.147 230.42 275.147 231.199V242H269.852Z" fill="white"/>
<path d="M284.523 242V222.909H289.818V242H284.523ZM287.183 220.448C286.396 220.448 285.721 220.187 285.157 219.665C284.602 219.135 284.325 218.501 284.325 217.764C284.325 217.034 284.602 216.409 285.157 215.887C285.721 215.356 286.396 215.091 287.183 215.091C287.97 215.091 288.642 215.356 289.197 215.887C289.76 216.409 290.042 217.034 290.042 217.764C290.042 218.501 289.76 219.135 289.197 219.665C288.642 220.187 287.97 220.448 287.183 220.448Z" fill="white"/>
<path d="M299.704 230.963V242H294.41V222.909H299.456V226.277H299.679C300.102 225.167 300.81 224.289 301.805 223.642C302.799 222.988 304.005 222.661 305.422 222.661C306.747 222.661 307.903 222.951 308.889 223.531C309.875 224.111 310.642 224.939 311.189 226.016C311.735 227.085 312.009 228.361 312.009 229.845V242H306.714V230.789C306.722 229.621 306.424 228.709 305.819 228.055C305.214 227.392 304.382 227.06 303.321 227.06C302.608 227.06 301.979 227.214 301.432 227.52C300.893 227.827 300.471 228.274 300.164 228.863C299.866 229.443 299.713 230.143 299.704 230.963Z" fill="white"/>
</g>
<defs>
<clipPath id="clip0_314_2">
<rect width="700" height="700" fill="white"/>
</clipPath>
</defs>
</svg>
