<svg width="700" height="700" viewBox="0 0 700 700" fill="none" xmlns="http://www.w3.org/2000/svg">
<g clip-path="url(#clip0_314_11)">
<path d="M0 0H700V700L681.862 681.862V17.4664H17.4664V681.862H681.862L700 700H0V0Z" fill="#004AC8"/>
<path d="M70.5596 452.783V344.321H143.645V363.228H93.4915V389.072H139.885V407.979H93.4915V433.876H143.856V452.783H70.5596ZM180.306 371.437L195.241 399.876L210.547 371.437H233.69L210.124 412.109L234.326 452.783H211.289L195.241 424.661L179.46 452.783H156.157L180.306 412.109L157.004 371.437H180.306ZM247.089 483.289V371.437H269.332V385.099H270.339C271.327 382.911 272.758 380.686 274.629 378.427C276.535 376.132 279.007 374.226 282.044 372.708C285.115 371.153 288.928 370.377 293.483 370.377C299.415 370.377 304.887 371.93 309.9 375.038C314.914 378.109 318.922 382.752 321.922 388.966C324.924 395.144 326.425 402.895 326.425 412.215C326.425 421.29 324.959 428.951 322.028 435.2C319.133 441.414 315.179 446.128 310.165 449.341C305.187 452.518 299.608 454.107 293.43 454.107C289.052 454.107 285.327 453.384 282.255 451.935C279.218 450.488 276.73 448.67 274.788 446.48C272.846 444.257 271.364 442.014 270.339 439.755H269.651V483.289H247.089ZM269.174 412.109C269.174 416.946 269.845 421.166 271.186 424.767C272.529 428.368 274.47 431.176 277.012 433.187C279.554 435.165 282.643 436.154 286.28 436.154C289.952 436.154 293.06 435.147 295.602 433.135C298.144 431.087 300.068 428.263 301.374 424.661C302.716 421.025 303.386 416.841 303.386 412.109C303.386 407.413 302.733 403.283 301.427 399.718C300.12 396.15 298.196 393.361 295.654 391.35C293.112 389.337 289.987 388.331 286.28 388.331C282.608 388.331 279.502 389.301 276.96 391.244C274.453 393.185 272.529 395.939 271.186 399.505C269.845 403.071 269.174 407.272 269.174 412.109ZM378.219 454.373C369.992 454.373 362.878 452.625 356.877 449.129C350.91 445.598 346.301 440.691 343.054 434.406C339.805 428.086 338.181 420.759 338.181 412.428C338.181 404.025 339.805 396.681 343.054 390.396C346.301 384.076 350.91 379.169 356.877 375.673C362.878 372.142 369.992 370.377 378.219 370.377C386.446 370.377 393.543 372.142 399.509 375.673C405.511 379.169 410.137 384.076 413.384 390.396C416.633 396.681 418.257 404.025 418.257 412.428C418.257 420.759 416.633 428.086 413.384 434.406C410.137 440.691 405.511 445.598 399.509 449.129C393.543 452.625 386.446 454.373 378.219 454.373ZM378.325 436.895C382.067 436.895 385.192 435.835 387.699 433.718C390.206 431.564 392.095 428.634 393.367 424.926C394.672 421.219 395.325 417 395.325 412.269C395.325 407.537 394.672 403.318 393.367 399.611C392.095 395.903 390.206 392.973 387.699 390.819C385.192 388.665 382.067 387.589 378.325 387.589C374.547 387.589 371.37 388.665 368.793 390.819C366.251 392.973 364.327 395.903 363.019 399.611C361.748 403.318 361.113 407.537 361.113 412.269C361.113 417 361.748 421.219 363.019 424.926C364.327 428.634 366.251 431.564 368.793 433.718C371.37 435.835 374.547 436.895 378.325 436.895Z" fill="#004AC8"/>
<path d="M154.655 571.071H129.797C129.466 568.519 128.786 566.215 127.759 564.161C126.731 562.106 125.373 560.349 123.682 558.891C121.992 557.432 119.987 556.322 117.667 555.56C115.38 554.764 112.844 554.366 110.06 554.366C105.122 554.366 100.863 555.576 97.283 557.996C93.7366 560.415 91.0023 563.912 89.08 568.486C87.1908 573.06 86.2462 578.595 86.2462 585.091C86.2462 591.852 87.2074 597.52 89.1297 602.094C91.0852 606.634 93.8196 610.065 97.3328 612.385C100.879 614.672 105.072 615.815 109.911 615.815C112.629 615.815 115.098 615.467 117.319 614.771C119.572 614.075 121.544 613.064 123.235 611.739C124.958 610.38 126.367 608.739 127.461 606.817C128.587 604.861 129.366 602.657 129.797 600.205L154.655 600.354C154.224 604.861 152.915 609.303 150.728 613.678C148.573 618.053 145.607 622.046 141.828 625.659C138.05 629.239 133.443 632.089 128.007 634.21C122.605 636.331 116.407 637.392 109.414 637.392C100.2 637.392 91.9469 635.37 84.6552 631.327C77.3967 627.25 71.6628 621.317 67.4535 613.528C63.2442 605.74 61.1396 596.26 61.1396 585.091C61.1396 573.888 63.2774 564.393 67.553 556.604C71.8286 548.815 77.6122 542.899 84.9039 538.855C92.1955 534.812 100.365 532.79 109.414 532.79C115.578 532.79 121.279 533.652 126.516 535.375C131.753 537.065 136.36 539.551 140.337 542.832C144.314 546.08 147.546 550.074 150.032 554.814C152.517 559.554 154.059 564.973 154.655 571.071ZM204.384 637.442C196.363 637.442 189.469 635.801 183.702 632.52C177.968 629.205 173.543 624.598 170.428 618.699C167.345 612.766 165.804 605.889 165.804 598.067C165.804 590.212 167.345 583.334 170.428 577.435C173.543 571.502 177.968 566.895 183.702 563.614C189.469 560.299 196.363 558.642 204.384 558.642C212.404 558.642 219.282 560.299 225.016 563.614C230.783 566.895 235.207 571.502 238.29 577.435C241.405 583.334 242.963 590.212 242.963 598.067C242.963 605.889 241.405 612.766 238.29 618.699C235.207 624.598 230.783 629.205 225.016 632.52C219.282 635.801 212.404 637.442 204.384 637.442ZM204.533 619.097C207.449 619.097 209.919 618.202 211.94 616.412C213.962 614.622 215.503 612.136 216.564 608.955C217.658 605.773 218.205 602.094 218.205 597.918C218.205 593.675 217.658 589.963 216.564 586.781C215.503 583.599 213.962 581.114 211.94 579.324C209.919 577.534 207.449 576.639 204.533 576.639C201.517 576.639 198.964 577.534 196.876 579.324C194.821 581.114 193.247 583.599 192.153 586.781C191.093 589.963 190.562 593.675 190.562 597.918C190.562 602.094 191.093 605.773 192.153 608.955C193.247 612.136 194.821 614.622 196.876 616.412C198.964 618.202 201.517 619.097 204.533 619.097ZM255.417 636V559.636H279.032V573.557H279.827C281.219 568.519 283.49 564.774 286.638 562.321C289.787 559.835 293.45 558.592 297.626 558.592C298.753 558.592 299.913 558.675 301.106 558.841C302.299 558.973 303.409 559.189 304.437 559.487V580.616C303.277 580.219 301.752 579.904 299.863 579.672C298.007 579.44 296.35 579.324 294.891 579.324C292.008 579.324 289.406 579.97 287.086 581.263C284.799 582.522 282.993 584.295 281.667 586.582C280.374 588.836 279.728 591.488 279.728 594.537V636H255.417ZM338.654 592.449V636H314.343V559.636H337.461V573.656H338.306C339.996 568.983 342.88 565.321 346.956 562.669C351.033 559.984 355.889 558.642 361.523 558.642C366.892 558.642 371.549 559.852 375.493 562.271C379.471 564.658 382.553 568.005 384.74 572.314C386.961 576.589 388.055 581.594 388.022 587.328V636H363.711V592.101C363.744 587.858 362.667 584.544 360.479 582.158C358.325 579.771 355.325 578.578 351.48 578.578C348.928 578.578 346.675 579.142 344.719 580.268C342.797 581.362 341.305 582.937 340.245 584.991C339.217 587.046 338.687 589.532 338.654 592.449ZM403.073 636V559.636H427.384V636H403.073ZM415.254 550.737C411.84 550.737 408.906 549.61 406.454 547.357C404.001 545.07 402.775 542.319 402.775 539.104C402.775 535.922 404.001 533.204 406.454 530.95C408.906 528.663 411.84 527.52 415.254 527.52C418.701 527.52 421.634 528.663 424.053 530.95C426.506 533.204 427.732 535.922 427.732 539.104C427.732 542.319 426.506 545.07 424.053 547.357C421.634 549.61 418.701 550.737 415.254 550.737ZM478.505 637.442C470.451 637.442 463.54 635.785 457.773 632.47C452.039 629.156 447.631 624.549 444.549 618.649C441.466 612.716 439.925 605.856 439.925 598.067C439.925 590.245 441.466 583.384 444.549 577.484C447.664 571.552 452.089 566.928 457.823 563.614C463.59 560.299 470.467 558.642 478.455 558.642C485.515 558.642 491.663 559.918 496.9 562.47C502.169 565.022 506.279 568.635 509.229 573.308C512.212 577.948 513.786 583.401 513.952 589.665H491.232C490.768 585.754 489.442 582.688 487.255 580.467C485.1 578.247 482.283 577.136 478.803 577.136C475.986 577.136 473.516 577.932 471.395 579.523C469.274 581.08 467.617 583.401 466.424 586.483C465.264 589.532 464.684 593.311 464.684 597.818C464.684 602.326 465.264 606.137 466.424 609.253C467.617 612.335 469.274 614.672 471.395 616.263C473.516 617.821 475.986 618.599 478.803 618.599C481.057 618.599 483.045 618.119 484.769 617.158C486.525 616.196 487.967 614.788 489.094 612.932C490.221 611.043 490.934 608.756 491.232 606.071H513.952C513.72 612.368 512.146 617.87 509.229 622.577C506.346 627.283 502.285 630.946 497.049 633.564C491.845 636.149 485.664 637.442 478.505 637.442ZM526.393 636V559.636H550.705V636H526.393ZM538.574 550.737C535.16 550.737 532.227 549.61 529.774 547.357C527.321 545.07 526.095 542.319 526.095 539.104C526.095 535.922 527.321 533.204 529.774 530.95C532.227 528.663 535.16 527.52 538.574 527.52C542.021 527.52 544.954 528.663 547.374 530.95C549.826 533.204 551.053 535.922 551.053 539.104C551.053 542.319 549.826 545.07 547.374 547.357C544.954 549.61 542.021 550.737 538.574 550.737Z" fill="#004AC8"/>
<path d="M59.2124 157V131.545H76.3644V135.983H64.5941V142.048H75.4819V146.485H64.5941V152.563H76.4141V157H59.2124Z" fill="white"/>
<path d="M80.8936 157V137.909H86.1884V157H80.8936ZM83.5534 135.448C82.7663 135.448 82.091 135.187 81.5275 134.665C80.9724 134.135 80.6948 133.501 80.6948 132.764C80.6948 132.034 80.9724 131.409 81.5275 130.887C82.091 130.356 82.7663 130.091 83.5534 130.091C84.3406 130.091 85.0118 130.356 85.5669 130.887C86.1304 131.409 86.4121 132.034 86.4121 132.764C86.4121 133.501 86.1304 134.135 85.5669 134.665C85.0118 135.187 84.3406 135.448 83.5534 135.448Z" fill="white"/>
<path d="M96.0745 145.963V157H90.7798V137.909H95.8259V141.277H96.0497C96.4722 140.167 97.1807 139.289 98.175 138.642C99.1693 137.988 100.375 137.661 101.792 137.661C103.118 137.661 104.273 137.951 105.26 138.531C106.246 139.111 107.012 139.939 107.559 141.016C108.106 142.085 108.379 143.361 108.379 144.845V157H103.084V145.789C103.093 144.621 102.794 143.709 102.19 143.055C101.585 142.392 100.752 142.06 99.6913 142.06C98.9788 142.06 98.349 142.214 97.8021 142.52C97.2636 142.827 96.841 143.274 96.5344 143.863C96.2361 144.443 96.0828 145.143 96.0745 145.963Z" fill="white"/>
<path d="M112.902 157V137.909H118.035V141.24H118.234C118.582 140.055 119.166 139.16 119.987 138.555C120.807 137.942 121.752 137.636 122.821 137.636C123.086 137.636 123.372 137.652 123.678 137.685C123.985 137.719 124.254 137.764 124.486 137.822V142.52C124.237 142.446 123.894 142.379 123.454 142.321C123.015 142.263 122.613 142.234 122.249 142.234C121.47 142.234 120.774 142.404 120.161 142.744C119.556 143.075 119.075 143.539 118.719 144.136C118.371 144.733 118.197 145.42 118.197 146.199V157H112.902Z" fill="white"/>
<path d="M132.471 157.36C131.252 157.36 130.167 157.149 129.214 156.727C128.261 156.296 127.507 155.662 126.952 154.825C126.405 153.98 126.132 152.927 126.132 151.668C126.132 150.607 126.326 149.717 126.716 148.996C127.105 148.275 127.636 147.695 128.307 147.256C128.978 146.817 129.74 146.485 130.594 146.261C131.456 146.038 132.359 145.88 133.303 145.789C134.414 145.673 135.308 145.565 135.988 145.466C136.667 145.358 137.16 145.201 137.467 144.994C137.774 144.787 137.927 144.48 137.927 144.074V143.999C137.927 143.212 137.678 142.603 137.181 142.172C136.692 141.741 135.996 141.526 135.093 141.526C134.14 141.526 133.382 141.737 132.819 142.16C132.255 142.574 131.882 143.096 131.7 143.726L126.803 143.328C127.052 142.168 127.54 141.166 128.27 140.32C128.999 139.467 129.939 138.812 131.091 138.357C132.251 137.893 133.593 137.661 135.118 137.661C136.179 137.661 137.194 137.785 138.163 138.033C139.141 138.282 140.007 138.667 140.761 139.189C141.523 139.711 142.124 140.383 142.563 141.203C143.002 142.015 143.222 142.988 143.222 144.124V157H138.2V154.353H138.051C137.745 154.949 137.334 155.475 136.821 155.931C136.307 156.379 135.69 156.731 134.969 156.988C134.248 157.236 133.415 157.36 132.471 157.36ZM133.987 153.706C134.766 153.706 135.453 153.553 136.05 153.246C136.647 152.932 137.115 152.509 137.455 151.979C137.794 151.448 137.964 150.848 137.964 150.177V148.151C137.798 148.258 137.571 148.358 137.281 148.449C136.999 148.532 136.68 148.61 136.324 148.685C135.967 148.751 135.611 148.813 135.255 148.871C134.898 148.921 134.575 148.967 134.285 149.008C133.664 149.099 133.121 149.244 132.657 149.443C132.193 149.642 131.833 149.911 131.576 150.251C131.319 150.583 131.19 150.997 131.19 151.494C131.19 152.215 131.451 152.766 131.973 153.147C132.504 153.52 133.175 153.706 133.987 153.706Z" fill="white"/>
<path d="M152.974 145.963V157H147.679V131.545H152.825V141.277H153.049C153.48 140.15 154.176 139.268 155.137 138.63C156.098 137.984 157.304 137.661 158.754 137.661C160.079 137.661 161.235 137.951 162.221 138.531C163.216 139.102 163.986 139.927 164.533 141.004C165.088 142.073 165.362 143.353 165.353 144.845V157H160.059V145.789C160.067 144.612 159.769 143.697 159.164 143.042C158.567 142.388 157.73 142.06 156.653 142.06C155.932 142.06 155.294 142.214 154.739 142.52C154.192 142.827 153.761 143.274 153.446 143.863C153.14 144.443 152.982 145.143 152.974 145.963Z" fill="white"/>
<path d="M169.87 157V137.909H174.916V141.277H175.14C175.538 140.159 176.201 139.276 177.129 138.63C178.057 137.984 179.167 137.661 180.46 137.661C181.769 137.661 182.883 137.988 183.803 138.642C184.723 139.289 185.336 140.167 185.643 141.277H185.841C186.231 140.184 186.935 139.309 187.954 138.655C188.982 137.992 190.196 137.661 191.596 137.661C193.378 137.661 194.823 138.228 195.934 139.363C197.052 140.49 197.612 142.089 197.612 144.161V157H192.329V145.205C192.329 144.144 192.048 143.349 191.484 142.819C190.921 142.288 190.216 142.023 189.371 142.023C188.41 142.023 187.66 142.33 187.122 142.943C186.583 143.548 186.314 144.347 186.314 145.342V157H181.181V145.093C181.181 144.157 180.911 143.411 180.373 142.856C179.842 142.301 179.142 142.023 178.272 142.023C177.684 142.023 177.154 142.172 176.681 142.471C176.217 142.761 175.849 143.171 175.575 143.701C175.302 144.223 175.165 144.836 175.165 145.541V157H169.87Z" fill="white"/>
<path d="M210.844 157.373C208.881 157.373 207.19 156.975 205.773 156.18C204.365 155.376 203.279 154.241 202.517 152.774C201.755 151.299 201.373 149.555 201.373 147.542C201.373 145.578 201.755 143.854 202.517 142.371C203.279 140.888 204.352 139.732 205.736 138.903C207.128 138.075 208.76 137.661 210.633 137.661C211.892 137.661 213.065 137.864 214.15 138.27C215.244 138.667 216.197 139.268 217.009 140.072C217.829 140.876 218.467 141.886 218.923 143.104C219.379 144.314 219.607 145.731 219.607 147.355V148.809H203.486V145.528H214.623C214.623 144.766 214.457 144.09 214.126 143.502C213.794 142.914 213.334 142.454 212.746 142.123C212.166 141.783 211.491 141.613 210.72 141.613C209.916 141.613 209.204 141.799 208.582 142.172C207.969 142.537 207.488 143.03 207.14 143.651C206.792 144.264 206.614 144.948 206.606 145.702V148.822C206.606 149.766 206.78 150.583 207.128 151.27C207.484 151.958 207.986 152.488 208.632 152.861C209.278 153.234 210.045 153.42 210.931 153.42C211.52 153.42 212.058 153.338 212.547 153.172C213.036 153.006 213.454 152.758 213.802 152.426C214.15 152.095 214.416 151.689 214.598 151.208L219.495 151.531C219.246 152.708 218.737 153.735 217.966 154.614C217.204 155.484 216.218 156.163 215.008 156.652C213.807 157.133 212.419 157.373 210.844 157.373Z" fill="white"/>
<path d="M228.707 145.963V157H223.412V137.909H228.458V141.277H228.682C229.104 140.167 229.813 139.289 230.807 138.642C231.802 137.988 233.007 137.661 234.424 137.661C235.75 137.661 236.906 137.951 237.892 138.531C238.878 139.111 239.644 139.939 240.191 141.016C240.738 142.085 241.011 143.361 241.011 144.845V157H235.717V145.789C235.725 144.621 235.427 143.709 234.822 143.055C234.217 142.392 233.384 142.06 232.324 142.06C231.611 142.06 230.981 142.214 230.434 142.52C229.896 142.827 229.473 143.274 229.167 143.863C228.868 144.443 228.715 145.143 228.707 145.963Z" fill="white"/>
<path d="M251.289 153.52L251.152 154.887C251.045 155.981 250.837 157.07 250.531 158.156C250.233 159.25 249.918 160.24 249.586 161.126C249.263 162.013 249.002 162.709 248.803 163.215H245.373C245.497 162.726 245.667 162.042 245.882 161.164C246.098 160.294 246.301 159.316 246.491 158.231C246.682 157.145 246.802 156.039 246.852 154.912L246.914 153.52H251.289Z" fill="white"/>
<path d="M263.734 157V137.909H268.868V141.24H269.066C269.415 140.055 269.999 139.16 270.819 138.555C271.639 137.942 272.584 137.636 273.653 137.636C273.918 137.636 274.204 137.652 274.51 137.685C274.817 137.719 275.086 137.764 275.318 137.822V142.52C275.07 142.446 274.726 142.379 274.287 142.321C273.848 142.263 273.446 142.234 273.081 142.234C272.302 142.234 271.606 142.404 270.993 142.744C270.388 143.075 269.908 143.539 269.551 144.136C269.203 144.733 269.029 145.42 269.029 146.199V157H263.734Z" fill="white"/>
<path d="M286.217 157.373C284.254 157.373 282.563 156.975 281.146 156.18C279.738 155.376 278.652 154.241 277.89 152.774C277.128 151.299 276.746 149.555 276.746 147.542C276.746 145.578 277.128 143.854 277.89 142.371C278.652 140.888 279.725 139.732 281.109 138.903C282.501 138.075 284.133 137.661 286.006 137.661C287.266 137.661 288.438 137.864 289.523 138.27C290.617 138.667 291.57 139.268 292.382 140.072C293.202 140.876 293.84 141.886 294.296 143.104C294.752 144.314 294.98 145.731 294.98 147.355V148.809H278.859V145.528H289.996C289.996 144.766 289.83 144.09 289.499 143.502C289.167 142.914 288.707 142.454 288.119 142.123C287.539 141.783 286.864 141.613 286.093 141.613C285.289 141.613 284.577 141.799 283.955 142.172C283.342 142.537 282.862 143.03 282.514 143.651C282.166 144.264 281.987 144.948 281.979 145.702V148.822C281.979 149.766 282.153 150.583 282.501 151.27C282.857 151.958 283.359 152.488 284.005 152.861C284.651 153.234 285.418 153.42 286.304 153.42C286.893 153.42 287.431 153.338 287.92 153.172C288.409 153.006 288.827 152.758 289.175 152.426C289.523 152.095 289.789 151.689 289.971 151.208L294.868 151.531C294.619 152.708 294.11 153.735 293.339 154.614C292.577 155.484 291.591 156.163 290.381 156.652C289.18 157.133 287.792 157.373 286.217 157.373Z" fill="white"/>
<path d="M298.785 164.159V137.909H304.005V141.116H304.241C304.473 140.602 304.809 140.08 305.248 139.55C305.696 139.011 306.276 138.564 306.988 138.207C307.709 137.843 308.604 137.661 309.673 137.661C311.065 137.661 312.349 138.025 313.526 138.754C314.702 139.475 315.643 140.565 316.347 142.023C317.051 143.473 317.404 145.292 317.404 147.479C317.404 149.609 317.06 151.407 316.372 152.874C315.693 154.332 314.765 155.438 313.588 156.192C312.42 156.938 311.11 157.311 309.66 157.311C308.633 157.311 307.759 157.141 307.038 156.801C306.325 156.461 305.741 156.035 305.285 155.521C304.83 154.999 304.482 154.473 304.241 153.943H304.08V164.159H298.785ZM303.968 147.455C303.968 148.59 304.125 149.58 304.44 150.425C304.755 151.27 305.211 151.929 305.807 152.401C306.404 152.865 307.129 153.097 307.982 153.097C308.844 153.097 309.573 152.861 310.17 152.389C310.767 151.908 311.218 151.245 311.525 150.4C311.84 149.547 311.997 148.565 311.997 147.455C311.997 146.353 311.844 145.383 311.537 144.546C311.231 143.709 310.779 143.055 310.182 142.582C309.586 142.11 308.853 141.874 307.982 141.874C307.121 141.874 306.392 142.102 305.795 142.558C305.207 143.013 304.755 143.66 304.44 144.496C304.125 145.333 303.968 146.319 303.968 147.455Z" fill="white"/>
<path d="M326.727 157.36C325.509 157.36 324.424 157.149 323.471 156.727C322.518 156.296 321.764 155.662 321.209 154.825C320.662 153.98 320.389 152.927 320.389 151.668C320.389 150.607 320.583 149.717 320.973 148.996C321.362 148.275 321.892 147.695 322.564 147.256C323.235 146.817 323.997 146.485 324.851 146.261C325.712 146.038 326.615 145.88 327.56 145.789C328.67 145.673 329.565 145.565 330.245 145.466C330.924 145.358 331.417 145.201 331.724 144.994C332.03 144.787 332.184 144.48 332.184 144.074V143.999C332.184 143.212 331.935 142.603 331.438 142.172C330.949 141.741 330.253 141.526 329.35 141.526C328.397 141.526 327.639 141.737 327.075 142.16C326.512 142.574 326.139 143.096 325.957 143.726L321.06 143.328C321.308 142.168 321.797 141.166 322.526 140.32C323.256 139.467 324.196 138.812 325.348 138.357C326.508 137.893 327.85 137.661 329.375 137.661C330.435 137.661 331.45 137.785 332.42 138.033C333.398 138.282 334.263 138.667 335.017 139.189C335.78 139.711 336.381 140.383 336.82 141.203C337.259 142.015 337.478 142.988 337.478 144.124V157H332.457V154.353H332.308C332.001 154.949 331.591 155.475 331.077 155.931C330.564 156.379 329.946 156.731 329.226 156.988C328.505 157.236 327.672 157.36 326.727 157.36ZM328.244 153.706C329.023 153.706 329.71 153.553 330.307 153.246C330.903 152.932 331.372 152.509 331.711 151.979C332.051 151.448 332.221 150.848 332.221 150.177V148.151C332.055 148.258 331.827 148.358 331.537 148.449C331.256 148.532 330.937 148.61 330.58 148.685C330.224 148.751 329.868 148.813 329.511 148.871C329.155 148.921 328.832 148.967 328.542 149.008C327.921 149.099 327.378 149.244 326.914 149.443C326.45 149.642 326.089 149.911 325.832 150.251C325.576 150.583 325.447 150.997 325.447 151.494C325.447 152.215 325.708 152.766 326.23 153.147C326.76 153.52 327.432 153.706 328.244 153.706Z" fill="white"/>
<path d="M341.936 157V137.909H347.069V141.24H347.268C347.616 140.055 348.2 139.16 349.021 138.555C349.841 137.942 350.786 137.636 351.855 137.636C352.12 137.636 352.406 137.652 352.712 137.685C353.019 137.719 353.288 137.764 353.52 137.822V142.52C353.271 142.446 352.928 142.379 352.488 142.321C352.049 142.263 351.647 142.234 351.283 142.234C350.504 142.234 349.808 142.404 349.195 142.744C348.59 143.075 348.109 143.539 347.753 144.136C347.405 144.733 347.231 145.42 347.231 146.199V157H341.936Z" fill="white"/>
<path d="M356.607 157V137.909H361.902V157H356.607ZM359.267 135.448C358.48 135.448 357.805 135.187 357.241 134.665C356.686 134.135 356.409 133.501 356.409 132.764C356.409 132.034 356.686 131.409 357.241 130.887C357.805 130.356 358.48 130.091 359.267 130.091C360.054 130.091 360.726 130.356 361.281 130.887C361.844 131.409 362.126 132.034 362.126 132.764C362.126 133.501 361.844 134.135 361.281 134.665C360.726 135.187 360.054 135.448 359.267 135.448Z" fill="white"/>
<path d="M375.194 157.373C373.23 157.373 371.54 156.975 370.123 156.18C368.714 155.376 367.629 154.241 366.867 152.774C366.104 151.299 365.723 149.555 365.723 147.542C365.723 145.578 366.104 143.854 366.867 142.371C367.629 140.888 368.702 139.732 370.086 138.903C371.478 138.075 373.11 137.661 374.983 137.661C376.242 137.661 377.415 137.864 378.5 138.27C379.594 138.667 380.547 139.268 381.359 140.072C382.179 140.876 382.817 141.886 383.273 143.104C383.728 144.314 383.956 145.731 383.956 147.355V148.809H367.836V145.528H378.972C378.972 144.766 378.807 144.09 378.475 143.502C378.144 142.914 377.684 142.454 377.096 142.123C376.516 141.783 375.84 141.613 375.07 141.613C374.266 141.613 373.553 141.799 372.932 142.172C372.319 142.537 371.838 143.03 371.49 143.651C371.142 144.264 370.964 144.948 370.956 145.702V148.822C370.956 149.766 371.13 150.583 371.478 151.27C371.834 151.958 372.335 152.488 372.982 152.861C373.628 153.234 374.394 153.42 375.281 153.42C375.869 153.42 376.408 153.338 376.897 153.172C377.386 153.006 377.804 152.758 378.152 152.426C378.5 152.095 378.765 151.689 378.947 151.208L383.844 151.531C383.596 152.708 383.086 153.735 382.316 154.614C381.553 155.484 380.567 156.163 379.358 156.652C378.156 157.133 376.768 157.373 375.194 157.373Z" fill="white"/>
<path d="M387.762 157V137.909H392.895V141.24H393.094C393.442 140.055 394.026 139.16 394.846 138.555C395.666 137.942 396.611 137.636 397.68 137.636C397.945 137.636 398.231 137.652 398.538 137.685C398.844 137.719 399.113 137.764 399.345 137.822V142.52C399.097 142.446 398.753 142.379 398.314 142.321C397.875 142.263 397.473 142.234 397.108 142.234C396.329 142.234 395.633 142.404 395.02 142.744C394.415 143.075 393.935 143.539 393.578 144.136C393.23 144.733 393.056 145.42 393.056 146.199V157H387.762Z" fill="white"/>
<path d="M410.244 157.373C408.281 157.373 406.59 156.975 405.173 156.18C403.765 155.376 402.679 154.241 401.917 152.774C401.155 151.299 400.774 149.555 400.774 147.542C400.774 145.578 401.155 143.854 401.917 142.371C402.679 140.888 403.752 139.732 405.136 138.903C406.528 138.075 408.161 137.661 410.033 137.661C411.293 137.661 412.465 137.864 413.551 138.27C414.644 138.667 415.597 139.268 416.409 140.072C417.23 140.876 417.868 141.886 418.323 143.104C418.779 144.314 419.007 145.731 419.007 147.355V148.809H402.887V145.528H414.023C414.023 144.766 413.857 144.09 413.526 143.502C413.194 142.914 412.734 142.454 412.146 142.123C411.566 141.783 410.891 141.613 410.12 141.613C409.316 141.613 408.604 141.799 407.982 142.172C407.369 142.537 406.889 143.03 406.541 143.651C406.193 144.264 406.014 144.948 406.006 145.702V148.822C406.006 149.766 406.18 150.583 406.528 151.27C406.885 151.958 407.386 152.488 408.032 152.861C408.678 153.234 409.445 153.42 410.331 153.42C410.92 153.42 411.458 153.338 411.947 153.172C412.436 153.006 412.855 152.758 413.203 152.426C413.551 152.095 413.816 151.689 413.998 151.208L418.895 151.531C418.646 152.708 418.137 153.735 417.366 154.614C416.604 155.484 415.618 156.163 414.408 156.652C413.207 157.133 411.819 157.373 410.244 157.373Z" fill="white"/>
<path d="M428.107 145.963V157H422.812V137.909H427.858V141.277H428.082C428.505 140.167 429.213 139.289 430.207 138.642C431.202 137.988 432.407 137.661 433.824 137.661C435.15 137.661 436.306 137.951 437.292 138.531C438.278 139.111 439.044 139.939 439.591 141.016C440.138 142.085 440.412 143.361 440.412 144.845V157H435.117V145.789C435.125 144.621 434.827 143.709 434.222 143.055C433.617 142.392 432.784 142.06 431.724 142.06C431.011 142.06 430.381 142.214 429.835 142.52C429.296 142.827 428.873 143.274 428.567 143.863C428.269 144.443 428.115 145.143 428.107 145.963Z" fill="white"/>
<path d="M465.628 148.871V137.909H470.923V157H465.839V153.532H465.64C465.209 154.651 464.493 155.55 463.49 156.229C462.496 156.909 461.282 157.249 459.848 157.249C458.572 157.249 457.45 156.959 456.48 156.379C455.511 155.799 454.752 154.974 454.206 153.905C453.667 152.836 453.394 151.556 453.385 150.065V137.909H458.68V149.12C458.688 150.247 458.991 151.138 459.587 151.792C460.184 152.447 460.983 152.774 461.986 152.774C462.624 152.774 463.221 152.629 463.776 152.339C464.331 152.041 464.778 151.602 465.118 151.022C465.466 150.442 465.636 149.725 465.628 148.871Z" fill="white"/>
<path d="M480.802 145.963V157H475.508V137.909H480.554V141.277H480.778C481.2 140.167 481.909 139.289 482.903 138.642C483.897 137.988 485.103 137.661 486.52 137.661C487.846 137.661 489.001 137.951 489.987 138.531C490.973 139.111 491.74 139.939 492.287 141.016C492.834 142.085 493.107 143.361 493.107 144.845V157H487.812V145.789C487.821 144.621 487.522 143.709 486.917 143.055C486.313 142.392 485.48 142.06 484.419 142.06C483.707 142.06 483.077 142.214 482.53 142.52C481.991 142.827 481.569 143.274 481.262 143.863C480.964 144.443 480.811 145.143 480.802 145.963Z" fill="white"/>
<path d="M504.665 157.311C503.215 157.311 501.902 156.938 500.725 156.192C499.557 155.438 498.629 154.332 497.941 152.874C497.261 151.407 496.922 149.609 496.922 147.479C496.922 145.292 497.274 143.473 497.978 142.023C498.682 140.565 499.619 139.475 500.787 138.754C501.964 138.025 503.252 137.661 504.652 137.661C505.721 137.661 506.612 137.843 507.325 138.207C508.046 138.564 508.626 139.011 509.065 139.55C509.512 140.08 509.852 140.602 510.084 141.116H510.246V131.545H515.528V157H510.308V153.943H510.084C509.835 154.473 509.483 154.999 509.027 155.521C508.58 156.035 507.996 156.461 507.275 156.801C506.562 157.141 505.692 157.311 504.665 157.311ZM506.343 153.097C507.196 153.097 507.917 152.865 508.505 152.401C509.102 151.929 509.558 151.27 509.873 150.425C510.196 149.58 510.357 148.59 510.357 147.455C510.357 146.319 510.2 145.333 509.885 144.496C509.57 143.66 509.115 143.013 508.518 142.558C507.921 142.102 507.196 141.874 506.343 141.874C505.473 141.874 504.74 142.11 504.143 142.582C503.546 143.055 503.095 143.709 502.788 144.546C502.482 145.383 502.328 146.353 502.328 147.455C502.328 148.565 502.482 149.547 502.788 150.4C503.103 151.245 503.555 151.908 504.143 152.389C504.74 152.861 505.473 153.097 506.343 153.097Z" fill="white"/>
<path d="M533.976 131.545V157H528.682V131.545H533.976Z" fill="white"/>
<path d="M547.268 157.373C545.304 157.373 543.614 156.975 542.197 156.18C540.788 155.376 539.703 154.241 538.941 152.774C538.178 151.299 537.797 149.555 537.797 147.542C537.797 145.578 538.178 143.854 538.941 142.371C539.703 140.888 540.776 139.732 542.16 138.903C543.552 138.075 545.184 137.661 547.057 137.661C548.316 137.661 549.489 137.864 550.574 138.27C551.668 138.667 552.621 139.268 553.433 140.072C554.253 140.876 554.891 141.886 555.347 143.104C555.803 144.314 556.031 145.731 556.031 147.355V148.809H539.91V145.528H551.047C551.047 144.766 550.881 144.09 550.549 143.502C550.218 142.914 549.758 142.454 549.17 142.123C548.59 141.783 547.914 141.613 547.144 141.613C546.34 141.613 545.628 141.799 545.006 142.172C544.393 142.537 543.912 143.03 543.564 143.651C543.216 144.264 543.038 144.948 543.03 145.702V148.822C543.03 149.766 543.204 150.583 543.552 151.27C543.908 151.958 544.409 152.488 545.056 152.861C545.702 153.234 546.469 153.42 547.355 153.42C547.943 153.42 548.482 153.338 548.971 153.172C549.46 153.006 549.878 152.758 550.226 152.426C550.574 152.095 550.839 151.689 551.022 151.208L555.919 151.531C555.67 152.708 555.161 153.735 554.39 154.614C553.628 155.484 552.642 156.163 551.432 156.652C550.23 157.133 548.842 157.373 547.268 157.373Z" fill="white"/>
<path d="M559.935 157V131.545H565.23V141.116H565.392C565.624 140.602 565.959 140.08 566.398 139.55C566.846 139.011 567.426 138.564 568.138 138.207C568.859 137.843 569.754 137.661 570.823 137.661C572.215 137.661 573.499 138.025 574.676 138.754C575.853 139.475 576.793 140.565 577.497 142.023C578.202 143.473 578.554 145.292 578.554 147.479C578.554 149.609 578.21 151.407 577.522 152.874C576.843 154.332 575.915 155.438 574.738 156.192C573.57 156.938 572.261 157.311 570.811 157.311C569.783 157.311 568.909 157.141 568.188 156.801C567.475 156.461 566.891 156.035 566.436 155.521C565.98 154.999 565.632 154.473 565.392 153.943H565.155V157H559.935ZM565.118 147.455C565.118 148.59 565.276 149.58 565.59 150.425C565.905 151.27 566.361 151.929 566.958 152.401C567.554 152.865 568.279 153.097 569.133 153.097C569.994 153.097 570.724 152.861 571.32 152.389C571.917 151.908 572.368 151.245 572.675 150.4C572.99 149.547 573.147 148.565 573.147 147.455C573.147 146.353 572.994 145.383 572.687 144.546C572.381 143.709 571.929 143.055 571.333 142.582C570.736 142.11 570.003 141.874 569.133 141.874C568.271 141.874 567.542 142.102 566.945 142.558C566.357 143.013 565.905 143.66 565.59 144.496C565.276 145.333 565.118 146.319 565.118 147.455Z" fill="white"/>
<path d="M591.137 157.373C589.173 157.373 587.483 156.975 586.066 156.18C584.657 155.376 583.572 154.241 582.81 152.774C582.047 151.299 581.666 149.555 581.666 147.542C581.666 145.578 582.047 143.854 582.81 142.371C583.572 140.888 584.645 139.732 586.029 138.903C587.421 138.075 589.053 137.661 590.926 137.661C592.185 137.661 593.358 137.864 594.443 138.27C595.537 138.667 596.49 139.268 597.302 140.072C598.122 140.876 598.76 141.886 599.216 143.104C599.672 144.314 599.9 145.731 599.9 147.355V148.809H583.779V145.528H594.916C594.916 144.766 594.75 144.09 594.418 143.502C594.087 142.914 593.627 142.454 593.039 142.123C592.459 141.783 591.783 141.613 591.013 141.613C590.209 141.613 589.497 141.799 588.875 142.172C588.262 142.537 587.781 143.03 587.433 143.651C587.085 144.264 586.907 144.948 586.899 145.702V148.822C586.899 149.766 587.073 150.583 587.421 151.27C587.777 151.958 588.278 152.488 588.925 152.861C589.571 153.234 590.338 153.42 591.224 153.42C591.812 153.42 592.351 153.338 592.84 153.172C593.329 153.006 593.747 152.758 594.095 152.426C594.443 152.095 594.708 151.689 594.891 151.208L599.788 151.531C599.539 152.708 599.03 153.735 598.259 154.614C597.497 155.484 596.511 156.163 595.301 156.652C594.099 157.133 592.711 157.373 591.137 157.373Z" fill="white"/>
<path d="M609 145.963V157H603.705V137.909H608.751V141.277H608.975C609.397 140.167 610.106 139.289 611.1 138.642C612.094 137.988 613.3 137.661 614.717 137.661C616.043 137.661 617.199 137.951 618.185 138.531C619.171 139.111 619.937 139.939 620.484 141.016C621.031 142.085 621.304 143.361 621.304 144.845V157H616.009V145.789C616.018 144.621 615.719 143.709 615.115 143.055C614.51 142.392 613.677 142.06 612.616 142.06C611.904 142.06 611.274 142.214 610.727 142.52C610.189 142.827 609.766 143.274 609.459 143.863C609.161 144.443 609.008 145.143 609 145.963Z" fill="white"/>
<path d="M73.021 180.866C72.9216 179.864 72.4948 179.085 71.7408 178.53C70.9868 177.974 69.9635 177.697 68.6709 177.697C67.7925 177.697 67.0509 177.821 66.4461 178.07C65.8412 178.31 65.3772 178.646 65.054 179.076C64.7392 179.507 64.5817 179.996 64.5817 180.543C64.5651 180.999 64.6604 181.396 64.8676 181.736C65.083 182.076 65.3772 182.37 65.75 182.619C66.1229 182.859 66.5538 183.07 67.0427 183.253C67.5315 183.427 68.0535 183.576 68.6087 183.7L70.8956 184.247C72.006 184.495 73.0251 184.827 73.9532 185.241C74.8812 185.655 75.6849 186.165 76.3644 186.77C77.0438 187.375 77.57 188.087 77.9429 188.908C78.324 189.728 78.5187 190.668 78.527 191.729C78.5187 193.287 78.121 194.637 77.3339 195.781C76.555 196.916 75.4281 197.799 73.9532 198.428C72.4866 199.05 70.7175 199.36 68.646 199.36C66.5911 199.36 64.8013 199.046 63.2767 198.416C61.7603 197.786 60.5754 196.854 59.722 195.619C58.8768 194.376 58.4335 192.839 58.3921 191.008H63.5998C63.6578 191.862 63.9023 192.574 64.3331 193.146C64.7723 193.709 65.3565 194.136 66.0856 194.426C66.8231 194.708 67.6558 194.849 68.5839 194.849C69.4953 194.849 70.2866 194.716 70.9578 194.451C71.6372 194.186 72.1634 193.817 72.5363 193.345C72.9091 192.873 73.0956 192.33 73.0956 191.717C73.0956 191.145 72.9257 190.664 72.586 190.275C72.2545 189.885 71.7657 189.554 71.1194 189.281C70.4813 189.007 69.6983 188.759 68.7703 188.535L65.9986 187.839C63.8526 187.317 62.1581 186.501 60.9152 185.39C59.6723 184.28 59.055 182.784 59.0633 180.903C59.055 179.362 59.4651 178.016 60.2937 176.864C61.1306 175.712 62.2782 174.813 63.7366 174.167C65.1949 173.521 66.8521 173.197 68.7081 173.197C70.5973 173.197 72.2463 173.521 73.6549 174.167C75.0718 174.813 76.1738 175.712 76.961 176.864C77.7482 178.016 78.1542 179.35 78.179 180.866H73.021Z" fill="white"/>
<path d="M82.3975 199V179.909H87.6923V199H82.3975ZM85.0573 177.448C84.2702 177.448 83.5949 177.187 83.0314 176.665C82.4763 176.135 82.1987 175.501 82.1987 174.764C82.1987 174.034 82.4763 173.409 83.0314 172.887C83.5949 172.356 84.2702 172.091 85.0573 172.091C85.8445 172.091 86.5157 172.356 87.0708 172.887C87.6343 173.409 87.916 174.034 87.916 174.764C87.916 175.501 87.6343 176.135 87.0708 176.665C86.5157 177.187 85.8445 177.448 85.0573 177.448Z" fill="white"/>
<path d="M100.984 199.373C99.0202 199.373 97.3298 198.975 95.9129 198.18C94.5043 197.376 93.4189 196.241 92.6565 194.774C91.8942 193.299 91.5131 191.555 91.5131 189.542C91.5131 187.578 91.8942 185.854 92.6565 184.371C93.4189 182.888 94.4919 181.732 95.8757 180.903C97.2677 180.075 98.9 179.661 100.773 179.661C102.032 179.661 103.205 179.864 104.29 180.27C105.384 180.667 106.337 181.268 107.149 182.072C107.969 182.876 108.607 183.886 109.063 185.104C109.519 186.314 109.746 187.731 109.746 189.355V190.809H93.626V187.528H104.762C104.762 186.766 104.597 186.09 104.265 185.502C103.934 184.914 103.474 184.454 102.886 184.123C102.306 183.783 101.63 183.613 100.86 183.613C100.056 183.613 99.3433 183.799 98.7219 184.172C98.1087 184.537 97.6281 185.03 97.2801 185.651C96.9321 186.264 96.754 186.948 96.7457 187.702V190.822C96.7457 191.766 96.9197 192.583 97.2677 193.27C97.624 193.958 98.1253 194.488 98.7716 194.861C99.4179 195.234 100.184 195.421 101.071 195.421C101.659 195.421 102.198 195.338 102.687 195.172C103.176 195.006 103.594 194.758 103.942 194.426C104.29 194.095 104.555 193.689 104.738 193.208L109.635 193.531C109.386 194.708 108.876 195.735 108.106 196.614C107.343 197.484 106.357 198.163 105.148 198.652C103.946 199.133 102.558 199.373 100.984 199.373Z" fill="white"/>
<path d="M129.037 199.311C127.587 199.311 126.274 198.938 125.097 198.192C123.929 197.438 123.001 196.332 122.313 194.874C121.634 193.407 121.294 191.609 121.294 189.479C121.294 187.292 121.646 185.473 122.35 184.023C123.055 182.565 123.991 181.475 125.159 180.754C126.336 180.025 127.624 179.661 129.025 179.661C130.093 179.661 130.984 179.843 131.697 180.207C132.418 180.564 132.998 181.011 133.437 181.55C133.884 182.08 134.224 182.602 134.456 183.116H134.618V173.545H139.9V199H134.68V195.943H134.456C134.207 196.473 133.855 196.999 133.4 197.521C132.952 198.035 132.368 198.461 131.647 198.801C130.935 199.141 130.064 199.311 129.037 199.311ZM130.715 195.097C131.568 195.097 132.289 194.865 132.878 194.401C133.474 193.929 133.93 193.27 134.245 192.425C134.568 191.58 134.73 190.59 134.73 189.455C134.73 188.319 134.572 187.333 134.257 186.496C133.942 185.66 133.487 185.013 132.89 184.558C132.293 184.102 131.568 183.874 130.715 183.874C129.845 183.874 129.112 184.11 128.515 184.582C127.918 185.055 127.467 185.709 127.16 186.546C126.854 187.383 126.7 188.353 126.7 189.455C126.7 190.565 126.854 191.547 127.16 192.4C127.475 193.245 127.927 193.908 128.515 194.389C129.112 194.861 129.845 195.097 130.715 195.097Z" fill="white"/>
<path d="M144.603 199V179.909H149.898V199H144.603ZM147.263 177.448C146.476 177.448 145.801 177.187 145.237 176.665C144.682 176.135 144.404 175.501 144.404 174.764C144.404 174.034 144.682 173.409 145.237 172.887C145.801 172.356 146.476 172.091 147.263 172.091C148.05 172.091 148.721 172.356 149.277 172.887C149.84 173.409 150.122 174.034 150.122 174.764C150.122 175.501 149.84 176.135 149.277 176.665C148.721 177.187 148.05 177.448 147.263 177.448Z" fill="white"/>
<path d="M163.19 199.373C161.226 199.373 159.536 198.975 158.119 198.18C156.71 197.376 155.625 196.241 154.862 194.774C154.1 193.299 153.719 191.555 153.719 189.542C153.719 187.578 154.1 185.854 154.862 184.371C155.625 182.888 156.698 181.732 158.081 180.903C159.473 180.075 161.106 179.661 162.978 179.661C164.238 179.661 165.41 179.864 166.496 180.27C167.589 180.667 168.542 181.268 169.354 182.072C170.175 182.876 170.813 183.886 171.268 185.104C171.724 186.314 171.952 187.731 171.952 189.355V190.809H155.832V187.528H166.968C166.968 186.766 166.802 186.09 166.471 185.502C166.139 184.914 165.68 184.454 165.091 184.123C164.511 183.783 163.836 183.613 163.065 183.613C162.262 183.613 161.549 183.799 160.928 184.172C160.314 184.537 159.834 185.03 159.486 185.651C159.138 186.264 158.96 186.948 158.951 187.702V190.822C158.951 191.766 159.125 192.583 159.473 193.27C159.83 193.958 160.331 194.488 160.977 194.861C161.624 195.234 162.39 195.421 163.277 195.421C163.865 195.421 164.404 195.338 164.892 195.172C165.381 195.006 165.8 194.758 166.148 194.426C166.496 194.095 166.761 193.689 166.943 193.208L171.84 193.531C171.592 194.708 171.082 195.735 170.311 196.614C169.549 197.484 168.563 198.163 167.353 198.652C166.152 199.133 164.764 199.373 163.19 199.373Z" fill="white"/>
<path d="M184.307 199V173.545H194.499C196.372 173.545 197.934 173.823 199.185 174.378C200.436 174.933 201.376 175.704 202.006 176.69C202.636 177.668 202.951 178.795 202.951 180.071C202.951 181.065 202.752 181.939 202.354 182.693C201.956 183.439 201.41 184.052 200.714 184.533C200.026 185.005 199.239 185.341 198.352 185.539V185.788C199.322 185.829 200.229 186.103 201.074 186.608C201.927 187.114 202.619 187.822 203.15 188.734C203.68 189.637 203.945 190.714 203.945 191.965C203.945 193.316 203.61 194.521 202.938 195.582C202.275 196.634 201.294 197.467 199.993 198.08C198.692 198.693 197.088 199 195.183 199H184.307ZM189.689 194.6H194.077C195.576 194.6 196.67 194.314 197.358 193.743C198.045 193.163 198.389 192.392 198.389 191.431C198.389 190.726 198.22 190.105 197.88 189.566C197.54 189.028 197.055 188.605 196.426 188.299C195.804 187.992 195.063 187.839 194.201 187.839H189.689V194.6ZM189.689 184.197H193.679C194.416 184.197 195.071 184.069 195.643 183.812C196.223 183.547 196.678 183.174 197.01 182.693C197.349 182.213 197.519 181.637 197.519 180.966C197.519 180.046 197.192 179.304 196.537 178.741C195.891 178.177 194.971 177.896 193.778 177.896H189.689V184.197Z" fill="white"/>
<path d="M207.698 199V179.909H212.992V199H207.698ZM210.357 177.448C209.57 177.448 208.895 177.187 208.331 176.665C207.776 176.135 207.499 175.501 207.499 174.764C207.499 174.034 207.776 173.409 208.331 172.887C208.895 172.356 209.57 172.091 210.357 172.091C211.144 172.091 211.816 172.356 212.371 172.887C212.934 173.409 213.216 174.034 213.216 174.764C213.216 175.501 212.934 176.135 212.371 176.665C211.816 177.187 211.144 177.448 210.357 177.448Z" fill="white"/>
<path d="M222.878 173.545V199H217.584V173.545H222.878Z" fill="white"/>
<path d="M234.505 199.311C233.055 199.311 231.741 198.938 230.565 198.192C229.396 197.438 228.468 196.332 227.781 194.874C227.101 193.407 226.761 191.609 226.761 189.479C226.761 187.292 227.114 185.473 227.818 184.023C228.522 182.565 229.458 181.475 230.627 180.754C231.803 180.025 233.092 179.661 234.492 179.661C235.561 179.661 236.452 179.843 237.164 180.207C237.885 180.564 238.465 181.011 238.904 181.55C239.352 182.08 239.692 182.602 239.924 183.116H240.085V173.545H245.368V199H240.147V195.943H239.924C239.675 196.473 239.323 196.999 238.867 197.521C238.42 198.035 237.836 198.461 237.115 198.801C236.402 199.141 235.532 199.311 234.505 199.311ZM236.183 195.097C237.036 195.097 237.757 194.865 238.345 194.401C238.942 193.929 239.397 193.27 239.712 192.425C240.036 191.58 240.197 190.59 240.197 189.455C240.197 188.319 240.04 187.333 239.725 186.496C239.41 185.66 238.954 185.013 238.358 184.558C237.761 184.102 237.036 183.874 236.183 183.874C235.312 183.874 234.579 184.11 233.983 184.582C233.386 185.055 232.934 185.709 232.628 186.546C232.321 187.383 232.168 188.353 232.168 189.455C232.168 190.565 232.321 191.547 232.628 192.4C232.943 193.245 233.394 193.908 233.983 194.389C234.579 194.861 235.312 195.097 236.183 195.097Z" fill="white"/>
<path d="M258.771 199.373C256.807 199.373 255.117 198.975 253.7 198.18C252.291 197.376 251.206 196.241 250.444 194.774C249.681 193.299 249.3 191.555 249.3 189.542C249.3 187.578 249.681 185.854 250.444 184.371C251.206 182.888 252.279 181.732 253.663 180.903C255.055 180.075 256.687 179.661 258.56 179.661C259.819 179.661 260.992 179.864 262.077 180.27C263.171 180.667 264.124 181.268 264.936 182.072C265.756 182.876 266.394 183.886 266.85 185.104C267.306 186.314 267.533 187.731 267.533 189.355V190.809H251.413V187.528H262.549C262.549 186.766 262.384 186.09 262.052 185.502C261.721 184.914 261.261 184.454 260.673 184.123C260.093 183.783 259.417 183.613 258.647 183.613C257.843 183.613 257.13 183.799 256.509 184.172C255.896 184.537 255.415 185.03 255.067 185.651C254.719 186.264 254.541 186.948 254.533 187.702V190.822C254.533 191.766 254.707 192.583 255.055 193.27C255.411 193.958 255.912 194.488 256.559 194.861C257.205 195.234 257.971 195.421 258.858 195.421C259.446 195.421 259.985 195.338 260.474 195.172C260.963 195.006 261.381 194.758 261.729 194.426C262.077 194.095 262.342 193.689 262.525 193.208L267.422 193.531C267.173 194.708 266.663 195.735 265.893 196.614C265.131 197.484 264.145 198.163 262.935 198.652C261.733 199.133 260.345 199.373 258.771 199.373Z" fill="white"/>
<path d="M271.339 199V179.909H276.472V183.24H276.671C277.019 182.055 277.603 181.16 278.423 180.555C279.244 179.942 280.188 179.636 281.257 179.636C281.522 179.636 281.808 179.652 282.115 179.685C282.421 179.719 282.691 179.764 282.923 179.822V184.52C282.674 184.446 282.33 184.379 281.891 184.321C281.452 184.263 281.05 184.234 280.685 184.234C279.906 184.234 279.21 184.404 278.597 184.744C277.992 185.075 277.512 185.539 277.156 186.136C276.808 186.733 276.633 187.42 276.633 188.199V199H271.339Z" fill="white"/>
<path d="M299.942 173.545V199H294.56V173.545H299.942Z" fill="white"/>
<path d="M309.915 187.963V199H304.62V173.545H309.766V183.277H309.99C310.42 182.15 311.116 181.268 312.078 180.63C313.039 179.984 314.244 179.661 315.694 179.661C317.02 179.661 318.176 179.951 319.162 180.531C320.156 181.102 320.927 181.927 321.474 183.004C322.029 184.073 322.302 185.353 322.294 186.845V199H316.999V187.789C317.008 186.612 316.709 185.697 316.105 185.042C315.508 184.388 314.671 184.06 313.594 184.06C312.873 184.06 312.235 184.214 311.68 184.52C311.133 184.827 310.702 185.274 310.387 185.863C310.081 186.443 309.923 187.143 309.915 187.963Z" fill="white"/>
<path d="M326.811 199V179.909H331.944V183.24H332.143C332.491 182.055 333.075 181.16 333.896 180.555C334.716 179.942 335.66 179.636 336.729 179.636C336.994 179.636 337.28 179.652 337.587 179.685C337.894 179.719 338.163 179.764 338.395 179.822V184.52C338.146 184.446 337.802 184.379 337.363 184.321C336.924 184.263 336.522 184.234 336.158 184.234C335.379 184.234 334.683 184.404 334.07 184.744C333.465 185.075 332.984 185.539 332.628 186.136C332.28 186.733 332.106 187.42 332.106 188.199V199H326.811Z" fill="white"/>
<path d="M349.294 199.373C347.33 199.373 345.64 198.975 344.223 198.18C342.814 197.376 341.729 196.241 340.966 194.774C340.204 193.299 339.823 191.555 339.823 189.542C339.823 187.578 340.204 185.854 340.966 184.371C341.729 182.888 342.802 181.732 344.186 180.903C345.578 180.075 347.21 179.661 349.083 179.661C350.342 179.661 351.515 179.864 352.6 180.27C353.694 180.667 354.647 181.268 355.459 182.072C356.279 182.876 356.917 183.886 357.373 185.104C357.828 186.314 358.056 187.731 358.056 189.355V190.809H341.936V187.528H353.072C353.072 186.766 352.907 186.09 352.575 185.502C352.244 184.914 351.784 184.454 351.196 184.123C350.616 183.783 349.94 183.613 349.17 183.613C348.366 183.613 347.653 183.799 347.032 184.172C346.419 184.537 345.938 185.03 345.59 185.651C345.242 186.264 345.064 186.948 345.056 187.702V190.822C345.056 191.766 345.23 192.583 345.578 193.27C345.934 193.958 346.435 194.488 347.082 194.861C347.728 195.234 348.494 195.421 349.381 195.421C349.969 195.421 350.508 195.338 350.997 195.172C351.486 195.006 351.904 194.758 352.252 194.426C352.6 194.095 352.865 193.689 353.047 193.208L357.944 193.531C357.696 194.708 357.186 195.735 356.416 196.614C355.653 197.484 354.667 198.163 353.458 198.652C352.256 199.133 350.868 199.373 349.294 199.373Z" fill="white"/>
<path d="M361.862 199V179.909H366.995V183.24H367.194C367.542 182.055 368.126 181.16 368.946 180.555C369.766 179.942 370.711 179.636 371.78 179.636C372.045 179.636 372.331 179.652 372.638 179.685C372.944 179.719 373.213 179.764 373.445 179.822V184.52C373.197 184.446 372.853 184.379 372.414 184.321C371.975 184.263 371.573 184.234 371.208 184.234C370.429 184.234 369.733 184.404 369.12 184.744C368.515 185.075 368.035 185.539 367.678 186.136C367.33 186.733 367.156 187.42 367.156 188.199V199H361.862Z" fill="white"/>
<path d="M384.113 177.983V173.545H405.019V177.983H397.226V199H391.906V177.983H384.113Z" fill="white"/>
<path d="M406.73 199V179.909H411.863V183.24H412.062C412.41 182.055 412.994 181.16 413.814 180.555C414.635 179.942 415.579 179.636 416.648 179.636C416.913 179.636 417.199 179.652 417.506 179.685C417.812 179.719 418.082 179.764 418.314 179.822V184.52C418.065 184.446 417.721 184.379 417.282 184.321C416.843 184.263 416.441 184.234 416.077 184.234C415.298 184.234 414.602 184.404 413.988 184.744C413.384 185.075 412.903 185.539 412.547 186.136C412.199 186.733 412.025 187.42 412.025 188.199V199H406.73Z" fill="white"/>
<path d="M426.298 199.36C425.08 199.36 423.995 199.149 423.042 198.727C422.089 198.296 421.335 197.662 420.78 196.825C420.233 195.98 419.959 194.927 419.959 193.668C419.959 192.607 420.154 191.717 420.544 190.996C420.933 190.275 421.463 189.695 422.135 189.256C422.806 188.817 423.568 188.485 424.421 188.261C425.283 188.038 426.186 187.88 427.131 187.789C428.241 187.673 429.136 187.565 429.816 187.466C430.495 187.358 430.988 187.201 431.295 186.994C431.601 186.787 431.755 186.48 431.755 186.074V185.999C431.755 185.212 431.506 184.603 431.009 184.172C430.52 183.741 429.824 183.526 428.921 183.526C427.968 183.526 427.21 183.737 426.646 184.16C426.083 184.574 425.71 185.096 425.528 185.726L420.631 185.328C420.879 184.168 421.368 183.166 422.097 182.32C422.826 181.467 423.767 180.812 424.919 180.357C426.079 179.893 427.421 179.661 428.946 179.661C430.006 179.661 431.021 179.785 431.991 180.033C432.968 180.282 433.834 180.667 434.588 181.189C435.351 181.711 435.951 182.383 436.391 183.203C436.83 184.015 437.049 184.988 437.049 186.124V199H432.028V196.353H431.879C431.572 196.949 431.162 197.475 430.648 197.931C430.135 198.379 429.517 198.731 428.796 198.988C428.076 199.236 427.243 199.36 426.298 199.36ZM427.815 195.706C428.593 195.706 429.281 195.553 429.878 195.246C430.474 194.932 430.943 194.509 431.282 193.979C431.622 193.448 431.792 192.848 431.792 192.177V190.151C431.626 190.258 431.398 190.358 431.108 190.449C430.827 190.532 430.508 190.61 430.151 190.685C429.795 190.751 429.439 190.813 429.082 190.871C428.726 190.921 428.403 190.967 428.113 191.008C427.491 191.099 426.949 191.244 426.485 191.443C426.021 191.642 425.66 191.911 425.403 192.251C425.146 192.583 425.018 192.997 425.018 193.494C425.018 194.215 425.279 194.766 425.801 195.147C426.331 195.52 427.003 195.706 427.815 195.706ZM425.354 177.299C424.641 177.299 424.028 177.05 423.514 176.553C423 176.048 422.744 175.451 422.744 174.764C422.744 174.059 423 173.463 423.514 172.974C424.028 172.485 424.641 172.24 425.354 172.24C426.075 172.24 426.684 172.485 427.181 172.974C427.686 173.463 427.939 174.059 427.939 174.764C427.939 175.451 427.686 176.048 427.181 176.553C426.684 177.05 426.075 177.299 425.354 177.299ZM432.96 177.299C432.248 177.299 431.634 177.05 431.121 176.553C430.607 176.048 430.35 175.451 430.35 174.764C430.35 174.059 430.607 173.463 431.121 172.974C431.634 172.485 432.248 172.24 432.96 172.24C433.681 172.24 434.29 172.485 434.787 172.974C435.293 173.463 435.545 174.059 435.545 174.764C435.545 175.451 435.293 176.048 434.787 176.553C434.29 177.05 433.681 177.299 432.96 177.299Z" fill="white"/>
<path d="M453.75 190.871V179.909H459.044V199H453.961V195.532H453.762C453.331 196.651 452.614 197.55 451.612 198.229C450.618 198.909 449.404 199.249 447.97 199.249C446.694 199.249 445.571 198.959 444.602 198.379C443.632 197.799 442.874 196.974 442.327 195.905C441.789 194.836 441.515 193.556 441.507 192.065V179.909H446.802V191.12C446.81 192.247 447.113 193.138 447.709 193.792C448.306 194.447 449.105 194.774 450.108 194.774C450.746 194.774 451.343 194.629 451.898 194.339C452.453 194.041 452.9 193.602 453.24 193.022C453.588 192.442 453.758 191.725 453.75 190.871Z" fill="white"/>
<path d="M463.63 199V179.909H468.676V183.277H468.899C469.297 182.159 469.96 181.276 470.888 180.63C471.816 179.984 472.926 179.661 474.219 179.661C475.528 179.661 476.643 179.988 477.562 180.642C478.482 181.289 479.095 182.167 479.402 183.277H479.601C479.99 182.184 480.695 181.309 481.714 180.655C482.741 179.992 483.955 179.661 485.355 179.661C487.137 179.661 488.583 180.228 489.693 181.363C490.812 182.49 491.371 184.089 491.371 186.161V199H486.089V187.205C486.089 186.144 485.807 185.349 485.244 184.819C484.68 184.288 483.976 184.023 483.131 184.023C482.169 184.023 481.42 184.33 480.881 184.943C480.342 185.548 480.073 186.347 480.073 187.342V199H474.94V187.093C474.94 186.157 474.671 185.411 474.132 184.856C473.602 184.301 472.902 184.023 472.032 184.023C471.443 184.023 470.913 184.172 470.441 184.471C469.977 184.761 469.608 185.171 469.334 185.701C469.061 186.223 468.924 186.836 468.924 187.541V199H463.63Z" fill="white"/>
<path d="M504.604 199.373C502.64 199.373 500.95 198.975 499.533 198.18C498.124 197.376 497.039 196.241 496.276 194.774C495.514 193.299 495.133 191.555 495.133 189.542C495.133 187.578 495.514 185.854 496.276 184.371C497.039 182.888 498.112 181.732 499.495 180.903C500.887 180.075 502.52 179.661 504.392 179.661C505.652 179.661 506.824 179.864 507.91 180.27C509.004 180.667 509.956 181.268 510.768 182.072C511.589 182.876 512.227 183.886 512.683 185.104C513.138 186.314 513.366 187.731 513.366 189.355V190.809H497.246V187.528H508.382C508.382 186.766 508.216 186.09 507.885 185.502C507.553 184.914 507.094 184.454 506.505 184.123C505.925 183.783 505.25 183.613 504.479 183.613C503.676 183.613 502.963 183.799 502.342 184.172C501.728 184.537 501.248 185.03 500.9 185.651C500.552 186.264 500.374 186.948 500.365 187.702V190.822C500.365 191.766 500.539 192.583 500.887 193.27C501.244 193.958 501.745 194.488 502.391 194.861C503.038 195.234 503.804 195.421 504.691 195.421C505.279 195.421 505.818 195.338 506.306 195.172C506.795 195.006 507.214 194.758 507.562 194.426C507.91 194.095 508.175 193.689 508.357 193.208L513.254 193.531C513.006 194.708 512.496 195.735 511.725 196.614C510.963 197.484 509.977 198.163 508.767 198.652C507.566 199.133 506.178 199.373 504.604 199.373Z" fill="white"/>
</g>
<defs>
<clipPath id="clip0_314_11">
<rect width="700" height="700" fill="white"/>
</clipPath>
</defs>
</svg>
